# RawMetal: original asset node control_panel_etx_1
v -0.296999931 0.99000001 0.207900107
vt 0.859999955 0.90049392
v -0.296999931 1.18799996 -0.188099891
vt 1 0.970493913
v -0.296999931 0.792000055 -0.188099936
vt 1 0.830493927
f 1/1 2/2 3/3
v -0.296999931 0.792000055 -0.188099936
vt 1 0.830493927
v -0.296999931 0.791999936 0.207900092
vt 0.859999955 0.830493927
v -0.296999931 0.99000001 0.207900107
vt 0.859999955 0.90049392
f 4/4 5/5 6/6
v 0.29700008 0.792000055 -0.188099936
vt 1 0.830493927
v 0.29700008 1.18799996 -0.188099891
vt 1 0.970493913
v 0.29700008 0.99000001 0.207900107
vt 0.859999955 0.90049392
f 7/7 8/8 9/9
v 0.29700008 0.99000001 0.207900107
vt 0.859999955 0.90049392
v 0.29700008 0.791999936 0.207900092
vt 0.859999955 0.830493927
v 0.29700008 0.792000055 -0.188099936
vt 1 0.830493927
f 10/10 11/11 12/12
v -0.197999939 0.791999996 -0.128699943
vt 1 0
v -0.11879994 1.53422413e-08 -0.128700048
vt 0.699218571 1.86264515e-09
v -0.11879994 -8.26120328e-09 0.0692999959
vt 0.699218631 0.0742187351
f 13/13 14/14 15/15
v -0.11879994 -8.26120328e-09 0.0692999959
vt 0.699218631 0.0742187351
v -0.197999939 0.791999996 0.148500085
vt 0.999999881 0.103906244
v -0.197999939 0.791999996 -0.128699943
vt 1 0
f 16/16 17/17 18/18
v -0.296999931 0.792000055 -0.188099936
vt 0.5703125 0.6796875
v -0.296999931 1.18799996 -0.188099891
vt 0.5703125 0.8203125
v 0.29700008 1.18799996 -0.188099891
vt 0.78125 0.8203125
f 19/19 20/20 21/21
v 0.29700008 1.18799996 -0.188099891
vt 0.78125 0.8203125
v 0.29700008 0.792000055 -0.188099936
vt 0.78125 0.6796875
v -0.296999931 0.792000055 -0.188099936
vt 0.5703125 0.6796875
f 22/22 23/23 24/24
v 0.267300129 1.00328231 0.181335613
vt 0.989499986 0.689203978
v 0.29700008 0.99000001 0.207900107
vt 0.99999994 0.679812491
v 0.29700008 1.18799996 -0.188099891
vt 0.99999994 0.819812477
f 25/25 26/26 27/27
v 0.29700008 1.18799996 -0.188099891
vt 0.99999994 0.819812477
v 0.267300099 1.17471778 -0.161535397
vt 0.989499986 0.81042099
v 0.267300129 1.00328231 0.181335613
vt 0.989499986 0.689203978
f 28/28 29/29 30/30
v -0.277199924 0.811800003 0.207900092
vt 0.578249991 0.827624977
v -0.277199924 0.970199943 0.207900107
vt 0.578249991 0.883624971
v -0.296999931 0.99000001 0.207900107
vt 0.571249962 0.890625
f 31/31 32/32 33/33
v -0.296999931 0.99000001 0.207900107
vt 0.571249962 0.890625
v -0.296999931 0.791999936 0.207900092
vt 0.571249962 0.820625007
v -0.277199924 0.811800003 0.207900092
vt 0.578249991 0.827624977
f 34/34 35/35 36/36
v 0.277200073 0.970199943 0.207900107
vt 0.774249971 0.883624971
v 0.277200073 0.811800003 0.207900092
vt 0.774249971 0.827624977
v 0.29700008 0.791999936 0.207900092
vt 0.78124994 0.820625007
f 37/37 38/38 39/39
v 0.29700008 0.791999936 0.207900092
vt 0.78124994 0.820625007
v 0.29700008 0.99000001 0.207900107
vt 0.78124994 0.890625
v 0.277200073 0.970199943 0.207900107
vt 0.774249971 0.883624971
f 40/40 41/41 42/42
v 0.277200073 0.811800003 0.207900092
vt 0.774249971 0.827624977
v -0.277199924 0.811800003 0.207900092
vt 0.578249991 0.827624977
v -0.296999931 0.791999936 0.207900092
vt 0.571249962 0.820625007
f 43/43 44/44 45/45
v -0.296999931 0.791999936 0.207900092
vt 0.571249962 0.820625007
v 0.29700008 0.791999936 0.207900092
vt 0.78124994 0.820625007
v 0.277200073 0.811800003 0.207900092
vt 0.774249971 0.827624977
f 46/46 47/47 48/48
v -0.277199924 0.970199943 0.207900107
vt 0.578249991 0.883624971
v 0.277200073 0.970199943 0.207900107
vt 0.774249971 0.883624971
v 0.29700008 0.99000001 0.207900107
vt 0.78124994 0.890625
f 49/49 50/50 51/51
v 0.29700008 0.99000001 0.207900107
vt 0.78124994 0.890625
v -0.296999931 0.99000001 0.207900107
vt 0.571249962 0.890625
v -0.277199924 0.970199943 0.207900107
vt 0.578249991 0.883624971
f 52/52 53/53 54/54
v 0.267300069 0.821699977 0.217800096
vt 0.770749986 0.831124961
v 0.267300069 0.960299969 0.217800096
vt 0.770749986 0.880124986
v -0.26729995 0.960299969 0.217800096
vt 0.581749976 0.880124986
f 55/55 56/56 57/57
v -0.26729995 0.960299969 0.217800096
vt 0.581749976 0.880124986
v -0.26729995 0.821699977 0.217800096
vt 0.581749976 0.831124961
v 0.267300069 0.821699977 0.217800096
vt 0.770749986 0.831124961
f 58/58 59/59 60/60
v 0.247500077 1.14815331 -0.152680561
vt 0.982421875 0.80859375
v -0.247499943 1.14815331 -0.152680561
vt 0.80859375 0.80859375
v -0.247499943 0.994427502 0.154771164
vt 0.80859375 0.69921875
f 61/61 62/62 63/63
v -0.247499943 0.994427502 0.154771164
vt 0.80859375 0.69921875
v 0.247500107 0.994427502 0.154771164
vt 0.982421875 0.69921875
v 0.247500077 1.14815331 -0.152680561
vt 0.982421875 0.80859375
f 64/64 65/65 66/66
v -0.26729995 1.00328231 0.181335613
vt 0.800499976 0.689203978
v -0.26729995 1.17471778 -0.161535397
vt 0.800499976 0.81042099
v -0.296999931 1.18799996 -0.188099891
vt 0.789999962 0.819812477
f 67/67 68/68 69/69
v -0.296999931 1.18799996 -0.188099891
vt 0.789999962 0.819812477
v -0.296999931 0.99000001 0.207900107
vt 0.789999962 0.679812491
v -0.26729995 1.00328231 0.181335613
vt 0.800499976 0.689203978
f 70/70 71/71 72/72
v -0.26729995 1.00328231 0.181335613
vt 0.800499976 0.689203978
v -0.296999931 0.99000001 0.207900107
vt 0.789999962 0.679812491
v 0.29700008 0.99000001 0.207900107
vt 0.99999994 0.679812491
f 73/73 74/74 75/75
v 0.29700008 0.99000001 0.207900107
vt 0.99999994 0.679812491
v 0.267300129 1.00328231 0.181335613
vt 0.989499986 0.689203978
v -0.26729995 1.00328231 0.181335613
vt 0.800499976 0.689203978
f 76/76 77/77 78/78
v -0.26729995 1.17471778 -0.161535397
vt 0.800499976 0.81042099
v 0.267300099 1.17471778 -0.161535397
vt 0.989499986 0.81042099
v 0.29700008 1.18799996 -0.188099891
vt 0.99999994 0.819812477
f 79/79 80/80 81/81
v 0.29700008 1.18799996 -0.188099891
vt 0.99999994 0.819812477
v -0.296999931 1.18799996 -0.188099891
vt 0.789999962 0.819812477
v -0.26729995 1.17471778 -0.161535397
vt 0.800499976 0.81042099
f 82/82 83/83 84/84
v -0.247499943 1.14815331 -0.152680561
vt 0.788882196 0.811773837
v -0.26729995 1.17471778 -0.161535397
vt 0.781862736 0.818754315
v -0.26729995 1.00328231 0.181335613
vt 0.782239556 0.683230102
f 85/85 86/86 87/87
v -0.26729995 1.00328231 0.181335613
vt 0.782239556 0.683230102
v -0.247499943 0.994427502 0.154771164
vt 0.789220035 0.690249443
v -0.247499943 1.14815331 -0.152680561
vt 0.788882196 0.811773837
f 88/88 89/89 90/90
v 0.247500077 1.14815331 -0.152680561
vt 0.982499957 0.819600284
v 0.267300099 1.17471778 -0.161535397
vt 0.989499986 0.828991711
v -0.26729995 1.17471778 -0.161535397
vt 0.800499976 0.828991711
f 91/91 92/92 93/93
v -0.26729995 1.17471778 -0.161535397
vt 0.800499976 0.828991711
v -0.247499943 1.14815331 -0.152680561
vt 0.807500005 0.819600284
v 0.247500077 1.14815331 -0.152680561
vt 0.982499957 0.819600284
f 94/94 95/95 96/96
v 0.247500077 1.14815331 -0.152680561
vt 0.788882196 0.811773837
v 0.247500107 0.994427502 0.154771164
vt 0.789220035 0.690249443
v 0.267300129 1.00328231 0.181335613
vt 0.782239556 0.683230102
f 97/97 98/98 99/99
v 0.267300129 1.00328231 0.181335613
vt 0.782239556 0.683230102
v 0.267300099 1.17471778 -0.161535397
vt 0.781862736 0.818754315
v 0.247500077 1.14815331 -0.152680561
vt 0.788882196 0.811773837
f 100/100 101/101 102/102
v 0.247500107 0.994427502 0.154771164
vt 0.982499957 0.698595464
v -0.247499943 0.994427502 0.154771164
vt 0.807500005 0.698595464
v -0.26729995 1.00328231 0.181335613
vt 0.800499976 0.689203978
f 103/103 104/104 105/105
v -0.26729995 1.00328231 0.181335613
vt 0.800499976 0.689203978
v 0.267300129 1.00328231 0.181335613
vt 0.989499986 0.689203978
v 0.247500107 0.994427502 0.154771164
vt 0.982499957 0.698595464
f 106/106 107/107 108/108
v -0.26729995 0.960299969 0.217800096
vt 0.581749976 0.880124986
v -0.277199924 0.970199943 0.207900107
vt 0.578249991 0.883624971
v -0.277199924 0.811800003 0.207900092
vt 0.578249991 0.827624977
f 109/109 110/110 111/111
v -0.277199924 0.811800003 0.207900092
vt 0.578249991 0.827624977
v -0.26729995 0.821699977 0.217800096
vt 0.581749976 0.831124961
v -0.26729995 0.960299969 0.217800096
vt 0.581749976 0.880124986
f 112/112 113/113 114/114
v 0.267300069 0.960299969 0.217800096
vt 0.770749986 0.880124986
v 0.267300069 0.821699977 0.217800096
vt 0.770749986 0.831124961
v 0.277200073 0.811800003 0.207900092
vt 0.774249971 0.827624977
f 115/115 116/116 117/117
v 0.277200073 0.811800003 0.207900092
vt 0.774249971 0.827624977
v 0.277200073 0.970199943 0.207900107
vt 0.774249971 0.883624971
v 0.267300069 0.960299969 0.217800096
vt 0.770749986 0.880124986
f 118/118 119/119 120/120
v -0.277199924 0.811800003 0.207900092
vt 0.578249991 0.827624977
v 0.277200073 0.811800003 0.207900092
vt 0.774249971 0.827624977
v 0.267300069 0.821699977 0.217800096
vt 0.770749986 0.831124961
f 121/121 122/122 123/123
v 0.267300069 0.821699977 0.217800096
vt 0.770749986 0.831124961
v -0.26729995 0.821699977 0.217800096
vt 0.581749976 0.831124961
v -0.277199924 0.811800003 0.207900092
vt 0.578249991 0.827624977
f 124/124 125/125 126/126
v -0.277199924 0.970199943 0.207900107
vt 0.578249991 0.883624971
v -0.26729995 0.960299969 0.217800096
vt 0.581749976 0.880124986
v 0.267300069 0.960299969 0.217800096
vt 0.770749986 0.880124986
f 127/127 128/128 129/129
v 0.267300069 0.960299969 0.217800096
vt 0.770749986 0.880124986
v 0.277200073 0.970199943 0.207900107
vt 0.774249971 0.883624971
v -0.277199924 0.970199943 0.207900107
vt 0.578249991 0.883624971
f 130/130 131/131 132/132
v -0.197999939 0.791999996 0.148500085
vt 0.60546875 0.700781286
v -0.296999931 0.791999936 0.207900092
vt 0.5703125 0.6796875
v -0.296999931 0.792000055 -0.188099936
vt 0.5703125 0.8203125
f 133/133 134/134 135/135
v -0.296999931 0.792000055 -0.188099936
vt 0.5703125 0.8203125
v -0.197999939 0.791999996 -0.128699943
vt 0.60546875 0.799218774
v -0.197999939 0.791999996 0.148500085
vt 0.60546875 0.700781286
f 136/136 137/137 138/138
v -0.197999939 0.791999996 0.148500085
vt 0.60546869 0.700781107
v 0.198000088 0.791999996 0.148500085
vt 0.746093392 0.700780928
v 0.29700008 0.791999936 0.207900092
vt 0.78125 0.6796875
f 139/139 140/140 141/141
v 0.29700008 0.791999936 0.207900092
vt 0.78125 0.6796875
v -0.296999931 0.791999936 0.207900092
vt 0.5703125 0.6796875
v -0.197999939 0.791999996 0.148500085
vt 0.60546869 0.700781107
f 142/142 143/143 144/144
v 0.198000088 0.791999996 -0.128699943
vt 0.74609381 0.799218893
v -0.197999939 0.791999996 -0.128699943
vt 0.60546875 0.799218833
v -0.296999931 0.792000055 -0.188099936
vt 0.5703125 0.8203125
f 145/145 146/146 147/147
v -0.296999931 0.792000055 -0.188099936
vt 0.5703125 0.8203125
v 0.29700008 0.792000055 -0.188099936
vt 0.78125 0.8203125
v 0.198000088 0.791999996 -0.128699943
vt 0.74609381 0.799218893
f 148/148 149/149 150/150
v 0.198000088 0.791999996 0.148500085
vt 0.74609375 0.700781226
v 0.198000088 0.791999996 -0.128699943
vt 0.74609369 0.799218714
v 0.29700008 0.792000055 -0.188099936
vt 0.78125 0.8203125
f 151/151 152/152 153/153
v 0.29700008 0.792000055 -0.188099936
vt 0.78125 0.8203125
v 0.29700008 0.791999936 0.207900092
vt 0.78125 0.6796875
v 0.198000088 0.791999996 0.148500085
vt 0.74609375 0.700781226
f 154/154 155/155 156/156
v -0.11879994 1.53422413e-08 -0.128700048
vt 0.651562512 0.118750006
v 0.118800089 1.53422413e-08 -0.128700048
vt 0.651562512 0.0296875089
v 0.118800089 -8.26120328e-09 0.0692999959
vt 0.577343762 0.0296874996
f 157/157 158/158 159/159
v 0.118800089 -8.26120328e-09 0.0692999959
vt 0.577343762 0.0296874996
v -0.11879994 -8.26120328e-09 0.0692999959
vt 0.577343762 0.118750006
v -0.11879994 1.53422413e-08 -0.128700048
vt 0.651562512 0.118750006
f 160/160 161/161 162/162
v 0.198000088 0.791999996 -0.128699943
vt 1 -1.86264515e-09
v 0.198000088 0.791999996 0.148500085
vt 0.999999881 0.103906251
v 0.118800089 -8.26120328e-09 0.0692999959
vt 0.699218631 0.0742187351
f 163/163 164/164 165/165
v 0.118800089 -8.26120328e-09 0.0692999959
vt 0.699218631 0.0742187351
v 0.118800089 1.53422413e-08 -0.128700048
vt 0.699218571 9.31322575e-10
v 0.198000088 0.791999996 -0.128699943
vt 1 -1.86264515e-09
f 166/166 167/167 168/168
v 0.198000088 0.791999996 0.148500085
vt 0.999257326 1.49011612e-08
v -0.197999939 0.791999996 0.148500085
vt 0.999257326 0.14843753
v -0.11879994 -8.26120328e-09 0.0692999959
vt 0.697726071 0.118749999
f 169/169 170/170 171/171
v -0.11879994 -8.26120328e-09 0.0692999959
vt 0.697726071 0.118749999
v 0.118800089 -8.26120328e-09 0.0692999959
vt 0.697726071 0.0296875071
v 0.198000088 0.791999996 0.148500085
vt 0.999257326 1.49011612e-08
f 172/172 173/173 174/174
v -0.197999939 0.791999996 -0.128699943
vt 1 0.14843753
v 0.198000088 0.791999996 -0.128699943
vt 1 1.49011612e-08
v 0.118800089 1.53422413e-08 -0.128700048
vt 0.69921875 0.0296874978
f 175/175 176/176 177/177
v 0.118800089 1.53422413e-08 -0.128700048
vt 0.69921875 0.0296874978
v -0.11879994 1.53422413e-08 -0.128700048
vt 0.69921875 0.118750006
v -0.197999939 0.791999996 -0.128699943
vt 1 0.14843753
f 178/178 179/179 180/180
v 0.30294019 0.821700215 0.168300137
vt 0.808979511 0.932433009
v 0.30294019 0.821700215 -0.148499876
vt 0.808979452 0.84100455
v 0.30294019 0.960300207 0.168300137
vt 0.848979473 0.932433009
f 181/181 182/182 183/183
v 0.30294019 0.821700215 -0.148499876
vt 0.808979452 0.84100455
v 0.30294019 0.831600189 -0.158399895
vt 0.8118366 0.838147402
v 0.30294019 0.960300207 0.168300137
vt 0.848979473 0.932433009
f 184/184 185/185 186/186
v 0.30294019 0.831600189 -0.158399895
vt 0.8118366 0.838147402
v 0.30294019 0.950400233 -0.158399895
vt 0.846122265 0.838147283
v 0.30294019 0.960300207 -0.148499876
vt 0.848979533 0.841004431
f 187/187 188/188 189/189
v 0.30294019 0.831600189 -0.158399895
vt 0.8118366 0.838147402
v 0.30294019 0.960300207 -0.148499876
vt 0.848979533 0.841004431
v 0.30294019 0.960300207 0.168300137
vt 0.848979473 0.932433009
f 190/190 191/191 192/192
v 0.30294019 0.950400233 0.178200126
vt 0.846122324 0.935290098
v 0.30294019 0.831600189 0.178200126
vt 0.8118366 0.935290217
v 0.30294019 0.960300207 0.168300137
vt 0.848979473 0.932433009
f 193/193 194/194 195/195
v 0.30294019 0.831600189 0.178200126
vt 0.8118366 0.935290217
v 0.30294019 0.821700215 0.168300137
vt 0.808979511 0.932433009
v 0.30294019 0.960300207 0.168300137
vt 0.848979473 0.932433009
f 196/196 197/197 198/198
v 0.2970002 0.831600189 -0.158399895
vt 0.8118366 0.884433031
v 0.2970002 0.950400233 -0.158399895
vt 0.846122324 0.884433031
v 0.30294019 0.950400233 -0.158399895
vt 0.846122324 0.88614732
f 199/199 200/200 201/201
v 0.30294019 0.950400233 -0.158399895
vt 0.846122324 0.88614732
v 0.30294019 0.831600189 -0.158399895
vt 0.8118366 0.88614732
v 0.2970002 0.831600189 -0.158399895
vt 0.8118366 0.884433031
f 202/202 203/203 204/204
v 0.2970002 0.960300207 -0.148499876
vt 0.831265211 0.841004431
v 0.2970002 0.960300207 0.168300137
vt 0.831265271 0.932433128
v 0.30294019 0.960300207 0.168300137
vt 0.829550922 0.932433128
f 205/205 206/206 207/207
v 0.30294019 0.960300207 0.168300137
vt 0.829550922 0.932433128
v 0.30294019 0.960300207 -0.148499876
vt 0.829550922 0.841004372
v 0.2970002 0.960300207 -0.148499876
vt 0.831265211 0.841004431
f 208/208 209/209 210/210
v 0.30294019 0.831600189 0.178200126
vt 0.8118366 0.88614732
v 0.30294019 0.950400233 0.178200126
vt 0.846122324 0.88614732
v 0.2970002 0.950400233 0.178200126
vt 0.846122324 0.884433031
f 211/211 212/212 213/213
v 0.2970002 0.950400233 0.178200126
vt 0.846122324 0.884433031
v 0.2970002 0.831600189 0.178200126
vt 0.8118366 0.884433031
v 0.30294019 0.831600189 0.178200126
vt 0.8118366 0.88614732
f 214/214 215/215 216/216
v 0.2970002 0.821700215 0.168300137
vt 0.823265016 0.884432912
v 0.30294019 0.821700215 0.168300137
vt 0.823265195 0.886147261
v 0.30294019 0.831600189 0.178200126
vt 0.826122105 0.886147499
f 217/217 218/218 219/219
v 0.30294019 0.831600189 0.178200126
vt 0.826122105 0.886147499
v 0.2970002 0.831600189 0.178200126
vt 0.826122224 0.88443327
v 0.2970002 0.821700215 0.168300137
vt 0.823265016 0.884432912
f 220/220 221/221 222/222
v 0.30294019 0.960300207 0.168300137
vt 0.829550862 0.918147206
v 0.2970002 0.960300207 0.168300137
vt 0.831265211 0.918147206
v 0.2970002 0.950400233 0.178200126
vt 0.831265211 0.921004176
f 223/223 224/224 225/225
v 0.2970002 0.950400233 0.178200126
vt 0.831265211 0.921004176
v 0.30294019 0.950400233 0.178200126
vt 0.829550982 0.921004057
v 0.30294019 0.960300207 0.168300137
vt 0.829550862 0.918147206
f 226/226 227/227 228/228
v 0.30294019 0.821700215 -0.148499876
vt 0.823265076 0.886147499
v 0.2970002 0.821700215 -0.148499876
vt 0.823265016 0.884433031
v 0.2970002 0.831600189 -0.158399895
vt 0.826122284 0.88443315
f 229/229 230/230 231/231
v 0.2970002 0.831600189 -0.158399895
vt 0.826122284 0.88443315
v 0.30294019 0.831600189 -0.158399895
vt 0.826122344 0.886147141
v 0.30294019 0.821700215 -0.148499876
vt 0.823265076 0.886147499
f 232/232 233/233 234/234
v 0.2970002 0.960300207 -0.148499876
vt 0.831265152 0.855290294
v 0.30294019 0.960300207 -0.148499876
vt 0.829550922 0.855290413
v 0.30294019 0.950400233 -0.158399895
vt 0.829550982 0.852433205
f 235/235 236/236 237/237
v 0.30294019 0.950400233 -0.158399895
vt 0.829550982 0.852433205
v 0.2970002 0.950400233 -0.158399895
vt 0.83126533 0.852433205
v 0.2970002 0.960300207 -0.148499876
vt 0.831265152 0.855290294
f 238/238 239/239 240/240
v 0.2970002 0.821700215 0.168300137
vt 0.831265211 0.932433128
v 0.2970002 0.821700215 -0.148499876
vt 0.831265271 0.841004372
v 0.30294019 0.821700215 -0.148499876
vt 0.829550982 0.841004372
f 241/241 242/242 243/243
v 0.30294019 0.821700215 -0.148499876
vt 0.829550982 0.841004372
v 0.30294019 0.821700215 0.168300137
vt 0.829550862 0.932433128
v 0.2970002 0.821700215 0.168300137
vt 0.831265211 0.932433128
f 244/244 245/245 246/246
v 0.312840223 0.831600189 0.158400148
vt 0.8118366 0.915290475
v 0.30294022 0.851400197 0.168300137
vt 0.817550898 0.918147683
v 0.30294022 0.831600189 0.168300137
vt 0.8118366 0.918147683
f 247/247 248/248 249/249
v 0.30294022 0.831600189 -0.148499861
vt 0.8118366 0.855290174
v 0.30294022 0.851400197 -0.148499861
vt 0.817550898 0.855290174
v 0.312840223 0.831600189 -0.138599873
vt 0.8118366 0.858147323
f 250/250 251/251 252/252
v 0.30294022 0.831600189 0.168300137
vt 0.829550922 0.932433009
v 0.30294022 0.831600189 -0.148499861
vt 0.829550922 0.841004491
v 0.312840223 0.831600189 -0.138599873
vt 0.826693773 0.843861639
f 253/253 254/254 255/255
v 0.312840223 0.831600189 -0.138599873
vt 0.826693773 0.843861639
v 0.312840223 0.831600189 0.158400148
vt 0.826693773 0.92957592
v 0.30294022 0.831600189 0.168300137
vt 0.829550922 0.932433009
f 256/256 257/257 258/258
v 0.30294022 0.851400197 -0.148499861
vt 0.817550898 0.84100455
v 0.30294022 0.851400197 0.168300137
vt 0.817550898 0.932433128
v 0.312840223 0.831600189 0.158400148
vt 0.8118366 0.92957592
f 259/259 260/260 261/261
v 0.312840223 0.831600189 0.158400148
vt 0.8118366 0.92957592
v 0.312840223 0.831600189 -0.138599873
vt 0.8118366 0.843861639
v 0.30294022 0.851400197 -0.148499861
vt 0.817550898 0.84100455
f 262/262 263/263 264/264
v 0.312840223 0.930600107 0.158400148
vt 0.840408027 0.915290475
v 0.30294022 0.950400114 0.168300137
vt 0.846122324 0.918147683
v 0.30294022 0.930600107 0.168300137
vt 0.840408027 0.918147683
f 265/265 266/266 267/267
v 0.30294022 0.930600107 -0.148499861
vt 0.840408027 0.855290115
v 0.30294022 0.950400114 -0.148499861
vt 0.846122324 0.855290174
v 0.312840223 0.930600107 -0.138599873
vt 0.840408027 0.858147264
f 268/268 269/269 270/270
v 0.30294022 0.930600107 0.168300137
vt 0.829550922 0.932433009
v 0.30294022 0.930600107 -0.148499861
vt 0.829550922 0.841004491
v 0.312840223 0.930600107 -0.138599873
vt 0.826693773 0.843861639
f 271/271 272/272 273/273
v 0.312840223 0.930600107 -0.138599873
vt 0.826693773 0.843861639
v 0.312840223 0.930600107 0.158400148
vt 0.826693773 0.92957592
v 0.30294022 0.930600107 0.168300137
vt 0.829550922 0.932433009
f 274/274 275/275 276/276
v 0.30294022 0.950400114 -0.148499861
vt 0.846122324 0.841004491
v 0.30294022 0.950400114 0.168300137
vt 0.846122324 0.932433128
v 0.312840223 0.930600107 0.158400148
vt 0.840408027 0.92957592
f 277/277 278/278 279/279
v 0.312840223 0.930600107 0.158400148
vt 0.840408027 0.92957592
v 0.312840223 0.930600107 -0.138599873
vt 0.840408027 0.843861639
v 0.30294022 0.950400114 -0.148499861
vt 0.846122324 0.841004491
f 280/280 281/281 282/282
v 0.312840223 0.910800159 0.158400148
vt 0.834693789 0.915290475
v 0.30294022 0.930600107 0.168300137
vt 0.840408027 0.918147683
v 0.30294022 0.910800159 0.168300137
vt 0.834693789 0.918147683
f 283/283 284/284 285/285
v 0.30294022 0.910800159 -0.148499861
vt 0.834693789 0.855290174
v 0.30294022 0.930600107 -0.148499861
vt 0.840408027 0.855290115
v 0.312840223 0.910800159 -0.138599873
vt 0.834693789 0.858147383
f 286/286 287/287 288/288
v 0.30294022 0.910800159 0.168300137
vt 0.829550922 0.932433009
v 0.30294022 0.910800159 -0.148499861
vt 0.829550922 0.841004491
v 0.312840223 0.910800159 -0.138599873
vt 0.826693773 0.843861639
f 289/289 290/290 291/291
v 0.312840223 0.910800159 -0.138599873
vt 0.826693773 0.843861639
v 0.312840223 0.910800159 0.158400148
vt 0.826693773 0.92957592
v 0.30294022 0.910800159 0.168300137
vt 0.829550922 0.932433009
f 292/292 293/293 294/294
v 0.30294022 0.930600107 -0.148499861
vt 0.840408027 0.841004491
v 0.30294022 0.930600107 0.168300137
vt 0.840408027 0.932433128
v 0.312840223 0.910800159 0.158400148
vt 0.834693789 0.92957592
f 295/295 296/296 297/297
v 0.312840223 0.910800159 0.158400148
vt 0.834693789 0.92957592
v 0.312840223 0.910800159 -0.138599873
vt 0.834693789 0.843861639
v 0.30294022 0.930600107 -0.148499861
vt 0.840408027 0.841004491
f 298/298 299/299 300/300
v 0.312840223 0.891000152 0.158400148
vt 0.828979492 0.915290475
v 0.30294022 0.910800159 0.168300137
vt 0.834693789 0.918147683
v 0.30294022 0.891000152 0.168300137
vt 0.828979492 0.918147683
f 301/301 302/302 303/303
v 0.30294022 0.891000152 -0.148499861
vt 0.828979492 0.855290174
v 0.30294022 0.910800159 -0.148499861
vt 0.83469373 0.855290115
v 0.312840223 0.891000152 -0.138599873
vt 0.828979492 0.858147323
f 304/304 305/305 306/306
v 0.30294022 0.891000152 0.168300137
vt 0.829550922 0.932433009
v 0.30294022 0.891000152 -0.148499861
vt 0.829550922 0.841004491
v 0.312840223 0.891000152 -0.138599873
vt 0.826693773 0.843861639
f 307/307 308/308 309/309
v 0.312840223 0.891000152 -0.138599873
vt 0.826693773 0.843861639
v 0.312840223 0.891000152 0.158400148
vt 0.826693773 0.92957592
v 0.30294022 0.891000152 0.168300137
vt 0.829550922 0.932433009
f 310/310 311/311 312/312
v 0.30294022 0.910800159 -0.148499861
vt 0.834693789 0.841004491
v 0.30294022 0.910800159 0.168300137
vt 0.834693789 0.932433128
v 0.312840223 0.891000152 0.158400148
vt 0.828979492 0.92957592
f 313/313 314/314 315/315
v 0.312840223 0.891000152 0.158400148
vt 0.828979492 0.92957592
v 0.312840223 0.891000152 -0.138599873
vt 0.828979492 0.843861639
v 0.30294022 0.910800159 -0.148499861
vt 0.834693789 0.841004491
f 316/316 317/317 318/318
v 0.312840223 0.871200204 0.158400148
vt 0.823265195 0.915290475
v 0.30294022 0.891000152 0.168300137
vt 0.828979492 0.918147683
v 0.30294022 0.871200204 0.168300137
vt 0.823265195 0.918147683
f 319/319 320/320 321/321
v 0.30294022 0.871200204 -0.148499861
vt 0.823265195 0.855290174
v 0.30294022 0.891000152 -0.148499861
vt 0.828979492 0.855290115
v 0.312840223 0.871200204 -0.138599873
vt 0.823265195 0.858147323
f 322/322 323/323 324/324
v 0.30294022 0.871200204 0.168300137
vt 0.829550922 0.932433009
v 0.30294022 0.871200204 -0.148499861
vt 0.829550922 0.841004491
v 0.312840223 0.871200204 -0.138599873
vt 0.826693773 0.843861639
f 325/325 326/326 327/327
v 0.312840223 0.871200204 -0.138599873
vt 0.826693773 0.843861639
v 0.312840223 0.871200204 0.158400148
vt 0.826693773 0.92957592
v 0.30294022 0.871200204 0.168300137
vt 0.829550922 0.932433009
f 328/328 329/329 330/330
v 0.30294022 0.891000152 -0.148499861
vt 0.828979492 0.841004491
v 0.30294022 0.891000152 0.168300137
vt 0.828979492 0.932433128
v 0.312840223 0.871200204 0.158400148
vt 0.823265195 0.92957592
f 331/331 332/332 333/333
v 0.312840223 0.871200204 0.158400148
vt 0.823265195 0.92957592
v 0.312840223 0.871200204 -0.138599873
vt 0.823265195 0.843861639
v 0.30294022 0.891000152 -0.148499861
vt 0.828979492 0.841004491
f 334/334 335/335 336/336
v 0.312840223 0.851400197 0.158400148
vt 0.817550898 0.915290475
v 0.30294022 0.871200204 0.168300137
vt 0.823265195 0.918147683
v 0.30294022 0.851400197 0.168300137
vt 0.817550898 0.918147683
f 337/337 338/338 339/339
v 0.30294022 0.851400197 -0.148499861
vt 0.817550898 0.855290115
v 0.30294022 0.871200204 -0.148499861
vt 0.823265195 0.855290174
v 0.312840223 0.851400197 -0.138599873
vt 0.817550898 0.858147264
f 340/340 341/341 342/342
v 0.30294022 0.851400197 0.168300137
vt 0.829550922 0.932433009
v 0.30294022 0.851400197 -0.148499861
vt 0.829550922 0.841004491
v 0.312840223 0.851400197 -0.138599873
vt 0.826693773 0.843861639
f 343/343 344/344 345/345
v 0.312840223 0.851400197 -0.138599873
vt 0.826693773 0.843861639
v 0.312840223 0.851400197 0.158400148
vt 0.826693773 0.92957592
v 0.30294022 0.851400197 0.168300137
vt 0.829550922 0.932433009
f 346/346 347/347 348/348
v 0.30294022 0.871200204 0.168300137
vt 0.823265195 0.932433128
v 0.312840223 0.851400197 0.158400148
vt 0.817550898 0.92957592
v 0.312840223 0.851400197 -0.138599873
vt 0.817550898 0.843861639
f 349/349 350/350 351/351
v 0.312840223 0.851400197 -0.138599873
vt 0.817550898 0.843861639
v 0.30294022 0.871200204 -0.148499861
vt 0.823265195 0.84100455
v 0.30294022 0.871200204 0.168300137
vt 0.823265195 0.932433128
f 352/352 353/353 354/354
v -0.302939713 0.821700215 -0.148499921
vt 0.808979511 0.932433009
v -0.302939713 0.821700215 0.168300077
vt 0.808979452 0.84100455
v -0.302939713 0.950400233 0.178200066
vt 0.846122265 0.838147283
f 355/355 356/356 357/357
v -0.302939713 0.821700215 0.168300077
vt 0.808979452 0.84100455
v -0.302939713 0.831600189 0.178200066
vt 0.8118366 0.838147402
v -0.302939713 0.950400233 0.178200066
vt 0.846122265 0.838147283
f 358/358 359/359 360/360
v -0.302939713 0.821700215 -0.148499921
vt 0.808979511 0.932433009
v -0.302939713 0.950400233 0.178200066
vt 0.846122265 0.838147283
v -0.302939713 0.960300207 0.168300077
vt 0.848979533 0.841004431
f 361/361 362/362 363/363
v -0.302939713 0.821700215 -0.148499921
vt 0.808979511 0.932433009
v -0.302939713 0.960300207 0.168300077
vt 0.848979533 0.841004431
v -0.302939713 0.960300207 -0.148499921
vt 0.848979473 0.932433009
f 364/364 365/365 366/366
v -0.302939713 0.821700215 -0.148499921
vt 0.808979511 0.932433009
v -0.302939713 0.960300207 -0.148499921
vt 0.848979473 0.932433009
v -0.302939713 0.950400233 -0.15839994
vt 0.846122324 0.935290098
f 367/367 368/368 369/369
v -0.302939713 0.831600189 -0.15839994
vt 0.8118366 0.935290217
v -0.302939713 0.821700215 -0.148499921
vt 0.808979511 0.932433009
v -0.302939713 0.950400233 -0.15839994
vt 0.846122324 0.935290098
f 370/370 371/371 372/372
v -0.296999723 0.831600189 0.178200066
vt 0.8118366 0.884433031
v -0.296999723 0.950400233 0.178200066
vt 0.846122324 0.884433031
v -0.302939713 0.950400233 0.178200066
vt 0.846122324 0.88614732
f 373/373 374/374 375/375
v -0.302939713 0.950400233 0.178200066
vt 0.846122324 0.88614732
v -0.302939713 0.831600189 0.178200066
vt 0.8118366 0.88614732
v -0.296999723 0.831600189 0.178200066
vt 0.8118366 0.884433031
f 376/376 377/377 378/378
v -0.296999723 0.960300207 0.168300077
vt 0.831265211 0.841004431
v -0.296999723 0.960300207 -0.148499921
vt 0.831265271 0.932433128
v -0.302939713 0.960300207 -0.148499921
vt 0.829550922 0.932433128
f 379/379 380/380 381/381
v -0.302939713 0.960300207 -0.148499921
vt 0.829550922 0.932433128
v -0.302939713 0.960300207 0.168300077
vt 0.829550922 0.841004372
v -0.296999723 0.960300207 0.168300077
vt 0.831265211 0.841004431
f 382/382 383/383 384/384
v -0.302939713 0.831600189 -0.15839994
vt 0.8118366 0.88614732
v -0.302939713 0.950400233 -0.15839994
vt 0.846122324 0.88614732
v -0.296999723 0.950400233 -0.15839994
vt 0.846122324 0.884433031
f 385/385 386/386 387/387
v -0.296999723 0.950400233 -0.15839994
vt 0.846122324 0.884433031
v -0.296999723 0.831600189 -0.15839994
vt 0.8118366 0.884433031
v -0.302939713 0.831600189 -0.15839994
vt 0.8118366 0.88614732
f 388/388 389/389 390/390
v -0.296999723 0.821700215 -0.148499921
vt 0.823265016 0.884432912
v -0.302939713 0.821700215 -0.148499921
vt 0.823265195 0.886147261
v -0.302939713 0.831600189 -0.15839994
vt 0.826122105 0.886147499
f 391/391 392/392 393/393
v -0.302939713 0.831600189 -0.15839994
vt 0.826122105 0.886147499
v -0.296999723 0.831600189 -0.15839994
vt 0.826122224 0.88443327
v -0.296999723 0.821700215 -0.148499921
vt 0.823265016 0.884432912
f 394/394 395/395 396/396
v -0.302939713 0.960300207 -0.148499921
vt 0.829550862 0.918147206
v -0.296999723 0.960300207 -0.148499921
vt 0.831265211 0.918147206
v -0.296999723 0.950400233 -0.15839994
vt 0.831265211 0.921004176
f 397/397 398/398 399/399
v -0.296999723 0.950400233 -0.15839994
vt 0.831265211 0.921004176
v -0.302939713 0.950400233 -0.15839994
vt 0.829550982 0.921004057
v -0.302939713 0.960300207 -0.148499921
vt 0.829550862 0.918147206
f 400/400 401/401 402/402
v -0.302939713 0.821700215 0.168300077
vt 0.823265076 0.886147499
v -0.296999723 0.821700215 0.168300077
vt 0.823265016 0.884433031
v -0.296999723 0.831600189 0.178200066
vt 0.826122284 0.88443315
f 403/403 404/404 405/405
v -0.296999723 0.831600189 0.178200066
vt 0.826122284 0.88443315
v -0.302939713 0.831600189 0.178200066
vt 0.826122344 0.886147141
v -0.302939713 0.821700215 0.168300077
vt 0.823265076 0.886147499
f 406/406 407/407 408/408
v -0.296999723 0.960300207 0.168300077
vt 0.831265152 0.855290294
v -0.302939713 0.960300207 0.168300077
vt 0.829550922 0.855290413
v -0.302939713 0.950400233 0.178200066
vt 0.829550982 0.852433205
f 409/409 410/410 411/411
v -0.302939713 0.950400233 0.178200066
vt 0.829550982 0.852433205
v -0.296999723 0.950400233 0.178200066
vt 0.83126533 0.852433205
v -0.296999723 0.960300207 0.168300077
vt 0.831265152 0.855290294
f 412/412 413/413 414/414
v -0.296999723 0.821700215 -0.148499921
vt 0.831265211 0.932433128
v -0.296999723 0.821700215 0.168300077
vt 0.831265271 0.841004372
v -0.302939713 0.821700215 0.168300077
vt 0.829550982 0.841004372
f 415/415 416/416 417/417
v -0.302939713 0.821700215 0.168300077
vt 0.829550982 0.841004372
v -0.302939713 0.821700215 -0.148499921
vt 0.829550862 0.932433128
v -0.296999723 0.821700215 -0.148499921
vt 0.831265211 0.932433128
f 418/418 419/419 420/420
v -0.312839746 0.831600189 -0.138599947
vt 0.8118366 0.915290475
v -0.302939743 0.851400197 -0.148499936
vt 0.817550898 0.918147683
v -0.302939743 0.831600189 -0.148499936
vt 0.8118366 0.918147683
f 421/421 422/422 423/423
v -0.302939713 0.831600189 0.168300077
vt 0.8118366 0.855290174
v -0.302939713 0.851400197 0.168300077
vt 0.817550898 0.855290174
v -0.312839746 0.831600189 0.158400089
vt 0.8118366 0.858147323
f 424/424 425/425 426/426
v -0.302939743 0.831600189 -0.148499936
vt 0.829550922 0.932433009
v -0.302939713 0.831600189 0.168300077
vt 0.829550922 0.841004491
v -0.312839746 0.831600189 0.158400089
vt 0.826693773 0.843861639
f 427/427 428/428 429/429
v -0.312839746 0.831600189 0.158400089
vt 0.826693773 0.843861639
v -0.312839746 0.831600189 -0.138599947
vt 0.826693773 0.92957592
v -0.302939743 0.831600189 -0.148499936
vt 0.829550922 0.932433009
f 430/430 431/431 432/432
v -0.302939743 0.851400197 -0.148499936
vt 0.817550898 0.932433128
v -0.312839746 0.831600189 -0.138599947
vt 0.8118366 0.92957592
v -0.312839746 0.831600189 0.158400089
vt 0.8118366 0.843861639
f 433/433 434/434 435/435
v -0.312839746 0.831600189 0.158400089
vt 0.8118366 0.843861639
v -0.302939713 0.851400197 0.168300077
vt 0.817550898 0.84100455
v -0.302939743 0.851400197 -0.148499936
vt 0.817550898 0.932433128
f 436/436 437/437 438/438
v -0.312839746 0.930600107 -0.138599947
vt 0.840408027 0.915290475
v -0.302939743 0.950400114 -0.148499936
vt 0.846122324 0.918147683
v -0.302939743 0.930600107 -0.148499936
vt 0.840408027 0.918147683
f 439/439 440/440 441/441
v -0.302939713 0.930600107 0.168300077
vt 0.840408027 0.855290115
v -0.302939713 0.950400114 0.168300077
vt 0.846122324 0.855290174
v -0.312839746 0.930600107 0.158400089
vt 0.840408027 0.858147264
f 442/442 443/443 444/444
v -0.302939743 0.930600107 -0.148499936
vt 0.829550922 0.932433009
v -0.302939713 0.930600107 0.168300077
vt 0.829550922 0.841004491
v -0.312839746 0.930600107 0.158400089
vt 0.826693773 0.843861639
f 445/445 446/446 447/447
v -0.312839746 0.930600107 0.158400089
vt 0.826693773 0.843861639
v -0.312839746 0.930600107 -0.138599947
vt 0.826693773 0.92957592
v -0.302939743 0.930600107 -0.148499936
vt 0.829550922 0.932433009
f 448/448 449/449 450/450
v -0.302939743 0.950400114 -0.148499936
vt 0.846122324 0.932433128
v -0.312839746 0.930600107 -0.138599947
vt 0.840408027 0.92957592
v -0.312839746 0.930600107 0.158400089
vt 0.840408027 0.843861639
f 451/451 452/452 453/453
v -0.312839746 0.930600107 0.158400089
vt 0.840408027 0.843861639
v -0.302939713 0.950400114 0.168300077
vt 0.846122324 0.841004491
v -0.302939743 0.950400114 -0.148499936
vt 0.846122324 0.932433128
f 454/454 455/455 456/456
v -0.312839746 0.910800159 -0.138599947
vt 0.834693789 0.915290475
v -0.302939743 0.930600107 -0.148499936
vt 0.840408027 0.918147683
v -0.302939743 0.910800159 -0.148499936
vt 0.834693789 0.918147683
f 457/457 458/458 459/459
v -0.302939713 0.910800159 0.168300077
vt 0.834693789 0.855290174
v -0.302939713 0.930600107 0.168300077
vt 0.840408027 0.855290115
v -0.312839746 0.910800159 0.158400089
vt 0.834693789 0.858147383
f 460/460 461/461 462/462
v -0.302939743 0.910800159 -0.148499936
vt 0.829550922 0.932433009
v -0.302939713 0.910800159 0.168300077
vt 0.829550922 0.841004491
v -0.312839746 0.910800159 0.158400089
vt 0.826693773 0.843861639
f 463/463 464/464 465/465
v -0.312839746 0.910800159 0.158400089
vt 0.826693773 0.843861639
v -0.312839746 0.910800159 -0.138599947
vt 0.826693773 0.92957592
v -0.302939743 0.910800159 -0.148499936
vt 0.829550922 0.932433009
f 466/466 467/467 468/468
v -0.302939743 0.930600107 -0.148499936
vt 0.840408027 0.932433128
v -0.312839746 0.910800159 -0.138599947
vt 0.834693789 0.92957592
v -0.312839746 0.910800159 0.158400089
vt 0.834693789 0.843861639
f 469/469 470/470 471/471
v -0.312839746 0.910800159 0.158400089
vt 0.834693789 0.843861639
v -0.302939713 0.930600107 0.168300077
vt 0.840408027 0.841004491
v -0.302939743 0.930600107 -0.148499936
vt 0.840408027 0.932433128
f 472/472 473/473 474/474
v -0.312839746 0.891000152 -0.138599947
vt 0.828979492 0.915290475
v -0.302939743 0.910800159 -0.148499936
vt 0.834693789 0.918147683
v -0.302939743 0.891000152 -0.148499936
vt 0.828979492 0.918147683
f 475/475 476/476 477/477
v -0.302939713 0.891000152 0.168300077
vt 0.828979492 0.855290174
v -0.302939713 0.910800159 0.168300077
vt 0.83469373 0.855290115
v -0.312839746 0.891000152 0.158400089
vt 0.828979492 0.858147323
f 478/478 479/479 480/480
v -0.302939743 0.891000152 -0.148499936
vt 0.829550922 0.932433009
v -0.302939713 0.891000152 0.168300077
vt 0.829550922 0.841004491
v -0.312839746 0.891000152 0.158400089
vt 0.826693773 0.843861639
f 481/481 482/482 483/483
v -0.312839746 0.891000152 0.158400089
vt 0.826693773 0.843861639
v -0.312839746 0.891000152 -0.138599947
vt 0.826693773 0.92957592
v -0.302939743 0.891000152 -0.148499936
vt 0.829550922 0.932433009
f 484/484 485/485 486/486
v -0.302939743 0.910800159 -0.148499936
vt 0.834693789 0.932433128
v -0.312839746 0.891000152 -0.138599947
vt 0.828979492 0.92957592
v -0.312839746 0.891000152 0.158400089
vt 0.828979492 0.843861639
f 487/487 488/488 489/489
v -0.312839746 0.891000152 0.158400089
vt 0.828979492 0.843861639
v -0.302939713 0.910800159 0.168300077
vt 0.834693789 0.841004491
v -0.302939743 0.910800159 -0.148499936
vt 0.834693789 0.932433128
f 490/490 491/491 492/492
v -0.312839746 0.871200204 -0.138599947
vt 0.823265195 0.915290475
v -0.302939743 0.891000152 -0.148499936
vt 0.828979492 0.918147683
v -0.302939743 0.871200204 -0.148499936
vt 0.823265195 0.918147683
f 493/493 494/494 495/495
v -0.302939713 0.871200204 0.168300077
vt 0.823265195 0.855290174
v -0.302939713 0.891000152 0.168300077
vt 0.828979492 0.855290115
v -0.312839746 0.871200204 0.158400089
vt 0.823265195 0.858147323
f 496/496 497/497 498/498
v -0.302939743 0.871200204 -0.148499936
vt 0.829550922 0.932433009
v -0.302939713 0.871200204 0.168300077
vt 0.829550922 0.841004491
v -0.312839746 0.871200204 0.158400089
vt 0.826693773 0.843861639
f 499/499 500/500 501/501
v -0.312839746 0.871200204 0.158400089
vt 0.826693773 0.843861639
v -0.312839746 0.871200204 -0.138599947
vt 0.826693773 0.92957592
v -0.302939743 0.871200204 -0.148499936
vt 0.829550922 0.932433009
f 502/502 503/503 504/504
v -0.302939743 0.891000152 -0.148499936
vt 0.828979492 0.932433128
v -0.312839746 0.871200204 -0.138599947
vt 0.823265195 0.92957592
v -0.312839746 0.871200204 0.158400089
vt 0.823265195 0.843861639
f 505/505 506/506 507/507
v -0.312839746 0.871200204 0.158400089
vt 0.823265195 0.843861639
v -0.302939713 0.891000152 0.168300077
vt 0.828979492 0.841004491
v -0.302939743 0.891000152 -0.148499936
vt 0.828979492 0.932433128
f 508/508 509/509 510/510
v -0.312839746 0.851400197 -0.138599947
vt 0.817550898 0.915290475
v -0.302939743 0.871200204 -0.148499936
vt 0.823265195 0.918147683
v -0.302939743 0.851400197 -0.148499936
vt 0.817550898 0.918147683
f 511/511 512/512 513/513
v -0.302939713 0.851400197 0.168300077
vt 0.817550898 0.855290115
v -0.302939713 0.871200204 0.168300077
vt 0.823265195 0.855290174
v -0.312839746 0.851400197 0.158400089
vt 0.817550898 0.858147264
f 514/514 515/515 516/516
v -0.302939743 0.851400197 -0.148499936
vt 0.829550922 0.932433009
v -0.302939713 0.851400197 0.168300077
vt 0.829550922 0.841004491
v -0.312839746 0.851400197 0.158400089
vt 0.826693773 0.843861639
f 517/517 518/518 519/519
v -0.312839746 0.851400197 0.158400089
vt 0.826693773 0.843861639
v -0.312839746 0.851400197 -0.138599947
vt 0.826693773 0.92957592
v -0.302939743 0.851400197 -0.148499936
vt 0.829550922 0.932433009
f 520/520 521/521 522/522
v -0.302939713 0.871200204 0.168300077
vt 0.823265195 0.84100455
v -0.302939743 0.871200204 -0.148499936
vt 0.823265195 0.932433128
v -0.312839746 0.851400197 -0.138599947
vt 0.817550898 0.92957592
f 523/523 524/524 525/525
v -0.312839746 0.851400197 -0.138599947
vt 0.817550898 0.92957592
v -0.312839746 0.851400197 0.158400089
vt 0.817550898 0.843861639
v -0.302939713 0.871200204 0.168300077
vt 0.823265195 0.84100455
f 526/526 527/527 528/528
v -0.229001001 0.886429608 0.223047137
vt 0.438013643 0.190892607
v -0.229447201 0.896649003 0.223047137
vt 0.443359375 0.19310686
v -0.247208297 0.903113484 0.223047137
vt 0.45091939 0.185546875
f 529/529 530/530 531/531
v -0.229447201 0.896649003 0.223047137
vt 0.443359375 0.19310686
v -0.236988917 0.903559744 0.223047137
vt 0.448705107 0.190892607
v -0.247208297 0.903113484 0.223047137
vt 0.45091939 0.185546875
f 532/532 533/533 534/534
v -0.246131122 0.878441691 0.223047137
vt 0.438013643 0.180201143
v -0.247208297 0.903113484 0.223047137
vt 0.45091939 0.185546875
v -0.254119009 0.895571828 0.223047137
vt 0.448705107 0.180201143
f 535/535 536/536 537/537
v -0.253672779 0.885352433 0.223047137
vt 0.443359375 0.17798689
v -0.246131122 0.878441691 0.223047137
vt 0.438013643 0.180201143
v -0.254119009 0.895571828 0.223047137
vt 0.448705107 0.180201143
f 538/538 539/539 540/540
v -0.246131122 0.878441691 0.223047137
vt 0.438013643 0.180201143
v -0.235911712 0.878887951 0.223047137
vt 0.43579939 0.185546875
v -0.247208297 0.903113484 0.223047137
vt 0.45091939 0.185546875
f 541/541 542/542 543/543
v -0.235911712 0.878887951 0.223047137
vt 0.43579939 0.185546875
v -0.229001001 0.886429608 0.223047137
vt 0.438013643 0.190892607
v -0.247208297 0.903113484 0.223047137
vt 0.45091939 0.185546875
f 544/544 545/545 546/546
v -0.229447201 0.896649003 0.217701137
vt 0.456573427 0.185546875
v -0.229447201 0.896649003 0.223047137
vt 0.453549445 0.185546875
v -0.229001001 0.886429608 0.223047137
vt 0.453549445 0.180201143
f 547/547 548/548 549/549
v -0.229001001 0.886429608 0.223047137
vt 0.453549445 0.180201143
v -0.229001001 0.886429608 0.217701137
vt 0.456573427 0.180201143
v -0.229447201 0.896649003 0.217701137
vt 0.456573427 0.185546875
f 550/550 551/551 552/552
v -0.229001001 0.886429608 0.217701137
vt 0.456573427 0.190892607
v -0.229001001 0.886429608 0.223047137
vt 0.453549445 0.190892607
v -0.235911712 0.878887951 0.223047137
vt 0.453549445 0.185546875
f 553/553 554/554 555/555
v -0.235911712 0.878887951 0.223047137
vt 0.453549445 0.185546875
v -0.235911712 0.878887951 0.217701137
vt 0.456573427 0.185546875
v -0.229001001 0.886429608 0.217701137
vt 0.456573427 0.190892607
f 556/556 557/557 558/558
v -0.229447201 0.896649003 0.223047137
vt 0.453549445 0.185546875
v -0.229447201 0.896649003 0.217701137
vt 0.456573427 0.185546875
v -0.236988917 0.903559744 0.217701137
vt 0.456573427 0.190892607
f 559/559 560/560 561/561
v -0.236988917 0.903559744 0.217701137
vt 0.456573427 0.190892607
v -0.236988917 0.903559744 0.223047137
vt 0.453549445 0.190892607
v -0.229447201 0.896649003 0.223047137
vt 0.453549445 0.185546875
f 562/562 563/563 564/564
v -0.236988917 0.903559744 0.223047137
vt 0.453549445 0.190892607
v -0.236988917 0.903559744 0.217701137
vt 0.456573427 0.190892607
v -0.247208297 0.903113484 0.217701137
vt 0.456573427 0.185546875
f 565/565 566/566 567/567
v -0.247208297 0.903113484 0.217701137
vt 0.456573427 0.185546875
v -0.247208297 0.903113484 0.223047137
vt 0.453549445 0.185546875
v -0.236988917 0.903559744 0.223047137
vt 0.453549445 0.190892607
f 568/568 569/569 570/570
v -0.235911712 0.878887951 0.217701137
vt 0.456573427 0.185546875
v -0.235911712 0.878887951 0.223047137
vt 0.453549445 0.185546875
v -0.246131122 0.878441691 0.223047137
vt 0.453549445 0.180201143
f 571/571 572/572 573/573
v -0.246131122 0.878441691 0.223047137
vt 0.453549445 0.180201143
v -0.246131122 0.878441691 0.217701137
vt 0.456573427 0.180201143
v -0.235911712 0.878887951 0.217701137
vt 0.456573427 0.185546875
f 574/574 575/575 576/576
v -0.246131122 0.878441691 0.217701137
vt 0.456573427 0.180201143
v -0.246131122 0.878441691 0.223047137
vt 0.453549445 0.180201143
v -0.253672779 0.885352433 0.223047137
vt 0.453549445 0.185546875
f 577/577 578/578 579/579
v -0.253672779 0.885352433 0.223047137
vt 0.453549445 0.185546875
v -0.253672779 0.885352433 0.217701137
vt 0.456573427 0.185546875
v -0.246131122 0.878441691 0.217701137
vt 0.456573427 0.180201143
f 580/580 581/581 582/582
v -0.247208297 0.903113484 0.223047137
vt 0.453549445 0.185546875
v -0.247208297 0.903113484 0.217701137
vt 0.456573427 0.185546875
v -0.254118979 0.895571828 0.217701137
vt 0.456573427 0.180201143
f 583/583 584/584 585/585
v -0.254118979 0.895571828 0.217701137
vt 0.456573427 0.180201143
v -0.254119009 0.895571828 0.223047137
vt 0.453549445 0.180201143
v -0.247208297 0.903113484 0.223047137
vt 0.453549445 0.185546875
f 586/586 587/587 588/588
v -0.254118979 0.895571828 0.217701137
vt 0.456573427 0.190892607
v -0.253672779 0.885352433 0.217701137
vt 0.456573427 0.185546875
v -0.253672779 0.885352433 0.223047137
vt 0.453549445 0.185546875
f 589/589 590/590 591/591
v -0.253672779 0.885352433 0.223047137
vt 0.453549445 0.185546875
v -0.254119009 0.895571828 0.223047137
vt 0.453549445 0.190892607
v -0.254118979 0.895571828 0.217701137
vt 0.456573427 0.190892607
f 592/592 593/593 594/594
v 0.251154602 0.884318173 0.223047137
vt 0.438013643 0.175267607
v 0.252489746 0.894459844 0.223047137
vt 0.443359375 0.17748186
v 0.236121044 0.903910279 0.223047137
vt 0.45091939 0.169921875
f 595/595 596/596 597/597
v 0.252489746 0.894459844 0.223047137
vt 0.443359375 0.17748186
v 0.24626264 0.902575195 0.223047137
vt 0.448705107 0.175267607
v 0.236121044 0.903910279 0.223047137
vt 0.45091939 0.169921875
f 598/598 599/599 600/600
v 0.232897639 0.879426241 0.223047137
vt 0.438013643 0.164576143
v 0.236121044 0.903910279 0.223047137
vt 0.45091939 0.169921875
v 0.228005692 0.897683263 0.223047137
vt 0.448705107 0.164576143
f 601/601 602/602 603/603
v 0.226670578 0.887541592 0.223047137
vt 0.443359375 0.16236189
v 0.232897639 0.879426241 0.223047137
vt 0.438013643 0.164576143
v 0.228005692 0.897683263 0.223047137
vt 0.448705107 0.164576143
f 604/604 605/605 606/606
v 0.232897639 0.879426241 0.223047137
vt 0.438013643 0.164576143
v 0.24303928 0.878091156 0.223047137
vt 0.43579939 0.169921875
v 0.236121044 0.903910279 0.223047137
vt 0.45091939 0.169921875
f 607/607 608/608 609/609
v 0.24303928 0.878091156 0.223047137
vt 0.43579939 0.169921875
v 0.251154602 0.884318173 0.223047137
vt 0.438013643 0.175267607
v 0.236121044 0.903910279 0.223047137
vt 0.45091939 0.169921875
f 610/610 611/611 612/612
v 0.252489746 0.894459844 0.217701137
vt 0.456573427 0.169921875
v 0.252489746 0.894459844 0.223047137
vt 0.453549445 0.169921875
v 0.251154602 0.884318173 0.223047137
vt 0.453549445 0.164576143
f 613/613 614/614 615/615
v 0.251154602 0.884318173 0.223047137
vt 0.453549445 0.164576143
v 0.251154602 0.884318173 0.217701137
vt 0.456573427 0.164576143
v 0.252489746 0.894459844 0.217701137
vt 0.456573427 0.169921875
f 616/616 617/617 618/618
v 0.251154602 0.884318173 0.217701137
vt 0.456573427 0.175267607
v 0.251154602 0.884318173 0.223047137
vt 0.453549445 0.175267607
v 0.24303928 0.878091156 0.223047137
vt 0.453549445 0.169921875
f 619/619 620/620 621/621
v 0.24303928 0.878091156 0.223047137
vt 0.453549445 0.169921875
v 0.24303928 0.878091156 0.217701137
vt 0.456573427 0.169921875
v 0.251154602 0.884318173 0.217701137
vt 0.456573427 0.175267607
f 622/622 623/623 624/624
v 0.252489746 0.894459844 0.223047137
vt 0.453549445 0.169921875
v 0.252489746 0.894459844 0.217701137
vt 0.456573427 0.169921875
v 0.24626264 0.902575195 0.217701137
vt 0.456573427 0.175267607
f 625/625 626/626 627/627
v 0.24626264 0.902575195 0.217701137
vt 0.456573427 0.175267607
v 0.24626264 0.902575195 0.223047137
vt 0.453549445 0.175267607
v 0.252489746 0.894459844 0.223047137
vt 0.453549445 0.169921875
f 628/628 629/629 630/630
v 0.24626264 0.902575195 0.223047137
vt 0.453549445 0.175267607
v 0.24626264 0.902575195 0.217701137
vt 0.456573427 0.175267607
v 0.236121044 0.903910279 0.217701137
vt 0.456573427 0.169921875
f 631/631 632/632 633/633
v 0.236121044 0.903910279 0.217701137
vt 0.456573427 0.169921875
v 0.236121044 0.903910279 0.223047137
vt 0.453549445 0.169921875
v 0.24626264 0.902575195 0.223047137
vt 0.453549445 0.175267607
f 634/634 635/635 636/636
v 0.24303928 0.878091156 0.217701137
vt 0.456573427 0.169921875
v 0.24303928 0.878091156 0.223047137
vt 0.453549445 0.169921875
v 0.232897639 0.879426241 0.223047137
vt 0.453549445 0.164576143
f 637/637 638/638 639/639
v 0.232897639 0.879426241 0.223047137
vt 0.453549445 0.164576143
v 0.232897639 0.879426241 0.217701137
vt 0.456573427 0.164576143
v 0.24303928 0.878091156 0.217701137
vt 0.456573427 0.169921875
f 640/640 641/641 642/642
v 0.232897639 0.879426241 0.217701137
vt 0.456573427 0.164576143
v 0.232897639 0.879426241 0.223047137
vt 0.453549445 0.164576143
v 0.226670578 0.887541592 0.223047137
vt 0.453549445 0.169921875
f 643/643 644/644 645/645
v 0.226670578 0.887541592 0.223047137
vt 0.453549445 0.169921875
v 0.226670578 0.887541592 0.217701137
vt 0.456573427 0.169921875
v 0.232897639 0.879426241 0.217701137
vt 0.456573427 0.164576143
f 646/646 647/647 648/648
v 0.236121044 0.903910279 0.223047137
vt 0.453549445 0.169921875
v 0.236121044 0.903910279 0.217701137
vt 0.456573427 0.169921875
v 0.228005722 0.897683263 0.217701137
vt 0.456573427 0.164576143
f 649/649 650/650 651/651
v 0.228005722 0.897683263 0.217701137
vt 0.456573427 0.164576143
v 0.228005692 0.897683263 0.223047137
vt 0.453549445 0.164576143
v 0.236121044 0.903910279 0.223047137
vt 0.453549445 0.169921875
f 652/652 653/653 654/654
v 0.228005692 0.897683263 0.223047137
vt 0.453549445 0.175267607
v 0.228005722 0.897683263 0.217701137
vt 0.456573427 0.175267607
v 0.226670578 0.887541592 0.217701137
vt 0.456573427 0.169921875
f 655/655 656/656 657/657
v 0.226670578 0.887541592 0.217701137
vt 0.456573427 0.169921875
v 0.226670578 0.887541592 0.223047137
vt 0.453549445 0.169921875
v 0.228005692 0.897683263 0.223047137
vt 0.453549445 0.175267607
f 658/658 659/659 660/660
v 0.18215999 1.1453917 -0.148845375
vt 0.866114914 0.257956952
v -0.18216002 1.1453917 -0.148845375
vt 0.731212139 0.257909566
v -0.18216002 1.15956748 -0.141777605
vt 0.729935527 0.25206539
f 661/661 662/662 663/663
v -0.18216002 1.15956748 -0.141777605
vt 0.729935527 0.25206539
v 0.18215999 1.15956748 -0.141777605
vt 0.867372811 0.252104372
v 0.18215999 1.1453917 -0.148845375
vt 0.866114914 0.257956952
f 664/664 665/665 666/666
v -0.18216002 1.14189804 -0.106338203
vt 0.866051555 0.272514552
v -0.22176002 1.14189804 -0.10633821
vt 0.880652785 0.272514552
v -0.22176002 1.02881372 0.120473944
vt 0.880652785 0.365962565
f 667/667 668/668 669/669
v -0.22176002 1.02881372 0.120473944
vt 0.880652785 0.365962565
v -0.18216002 1.02881372 0.120473973
vt 0.866051555 0.365962565
v -0.18216002 1.14189804 -0.106338203
vt 0.866051555 0.272514552
f 670/670 671/671 672/672
v -0.22176002 1.02881372 0.120473944
vt 0.711185455 0.36770761
v -0.22176002 1.14189804 -0.10633821
vt 0.711185455 0.270975679
v -0.22176002 1.12772226 -0.11340598
vt 0.717069268 0.272236764
f 673/673 674/674 675/675
v -0.22176002 1.12772226 -0.11340598
vt 0.717069268 0.272236764
v -0.22176002 1.01463795 0.113406189
vt 0.717285812 0.366422921
v -0.22176002 1.02881372 0.120473944
vt 0.711185455 0.36770761
f 676/676 677/677 678/678
v 0.22175999 1.12772226 -0.11340598
vt 0.880361497 0.272128314
v 0.22175999 1.14189804 -0.10633821
vt 0.886204064 0.270837098
v 0.22175999 1.02881372 0.120473944
vt 0.88658613 0.366960287
f 679/679 680/680 681/681
v 0.22175999 1.02881372 0.120473944
vt 0.88658613 0.366960287
v 0.22175999 1.01463795 0.113406189
vt 0.880705237 0.365742028
v 0.22175999 1.12772226 -0.11340598
vt 0.880361497 0.272128314
f 682/682 683/683 684/684
v 0.18215999 1.14189804 -0.106338203
vt 0.731719971 0.272514552
v 0.18215999 1.02881372 0.120473973
vt 0.731719971 0.365962565
v 0.22175999 1.02881372 0.120473944
vt 0.71711874 0.365962565
f 685/685 686/686 687/687
v 0.22175999 1.02881372 0.120473944
vt 0.71711874 0.365962565
v 0.22175999 1.14189804 -0.10633821
vt 0.71711874 0.272514522
v 0.18215999 1.14189804 -0.106338203
vt 0.731719971 0.272514552
f 688/688 689/689 690/690
v 0.174239993 1.02525973 0.109852187
vt 0.861328125 0.27734375
v 0.174239993 1.13127625 -0.102784216
vt 0.861328125 0.361328125
v -0.174240023 1.13127625 -0.102784216
vt 0.736328125 0.361328125
f 691/691 692/692 693/693
v -0.174240023 1.13127625 -0.102784216
vt 0.736328125 0.361328125
v -0.174240023 1.02525973 0.109852187
vt 0.736328125 0.27734375
v 0.174239993 1.02525973 0.109852187
vt 0.861328125 0.27734375
f 694/694 695/695 696/696
v -0.18216002 1.14189804 -0.106338203
vt 0.866051555 0.272514552
v 0.18215999 1.14189804 -0.106338203
vt 0.731719971 0.272514552
v 0.18215999 1.15956748 -0.141777605
vt 0.731719971 0.257913232
f 697/697 698/698 699/699
v 0.18215999 1.15956748 -0.141777605
vt 0.731719971 0.257913232
v -0.18216002 1.15956748 -0.141777605
vt 0.866051555 0.257913232
v -0.18216002 1.14189804 -0.106338203
vt 0.866051555 0.272514552
f 700/700 701/701 702/702
v 0.18215999 1.02881372 0.120473973
vt 0.731719971 0.365962565
v -0.18216002 1.02881372 0.120473973
vt 0.866051555 0.365962565
v -0.18216002 1.01114428 0.155913353
vt 0.866051555 0.380563855
f 703/703 704/704 705/705
v -0.18216002 1.01114428 0.155913353
vt 0.866051555 0.380563855
v 0.18215999 1.01114428 0.155913353
vt 0.731719971 0.380563855
v 0.18215999 1.02881372 0.120473973
vt 0.731719971 0.365962565
f 706/706 707/707 708/708
v -0.174240023 1.02525973 0.109852187
vt 0.735360682 0.275918156
v -0.174240023 1.13127625 -0.102784216
vt 0.73533541 0.362551898
v -0.18216002 1.14189804 -0.106338203
vt 0.731818795 0.366064548
f 709/709 710/710 711/711
v -0.18216002 1.14189804 -0.106338203
vt 0.731818795 0.366064548
v -0.18216002 1.02881372 0.120473973
vt 0.731861174 0.272412539
v -0.174240023 1.02525973 0.109852187
vt 0.735360682 0.275918156
f 712/712 713/713 714/714
v 0.174239993 1.02525973 0.109852187
vt 0.862436116 0.275925189
v 0.18215999 1.02881372 0.120473973
vt 0.86595273 0.272412539
v 0.18215999 1.14189804 -0.106338203
vt 0.865910351 0.366064548
f 715/715 716/716 717/717
v 0.18215999 1.14189804 -0.106338203
vt 0.865910351 0.366064548
v 0.174239993 1.13127625 -0.102784216
vt 0.862410843 0.362558931
v 0.174239993 1.02525973 0.109852187
vt 0.862436116 0.275925189
f 718/718 719/719 720/720
v -0.18216002 1.02881372 0.120473973
vt 0.731861174 0.272412539
v 0.18215999 1.02881372 0.120473973
vt 0.86595273 0.272412539
v 0.174239993 1.02525973 0.109852187
vt 0.862436116 0.275925189
f 721/721 722/722 723/723
v 0.174239993 1.02525973 0.109852187
vt 0.862436116 0.275925189
v -0.174240023 1.02525973 0.109852187
vt 0.735360682 0.275918156
v -0.18216002 1.02881372 0.120473973
vt 0.731861174 0.272412539
f 724/724 725/725 726/726
v 0.18215999 1.14189804 -0.106338203
vt 0.865910351 0.366064548
v -0.18216002 1.14189804 -0.106338203
vt 0.731818795 0.366064548
v -0.174240023 1.13127625 -0.102784216
vt 0.73533541 0.362551898
f 727/727 728/728 729/729
v -0.174240023 1.13127625 -0.102784216
vt 0.73533541 0.362551898
v 0.174239993 1.13127625 -0.102784216
vt 0.862410843 0.362558931
v 0.18215999 1.14189804 -0.106338203
vt 0.865910351 0.366064548
f 730/730 731/731 732/732
v -0.22176002 1.02881372 0.120473944
vt 0.880652785 0.365962565
v -0.21645464 1.01997888 0.138193667
vt 0.87869662 0.37326324
v -0.18216002 1.02881372 0.120473973
vt 0.866051555 0.365962565
f 733/733 734/734 735/735
v -0.21645464 1.01997888 0.138193667
vt 0.87869662 0.37326324
v -0.201960012 1.01351142 0.151165351
vt 0.87335217 0.378607601
v -0.18216002 1.02881372 0.120473973
vt 0.866051555 0.365962565
f 736/736 737/737 738/738
v -0.201960012 1.01351142 0.151165351
vt 0.87335217 0.378607601
v -0.18216002 1.01114428 0.155913353
vt 0.866051555 0.380563855
v -0.18216002 1.02881372 0.120473973
vt 0.866051555 0.365962565
f 739/739 740/740 741/741
v -0.18216002 1.15956748 -0.141777605
vt 0.866051555 0.257913232
v -0.201960012 1.15720022 -0.137029633
vt 0.87335217 0.259869486
v -0.18216002 1.14189804 -0.106338203
vt 0.866051555 0.272514552
f 742/742 743/743 744/744
v -0.201960012 1.15720022 -0.137029633
vt 0.87335217 0.259869486
v -0.21645464 1.15073276 -0.124057911
vt 0.878696561 0.265213937
v -0.18216002 1.14189804 -0.106338203
vt 0.866051555 0.272514552
f 745/745 746/746 747/747
v -0.21645464 1.15073276 -0.124057911
vt 0.878696561 0.265213937
v -0.22176002 1.14189804 -0.10633821
vt 0.880652785 0.272514552
v -0.18216002 1.14189804 -0.106338203
vt 0.866051555 0.272514552
f 748/748 749/749 750/750
v 0.22175999 1.14189804 -0.10633821
vt 0.71711874 0.272514522
v 0.21645461 1.15073276 -0.124057911
vt 0.719074965 0.265213847
v 0.18215999 1.14189804 -0.106338203
vt 0.731719971 0.272514552
f 751/751 752/752 753/753
v 0.21645461 1.15073276 -0.124057911
vt 0.719074965 0.265213847
v 0.201959997 1.15720022 -0.137029633
vt 0.724419355 0.259869486
v 0.18215999 1.14189804 -0.106338203
vt 0.731719971 0.272514552
f 754/754 755/755 756/756
v 0.201959997 1.15720022 -0.137029633
vt 0.724419355 0.259869486
v 0.18215999 1.15956748 -0.141777605
vt 0.731719971 0.257913232
v 0.18215999 1.14189804 -0.106338203
vt 0.731719971 0.272514552
f 757/757 758/758 759/759
v 0.18215999 1.01114428 0.155913353
vt 0.731719971 0.380563855
v 0.201959997 1.01351142 0.151165351
vt 0.724419355 0.378607601
v 0.18215999 1.02881372 0.120473973
vt 0.731719971 0.365962565
f 760/760 761/761 762/762
v 0.201959997 1.01351142 0.151165351
vt 0.724419355 0.378607601
v 0.21645461 1.01997888 0.138193667
vt 0.719074965 0.37326324
v 0.18215999 1.02881372 0.120473973
vt 0.731719971 0.365962565
f 763/763 764/764 765/765
v 0.21645461 1.01997888 0.138193667
vt 0.719074965 0.37326324
v 0.22175999 1.02881372 0.120473944
vt 0.71711874 0.365962565
v 0.18215999 1.02881372 0.120473973
vt 0.731719971 0.365962565
f 766/766 767/767 768/768
v -0.18216002 0.996968508 0.148845598
vt 0.731793344 0.380468726
v -0.18216002 1.01114428 0.155913353
vt 0.73061049 0.386411697
v -0.201960012 1.01351142 0.151165351
vt 0.721657455 0.383340716
f 769/769 770/770 771/771
v -0.201960012 1.01351142 0.151165351
vt 0.721657455 0.383340716
v -0.201960012 0.999335706 0.144097596
vt 0.724843383 0.378264725
v -0.18216002 0.996968508 0.148845598
vt 0.731793344 0.380468726
f 772/772 773/773 774/774
v -0.201960012 0.999335706 0.144097596
vt 0.724843383 0.378264725
v -0.201960012 1.01351142 0.151165351
vt 0.721657455 0.383340716
v -0.21645464 1.01997888 0.138193667
vt 0.714672089 0.376645595
f 775/775 776/776 777/777
v -0.21645464 1.01997888 0.138193667
vt 0.714672089 0.376645595
v -0.21645464 1.00580311 0.131125882
vt 0.719667673 0.373269111
v -0.201960012 0.999335706 0.144097596
vt 0.724843383 0.378264725
f 778/778 779/779 780/780
v -0.21645464 1.01997888 0.138193667
vt 0.714672089 0.376645595
v -0.22176002 1.02881372 0.120473944
vt 0.711185455 0.36770761
v -0.22176002 1.01463795 0.113406189
vt 0.717285812 0.366422921
f 781/781 782/782 783/783
v -0.22176002 1.01463795 0.113406189
vt 0.717285812 0.366422921
v -0.21645464 1.00580311 0.131125882
vt 0.719667673 0.373269111
v -0.21645464 1.01997888 0.138193667
vt 0.714672089 0.376645595
f 784/784 785/785 786/786
v -0.18216002 1.1453917 -0.148845375
vt 0.731212139 0.257909566
v -0.201960012 1.14302444 -0.144097418
vt 0.724479496 0.260395974
v -0.201960012 1.15720022 -0.137029633
vt 0.721188843 0.25545159
f 787/787 788/788 789/789
v -0.201960012 1.15720022 -0.137029633
vt 0.721188843 0.25545159
v -0.18216002 1.15956748 -0.141777605
vt 0.729935527 0.25206539
v -0.18216002 1.1453917 -0.148845375
vt 0.731212139 0.257909566
f 790/790 791/791 792/792
v -0.201960012 1.14302444 -0.144097418
vt 0.724479496 0.260395974
v -0.21645464 1.13655698 -0.131125689
vt 0.719552338 0.265463203
v -0.21645464 1.15073276 -0.124057911
vt 0.714538634 0.262202144
f 793/793 794/794 795/795
v -0.21645464 1.15073276 -0.124057911
vt 0.714538634 0.262202144
v -0.201960012 1.15720022 -0.137029633
vt 0.721188843 0.25545159
v -0.201960012 1.14302444 -0.144097418
vt 0.724479496 0.260395974
f 796/796 797/797 798/798
v -0.21645464 1.13655698 -0.131125689
vt 0.719552338 0.265463203
v -0.22176002 1.12772226 -0.11340598
vt 0.717069268 0.272236764
v -0.22176002 1.14189804 -0.10633821
vt 0.711185455 0.270975679
f 799/799 800/800 801/801
v -0.22176002 1.14189804 -0.10633821
vt 0.711185455 0.270975679
v -0.21645464 1.15073276 -0.124057911
vt 0.714538634 0.262202144
v -0.21645464 1.13655698 -0.131125689
vt 0.719552338 0.265463203
f 802/802 803/803 804/804
v 0.18215999 0.996968508 0.148845598
vt 0.866483867 0.37968111
v 0.201959997 0.999335706 0.144097596
vt 0.873358488 0.377471864
v 0.201959997 1.01351142 0.151165351
vt 0.876550376 0.382450312
f 805/805 806/806 807/807
v 0.201959997 1.01351142 0.151165351
vt 0.876550376 0.382450312
v 0.18215999 1.01114428 0.155913353
vt 0.86771363 0.385588586
v 0.18215999 0.996968508 0.148845598
vt 0.866483867 0.37968111
f 808/808 809/809 810/810
v 0.201959997 0.999335706 0.144097596
vt 0.873358488 0.377471864
v 0.21645461 1.00580311 0.131125882
vt 0.878427982 0.372500181
v 0.21645461 1.01997888 0.138193667
vt 0.883349299 0.375752389
f 811/811 812/812 813/813
v 0.21645461 1.01997888 0.138193667
vt 0.883349299 0.375752389
v 0.201959997 1.01351142 0.151165351
vt 0.876550376 0.382450312
v 0.201959997 0.999335706 0.144097596
vt 0.873358488 0.377471864
f 814/814 815/815 816/816
v 0.21645461 1.01997888 0.138193667
vt 0.883349299 0.375752389
v 0.21645461 1.00580311 0.131125882
vt 0.878427982 0.372500181
v 0.22175999 1.01463795 0.113406189
vt 0.880705237 0.365742028
f 817/817 818/818 819/819
v 0.22175999 1.01463795 0.113406189
vt 0.880705237 0.365742028
v 0.22175999 1.02881372 0.120473944
vt 0.88658613 0.366960287
v 0.21645461 1.01997888 0.138193667
vt 0.883349299 0.375752389
f 820/820 821/821 822/822
v 0.18215999 1.1453917 -0.148845375
vt 0.866114914 0.257956952
v 0.18215999 1.15956748 -0.141777605
vt 0.867372811 0.252104372
v 0.201959997 1.15720022 -0.137029633
vt 0.876117527 0.255429953
f 823/823 824/824 825/825
v 0.201959997 1.15720022 -0.137029633
vt 0.876117527 0.255429953
v 0.201959997 1.14302444 -0.144097418
vt 0.872865558 0.260388017
v 0.18215999 1.1453917 -0.148845375
vt 0.866114914 0.257956952
f 826/826 827/827 828/828
v 0.201959997 1.14302444 -0.144097418
vt 0.872865558 0.260388017
v 0.201959997 1.15720022 -0.137029633
vt 0.876117527 0.255429953
v 0.21645461 1.15073276 -0.124057911
vt 0.882800639 0.262114108
f 829/829 830/830 831/831
v 0.21645461 1.15073276 -0.124057911
vt 0.882800639 0.262114108
v 0.21645461 1.13655698 -0.131125689
vt 0.877826929 0.265402526
v 0.201959997 1.14302444 -0.144097418
vt 0.872865558 0.260388017
f 832/832 833/833 834/834
v 0.21645461 1.13655698 -0.131125689
vt 0.877826929 0.265402526
v 0.21645461 1.15073276 -0.124057911
vt 0.882800639 0.262114108
v 0.22175999 1.14189804 -0.10633821
vt 0.886204064 0.270837098
f 835/835 836/836 837/837
v 0.22175999 1.14189804 -0.10633821
vt 0.886204064 0.270837098
v 0.22175999 1.12772226 -0.11340598
vt 0.880361497 0.272128314
v 0.21645461 1.13655698 -0.131125689
vt 0.877826929 0.265402526
f 838/838 839/839 840/840
v -0.18216002 0.996968508 0.148845598
vt 0.731793344 0.380468726
v 0.18215999 0.996968508 0.148845598
vt 0.866483867 0.37968111
v 0.18215999 1.01114428 0.155913353
vt 0.86771363 0.385588586
f 841/841 842/842 843/843
v 0.18215999 1.01114428 0.155913353
vt 0.86771363 0.385588586
v -0.18216002 1.01114428 0.155913353
vt 0.73061049 0.386411697
v -0.18216002 0.996968508 0.148845598
vt 0.731793344 0.380468726
f 844/844 845/845 846/846
v 0.0140008032 0.839000165 0.232000113
vt 0.138990477 0.68893683
v 0.014000643 0.839000106 0.218000114
vt 0.138990462 0.683603525
v 0.224000782 0.839000165 0.218000114
vt 0.0589906722 0.683603585
f 847/847 848/848 849/849
v 0.224000782 0.839000165 0.218000114
vt 0.0589906722 0.683603585
v 0.224000782 0.839000165 0.232000113
vt 0.0589907765 0.68893677
v 0.0140008032 0.839000165 0.232000113
vt 0.138990477 0.68893683
f 850/850 851/851 852/852
v 0.224000633 0.943000078 0.218000114
vt 0.0589905679 0.683603525
v 0.0140006505 0.943000078 0.218000114
vt 0.138990447 0.683603525
v 0.0140008107 0.943000197 0.232000113
vt 0.138990581 0.68893683
f 853/853 854/854 855/855
v 0.0140008107 0.943000197 0.232000113
vt 0.138990581 0.68893683
v 0.224000797 0.943000197 0.232000113
vt 0.0589906126 0.68893683
v 0.224000633 0.943000078 0.218000114
vt 0.0589905679 0.683603525
f 856/856 857/857 858/858
v 0.216800794 0.935800195 0.232000113
vt 0.123371497 0.665774941
v 0.216800794 0.935800195 0.223000109
vt 0.126800105 0.665774941
v 0.216800779 0.846200168 0.223000109
vt 0.126800105 0.699908257
f 859/859 860/860 861/861
v 0.216800779 0.846200168 0.223000109
vt 0.126800105 0.699908257
v 0.216800779 0.846200168 0.232000113
vt 0.123371512 0.699908257
v 0.216800794 0.935800195 0.232000113
vt 0.123371497 0.665774941
f 862/862 863/863 864/864
v 0.224000633 0.943000078 0.218000114
vt 0.128704369 0.663032055
v 0.224000797 0.943000197 0.232000113
vt 0.12337102 0.663032055
v 0.224000782 0.839000165 0.232000113
vt 0.12337105 0.702651143
f 865/865 866/866 867/867
v 0.224000782 0.839000165 0.232000113
vt 0.12337105 0.702651143
v 0.224000782 0.839000165 0.218000114
vt 0.128704369 0.702651083
v 0.224000633 0.943000078 0.218000114
vt 0.128704369 0.663032055
f 868/868 869/869 870/870
v 0.0140006505 0.943000078 0.218000114
vt 0.128704861 0.663032055
v 0.014000643 0.839000106 0.218000114
vt 0.128704846 0.702651143
v 0.0140008032 0.839000165 0.232000113
vt 0.123371556 0.702651083
f 871/871 872/872 873/873
v 0.0140008032 0.839000165 0.232000113
vt 0.123371556 0.702651083
v 0.0140008107 0.943000197 0.232000113
vt 0.123371542 0.663032055
v 0.0140006505 0.943000078 0.218000114
vt 0.128704861 0.663032055
f 874/874 875/875 876/876
v 0.216800779 0.846200168 0.232000113
vt 0.061733529 0.699908376
v 0.0212008059 0.846200168 0.232000113
vt 0.136247858 0.699908197
v 0.0140008032 0.839000165 0.232000113
vt 0.138990611 0.702651143
f 877/877 878/878 879/879
v 0.0140008032 0.839000165 0.232000113
vt 0.138990611 0.702651143
v 0.224000782 0.839000165 0.232000113
vt 0.0589905828 0.702651203
v 0.216800779 0.846200168 0.232000113
vt 0.061733529 0.699908376
f 880/880 881/881 882/882
v 0.0212008134 0.935800195 0.232000113
vt 0.136247709 0.665774941
v 0.216800794 0.935800195 0.232000113
vt 0.0617334694 0.665774941
v 0.224000797 0.943000197 0.232000113
vt 0.0589906126 0.663032055
f 883/883 884/884 885/885
v 0.224000797 0.943000197 0.232000113
vt 0.0589906126 0.663032055
v 0.0140008107 0.943000197 0.232000113
vt 0.138990536 0.663032115
v 0.0212008134 0.935800195 0.232000113
vt 0.136247709 0.665774941
f 886/886 887/887 888/888
v 0.216800794 0.935800195 0.232000113
vt 0.0617339462 0.665775001
v 0.216800779 0.846200168 0.232000113
vt 0.0617335439 0.699908376
v 0.224000782 0.839000165 0.232000113
vt 0.0589906424 0.702651501
f 889/889 890/890 891/891
v 0.224000782 0.839000165 0.232000113
vt 0.0589906424 0.702651501
v 0.224000797 0.943000197 0.232000113
vt 0.0589905083 0.663032174
v 0.216800794 0.935800195 0.232000113
vt 0.0617339462 0.665775001
f 892/892 893/893 894/894
v 0.0212008059 0.846200168 0.232000113
vt 0.136247694 0.699908257
v 0.0212008134 0.935800195 0.232000113
vt 0.136247709 0.665774941
v 0.0140008107 0.943000197 0.232000113
vt 0.138990536 0.663032115
f 895/895 896/896 897/897
v 0.0140008107 0.943000197 0.232000113
vt 0.138990536 0.663032115
v 0.0140008032 0.839000165 0.232000113
vt 0.138990536 0.702651143
v 0.0212008059 0.846200168 0.232000113
vt 0.136247694 0.699908257
f 898/898 899/899 900/900
v 0.0212008059 0.846200168 0.232000113
vt 0.136247769 0.68893677
v 0.216800779 0.846200168 0.232000113
vt 0.0617334247 0.68893677
v 0.216800779 0.846200168 0.223000109
vt 0.0617334247 0.685508251
f 901/901 902/902 903/903
v 0.216800779 0.846200168 0.223000109
vt 0.0617334247 0.685508251
v 0.0212008059 0.846200168 0.223000109
vt 0.136247709 0.685508251
v 0.0212008059 0.846200168 0.232000113
vt 0.136247769 0.68893677
f 904/904 905/905 906/906
v 0.0212008134 0.935800195 0.232000113
vt 0.123371512 0.665774941
v 0.0212008059 0.846200168 0.232000113
vt 0.123371497 0.699908257
v 0.0212008059 0.846200168 0.223000109
vt 0.126800075 0.699908257
f 907/907 908/908 909/909
v 0.0212008059 0.846200168 0.223000109
vt 0.126800075 0.699908257
v 0.0212008134 0.935800195 0.223000109
vt 0.126800105 0.665774941
v 0.0212008134 0.935800195 0.232000113
vt 0.123371512 0.665774941
f 910/910 911/911 912/912
v 0.216800794 0.935800195 0.232000113
vt 0.0617334247 0.68893683
v 0.0212008134 0.935800195 0.232000113
vt 0.136247754 0.68893683
v 0.0212008134 0.935800195 0.223000109
vt 0.136247724 0.685508251
f 913/913 914/914 915/915
v 0.0212008134 0.935800195 0.223000109
vt 0.136247724 0.685508251
v 0.216800794 0.935800195 0.223000109
vt 0.0617333949 0.685508311
v 0.216800794 0.935800195 0.232000113
vt 0.0617334247 0.68893683
f 916/916 917/917 918/918
v 0.216800779 0.846200168 0.223000109
vt 0.0555335581 0.699367642
v 0.216800794 0.935800195 0.223000109
vt 0.055533573 0.664869428
v 0.0212008134 0.935800195 0.223000109
vt 0.135123417 0.664869487
f 919/919 920/920 921/921
v 0.0212008134 0.935800195 0.223000109
vt 0.135123417 0.664869487
v 0.0212008059 0.846200168 0.223000109
vt 0.135123417 0.699367702
v 0.216800779 0.846200168 0.223000109
vt 0.0555335581 0.699367642
f 922/922 923/923 924/924
