# RawMetal: original asset node Sheet_Metal_2
v -0.653171182 0.0361234508 -0.103396885
vt 0.00499383174 0.373038501
v -0.530275583 0.0361234508 -0.555524647
vt 0.00499383174 0.658397675
v -0.530275583 0.0454973467 -0.555524647
vt 0.00499383174 0.658397675
f 1/1 2/2 3/3
v -0.530275583 0.0454973467 -0.555524647
vt 0.00499383174 0.658397675
v -0.653171182 0.0454973429 -0.103396885
vt 0.00499383174 0.373038501
v -0.653171182 0.0361234508 -0.103396885
vt 0.00499383174 0.373038501
f 4/4 5/5 6/6
v -0.1582959 0.0361234508 -0.686117053
vt 0.168785542 0.658397675
v 0.391268492 0.0361234508 -0.686117053
vt 0.332577229 0.658397675
v 0.390851557 0.0454973467 -0.686117053
vt 0.332452953 0.658397675
f 7/7 8/8 9/9
v 0.390851557 0.0454973467 -0.686117053
vt 0.332452953 0.658397675
v -0.158504367 0.0454973467 -0.686117053
vt 0.168723375 0.658397675
v -0.1582959 0.0361234508 -0.686117053
vt 0.168785542 0.658397675
f 10/10 11/11 12/12
v 0.397551864 0.0454973429 0.479323268
vt 0.358839452 0.0876793563
v 0.397551864 0.0361234508 0.479323268
vt 0.358839452 0.0876793563
v -0.137592643 0.075069502 0.479323268
vt 0.168726891 0.0876793563
f 13/13 14/14 15/15
v -0.137592643 0.075069502 0.479323268
vt 0.168726891 0.0876793563
v -0.139150202 0.0844433978 0.479323268
vt 0.168173552 0.0876793563
v 0.397551864 0.0454973429 0.479323268
vt 0.358839452 0.0876793563
f 16/16 17/17 18/18
v 0.500384688 0.0844433978 -0.429632723
vt 0.383529544 0.542070627
v 0.882510245 0.0454973467 -0.382545769
vt 0.490878642 0.509738207
v 0.769226491 0.0454973429 0.479323268
vt 0.490878642 0.0876793563
f 19/19 20/20 21/21
v 0.769226491 0.0454973429 0.479323268
vt 0.490878642 0.0876793563
v 0.397551864 0.0454973429 0.479323268
vt 0.358839452 0.0876793563
v 0.500384688 0.0844433978 -0.429632723
vt 0.383529544 0.542070627
f 22/22 23/23 24/24
v 0.882510245 0.0454973467 -0.382545769
vt 0.490878642 0.509738207
v 0.882797897 0.0361234508 -0.384733945
vt 0.490878582 0.51080972
v 0.769226491 0.0361234508 0.479323268
vt 0.490878642 0.0876793563
f 25/25 26/26 27/27
v 0.769226491 0.0361234508 0.479323268
vt 0.490878642 0.0876793563
v 0.769226491 0.0454973429 0.479323268
vt 0.490878642 0.0876793563
v 0.882510245 0.0454973467 -0.382545769
vt 0.490878642 0.509738207
f 28/28 29/29 30/30
v -0.0683905855 0.075069502 -0.27666086
vt 0.192057371 0.457886219
v -0.1582959 0.0361234508 -0.686117053
vt 0.168785542 0.658397675
v -0.530275583 0.0361234508 -0.555524647
vt 0.00499383174 0.658397675
f 31/31 32/32 33/33
v -0.530275583 0.0361234508 -0.555524647
vt 0.00499383174 0.658397675
v -0.653171182 0.0361234508 -0.103396885
vt 0.00499383174 0.373038501
v -0.0683905855 0.075069502 -0.27666086
vt 0.192057371 0.457886219
f 34/34 35/35 36/36
v 0.390851557 0.0454973467 -0.686117053
vt 0.332452953 0.658397675
v 0.391268492 0.0361234508 -0.686117053
vt 0.332577229 0.658397675
v 0.516390026 0.075069502 -0.449924827
vt 0.379120886 0.542733848
f 37/37 38/38 39/39
v 0.516390026 0.075069502 -0.449924827
vt 0.379120886 0.542733848
v 0.500384688 0.0844433978 -0.429632723
vt 0.383529544 0.542070627
v 0.390851557 0.0454973467 -0.686117053
vt 0.332452953 0.658397675
f 40/40 41/41 42/42
v 0.516390026 0.075069502 -0.449924827
vt 0.379120886 0.542733848
v 0.882797897 0.0361234508 -0.384733945
vt 0.490878582 0.51080972
v 0.882510245 0.0454973467 -0.382545769
vt 0.490878642 0.509738207
f 43/43 44/44 45/45
v 0.882510245 0.0454973467 -0.382545769
vt 0.490878642 0.509738207
v 0.500384688 0.0844433978 -0.429632723
vt 0.383529544 0.542070627
v 0.516390026 0.075069502 -0.449924827
vt 0.379120886 0.542733848
f 46/46 47/47 48/48
v -0.530275583 0.0454973467 -0.555524647
vt 0.00499383174 0.658397675
v -0.158504367 0.0454973467 -0.686117053
vt 0.168723375 0.658397675
v -0.0763932317 0.0844433978 -0.266514808
vt 0.1942617 0.457554579
f 49/49 50/50 51/51
v -0.0763932317 0.0844433978 -0.266514808
vt 0.1942617 0.457554579
v -0.653171182 0.0454973429 -0.103396885
vt 0.00499383174 0.373038501
v -0.530275583 0.0454973467 -0.555524647
vt 0.00499383174 0.658397675
f 52/52 53/53 54/54
v 0.390851557 0.0454973467 -0.686117053
vt 0.332452953 0.658397675
v 0.500384688 0.0844433978 -0.429632723
vt 0.383529544 0.542070627
v -0.0763932317 0.0844433978 -0.266514808
vt 0.1942617 0.457554579
f 55/55 56/56 57/57
v -0.0763932317 0.0844433978 -0.266514808
vt 0.1942617 0.457554579
v -0.158504367 0.0454973467 -0.686117053
vt 0.168723375 0.658397675
v 0.390851557 0.0454973467 -0.686117053
vt 0.332452953 0.658397675
f 58/58 59/59 60/60
v -0.653171182 0.0361234508 -0.103396885
vt 0.00499383174 0.373038501
v -0.616514683 0.0361234508 0.287182152
vt 0.00499383174 0.181771278
v -0.408222467 0.0750695094 0.284795135
vt 0.0760581121 0.182940185
f 61/61 62/62 63/63
v -0.408222467 0.0750695094 0.284795135
vt 0.0760581121 0.182940185
v -0.0683905855 0.075069502 -0.27666086
vt 0.192057371 0.457886219
v -0.653171182 0.0361234508 -0.103396885
vt 0.00499383174 0.373038501
f 64/64 65/65 66/66
v 0.769226491 0.0454973429 0.479323268
vt 0.490878642 0.0876793563
v 0.769226491 0.0361234508 0.479323268
vt 0.490878642 0.0876793563
v 0.397551864 0.0361234508 0.479323268
vt 0.358839452 0.0876793563
f 67/67 68/68 69/69
v 0.397551864 0.0361234508 0.479323268
vt 0.358839452 0.0876793563
v 0.397551864 0.0454973429 0.479323268
vt 0.358839452 0.0876793563
v 0.769226491 0.0454973429 0.479323268
vt 0.490878642 0.0876793563
f 70/70 71/71 72/72
v 0.500384688 0.0844433978 -0.429632723
vt 0.383529544 0.542070627
v 0.397551864 0.0454973429 0.479323268
vt 0.358839452 0.0876793563
v -0.139150202 0.0844433978 0.479323268
vt 0.168173552 0.0876793563
f 73/73 74/74 75/75
v 0.516390026 0.075069502 -0.449924827
vt 0.379120886 0.542733848
v 0.397551864 0.0361234508 0.479323268
vt 0.358839452 0.0876793563
v 0.769226491 0.0361234508 0.479323268
vt 0.490878642 0.0876793563
f 76/76 77/77 78/78
v 0.769226491 0.0361234508 0.479323268
vt 0.490878642 0.0876793563
v 0.882797897 0.0361234508 -0.384733945
vt 0.490878582 0.51080972
v 0.516390026 0.075069502 -0.449924827
vt 0.379120886 0.542733848
f 79/79 80/80 81/81
v 0.391268492 0.0361234508 -0.686117053
vt 0.332577229 0.658397675
v -0.1582959 0.0361234508 -0.686117053
vt 0.168785542 0.658397675
v -0.0683905855 0.075069502 -0.27666086
vt 0.192057371 0.457886219
f 82/82 83/83 84/84
v -0.0683905855 0.075069502 -0.27666086
vt 0.192057371 0.457886219
v 0.516390026 0.075069502 -0.449924827
vt 0.379120886 0.542733848
v 0.391268492 0.0361234508 -0.686117053
vt 0.332577229 0.658397675
f 85/85 86/86 87/87
v -0.139150202 0.0844433978 0.479323268
vt 0.168173552 0.0876793563
v -0.137592643 0.075069502 0.479323268
vt 0.168726891 0.0876793563
v -0.394606382 0.0361234508 0.403042197
vt 0.0784505233 0.125034362
f 88/88 89/89 90/90
v -0.394606382 0.0361234508 0.403042197
vt 0.0784505233 0.125034362
v -0.398701817 0.0454973429 0.401805758
vt 0.0773150846 0.125911862
v -0.139150202 0.0844433978 0.479323268
vt 0.168173552 0.0876793563
f 91/91 92/92 93/93
v -0.616514683 0.0361234508 0.287182152
vt 0.00499383174 0.181771278
v -0.653171182 0.0361234508 -0.103396885
vt 0.00499383174 0.373038501
v -0.653171182 0.0454973429 -0.103396885
vt 0.00499383174 0.373038501
f 94/94 95/95 96/96
v -0.653171182 0.0454973429 -0.103396885
vt 0.00499383174 0.373038501
v -0.616334617 0.0454973467 0.289100617
vt 0.00499383174 0.180831805
v -0.616514683 0.0361234508 0.287182152
vt 0.00499383174 0.181771278
f 97/97 98/98 99/99
v -0.398701817 0.0454973429 0.401805758
vt 0.0773150846 0.125911862
v -0.394606382 0.0361234508 0.403042197
vt 0.0784505233 0.125034362
v -0.408222467 0.0750695094 0.284795135
vt 0.0760581121 0.182940185
f 100/100 101/101 102/102
v -0.408222467 0.0750695094 0.284795135
vt 0.0760581121 0.182940185
v -0.411027133 0.0844433978 0.282163411
vt 0.0757117495 0.184767991
v -0.398701817 0.0454973429 0.401805758
vt 0.0773150846 0.125911862
f 103/103 104/104 105/105
v -0.408222467 0.0750695094 0.284795135
vt 0.0760581121 0.182940185
v -0.616514683 0.0361234508 0.287182152
vt 0.00499383174 0.181771278
v -0.616334617 0.0454973467 0.289100617
vt 0.00499383174 0.180831805
f 106/106 107/107 108/108
v -0.616334617 0.0454973467 0.289100617
vt 0.00499383174 0.180831805
v -0.411027133 0.0844433978 0.282163411
vt 0.0757117495 0.184767991
v -0.408222467 0.0750695094 0.284795135
vt 0.0760581121 0.182940185
f 109/109 110/110 111/111
v -0.530275583 0.0361234508 -0.555524647
vt 0.00499383174 0.658397675
v -0.1582959 0.0361234508 -0.686117053
vt 0.168785542 0.658397675
v -0.158504367 0.0454973467 -0.686117053
vt 0.168723375 0.658397675
f 112/112 113/113 114/114
v -0.158504367 0.0454973467 -0.686117053
vt 0.168723375 0.658397675
v -0.530275583 0.0454973467 -0.555524647
vt 0.00499383174 0.658397675
v -0.530275583 0.0361234508 -0.555524647
vt 0.00499383174 0.658397675
f 115/115 116/116 117/117
v -0.653171182 0.0454973429 -0.103396885
vt 0.00499383174 0.373038501
v -0.0763932317 0.0844433978 -0.266514808
vt 0.1942617 0.457554579
v -0.411027133 0.0844433978 0.282163411
vt 0.0757117495 0.184767991
f 118/118 119/119 120/120
v -0.411027133 0.0844433978 0.282163411
vt 0.0757117495 0.184767991
v -0.616334617 0.0454973467 0.289100617
vt 0.00499383174 0.180831805
v -0.653171182 0.0454973429 -0.103396885
vt 0.00499383174 0.373038501
f 121/121 122/122 123/123
v -0.411027133 0.0844433978 0.282163411
vt 0.0757117495 0.184767991
v -0.139150202 0.0844433978 0.479323268
vt 0.168173552 0.0876793563
v -0.398701817 0.0454973429 0.401805758
vt 0.0773150846 0.125911862
f 124/124 125/125 126/126
v 0.397551864 0.0361234508 0.479323268
vt 0.358839452 0.0876793563
v 0.516390026 0.075069502 -0.449924827
vt 0.379120886 0.542733848
v -0.137592643 0.075069502 0.479323268
vt 0.168726891 0.0876793563
f 127/127 128/128 129/129
v -0.137592643 0.075069502 0.479323268
vt 0.168726891 0.0876793563
v -0.408222467 0.0750695094 0.284795135
vt 0.0760581121 0.182940185
v -0.394606382 0.0361234508 0.403042197
vt 0.0784505233 0.125034362
f 130/130 131/131 132/132
v -0.0763932317 0.0844433978 -0.266514808
vt 0.1942617 0.457554579
v 0.500384688 0.0844433978 -0.429632723
vt 0.383529544 0.542070627
v -0.139150202 0.0844433978 0.479323268
vt 0.168173552 0.0876793563
f 133/133 134/134 135/135
v -0.139150202 0.0844433978 0.479323268
vt 0.168173552 0.0876793563
v -0.411027133 0.0844433978 0.282163411
vt 0.0757117495 0.184767991
v -0.0763932317 0.0844433978 -0.266514808
vt 0.1942617 0.457554579
f 136/136 137/137 138/138
v -0.0683905855 0.075069502 -0.27666086
vt 0.192057371 0.457886219
v -0.408222467 0.0750695094 0.284795135
vt 0.0760581121 0.182940185
v -0.137592643 0.075069502 0.479323268
vt 0.168726891 0.0876793563
f 139/139 140/140 141/141
v -0.137592643 0.075069502 0.479323268
vt 0.168726891 0.0876793563
v 0.516390026 0.075069502 -0.449924827
vt 0.379120886 0.542733848
v -0.0683905855 0.075069502 -0.27666086
vt 0.192057371 0.457886219
f 142/142 143/143 144/144
