# RawMetal: original asset node Cylinder.001
v -0.111512877 0.526694 0.593014002
vt 0.581402004 0.254176855
v -0.114444748 0.0127686895 0.586122334
vt 0.100535899 0.260522932
v -0.0700633749 0.012768697 0.634506166
vt 0.100533068 0.214766756
f 1/1 2/2 3/3
v -0.0700468794 0.526694 0.40864414
vt 0.581411123 0.403166413
v -0.0379779637 0.0127686579 0.391733795
vt 0.10054493 0.407599658
v -0.111538962 0.0127686672 0.450093716
vt 0.100543223 0.380140215
f 4/4 5/5 6/6
v -0.0908385366 0.580378056 0.561657548
vt 0.631377041 0.276973724
v -0.111512877 0.526694 0.593014002
vt 0.581402004 0.254176855
v -0.036852058 0.581031501 0.616134346
vt 0.631374478 0.235394686
f 7/7 8/8 9/9
v -0.0946944281 0.580205917 0.484398007
vt 0.631381035 0.343645006
v -0.132179335 0.526694 0.518238306
vt 0.581406355 0.325048506
v -0.0908385366 0.580378056 0.561657548
vt 0.631377041 0.276973724
f 10/10 11/11 12/12
v -0.0386904329 0.580377996 0.429318458
vt 0.63138324 0.378852189
v -0.0700468794 0.526694 0.40864414
vt 0.581411123 0.403166413
v -0.0946944281 0.580205917 0.484398007
vt 0.631381035 0.343645006
f 13/13 14/14 15/15
v 0.0211823117 0.57958591 0.422134846
vt 0.62022084 0.335790992
v 0.00302260183 0.527311623 0.388301313
vt 0.573488474 0.334569156
v -0.0386904329 0.580377996 0.429318458
vt 0.62022078 0.353371859
f 16/16 17/17 18/18
v -0.0407992676 0.605233908 0.56172514
vt 0.655093908 0.267319947
v -0.0908385366 0.580378056 0.561657548
vt 0.631377041 0.276973724
v -0.036852058 0.581031501 0.616134346
vt 0.631374478 0.235394686
f 19/19 20/20 21/21
v -0.0554485768 0.605436862 0.520497978
vt 0.655096292 0.304887921
v -0.0908385366 0.580378056 0.561657548
vt 0.631377041 0.276973724
v -0.0407992676 0.605233908 0.56172514
vt 0.655093908 0.267319947
f 22/22 23/23 24/24
v -0.0395893939 0.605383754 0.480567575
vt 0.655098081 0.334033787
v -0.0386904329 0.580377996 0.429318458
vt 0.63138324 0.378852189
v -0.0946944281 0.580205917 0.484398007
vt 0.631381035 0.343645006
f 25/25 26/26 27/27
v 0.000341006467 0.605436862 0.464708418
vt 0.642400146 0.325781465
v -0.0386904329 0.580377996 0.429318458
vt 0.62022078 0.353371859
v -0.0395893939 0.605383754 0.480567575
vt 0.642400146 0.342157423
f 28/28 29/29 30/30
v -0.0429180898 0.905599415 0.539921284
vt 0.93612802 0.285070926
v -0.0407992676 0.605233908 0.56172514
vt 0.655093908 0.267319947
v -0.00786210131 0.905598998 0.568151236
vt 0.93612659 0.2621243
f 31/31 32/32 33/33
v -0.0333200507 0.905601501 0.48683694
vt 0.916924715 0.321546823
v 0.000341006467 0.605436862 0.464708418
vt 0.654118896 0.31210959
v -0.0395893939 0.605383754 0.480567575
vt 0.654118896 0.328485548
f 34/34 35/35 36/36
v 0.01512885 0.90559876 0.476320624
vt 0.916924715 0.313080549
v 0.000341006467 0.605436862 0.464708418
vt 0.654118896 0.302910686
v -0.0333200507 0.905601501 0.48683694
vt 0.916924715 0.323387533
f 37/37 38/38 39/39
v 0.126092851 0.526694 0.569611847
vt 0.581403434 0.277606249
v 0.118719734 0.0127686895 0.588584185
vt 0.100535855 0.259807527
v 0.131750822 0.0127686728 0.485999882
vt 0.100541443 0.351314127
f 40/40 41/41 42/42
v 0.131750822 0.0127686728 0.485999882
vt 0.100541443 0.351314127
v 0.131774202 0.526694 0.492241174
vt 0.581407726 0.347215533
v 0.126092851 0.526694 0.569611847
vt 0.581403434 0.277606249
f 43/43 44/44 45/45
v 0.0618629232 0.0127686979 0.639604688
vt 0.131622195 0.363697976
v 0.0421209373 0.526608527 0.647772729
vt 0.581300914 0.346610248
v 0.00140504132 0.0127687007 0.65485853
vt 0.131622195 0.32628721
f 46/46 47/47 48/48
v 0.118719734 0.0127686895 0.588584185
vt 0.100535855 0.259807527
v 0.0873203203 0.526608527 0.622584224
vt 0.581399977 0.220670894
v 0.0618629232 0.0127686979 0.639604688
vt 0.100532711 0.209084645
f 49/49 50/50 51/51
v 0.0684271157 0.0127686597 0.404247433
vt 0.100544564 0.401701957
v 0.102427214 0.526608527 0.435646772
vt 0.581410408 0.391783297
v 0.131750822 0.0127686728 0.485999882
vt 0.100541443 0.351314127
f 52/52 53/53 54/54
v -0.0379779637 0.0127686579 0.391733795
vt 0.123809703 0.351746559
v 0.00302260183 0.527311623 0.388301313
vt 0.573488474 0.334569156
v 0.0684271157 0.0127686597 0.404247433
vt 0.12380971 0.36966151
f 55/55 56/56 57/57
v 0.0387798995 0.58017087 0.615089893
vt 0.62022084 0.351041496
v -0.036852058 0.581031501 0.616134346
vt 0.62022084 0.348249972
v -0.0116169807 0.526610017 0.653777122
vt 0.573488474 0.330361336
f 58/58 59/59 60/60
v -0.0116169807 0.526610017 0.653777122
vt 0.573488474 0.330361336
v 0.0421209373 0.526608527 0.647772729
vt 0.573488414 0.354422748
v 0.0387798995 0.58017087 0.615089893
vt 0.62022084 0.351041496
f 61/61 62/62 63/63
v 0.0873203203 0.526608527 0.622584224
vt 0.581399977 0.220670894
v 0.0858316943 0.579862714 0.577365279
vt 0.631376088 0.261346221
v 0.0387798995 0.58017087 0.615089893
vt 0.631374061 0.229046255
f 64/64 65/65 66/66
v 0.0858316943 0.579862714 0.577365279
vt 0.631376088 0.261346221
v 0.126092851 0.526694 0.569611847
vt 0.581403434 0.277606249
v 0.102127843 0.580091 0.519055963
vt 0.631379426 0.316553831
f 67/67 68/68 69/69
v 0.102127843 0.580091 0.519055963
vt 0.631379426 0.316553831
v 0.131774202 0.526694 0.492241174
vt 0.581407726 0.347215533
v 0.0790208802 0.580614567 0.456792414
vt 0.631382465 0.365087271
f 70/70 71/71 72/72
v 0.0625626817 0.526267886 0.403872967
vt 0.573488414 0.372115374
v 0.0211823117 0.57958591 0.422134846
vt 0.62022084 0.335790992
v 0.0790208802 0.580614567 0.456792414
vt 0.62022084 0.367541432
f 73/73 74/74 75/75
v -0.0700633749 0.012768697 0.634506166
vt 0.131622195 0.363697976
v 0.00140504132 0.0127687007 0.65485853
vt 0.131622195 0.32628721
v -0.0116169807 0.526610017 0.653777122
vt 0.581300974 0.322548836
f 76/76 77/77 78/78
v -0.0116169807 0.526610017 0.653777122
vt 0.581300974 0.322548836
v -0.0631509721 0.526608527 0.637404323
vt 0.581300914 0.367288142
v -0.0700633749 0.012768697 0.634506166
vt 0.131622195 0.363697976
f 79/79 80/80 81/81
v 0.0211823117 0.57958591 0.422134846
vt 0.62022084 0.335790992
v 0.000341006467 0.605436862 0.464708418
vt 0.642400146 0.325781465
v 0.0418445505 0.605438232 0.47963798
vt 0.642400146 0.341508895
f 82/82 83/83 84/84
v 0.0125330612 0.605238974 0.579048634
vt 0.659978271 0.296783
v 0.0341321491 0.905599296 0.556305349
vt 0.92278409 0.322314441
v -0.00786210131 0.905598998 0.568151236
vt 0.92278403 0.283575952
f 85/85 86/86 87/87
v 0.0583420396 0.605519533 0.537676811
vt 0.65509522 0.289870024
v 0.0482432805 0.90560019 0.508917451
vt 0.936129689 0.311033577
v 0.0341321491 0.905599296 0.556305349
vt 0.936127126 0.270178586
f 88/88 89/89 90/90
v 0.0418445505 0.605438232 0.47963798
vt 0.655098021 0.334252357
v 0.01512885 0.90559876 0.476320624
vt 0.936130941 0.331301093
v 0.0482432805 0.90560019 0.508917451
vt 0.936129689 0.311033577
f 91/91 92/92 93/93
v -0.114444748 0.0127686895 0.586122334
vt 0.100535899 0.260522932
v -0.111512877 0.526694 0.593014002
vt 0.581402004 0.254176855
v -0.132179335 0.526694 0.518238306
vt 0.581406355 0.325048506
f 94/94 95/95 96/96
v -0.132179335 0.526694 0.518238306
vt 0.581406355 0.325048506
v -0.13221018 0.0127686793 0.524886668
vt 0.100539476 0.319259673
v -0.114444748 0.0127686895 0.586122334
vt 0.100535899 0.260522932
f 97/97 98/98 99/99
v -0.0631509721 0.526608527 0.637404323
vt 0.581399262 0.209055126
v -0.111512877 0.526694 0.593014002
vt 0.581402004 0.254176855
v -0.0700633749 0.012768697 0.634506166
vt 0.100533068 0.214766756
f 100/100 101/101 102/102
v -0.13221018 0.0127686793 0.524886668
vt 0.100539476 0.319259673
v -0.132179335 0.526694 0.518238306
vt 0.581406355 0.325048506
v -0.114437252 0.526608527 0.457006037
vt 0.581409454 0.376206875
f 103/103 104/104 105/105
v -0.114437252 0.526608527 0.457006037
vt 0.581409454 0.376206875
v -0.111538962 0.0127686672 0.450093716
vt 0.100543223 0.380140215
v -0.13221018 0.0127686793 0.524886668
vt 0.100539476 0.319259673
f 106/106 107/107 108/108
v -0.0333200507 0.905601501 0.48683694
vt 0.0396463312 0.345908046
v -0.0429180898 0.905599415 0.539921284
vt 0.0396438092 0.303944945
v -0.00786210131 0.905598998 0.568151236
vt 0.0396421514 0.276917219
f 109/109 110/110 111/111
v -0.00786210131 0.905598998 0.568151236
vt 0.0396421514 0.276917219
v 0.01512885 0.90559876 0.476320624
vt 0.0396465324 0.348233223
v -0.0333200507 0.905601501 0.48683694
vt 0.0396463312 0.345908046
f 112/112 113/113 114/114
v -0.114437252 0.526608527 0.457006037
vt 0.581409454 0.376206875
v -0.0700468794 0.526694 0.40864414
vt 0.581411123 0.403166413
v -0.111538962 0.0127686672 0.450093716
vt 0.100543223 0.380140215
f 115/115 116/116 117/117
v -0.0700468794 0.526694 0.40864414
vt 0.573488414 0.375450909
v 0.00302260183 0.527311623 0.388301313
vt 0.573488474 0.334569156
v -0.0379779637 0.0127686579 0.391733795
vt 0.123809703 0.351746559
f 118/118 119/119 120/120
v -0.111538962 0.0127686672 0.450093716
vt 0.120909005 0.198328152
v -0.0379779637 0.0127686579 0.391733795
vt 0.202255607 0.154399395
v -0.0700633749 0.012768697 0.634506166
vt 0.137079298 0.384990335
f 121/121 122/122 123/123
v -0.0379779637 0.0127686579 0.391733795
vt 0.202255607 0.154399395
v 0.00140504132 0.0127687007 0.65485853
vt 0.204373717 0.414963156
v -0.0700633749 0.012768697 0.634506166
vt 0.137079298 0.384990335
f 124/124 125/125 126/126
v -0.114444748 0.0127686895 0.586122334
vt 0.0978219137 0.332323581
v -0.13221018 0.0127686793 0.524886668
vt 0.0903639644 0.268956095
v -0.0700633749 0.012768697 0.634506166
vt 0.137079298 0.384990335
f 127/127 128/128 129/129
v -0.13221018 0.0127686793 0.524886668
vt 0.0903639644 0.268956095
v -0.111538962 0.0127686672 0.450093716
vt 0.120909005 0.198328152
v -0.0700633749 0.012768697 0.634506166
vt 0.137079298 0.384990335
f 130/130 131/131 132/132
v -0.036852058 0.581031501 0.616134346
vt 0.62022084 0.348249972
v -0.0631509721 0.526608527 0.637404323
vt 0.573488414 0.375100642
v -0.0116169807 0.526610017 0.653777122
vt 0.573488474 0.330361336
f 133/133 134/134 135/135
v -0.036852058 0.581031501 0.616134346
vt 0.631374478 0.235394686
v -0.111512877 0.526694 0.593014002
vt 0.581402004 0.254176855
v -0.0631509721 0.526608527 0.637404323
vt 0.581399262 0.209055126
f 136/136 137/137 138/138
v -0.0908385366 0.580378056 0.561657548
vt 0.631377041 0.276973724
v -0.132179335 0.526694 0.518238306
vt 0.581406355 0.325048506
v -0.111512877 0.526694 0.593014002
vt 0.581402004 0.254176855
f 139/139 140/140 141/141
v -0.0946944281 0.580205917 0.484398007
vt 0.631381035 0.343645006
v -0.114437252 0.526608527 0.457006037
vt 0.581409454 0.376206875
v -0.132179335 0.526694 0.518238306
vt 0.581406355 0.325048506
f 142/142 143/143 144/144
v -0.0946944281 0.580205917 0.484398007
vt 0.631381035 0.343645006
v -0.0700468794 0.526694 0.40864414
vt 0.581411123 0.403166413
v -0.114437252 0.526608527 0.457006037
vt 0.581409454 0.376206875
f 145/145 146/146 147/147
v -0.0386904329 0.580377996 0.429318458
vt 0.62022078 0.353371859
v 0.00302260183 0.527311623 0.388301313
vt 0.573488474 0.334569156
v -0.0700468794 0.526694 0.40864414
vt 0.573488414 0.375450909
f 148/148 149/149 150/150
v 0.0125330612 0.605238974 0.579048634
vt 0.642400146 0.332303286
v -0.0407992676 0.605233908 0.56172514
vt 0.642400146 0.342805952
v -0.036852058 0.581031501 0.616134346
vt 0.62022084 0.348249972
f 151/151 152/152 153/153
v -0.0554485768 0.605436862 0.520497978
vt 0.655096292 0.304887921
v -0.0946944281 0.580205917 0.484398007
vt 0.631381035 0.343645006
v -0.0908385366 0.580378056 0.561657548
vt 0.631377041 0.276973724
f 154/154 155/155 156/156
v -0.0554485768 0.605436862 0.520497978
vt 0.655096292 0.304887921
v -0.0395893939 0.605383754 0.480567575
vt 0.655098081 0.334033787
v -0.0946944281 0.580205917 0.484398007
vt 0.631381035 0.343645006
f 157/157 158/158 159/159
v 0.000341006467 0.605436862 0.464708418
vt 0.642400146 0.325781465
v 0.0211823117 0.57958591 0.422134846
vt 0.62022084 0.335790992
v -0.0386904329 0.580377996 0.429318458
vt 0.62022078 0.353371859
f 160/160 161/161 162/162
v -0.00786210131 0.905598998 0.568151236
vt 0.92278403 0.283575952
v -0.0407992676 0.605233908 0.56172514
vt 0.659978271 0.34985733
v 0.0125330612 0.605238974 0.579048634
vt 0.659978271 0.296783
f 163/163 164/164 165/165
v -0.0429180898 0.905599415 0.539921284
vt 0.93612802 0.285070926
v -0.0554485768 0.605436862 0.520497978
vt 0.655096292 0.304887921
v -0.0407992676 0.605233908 0.56172514
vt 0.655093908 0.267319947
f 166/166 167/167 168/168
v -0.0429180898 0.905599415 0.539921284
vt 0.93612802 0.285070926
v -0.0333200507 0.905601501 0.48683694
vt 0.936129987 0.316429257
v -0.0554485768 0.605436862 0.520497978
vt 0.655096292 0.304887921
f 169/169 170/170 171/171
v -0.0333200507 0.905601501 0.48683694
vt 0.936129987 0.316429257
v -0.0395893939 0.605383754 0.480567575
vt 0.655098081 0.334033787
v -0.0554485768 0.605436862 0.520497978
vt 0.655096292 0.304887921
f 172/172 173/173 174/174
v 0.00140504132 0.0127687007 0.65485853
vt 0.131622195 0.32628721
v 0.0421209373 0.526608527 0.647772729
vt 0.581300914 0.346610248
v -0.0116169807 0.526610017 0.653777122
vt 0.581300974 0.322548836
f 175/175 176/176 177/177
v 0.0618629232 0.0127686979 0.639604688
vt 0.131622195 0.363697976
v 0.0873203203 0.526608527 0.622584224
vt 0.581300914 0.375483543
v 0.0421209373 0.526608527 0.647772729
vt 0.581300914 0.346610248
f 178/178 179/179 180/180
v 0.118719734 0.0127686895 0.588584185
vt 0.100535855 0.259807527
v 0.126092851 0.526694 0.569611847
vt 0.581403434 0.277606249
v 0.0873203203 0.526608527 0.622584224
vt 0.581399977 0.220670894
f 181/181 182/182 183/183
v 0.131750822 0.0127686728 0.485999882
vt 0.100541443 0.351314127
v 0.102427214 0.526608527 0.435646772
vt 0.581410408 0.391783297
v 0.131774202 0.526694 0.492241174
vt 0.581407726 0.347215533
f 184/184 185/185 186/186
v 0.0684271157 0.0127686597 0.404247433
vt 0.100544564 0.401701957
v 0.0625626817 0.526267886 0.403872967
vt 0.581411362 0.407570183
v 0.102427214 0.526608527 0.435646772
vt 0.581410408 0.391783297
f 187/187 188/188 189/189
v 0.0684271157 0.0127686597 0.404247433
vt 0.12380971 0.36966151
v 0.00302260183 0.527311623 0.388301313
vt 0.573488474 0.334569156
v 0.0625626817 0.526267886 0.403872967
vt 0.573488414 0.372115374
f 190/190 191/191 192/192
v 0.118719734 0.0127686895 0.588584185
vt 0.326396167 0.364286929
v 0.0618629232 0.0127686979 0.639604688
vt 0.266460449 0.410008013
v 0.131750822 0.0127686728 0.485999882
vt 0.353131205 0.267669201
f 193/193 194/194 195/195
v 0.0618629232 0.0127686979 0.639604688
vt 0.266460449 0.410008013
v 0.00140504132 0.0127687007 0.65485853
vt 0.204373717 0.414963156
v -0.0379779637 0.0127686579 0.391733795
vt 0.202255607 0.154399395
f 196/196 197/197 198/198
v 0.0618629232 0.0127686979 0.639604688
vt 0.266460449 0.410008013
v -0.0379779637 0.0127686579 0.391733795
vt 0.202255607 0.154399395
v 0.0684271157 0.0127686597 0.404247433
vt 0.303339541 0.180234104
f 199/199 200/200 201/201
v 0.0618629232 0.0127686979 0.639604688
vt 0.266460449 0.410008013
v 0.0684271157 0.0127686597 0.404247433
vt 0.303339541 0.180234104
v 0.131750822 0.0127686728 0.485999882
vt 0.353131205 0.267669201
f 202/202 203/203 204/204
v 0.0125330612 0.605238974 0.579048634
vt 0.655093193 0.255864888
v 0.0387798995 0.58017087 0.615089893
vt 0.631374061 0.229046255
v 0.0858316943 0.579862714 0.577365279
vt 0.631376088 0.261346221
f 205/205 206/206 207/207
v 0.0858316943 0.579862714 0.577365279
vt 0.631376088 0.261346221
v 0.0583420396 0.605519533 0.537676811
vt 0.65509522 0.289870024
v 0.0125330612 0.605238974 0.579048634
vt 0.655093193 0.255864888
f 208/208 209/209 210/210
v 0.0421209373 0.526608527 0.647772729
vt 0.573488414 0.354422748
v 0.0873203203 0.526608527 0.622584224
vt 0.573488414 0.383296043
v 0.0387798995 0.58017087 0.615089893
vt 0.62022084 0.351041496
f 211/211 212/212 213/213
v 0.0873203203 0.526608527 0.622584224
vt 0.581399977 0.220670894
v 0.126092851 0.526694 0.569611847
vt 0.581403434 0.277606249
v 0.0858316943 0.579862714 0.577365279
vt 0.631376088 0.261346221
f 214/214 215/215 216/216
v 0.126092851 0.526694 0.569611847
vt 0.581403434 0.277606249
v 0.131774202 0.526694 0.492241174
vt 0.581407726 0.347215533
v 0.102127843 0.580091 0.519055963
vt 0.631379426 0.316553831
f 217/217 218/218 219/219
v 0.131774202 0.526694 0.492241174
vt 0.581407726 0.347215533
v 0.102427214 0.526608527 0.435646772
vt 0.581410408 0.391783297
v 0.0790208802 0.580614567 0.456792414
vt 0.631382465 0.365087271
f 220/220 221/221 222/222
v 0.102427214 0.526608527 0.435646772
vt 0.581410408 0.391783297
v 0.0625626817 0.526267886 0.403872967
vt 0.581411362 0.407570183
v 0.0790208802 0.580614567 0.456792414
vt 0.631382465 0.365087271
f 223/223 224/224 225/225
v 0.0211823117 0.57958591 0.422134846
vt 0.62022084 0.335790992
v 0.0625626817 0.526267886 0.403872967
vt 0.573488414 0.372115374
v 0.00302260183 0.527311623 0.388301313
vt 0.573488474 0.334569156
f 226/226 227/227 228/228
v -0.036852058 0.581031501 0.616134346
vt 0.62022084 0.348249972
v 0.0387798995 0.58017087 0.615089893
vt 0.62022084 0.351041496
v 0.0125330612 0.605238974 0.579048634
vt 0.642400146 0.332303286
f 229/229 230/230 231/231
v 0.0418445505 0.605438232 0.47963798
vt 0.655098021 0.334252357
v 0.0583420396 0.605519533 0.537676811
vt 0.65509522 0.289870024
v 0.102127843 0.580091 0.519055963
vt 0.631379426 0.316553831
f 232/232 233/233 234/234
v 0.102127843 0.580091 0.519055963
vt 0.631379426 0.316553831
v 0.0790208802 0.580614567 0.456792414
vt 0.631382465 0.365087271
v 0.0418445505 0.605438232 0.47963798
vt 0.655098021 0.334252357
f 235/235 236/236 237/237
v 0.0858316943 0.579862714 0.577365279
vt 0.631376088 0.261346221
v 0.102127843 0.580091 0.519055963
vt 0.631379426 0.316553831
v 0.0583420396 0.605519533 0.537676811
vt 0.65509522 0.289870024
f 238/238 239/239 240/240
v 0.0482432805 0.90560019 0.508917451
vt 0.0396458656 0.337818086
v 0.01512885 0.90559876 0.476320624
vt 0.0396465324 0.348233223
v -0.00786210131 0.905598998 0.568151236
vt 0.0396421514 0.276917219
f 241/241 242/242 243/243
v -0.00786210131 0.905598998 0.568151236
vt 0.0396421514 0.276917219
v 0.0341321491 0.905599296 0.556305349
vt 0.0396429449 0.290497929
v 0.0482432805 0.90560019 0.508917451
vt 0.0396458656 0.337818086
f 244/244 245/245 246/246
v 0.0790208802 0.580614567 0.456792414
vt 0.62022084 0.367541432
v 0.0211823117 0.57958591 0.422134846
vt 0.62022084 0.335790992
v 0.0418445505 0.605438232 0.47963798
vt 0.642400146 0.341508895
f 247/247 248/248 249/249
v 0.0125330612 0.605238974 0.579048634
vt 0.655093193 0.255864888
v 0.0583420396 0.605519533 0.537676811
vt 0.65509522 0.289870024
v 0.0341321491 0.905599296 0.556305349
vt 0.936127126 0.270178586
f 250/250 251/251 252/252
v 0.0583420396 0.605519533 0.537676811
vt 0.65509522 0.289870024
v 0.0418445505 0.605438232 0.47963798
vt 0.655098021 0.334252357
v 0.0482432805 0.90560019 0.508917451
vt 0.936129689 0.311033577
f 253/253 254/254 255/255
v 0.0418445505 0.605438232 0.47963798
vt 0.654118896 0.337035954
v 0.000341006467 0.605436862 0.464708418
vt 0.654118896 0.302910686
v 0.01512885 0.90559876 0.476320624
vt 0.916924715 0.313080549
f 256/256 257/257 258/258
