# RawMetal: original asset node GlassBottle_1_Broken
v 0.113536797 0.319068074 -0.0378463827
vt 0.409141213 0.710403144
v 0.113536805 0.319068044 -0.168947369
vt 0.409141213 0.710403025
v 0.0716079921 0.474735796 -0.144739762
vt 0.382373691 0.799559236
f 1/1 2/2 3/3
v 0.0716079921 0.474735796 -0.144739762
vt 0.382373691 0.799559236
v 0.0716079921 0.474735796 -0.0620539933
vt 0.382373691 0.799559236
v 0.113536797 0.319068074 -0.0378463827
vt 0.409141213 0.710403144
f 4/4 5/5 6/6
v -0.0716079623 0.474735796 -0.144739762
vt 0.290944427 0.799559236
v -0.0716079623 0.474735796 -0.0620539933
vt 0.290944427 0.799559236
v -0.0373289734 0.768929183 -0.081844978
vt 0.312828332 0.968053997
f 7/7 8/8 9/9
v -0.0373289734 0.768929183 -0.081844978
vt 0.312828332 0.968053997
v -0.0373289734 0.768929183 -0.124948777
vt 0.312828332 0.968053997
v -0.0716079623 0.474735796 -0.144739762
vt 0.290944427 0.799559236
f 10/10 11/11 12/12
v -0.113536775 0.319068044 -0.168947369
vt 0.264177084 0.710403025
v -0.113536775 0.319068044 -0.0378463827
vt 0.264177084 0.710403144
v -0.0716079623 0.474735796 -0.0620539933
vt 0.290944427 0.799559236
f 13/13 14/14 15/15
v -0.0716079623 0.474735796 -0.0620539933
vt 0.290944427 0.799559236
v -0.0716079623 0.474735796 -0.144739762
vt 0.290944427 0.799559236
v -0.113536775 0.319068044 -0.168947369
vt 0.264177084 0.710403025
f 16/16 17/17 18/18
v 0.113536805 0.319068044 -0.168947369
vt 0.409141213 0.710403025
v 1.47137467e-08 0.286473721 -0.234497875
vt 0.336659253 0.710403025
v 1.46848471e-08 0.474735796 -0.186082646
vt 0.336659253 0.799559236
f 19/19 20/20 21/21
v 1.46848471e-08 0.474735796 -0.186082646
vt 0.336659253 0.799559236
v 0.0716079921 0.474735796 -0.144739762
vt 0.382373691 0.799559236
v 0.113536805 0.319068044 -0.168947369
vt 0.409141213 0.710403025
f 22/22 23/23 24/24
v 0.113536797 0.319068074 -0.0378463827
vt 0.409141213 0.710403144
v 0.0716079921 0.474735796 -0.0620539933
vt 0.382373691 0.799559236
v 1.89826519e-08 0.474735796 -0.0207111035
vt 0.336659253 0.799559236
f 25/25 26/26 27/27
v 1.89826519e-08 0.474735796 -0.0207111035
vt 0.336659253 0.799559236
v 1.90738643e-08 0.319068074 0.0277041029
vt 0.336659253 0.710403144
v 0.113536797 0.319068074 -0.0378463827
vt 0.409141213 0.710403144
f 28/28 29/29 30/30
v -0.113536775 0.319068044 -0.168947369
vt 0.264177084 0.710403025
v -0.0716079623 0.474735796 -0.144739762
vt 0.290944427 0.799559236
v 1.46848471e-08 0.474735796 -0.186082646
vt 0.336659253 0.799559236
f 31/31 32/32 33/33
v 1.46848471e-08 0.474735796 -0.186082646
vt 0.336659253 0.799559236
v 1.47137467e-08 0.286473721 -0.234497875
vt 0.336659253 0.710403025
v -0.113536775 0.319068044 -0.168947369
vt 0.264177084 0.710403025
f 34/34 35/35 36/36
v 1.90738643e-08 0.319068074 0.0277041029
vt 0.336659253 0.710403144
v 1.89826519e-08 0.474735796 -0.0207111035
vt 0.336659253 0.799559236
v -0.0716079623 0.474735796 -0.0620539933
vt 0.290944427 0.799559236
f 37/37 38/38 39/39
v -0.0716079623 0.474735796 -0.0620539933
vt 0.290944427 0.799559236
v -0.113536775 0.319068044 -0.0378463827
vt 0.264177084 0.710403144
v 1.90738643e-08 0.319068074 0.0277041029
vt 0.336659253 0.710403144
f 40/40 41/41 42/42
v -0.0373289734 0.768929183 -0.124948777
vt 0.312828332 0.968053997
v -0.039788641 0.787959158 -0.126368865
vt 0.311257929 0.978952944
v 9.77769687e-09 0.787959158 -0.149340853
vt 0.336659253 0.978952944
f 43/43 44/44 45/45
v 9.77769687e-09 0.787959158 -0.149340853
vt 0.336659253 0.978952944
v 1.49011612e-08 0.768929183 -0.146500677
vt 0.336659253 0.968053997
v -0.0373289734 0.768929183 -0.124948777
vt 0.312828332 0.968053997
f 46/46 47/47 48/48
v 0.0716079921 0.474735796 -0.0620539933
vt 0.382373691 0.799559236
v 0.0373290032 0.768929183 -0.0818449706
vt 0.360490054 0.968053997
v 1.96653787e-08 0.768929183 -0.0602930672
vt 0.336659253 0.968053997
f 49/49 50/50 51/51
v 1.96653787e-08 0.768929183 -0.0602930672
vt 0.336659253 0.968053997
v 1.89826519e-08 0.474735796 -0.0207111035
vt 0.336659253 0.799559236
v 0.0716079921 0.474735796 -0.0620539933
vt 0.382373691 0.799559236
f 52/52 53/53 54/54
v 1.46848471e-08 0.474735796 -0.186082646
vt 0.336659253 0.799559236
v 1.49011612e-08 0.768929183 -0.146500677
vt 0.336659253 0.968053997
v 0.0373290032 0.768929183 -0.124948777
vt 0.360490054 0.968053997
f 55/55 56/56 57/57
v 0.0373290032 0.768929183 -0.124948777
vt 0.360490054 0.968053997
v 0.0716079921 0.474735796 -0.144739762
vt 0.382373691 0.799559236
v 1.46848471e-08 0.474735796 -0.186082646
vt 0.336659253 0.799559236
f 58/58 59/59 60/60
v 1.46848471e-08 0.474735796 -0.186082646
vt 0.336659253 0.799559236
v -0.0716079623 0.474735796 -0.144739762
vt 0.290944427 0.799559236
v -0.0373289734 0.768929183 -0.124948777
vt 0.312828332 0.968053997
f 61/61 62/62 63/63
v -0.0373289734 0.768929183 -0.124948777
vt 0.312828332 0.968053997
v 1.49011612e-08 0.768929183 -0.146500677
vt 0.336659253 0.968053997
v 1.46848471e-08 0.474735796 -0.186082646
vt 0.336659253 0.799559236
f 64/64 65/65 66/66
v -0.0716079623 0.474735796 -0.0620539933
vt 0.290944427 0.799559236
v 1.89826519e-08 0.474735796 -0.0207111035
vt 0.336659253 0.799559236
v 1.96653787e-08 0.768929183 -0.0602930672
vt 0.336659253 0.968053997
f 67/67 68/68 69/69
v 1.96653787e-08 0.768929183 -0.0602930672
vt 0.336659253 0.968053997
v -0.0373289734 0.768929183 -0.081844978
vt 0.312828332 0.968053997
v -0.0716079623 0.474735796 -0.0620539933
vt 0.290944427 0.799559236
f 70/70 71/71 72/72
v 0.0716079921 0.474735796 -0.144739762
vt 0.382373691 0.799559236
v 0.0373290032 0.768929183 -0.124948777
vt 0.360490054 0.968053997
v 0.0373290032 0.768929183 -0.0818449706
vt 0.360490054 0.968053997
f 73/73 74/74 75/75
v 0.0373290032 0.768929183 -0.0818449706
vt 0.360490054 0.968053997
v 0.0716079921 0.474735796 -0.0620539933
vt 0.382373691 0.799559236
v 0.0716079921 0.474735796 -0.144739762
vt 0.382373691 0.799559236
f 76/76 77/77 78/78
v -0.039788641 0.787959158 -0.126368865
vt 0.311257929 0.978952944
v -0.039788641 0.787959158 -0.0804248974
vt 0.311257929 0.978952944
v -0.039788641 0.804287851 -0.0804248899
vt 0.311257929 0.988304973
f 79/79 80/80 81/81
v -0.039788641 0.804287851 -0.0804248899
vt 0.311257929 0.988304973
v -0.039788641 0.804287851 -0.126368865
vt 0.311257929 0.988304973
v -0.039788641 0.787959158 -0.126368865
vt 0.311257929 0.978952944
f 82/82 83/83 84/84
v -0.0373289734 0.768929183 -0.081844978
vt 0.312828332 0.968053997
v 1.96653787e-08 0.768929183 -0.0602930672
vt 0.336659253 0.968053997
v 1.49011612e-08 0.787959158 -0.0574528985
vt 0.336659253 0.978952944
f 85/85 86/86 87/87
v 1.49011612e-08 0.787959158 -0.0574528985
vt 0.336659253 0.978952944
v -0.039788641 0.787959158 -0.0804248974
vt 0.311257929 0.978952944
v -0.0373289734 0.768929183 -0.081844978
vt 0.312828332 0.968053997
f 88/88 89/89 90/90
v 0.0373290032 0.768929183 -0.124948777
vt 0.360490054 0.968053997
v 0.0397886597 0.787959158 -0.126368865
vt 0.362060219 0.978952944
v 0.0397886597 0.787959158 -0.0804248899
vt 0.362060219 0.978952944
f 91/91 92/92 93/93
v 0.0397886597 0.787959158 -0.0804248899
vt 0.362060219 0.978952944
v 0.0373290032 0.768929183 -0.0818449706
vt 0.360490054 0.968053997
v 0.0373290032 0.768929183 -0.124948777
vt 0.360490054 0.968053997
f 94/94 95/95 96/96
v -0.0373289734 0.768929183 -0.124948777
vt 0.312828332 0.968053997
v -0.0373289734 0.768929183 -0.081844978
vt 0.312828332 0.968053997
v -0.039788641 0.787959158 -0.0804248974
vt 0.311257929 0.978952944
f 97/97 98/98 99/99
v -0.039788641 0.787959158 -0.0804248974
vt 0.311257929 0.978952944
v -0.039788641 0.787959158 -0.126368865
vt 0.311257929 0.978952944
v -0.0373289734 0.768929183 -0.124948777
vt 0.312828332 0.968053997
f 100/100 101/101 102/102
v 1.96653787e-08 0.768929183 -0.0602930672
vt 0.336659253 0.968053997
v 0.0373290032 0.768929183 -0.0818449706
vt 0.360490054 0.968053997
v 0.0397886597 0.787959158 -0.0804248899
vt 0.362060219 0.978952944
f 103/103 104/104 105/105
v 0.0397886597 0.787959158 -0.0804248899
vt 0.362060219 0.978952944
v 1.49011612e-08 0.787959158 -0.0574528985
vt 0.336659253 0.978952944
v 1.96653787e-08 0.768929183 -0.0602930672
vt 0.336659253 0.968053997
f 106/106 107/107 108/108
v 1.49011612e-08 0.768929183 -0.146500677
vt 0.336659253 0.968053997
v 9.77769687e-09 0.787959158 -0.149340853
vt 0.336659253 0.978952944
v 0.0397886597 0.787959158 -0.126368865
vt 0.362060219 0.978952944
f 109/109 110/110 111/111
v 0.0397886597 0.787959158 -0.126368865
vt 0.362060219 0.978952944
v 0.0373290032 0.768929183 -0.124948777
vt 0.360490054 0.968053997
v 1.49011612e-08 0.768929183 -0.146500677
vt 0.336659253 0.968053997
f 112/112 113/113 114/114
v 0.0397886597 0.804287791 -0.0804248899
vt 0.11910136 0.868332088
v 0.0397886597 0.804287851 -0.126368865
vt 0.155950844 0.932157218
v 1.49011612e-08 0.804287791 -0.0574529059
vt 0.0454025343 0.868332267
f 115/115 116/116 117/117
v 0.0397886597 0.804287851 -0.126368865
vt 0.155950844 0.932157218
v 9.77769687e-09 0.804287851 -0.149340853
vt 0.119101375 0.995982409
v 1.49011612e-08 0.804287791 -0.0574529059
vt 0.0454025343 0.868332267
f 118/118 119/119 120/120
v 9.77769687e-09 0.804287851 -0.149340853
vt 0.119101375 0.995982409
v -0.039788641 0.804287851 -0.126368865
vt 0.0454026386 0.995982289
v -0.039788641 0.804287851 -0.0804248899
vt 0.00855314918 0.932157099
f 121/121 122/122 123/123
v 9.77769687e-09 0.804287851 -0.149340853
vt 0.119101375 0.995982409
v -0.039788641 0.804287851 -0.0804248899
vt 0.00855314918 0.932157099
v 1.49011612e-08 0.804287791 -0.0574529059
vt 0.0454025343 0.868332267
f 124/124 125/125 126/126
v 0.0397886597 0.787959158 -0.0804248899
vt 0.362060219 0.978952944
v 0.0397886597 0.804287791 -0.0804248899
vt 0.362060219 0.988304973
v 1.49011612e-08 0.804287791 -0.0574529059
vt 0.336659253 0.988304973
f 127/127 128/128 129/129
v 1.49011612e-08 0.804287791 -0.0574529059
vt 0.336659253 0.988304973
v 1.49011612e-08 0.787959158 -0.0574528985
vt 0.336659253 0.978952944
v 0.0397886597 0.787959158 -0.0804248899
vt 0.362060219 0.978952944
f 130/130 131/131 132/132
v 9.77769687e-09 0.787959158 -0.149340853
vt 0.336659253 0.978952944
v 9.77769687e-09 0.804287851 -0.149340853
vt 0.336659253 0.988304973
v 0.0397886597 0.804287851 -0.126368865
vt 0.362060219 0.988304973
f 133/133 134/134 135/135
v 0.0397886597 0.804287851 -0.126368865
vt 0.362060219 0.988304973
v 0.0397886597 0.787959158 -0.126368865
vt 0.362060219 0.978952944
v 9.77769687e-09 0.787959158 -0.149340853
vt 0.336659253 0.978952944
f 136/136 137/137 138/138
v 9.77769687e-09 0.787959158 -0.149340853
vt 0.336659253 0.978952944
v -0.039788641 0.787959158 -0.126368865
vt 0.311257929 0.978952944
v -0.039788641 0.804287851 -0.126368865
vt 0.311257929 0.988304973
f 139/139 140/140 141/141
v -0.039788641 0.804287851 -0.126368865
vt 0.311257929 0.988304973
v 9.77769687e-09 0.804287851 -0.149340853
vt 0.336659253 0.988304973
v 9.77769687e-09 0.787959158 -0.149340853
vt 0.336659253 0.978952944
f 142/142 143/143 144/144
v -0.039788641 0.787959158 -0.0804248974
vt 0.311257929 0.978952944
v 1.49011612e-08 0.787959158 -0.0574528985
vt 0.336659253 0.978952944
v 1.49011612e-08 0.804287791 -0.0574529059
vt 0.336659253 0.988304973
f 145/145 146/146 147/147
v 1.49011612e-08 0.804287791 -0.0574529059
vt 0.336659253 0.988304973
v -0.039788641 0.804287851 -0.0804248899
vt 0.311257929 0.988304973
v -0.039788641 0.787959158 -0.0804248974
vt 0.311257929 0.978952944
f 148/148 149/149 150/150
v 0.0397886597 0.787959158 -0.126368865
vt 0.362060219 0.978952944
v 0.0397886597 0.804287851 -0.126368865
vt 0.362060219 0.988304973
v 0.0397886597 0.804287791 -0.0804248899
vt 0.362060219 0.988304973
f 151/151 152/152 153/153
v 0.0397886597 0.804287791 -0.0804248899
vt 0.362060219 0.988304973
v 0.0397886597 0.787959158 -0.0804248899
vt 0.362060219 0.978952944
v 0.0397886597 0.787959158 -0.126368865
vt 0.362060219 0.978952944
f 154/154 155/155 156/156
v 0.113536797 0.319068074 -0.0378463827
vt 0.409141213 0.710403144
v 0.118845634 0.260032862 -0.0755796731
vt 0.409141213 0.710403144
v 0.118845634 0.269695431 -0.111039795
vt 0.409141213 0.710403025
f 157/157 158/158 159/159
v 0.118845634 0.269695431 -0.111039795
vt 0.409141213 0.710403025
v 0.113536805 0.319068044 -0.168947369
vt 0.409141213 0.710403025
v 0.113536797 0.319068074 -0.0378463827
vt 0.409141213 0.710403144
f 160/160 161/161 162/162
v -0.113536775 0.319068044 -0.0378463827
vt 0.264177084 0.710403144
v -0.113536775 0.319068044 -0.168947369
vt 0.264177084 0.710403025
v -0.136195481 0.276004285 -0.115762368
vt 0.264177084 0.710403025
f 163/163 164/164 165/165
v -0.136195481 0.276004285 -0.115762368
vt 0.264177084 0.710403025
v -0.136195481 0.264995456 -0.0850571319
vt 0.264177084 0.710403144
v -0.113536775 0.319068044 -0.0378463827
vt 0.264177084 0.710403144
f 166/166 167/167 168/168
v 1.90738643e-08 0.319068074 0.0277041029
vt 0.336659253 0.710403144
v -0.113536775 0.319068044 -0.0378463827
vt 0.264177084 0.710403144
v -0.113536775 0.311007261 -0.0378463827
vt 0.264177084 0.710403144
f 169/169 170/170 171/171
v -0.113536775 0.311007261 -0.0378463827
vt 0.264177084 0.710403144
v 1.90738643e-08 0.287350297 0.0277041011
vt 0.336659253 0.710403144
v 1.90738643e-08 0.319068074 0.0277041029
vt 0.336659253 0.710403144
f 172/172 173/173 174/174
v 0.113536805 0.319068044 -0.168947369
vt 0.409141213 0.710403025
v 0.0562522709 0.346901596 -0.13067095
vt 0.409141213 0.710403025
v -0.00562107749 0.347001791 -0.166393548
vt 0.336659253 0.710403025
f 175/175 176/176 177/177
v -0.00562107749 0.347001791 -0.166393548
vt 0.336659253 0.710403025
v 1.47137467e-08 0.286473721 -0.234497875
vt 0.336659253 0.710403025
v 0.113536805 0.319068044 -0.168947369
vt 0.409141213 0.710403025
f 178/178 179/179 180/180
v -0.113536775 0.319068044 -0.0378463827
vt 0.264177084 0.710403144
v -0.136195481 0.264995456 -0.0850571319
vt 0.264177084 0.710403144
v -0.07984256 0.347067833 -0.0849538743
vt 0.264177084 0.710403144
f 181/181 182/182 183/183
v -0.07984256 0.347067833 -0.0849538743
vt 0.264177084 0.710403144
v -0.0674944222 0.346901596 -0.0592257679
vt 0.264177084 0.710403144
v -0.113536775 0.319068044 -0.0378463827
vt 0.264177084 0.710403144
f 184/184 185/185 186/186
v 0.113536805 0.319068044 -0.168947369
vt 0.409141213 0.710403025
v 0.118845634 0.269695431 -0.111039795
vt 0.409141213 0.710403025
v 0.0591453835 0.347053379 -0.0991134644
vt 0.409141213 0.710403025
f 187/187 188/188 189/189
v 0.0591453835 0.347053379 -0.0991134644
vt 0.409141213 0.710403025
v 0.0562522709 0.346901596 -0.13067095
vt 0.409141213 0.710403025
v 0.113536805 0.319068044 -0.168947369
vt 0.409141213 0.710403025
f 190/190 191/191 192/192
v -0.113536775 0.311007261 -0.0378463827
vt 0.264177084 0.710403144
v -0.113536775 0.319068044 -0.0378463827
vt 0.264177084 0.710403144
v -0.0674944222 0.346901596 -0.0592257679
vt 0.264177084 0.710403144
f 193/193 194/194 195/195
v -0.0674944222 0.346901596 -0.0592257679
vt 0.264177084 0.710403144
v -0.0674944222 0.346926391 -0.0592257679
vt 0.264177084 0.710403144
v -0.113536775 0.311007261 -0.0378463827
vt 0.264177084 0.710403144
f 196/196 197/197 198/198
v -0.113536775 0.319068044 -0.168947369
vt 0.264177084 0.710403025
v -0.0674944222 0.346901596 -0.13067095
vt 0.264177084 0.710403025
v -0.07984256 0.347033978 -0.101687089
vt 0.264177084 0.710403025
f 199/199 200/200 201/201
v -0.07984256 0.347033978 -0.101687089
vt 0.264177084 0.710403025
v -0.136195481 0.276004285 -0.115762368
vt 0.264177084 0.710403025
v -0.113536775 0.319068044 -0.168947369
vt 0.264177084 0.710403025
f 202/202 203/203 204/204
v 0.113536797 0.319068074 -0.0378463827
vt 0.409141213 0.710403144
v 0.0562522672 0.346901596 -0.0592257679
vt 0.409141213 0.710403144
v 0.0591453835 0.347083092 -0.0797890127
vt 0.409141213 0.710403144
f 205/205 206/206 207/207
v 0.0591453835 0.347083092 -0.0797890127
vt 0.409141213 0.710403144
v 0.118845634 0.260032862 -0.0755796731
vt 0.409141213 0.710403144
v 0.113536797 0.319068074 -0.0378463827
vt 0.409141213 0.710403144
f 208/208 209/209 210/210
v -0.113536775 0.319068044 -0.168947369
vt 0.264177084 0.710403025
v 1.47137467e-08 0.286473721 -0.234497875
vt 0.336659253 0.710403025
v -0.00562107749 0.347001791 -0.166393548
vt 0.336659253 0.710403025
f 211/211 212/212 213/213
v -0.00562107749 0.347001791 -0.166393548
vt 0.336659253 0.710403025
v -0.0674944222 0.346901596 -0.13067095
vt 0.264177084 0.710403025
v -0.113536775 0.319068044 -0.168947369
vt 0.264177084 0.710403025
f 214/214 215/215 216/216
v 1.90738643e-08 0.319068074 0.0277041029
vt 0.336659253 0.710403144
v -0.0056210747 0.346901596 -0.0235031694
vt 0.336659253 0.710403144
v 0.0562522672 0.346901596 -0.0592257679
vt 0.409141213 0.710403144
f 217/217 218/218 219/219
v 0.0562522672 0.346901596 -0.0592257679
vt 0.409141213 0.710403144
v 0.113536797 0.319068074 -0.0378463827
vt 0.409141213 0.710403144
v 1.90738643e-08 0.319068074 0.0277041029
vt 0.336659253 0.710403144
f 220/220 221/221 222/222
v -0.113536775 0.311007261 -0.0378463827
vt 0.264177084 0.710403144
v -0.0674944222 0.346926391 -0.0592257679
vt 0.264177084 0.710403144
v -0.0056210747 0.346999109 -0.0235031694
vt 0.336659253 0.710403144
f 223/223 224/224 225/225
v -0.0056210747 0.346999109 -0.0235031694
vt 0.336659253 0.710403144
v 1.90738643e-08 0.287350297 0.0277041011
vt 0.336659253 0.710403144
v -0.113536775 0.311007261 -0.0378463827
vt 0.264177084 0.710403144
f 226/226 227/227 228/228
v -0.136195481 0.276004285 -0.115762368
vt 0.264177084 0.710403025
v -0.07984256 0.347033978 -0.101687089
vt 0.264177084 0.710403025
v -0.07984256 0.347067833 -0.0849538743
vt 0.264177084 0.710403144
f 229/229 230/230 231/231
v -0.07984256 0.347067833 -0.0849538743
vt 0.264177084 0.710403144
v -0.136195481 0.264995456 -0.0850571319
vt 0.264177084 0.710403144
v -0.136195481 0.276004285 -0.115762368
vt 0.264177084 0.710403025
f 232/232 233/233 234/234
v 0.118845634 0.269695431 -0.111039795
vt 0.409141213 0.710403025
v 0.118845634 0.260032862 -0.0755796731
vt 0.409141213 0.710403144
v 0.0591453835 0.347083092 -0.0797890127
vt 0.409141213 0.710403144
f 235/235 236/236 237/237
v 0.0591453835 0.347083092 -0.0797890127
vt 0.409141213 0.710403144
v 0.0591453835 0.347053379 -0.0991134644
vt 0.409141213 0.710403025
v 0.118845634 0.269695431 -0.111039795
vt 0.409141213 0.710403025
f 238/238 239/239 240/240
v 1.90738643e-08 0.319068074 0.0277041029
vt 0.336659253 0.710403144
v 1.90738643e-08 0.287350297 0.0277041011
vt 0.336659253 0.710403144
v -0.0056210747 0.346999109 -0.0235031694
vt 0.336659253 0.710403144
f 241/241 242/242 243/243
v -0.0056210747 0.346999109 -0.0235031694
vt 0.336659253 0.710403144
v -0.0056210747 0.346901596 -0.0235031694
vt 0.336659253 0.710403144
v 1.90738643e-08 0.319068074 0.0277041029
vt 0.336659253 0.710403144
f 244/244 245/245 246/246
v -0.00562107749 0.347001791 -0.166393548
vt 0.336659253 0.710403025
v 0.0562522709 0.346901596 -0.13067095
vt 0.409141213 0.710403025
v -0.0056210747 0.346901596 -0.0235031694
vt 0.336659253 0.710403144
f 247/247 248/248 249/249
v 0.0562522709 0.346901596 -0.13067095
vt 0.409141213 0.710403025
v 0.0591453835 0.347053379 -0.0991134644
vt 0.409141213 0.710403025
v -0.0056210747 0.346901596 -0.0235031694
vt 0.336659253 0.710403144
f 250/250 251/251 252/252
v 0.0591453835 0.347053379 -0.0991134644
vt 0.409141213 0.710403025
v 0.0591453835 0.347083092 -0.0797890127
vt 0.409141213 0.710403144
v 0.0562522672 0.346901596 -0.0592257679
vt 0.409141213 0.710403144
f 253/253 254/254 255/255
v 0.0591453835 0.347053379 -0.0991134644
vt 0.409141213 0.710403025
v 0.0562522672 0.346901596 -0.0592257679
vt 0.409141213 0.710403144
v -0.0056210747 0.346901596 -0.0235031694
vt 0.336659253 0.710403144
f 256/256 257/257 258/258
v -0.0674944222 0.346901596 -0.13067095
vt 0.264177084 0.710403025
v -0.0056210747 0.346901596 -0.0235031694
vt 0.336659253 0.710403144
v -0.0056210747 0.346999109 -0.0235031694
vt 0.336659253 0.710403144
f 259/259 260/260 261/261
v -0.0674944222 0.346901596 -0.13067095
vt 0.264177084 0.710403025
v -0.0056210747 0.346999109 -0.0235031694
vt 0.336659253 0.710403144
v -0.0674944222 0.346926391 -0.0592257679
vt 0.264177084 0.710403144
f 262/262 263/263 264/264
v -0.0674944222 0.346901596 -0.0592257679
vt 0.264177084 0.710403144
v -0.07984256 0.347067833 -0.0849538743
vt 0.264177084 0.710403144
v -0.0674944222 0.346926391 -0.0592257679
vt 0.264177084 0.710403144
f 265/265 266/266 267/267
v -0.07984256 0.347067833 -0.0849538743
vt 0.264177084 0.710403144
v -0.07984256 0.347033978 -0.101687089
vt 0.264177084 0.710403025
v -0.0674944222 0.346926391 -0.0592257679
vt 0.264177084 0.710403144
f 268/268 269/269 270/270
v -0.07984256 0.347033978 -0.101687089
vt 0.264177084 0.710403025
v -0.0674944222 0.346901596 -0.13067095
vt 0.264177084 0.710403025
v -0.0674944222 0.346926391 -0.0592257679
vt 0.264177084 0.710403144
f 271/271 272/272 273/273
v -0.0674944222 0.346901596 -0.13067095
vt 0.264177084 0.710403025
v -0.00562107749 0.347001791 -0.166393548
vt 0.336659253 0.710403025
v -0.0056210747 0.346901596 -0.0235031694
vt 0.336659253 0.710403144
f 274/274 275/275 276/276
