# RawMetal: original asset node Cylinder
v 0.0355452374 0.0115492838 -0.389947146
vt 0.158887371 0.0975113213
v 0.0355452374 0.0115494113 0.389947146
vt 0.149447039 0.962581038
v 0.0355452374 -0.0115492838 0.389947146
vt 0.139747143 0.96250701
f 1/1 2/2 3/3
v 0.0355452374 -0.0115492838 0.389947146
vt 0.139747143 0.96250701
v 0.0355452374 -0.0115494104 -0.389947146
vt 0.149187461 0.0974373221
v 0.0355452374 0.0115492838 -0.389947146
vt 0.158887371 0.0975113213
f 4/4 5/5 6/6
v 0.0355452374 -0.0115494104 -0.389947146
vt 0.145887613 0.0974369049
v 0.0355452374 -0.0115492838 0.389947146
vt 0.136447296 0.962506413
v 0.0219681617 -0.0302365161 0.389947146
vt 0.126747385 0.962432504
f 7/7 8/8 9/9
v 0.0219681617 -0.0302365161 0.389947146
vt 0.126747385 0.962432504
v 0.0219681617 -0.0302366465 -0.389947146
vt 0.136187702 0.0973629057
v 0.0355452374 -0.0115494104 -0.389947146
vt 0.145887613 0.0974369049
f 10/10 11/11 12/12
v 0.0219681617 -0.0302366465 -0.389947146
vt 0.151765868 0.0972880721
v 0.0219681617 -0.0302365161 0.389947146
vt 0.14232555 0.962357879
v -8.69256542e-11 -0.0373744108 0.389947146
vt 0.132625654 0.96228385
f 13/13 14/14 15/15
v -8.69256542e-11 -0.0373744108 0.389947146
vt 0.132625654 0.96228385
v -8.69256542e-11 -0.0373745374 -0.389947146
vt 0.142065987 0.0972140729
v 0.0219681617 -0.0302366465 -0.389947146
vt 0.151765868 0.0972880721
f 16/16 17/17 18/18
v -8.69256542e-11 -0.0373744108 0.389947146
vt 0.152081743 0.962432265
v -0.0219681617 -0.0302365161 0.389947146
vt 0.142381832 0.962358296
v -0.0219681617 -0.0302366465 -0.389947146
vt 0.151822165 0.0972884893
f 19/19 20/20 21/21
v -0.0219681617 -0.0302366465 -0.389947146
vt 0.151822165 0.0972884893
v -8.69256542e-11 -0.0373745374 -0.389947146
vt 0.161522061 0.0973624885
v -8.69256542e-11 -0.0373744108 0.389947146
vt 0.152081743 0.962432265
f 22/22 23/23 24/24
v -0.0219681617 -0.0302365161 0.389947146
vt 0.134414971 0.962283432
v -0.0355452374 -0.0115492838 0.389947146
vt 0.124715075 0.962209404
v -0.0355452374 -0.0115494104 -0.389947146
vt 0.134155408 0.0971396565
f 25/25 26/26 27/27
v -0.0355452374 -0.0115494104 -0.389947146
vt 0.134155408 0.0971396565
v -0.0219681617 -0.0302366465 -0.389947146
vt 0.143855304 0.0972136557
v -0.0219681617 -0.0302365161 0.389947146
vt 0.134414971 0.962283432
f 28/28 29/29 30/30
v 0.0219681617 -0.0302366465 -0.389947146
vt 0.145681769 0.0946488827
v -8.69256542e-11 -0.0373745374 -0.389947146
vt 0.134014904 0.0887819603
v -0.00260203052 -0.0373745412 -0.407389313
vt 0.13413474 0.0783455893
f 31/31 32/32 33/33
v -0.00260203052 -0.0373745412 -0.407389313
vt 0.13413474 0.0783455893
v 0.0177579876 -0.0302366503 -0.418169111
vt 0.145882443 0.0770933926
v 0.0219681617 -0.0302366465 -0.389947146
vt 0.145681769 0.0946488827
f 34/34 35/35 36/36
v -8.69256542e-11 -0.0373744108 0.389947146
vt 0.1500438 0.95049119
v 0.0219681617 -0.0302365161 0.389947146
vt 0.166048005 0.949851334
v 0.0240638331 -0.0302365143 0.399415463
vt 0.167522386 0.954867125
f 37/37 38/38 39/39
v 0.0240638331 -0.0302365143 0.399415463
vt 0.167522386 0.954867125
v 0.00548652094 -0.0373744071 0.414735526
vt 0.154022142 0.963908553
v -8.69256542e-11 -0.0373744108 0.389947146
vt 0.1500438 0.95049119
f 40/40 41/41 42/42
v -0.0355452374 6.35304502e-08 0.389947146
vt 0.130199477 0.947786152
v -0.0355452374 -0.0115492838 0.389947146
vt 0.128570482 0.948592484
v -0.0355452374 -0.0115492838 0.389947146
vt 0.128570482 0.948592484
f 43/43 44/44 45/45
v -0.0355452374 -0.0115492838 0.389947146
vt 0.128570482 0.948592484
v -0.0355452374 6.35304502e-08 0.389947146
vt 0.130199477 0.947786152
v -0.0355452374 6.35304502e-08 0.389947146
vt 0.130199477 0.947786152
f 46/46 47/47 48/48
v -0.0355452374 -0.0115492838 0.389947146
vt 0.128570482 0.948592484
v -0.0219681617 -0.0302365161 0.389947146
vt 0.135270402 0.949973285
v -0.0219681617 -0.0302365161 0.389947146
vt 0.135270402 0.949973285
f 49/49 50/50 51/51
v -0.0219681617 -0.0302365161 0.389947146
vt 0.135270402 0.949973285
v -0.0355452374 -0.0115492838 0.389947146
vt 0.128570482 0.948592484
v -0.0355452374 -0.0115492838 0.389947146
vt 0.128570482 0.948592484
f 52/52 53/53 54/54
v -0.0219681617 -0.0302365161 0.389947146
vt 0.135270402 0.949973285
v -8.69256542e-11 -0.0373744108 0.389947146
vt 0.1500438 0.95049119
v -8.69256542e-11 -0.0373744108 0.389947146
vt 0.1500438 0.95049119
f 55/55 56/56 57/57
v -8.69256542e-11 -0.0373744108 0.389947146
vt 0.1500438 0.95049119
v -0.0219681617 -0.0302365161 0.389947146
vt 0.135270402 0.949973285
v -0.0219681617 -0.0302365161 0.389947146
vt 0.135270402 0.949973285
f 58/58 59/59 60/60
v -8.69256542e-11 -0.0373744108 0.389947146
vt 0.1500438 0.95049119
v 0.0219681617 -0.0302365161 0.389947146
vt 0.166048005 0.949851334
v 0.0219681617 -0.0302365161 0.389947146
vt 0.166048005 0.949851334
f 61/61 62/62 63/63
v 0.0219681617 -0.0302365161 0.389947146
vt 0.166048005 0.949851334
v -8.69256542e-11 -0.0373744108 0.389947146
vt 0.1500438 0.95049119
v -8.69256542e-11 -0.0373744108 0.389947146
vt 0.1500438 0.95049119
f 64/64 65/65 66/66
v 0.0219681617 -0.0302365161 0.389947146
vt 0.166048005 0.949851334
v 0.0355452374 -0.0115492838 0.389947146
vt 0.175815925 0.948414862
v 0.0355452374 -0.0115492838 0.389947146
vt 0.175815925 0.948414862
f 67/67 68/68 69/69
v 0.0355452374 -0.0115492838 0.389947146
vt 0.175815925 0.948414862
v 0.0219681617 -0.0302365161 0.389947146
vt 0.166048005 0.949851334
v 0.0219681617 -0.0302365161 0.389947146
vt 0.166048005 0.949851334
f 70/70 71/71 72/72
v 0.0355452374 -0.0115492838 0.389947146
vt 0.175815925 0.948414862
v 0.0355452374 0.0115494113 0.389947146
vt 0.176160201 0.946870685
v 0.0355452374 0.0115494113 0.389947146
vt 0.176160201 0.946870685
f 73/73 74/74 75/75
v 0.0355452374 0.0115494113 0.389947146
vt 0.176160201 0.946870685
v 0.0355452374 -0.0115492838 0.389947146
vt 0.175815925 0.948414862
v 0.0355452374 -0.0115492838 0.389947146
vt 0.175815925 0.948414862
f 76/76 77/77 78/78
v -0.0219681617 -0.0302365161 0.389947146
vt 0.135270402 0.949973285
v -8.69256542e-11 -0.0373744108 0.389947146
vt 0.1500438 0.95049119
v 0.00548652094 -0.0373744071 0.414735526
vt 0.154022142 0.963908553
f 79/79 80/80 81/81
v 0.00548652094 -0.0373744071 0.414735526
vt 0.154022142 0.963908553
v -0.0130907912 -0.0302365106 0.430055588
vt 0.141630888 0.971259058
v -0.0219681617 -0.0302365161 0.389947146
vt 0.135270402 0.949973285
f 82/82 83/83 84/84
v 0.0355452374 -0.0115492838 0.389947146
vt 0.175815925 0.948414862
v 0.0355452374 0.0115494113 0.389947146
vt 0.176160201 0.946870685
v 0.0355452336 0.0115494113 0.389947146
vt 0.176160201 0.946870685
f 85/85 86/86 87/87
v 0.0355452336 0.0115494113 0.389947146
vt 0.176160201 0.946870685
v 0.0355452336 -0.0115492838 0.389947146
vt 0.175815925 0.948414862
v 0.0355452374 -0.0115492838 0.389947146
vt 0.175815925 0.948414862
f 88/88 89/89 90/90
v -0.0355452374 -0.0115492838 0.389947146
vt 0.203807637 0.967151999
v -0.0219681617 -0.0302365161 0.389947146
vt 0.203324422 0.945599377
v -0.0130907912 -0.0302365106 0.430055588
vt 0.209575489 0.940572321
f 91/91 92/92 93/93
v -0.0130907912 -0.0302365106 0.430055588
vt 0.209575489 0.940572321
v -0.0245721918 -0.0115492754 0.439523906
vt 0.211534366 0.960938156
v -0.0355452374 -0.0115492838 0.389947146
vt 0.203807637 0.967151999
f 94/94 95/95 96/96
v 0.0219681617 -0.0302365161 0.389947146
vt 0.166048005 0.949851334
v 0.0355452374 -0.0115492838 0.389947146
vt 0.175815925 0.948414862
v 0.0355452336 -0.0115492838 0.389947146
vt 0.175815925 0.948414862
f 97/97 98/98 99/99
v 0.0355452336 -0.0115492838 0.389947146
vt 0.175815925 0.948414862
v 0.0240638331 -0.0302365143 0.399415463
vt 0.167522386 0.954867125
v 0.0219681617 -0.0302365161 0.389947146
vt 0.166048005 0.949851334
f 100/100 101/101 102/102
v -0.0355452374 6.35304502e-08 0.389947146
vt 0.210014924 0.975720584
v -0.0355452374 -0.0115492838 0.389947146
vt 0.203807637 0.967151999
v -0.0245721918 -0.0115492754 0.439523906
vt 0.211534366 0.960938156
f 103/103 104/104 105/105
v -0.0245721918 -0.0115492754 0.439523906
vt 0.211534366 0.960938156
v -0.0245721918 7.16075306e-08 0.439523906
vt 0.217741624 0.969506741
v -0.0355452374 6.35304502e-08 0.389947146
vt 0.210014924 0.975720584
f 106/106 107/107 108/108
v 0.0108008338 -0.0302365068 0.457782269
vt 0.158383355 0.985777497
v 0.0202523582 -0.0373744033 0.431871563
vt 0.16456683 0.973093748
v 0.0397392064 -0.0373744033 0.436065286
vt 0.178386435 0.975248575
f 109/109 110/110 111/111
v 0.0397392064 -0.0373744033 0.436065286
vt 0.178386435 0.975248575
v 0.0423312113 -0.030236505 0.4645679
vt 0.180265531 0.989140987
v 0.0108008338 -0.0302365068 0.457782269
vt 0.158383355 0.985777497
f 112/112 113/113 114/114
v -0.0130907912 -0.0302365106 0.430055588
vt 0.141630888 0.971259058
v 0.00548652094 -0.0373744071 0.414735526
vt 0.154022142 0.963908553
v 0.0202523582 -0.0373744033 0.431871563
vt 0.16456683 0.973093748
f 115/115 116/116 117/117
v 0.0202523582 -0.0373744033 0.431871563
vt 0.16456683 0.973093748
v 0.0108008338 -0.0302365068 0.457782269
vt 0.158383355 0.985777497
v -0.0130907912 -0.0302365106 0.430055588
vt 0.141630888 0.971259058
f 118/118 119/119 120/120
v 0.0355452336 -0.0115492838 0.389947146
vt 0.175815925 0.948414862
v 0.0355452336 0.0115494113 0.389947146
vt 0.176160201 0.946870685
v 0.0355452336 0.0115494113 0.389947146
vt 0.176160201 0.946870685
f 121/121 122/122 123/123
v 0.0355452336 0.0115494113 0.389947146
vt 0.176160201 0.946870685
v 0.0355452336 -0.0115492838 0.389947146
vt 0.175815925 0.948414862
v 0.0355452336 -0.0115492838 0.389947146
vt 0.175815925 0.948414862
f 124/124 125/125 126/126
v -0.0245721918 -0.0115492754 0.439523906
vt 0.211534366 0.960938156
v -0.0130907912 -0.0302365106 0.430055588
vt 0.209575489 0.940572321
v 0.0108008338 -0.0302365068 0.457782269
vt 0.22639887 0.927043021
f 127/127 128/128 129/129
v 0.0108008338 -0.0302365068 0.457782269
vt 0.22639887 0.927043021
v 0.00495946733 -0.0115492698 0.47379598
vt 0.232329234 0.944215178
v -0.0245721918 -0.0115492754 0.439523906
vt 0.211534366 0.960938156
f 130/130 131/131 132/132
v 0.0240638331 -0.0302365143 0.399415463
vt 0.167522386 0.954867125
v 0.0355452336 -0.0115492838 0.389947146
vt 0.175815925 0.948414862
v 0.0355452336 -0.0115492838 0.389947146
vt 0.175815925 0.948414862
f 133/133 134/134 135/135
v 0.0355452336 -0.0115492838 0.389947146
vt 0.175815925 0.948414862
v 0.0297038909 -0.0302365143 0.405960858
vt 0.171457186 0.958314657
v 0.0240638331 -0.0302365143 0.399415463
vt 0.167522386 0.954867125
f 136/136 137/137 138/138
v -0.0245721918 -0.0115492754 0.439523906
vt 0.211534366 0.960938156
v 0.00495946733 -0.0115492698 0.47379598
vt 0.232329234 0.944215178
v 0.00495946733 7.71911601e-08 0.47379598
vt 0.238536462 0.952783763
f 139/139 140/140 141/141
v 0.00495946733 7.71911601e-08 0.47379598
vt 0.238536462 0.952783763
v -0.0245721918 7.16075306e-08 0.439523906
vt 0.217741624 0.969506741
v -0.0245721918 -0.0115492754 0.439523906
vt 0.211534366 0.960938156
f 142/142 143/143 144/144
v 0.00548652094 -0.0373744071 0.414735526
vt 0.154022142 0.963908553
v 0.0240638331 -0.0302365143 0.399415463
vt 0.167522386 0.954867125
v 0.0297038909 -0.0302365143 0.405960858
vt 0.171457186 0.958314657
f 145/145 146/146 147/147
v 0.0297038909 -0.0302365143 0.405960858
vt 0.171457186 0.958314657
v 0.0202523582 -0.0373744033 0.431871563
vt 0.16456683 0.973093748
v 0.00548652094 -0.0373744071 0.414735526
vt 0.154022142 0.963908553
f 148/148 149/149 150/150
v 0.0355452336 -0.0115492838 0.389947146
vt 0.175815925 0.948414862
v 0.0355452336 0.0115494113 0.389947146
vt 0.176160201 0.946870685
v 0.0355452336 0.0115494113 0.389947146
vt 0.176160201 0.946870685
f 151/151 152/152 153/153
v 0.0355452336 0.0115494113 0.389947146
vt 0.176160201 0.946870685
v 0.0355452336 -0.0115492838 0.389947146
vt 0.175815925 0.948414862
v 0.0355452336 -0.0115492838 0.389947146
vt 0.175815925 0.948414862
f 154/154 155/155 156/156
v 0.0355452336 -0.0115492838 0.389947146
vt 0.175815925 0.948414862
v 0.0355452336 0.0115494113 0.389947146
vt 0.176160201 0.946870685
v 0.0355452336 0.0115494113 0.389947146
vt 0.176160201 0.946870685
f 157/157 158/158 159/159
v 0.0355452336 0.0115494113 0.389947146
vt 0.176160201 0.946870685
v 0.0355452336 -0.0115492838 0.389947146
vt 0.175815925 0.948414862
v 0.0355452336 -0.0115492838 0.389947146
vt 0.175815925 0.948414862
f 160/160 161/161 162/162
v 0.00495946733 -0.0115492698 0.47379598
vt 0.232329234 0.944215178
v 0.0108008338 -0.0302365068 0.457782269
vt 0.22639887 0.927043021
v 0.0423312113 -0.030236505 0.4645679
vt 0.248601153 0.909188211
f 163/163 164/164 165/165
v 0.0423312113 -0.030236505 0.4645679
vt 0.248601153 0.909188211
v 0.0439331532 -0.0115492698 0.482183456
vt 0.259772718 0.922145307
v 0.00495946733 -0.0115492698 0.47379598
vt 0.232329234 0.944215178
f 166/166 167/167 168/168
v 0.0297038909 -0.0302365143 0.405960858
vt 0.171457186 0.958314657
v 0.0355452336 -0.0115492838 0.389947146
vt 0.175815925 0.948414862
v 0.0355452336 -0.0115492838 0.389947146
vt 0.175815925 0.948414862
f 169/169 170/170 171/171
v 0.0355452336 -0.0115492838 0.389947146
vt 0.175815925 0.948414862
v 0.0371472165 -0.0302365143 0.407562703
vt 0.176632568 0.959135056
v 0.0297038909 -0.0302365143 0.405960858
vt 0.171457186 0.958314657
f 172/172 173/173 174/174
v 0.00495946733 -0.0115492698 0.47379598
vt 0.232329234 0.944215178
v 0.0439331532 -0.0115492698 0.482183456
vt 0.259772718 0.922145307
v 0.0439331532 7.85576546e-08 0.482183456
vt 0.265979975 0.930714011
f 175/175 176/176 177/177
v 0.0439331532 7.85576546e-08 0.482183456
vt 0.265979975 0.930714011
v 0.00495946733 7.71911601e-08 0.47379598
vt 0.238536462 0.952783763
v 0.00495946733 -0.0115492698 0.47379598
vt 0.232329234 0.944215178
f 178/178 179/179 180/180
v 0.0202523582 -0.0373744033 0.431871563
vt 0.16456683 0.973093748
v 0.0297038909 -0.0302365143 0.405960858
vt 0.171457186 0.958314657
v 0.0371472165 -0.0302365143 0.407562703
vt 0.176632568 0.959135056
f 181/181 182/182 183/183
v 0.0371472165 -0.0302365143 0.407562703
vt 0.176632568 0.959135056
v 0.0397392064 -0.0373744033 0.436065286
vt 0.178386435 0.975248575
v 0.0202523582 -0.0373744033 0.431871563
vt 0.16456683 0.973093748
f 184/184 185/185 186/186
v 0.178221136 -0.0101016881 0.291016906
vt 0.275878668 0.899719357
v 0.0737332925 -0.0115492884 0.349492341
vt 0.220726371 0.952857494
v 0.153129622 5.1743239e-08 0.317597747
vt 0.268023998 0.917920709
f 187/187 188/188 189/189
v 0.0737332925 -0.0115492884 0.349492341
vt 0.220726371 0.952857494
v 0.0737332925 0.0115494058 0.349492341
vt 0.232640028 0.964884758
v 0.178221136 0.0101017766 0.291016906
vt 0.28629905 0.9102391
f 190/190 191/191 192/192
v 0.0737332925 -0.0115492884 0.349492341
vt 0.220726371 0.952857494
v 0.178221136 0.0101017766 0.291016906
vt 0.28629905 0.9102391
v 0.153129622 5.1743239e-08 0.317597747
vt 0.268023998 0.917920709
f 193/193 194/194 195/195
v 0.0423312113 -0.030236505 0.4645679
vt 0.248601153 0.909188211
v 0.0717667267 -0.0302365087 0.448317587
vt 0.269328326 0.892519534
v 0.0803174525 -0.0115492716 0.462096989
vt 0.28539291 0.90154177
f 196/196 197/197 198/198
v 0.0803174525 -0.0115492716 0.462096989
vt 0.28539291 0.90154177
v 0.0439331532 -0.0115492698 0.482183456
vt 0.259772718 0.922145307
v 0.0423312113 -0.030236505 0.4645679
vt 0.248601153 0.909188211
f 199/199 200/200 201/201
v 0.0355452336 -0.0115492838 0.389947146
vt 0.175815925 0.948414862
v 0.0355452336 -0.0115492838 0.389947146
vt 0.175815925 0.948414862
v 0.0440959893 -0.0302365143 0.403726548
vt 0.181453422 0.957081735
f 202/202 203/203 204/204
v 0.0440959893 -0.0302365143 0.403726548
vt 0.181453422 0.957081735
v 0.0371472165 -0.0302365143 0.407562703
vt 0.176632568 0.959135056
v 0.0355452336 -0.0115492838 0.389947146
vt 0.175815925 0.948414862
f 205/205 206/206 207/207
v 0.0439331532 7.85576546e-08 0.482183456
vt 0.265979975 0.930714011
v 0.0439331532 -0.0115492698 0.482183456
vt 0.259772718 0.922145307
v 0.0803174525 -0.0115492716 0.462096989
vt 0.28539291 0.90154177
f 208/208 209/209 210/210
v 0.0803174525 -0.0115492716 0.462096989
vt 0.28539291 0.90154177
v 0.0803174525 7.52851577e-08 0.462096989
vt 0.291600168 0.910110474
v 0.0439331532 7.85576546e-08 0.482183456
vt 0.265979975 0.930714011
f 211/211 212/212 213/213
v 0.0371472165 -0.0302365143 0.407562703
vt 0.176632568 0.959135056
v 0.0440959893 -0.0302365143 0.403726548
vt 0.181453422 0.957081735
v 0.0579313412 -0.0373744033 0.426022053
vt 0.191232845 0.969756365
f 214/214 215/215 216/216
v 0.0579313412 -0.0373744033 0.426022053
vt 0.191232845 0.969756365
v 0.0397392064 -0.0373744033 0.436065286
vt 0.178386435 0.975248575
v 0.0371472165 -0.0302365143 0.407562703
vt 0.176632568 0.959135056
f 217/217 218/218 219/219
v 0.0397392064 -0.0373744033 0.436065286
vt 0.178386435 0.975248575
v 0.0579313412 -0.0373744033 0.426022053
vt 0.191232845 0.969756365
v 0.0717667267 -0.0302365087 0.448317587
vt 0.200568244 0.980432451
f 220/220 221/221 222/222
v 0.0717667267 -0.0302365087 0.448317587
vt 0.200568244 0.980432451
v 0.0423312113 -0.030236505 0.4645679
vt 0.180265531 0.989140987
v 0.0397392064 -0.0373744033 0.436065286
vt 0.178386435 0.975248575
f 223/223 224/224 225/225
v 0.109954789 -0.0302365143 0.407862753
vt 0.296218634 0.870894611
v 0.185446396 -0.0264466256 0.302660286
vt 0.35141331 0.830957353
v 0.187152043 -0.0101016853 0.305408925
vt 0.361399025 0.842118025
f 226/226 227/227 228/228
v 0.187152043 -0.0101016853 0.305408925
vt 0.361399025 0.842118025
v 0.118505515 -0.0115492772 0.421642154
vt 0.312283218 0.879916787
v 0.109954789 -0.0302365143 0.407862753
vt 0.296218634 0.870894611
f 229/229 230/230 231/231
v 0.0737332925 -0.0115492884 0.349492341
vt 0.220726371 0.952857494
v 0.178221136 -0.0101016881 0.291016906
vt 0.275878668 0.899719357
v 0.179926783 -0.0264466256 0.293765515
vt 0.268336535 0.890328944
f 232/232 233/233 234/234
v 0.179926783 -0.0264466256 0.293765515
vt 0.268336535 0.890328944
v 0.0822840557 -0.0302365236 0.363271713
vt 0.21554029 0.938717008
v 0.0737332925 -0.0115492884 0.349492341
vt 0.220726371 0.952857494
f 235/235 236/236 237/237
v 0.118505515 -0.0115492772 0.421642154
vt 0.310345471 0.879916787
v 0.187152043 -0.0101016853 0.305408925
vt 0.359461278 0.842118025
v 0.162060544 5.40880016e-08 0.331989795
vt 0.347222209 0.863821268
f 238/238 239/239 240/240
v 0.162060544 5.40880016e-08 0.331989795
vt 0.347222209 0.863821268
v 0.118505515 6.86942272e-08 0.421642154
vt 0.316552758 0.888485491
v 0.118505515 -0.0115492772 0.421642154
vt 0.310345471 0.879916787
f 241/241 242/242 243/243
v 0.0822840557 -0.0302365236 0.363271713
vt 0.21554029 0.938717008
v 0.179926783 -0.0264466256 0.293765515
vt 0.268336535 0.890328944
v 0.182686582 -0.0326898433 0.298212916
vt 0.266553432 0.885654747
f 244/244 245/245 246/246
v 0.182686582 -0.0326898433 0.298212916
vt 0.266553432 0.885654747
v 0.0961194038 -0.0373744108 0.385567278
vt 0.219062686 0.927864492
v 0.0822840557 -0.0302365236 0.363271713
vt 0.21554029 0.938717008
f 247/247 248/248 249/249
v 0.0961194038 -0.0373744108 0.385567278
vt 0.219062686 0.927864492
v 0.182686582 -0.0326898433 0.298212916
vt 0.266553432 0.885654747
v 0.185446396 -0.0264466256 0.302660286
vt 0.271210551 0.887482107
f 250/250 251/251 252/252
v 0.185446396 -0.0264466256 0.302660286
vt 0.271210551 0.887482107
v 0.109954789 -0.0302365143 0.407862753
vt 0.229948133 0.924445212
v 0.0961194038 -0.0373744108 0.385567278
vt 0.219062686 0.927864492
f 253/253 254/254 255/255
v -0.0355452374 -0.0115494104 -0.389947146
vt 0.160550028 0.097548753
v -0.0355452374 -0.0115492838 0.389947146
vt 0.151109695 0.96261847
v -0.0355452374 6.35304502e-08 0.389947146
vt 0.14625974 0.962581515
f 256/256 257/257 258/258
v -0.0355452374 6.35304502e-08 0.389947146
vt 0.14625974 0.962581515
v -0.0355452374 -6.35304502e-08 -0.389947146
vt 0.155700058 0.0975117683
v -0.0355452374 -0.0115494104 -0.389947146
vt 0.160550028 0.097548753
f 259/259 260/260 261/261
v 0.0579313412 -0.0373744033 0.426022053
vt 0.191232845 0.969756365
v 0.0961194038 -0.0373744108 0.385567278
vt 0.218131021 0.947859824
v 0.109954789 -0.0302365143 0.407862753
vt 0.226834163 0.959026217
f 262/262 263/263 264/264
v 0.109954789 -0.0302365143 0.407862753
vt 0.226834163 0.959026217
v 0.0717667267 -0.0302365087 0.448317587
vt 0.200568244 0.980432451
v 0.0579313412 -0.0373744033 0.426022053
vt 0.191232845 0.969756365
f 265/265 266/266 267/267
v 0.0440959893 -0.0302365143 0.403726548
vt 0.181453422 0.957081735
v 0.0822840557 -0.0302365236 0.363271713
vt 0.207889244 0.935589194
v 0.0961194038 -0.0373744108 0.385567278
vt 0.218131021 0.947859824
f 268/268 269/269 270/270
v 0.0961194038 -0.0373744108 0.385567278
vt 0.218131021 0.947859824
v 0.0579313412 -0.0373744033 0.426022053
vt 0.191232845 0.969756365
v 0.0440959893 -0.0302365143 0.403726548
vt 0.181453422 0.957081735
f 271/271 272/272 273/273
v 0.0803174525 7.52851577e-08 0.462096989
vt 0.291600168 0.910110474
v 0.0803174525 -0.0115492716 0.462096989
vt 0.28539291 0.90154177
v 0.118505515 -0.0115492772 0.421642154
vt 0.312283218 0.879916787
f 274/274 275/275 276/276
v 0.118505515 -0.0115492772 0.421642154
vt 0.312283218 0.879916787
v 0.118505515 6.86942272e-08 0.421642154
vt 0.318490505 0.888485491
v 0.0803174525 7.52851577e-08 0.462096989
vt 0.291600168 0.910110474
f 277/277 278/278 279/279
v 0.0355452336 -0.0115492838 0.389947146
vt 0.175815925 0.948414862
v 0.0737332925 -0.0115492884 0.349492341
vt 0.200957701 0.927991211
v 0.0822840557 -0.0302365236 0.363271713
vt 0.207889244 0.935589194
f 280/280 281/281 282/282
v 0.0822840557 -0.0302365236 0.363271713
vt 0.207889244 0.935589194
v 0.0440959893 -0.0302365143 0.403726548
vt 0.181453422 0.957081735
v 0.0355452336 -0.0115492838 0.389947146
vt 0.175815925 0.948414862
f 283/283 284/284 285/285
v 0.0717667267 -0.0302365087 0.448317587
vt 0.269328326 0.892519534
v 0.109954789 -0.0302365143 0.407862753
vt 0.296218634 0.870894611
v 0.118505515 -0.0115492772 0.421642154
vt 0.312283218 0.879916787
f 286/286 287/287 288/288
v 0.118505515 -0.0115492772 0.421642154
vt 0.312283218 0.879916787
v 0.0803174525 -0.0115492716 0.462096989
vt 0.28539291 0.90154177
v 0.0717667267 -0.0302365087 0.448317587
vt 0.269328326 0.892519534
f 289/289 290/290 291/291
v 0.153129622 5.1743239e-08 0.317597747
vt 0.317658663 0.85680747
v 0.162060544 5.40880016e-08 0.331989795
vt 0.323125005 0.86220938
v 0.187152043 -0.0101016853 0.305408925
vt 0.337356806 0.848956168
f 292/292 293/293 294/294
v 0.187152043 -0.0101016853 0.305408925
vt 0.337356806 0.848956168
v 0.178221136 -0.0101016881 0.291016906
vt 0.331770062 0.84338969
v 0.153129622 5.1743239e-08 0.317597747
vt 0.317658663 0.85680747
f 295/295 296/296 297/297
v 0.179926783 -0.0264466256 0.293765515
vt 0.3362014 0.843163848
v 0.178221136 -0.0101016881 0.291016906
vt 0.331770062 0.84338969
v 0.185446396 -0.0264466256 0.302660286
vt 0.339809269 0.846763611
f 298/298 299/299 300/300
v 0.178221136 -0.0101016881 0.291016906
vt 0.331770062 0.84338969
v 0.187152043 -0.0101016853 0.305408925
vt 0.337356806 0.848956168
v 0.185446396 -0.0264466256 0.302660286
vt 0.339809269 0.846763611
f 301/301 302/302 303/303
v 0.182686582 -0.0326898433 0.298212916
vt 0.339405507 0.844472408
v 0.179926783 -0.0264466256 0.293765515
vt 0.3362014 0.843163848
v 0.185446396 -0.0264466256 0.302660286
vt 0.339809269 0.846763611
f 304/304 305/305 306/306
v 0.0355452374 -0.0115494104 -0.389947146
vt 0.16400823 0.0968595669
v 0.0219681617 -0.0302366465 -0.389947146
vt 0.145681769 0.0946488827
v 0.0177579876 -0.0302366503 -0.418169111
vt 0.145882443 0.0770933926
f 307/307 308/308 309/309
v 0.0177579876 -0.0302366503 -0.418169111
vt 0.145882443 0.0770933926
v 0.0303411726 -0.011549416 -0.42483145
vt 0.164254189 0.0751807988
v 0.0355452374 -0.0115494104 -0.389947146
vt 0.16400823 0.0968595669
f 310/310 311/311 312/312
v 0.0355452374 0.0115492838 -0.389947146
vt 0.180126324 0.0943550617
v 0.0355452374 -0.0115494104 -0.389947146
vt 0.16400823 0.0968595669
v 0.0303411726 -0.011549416 -0.42483145
vt 0.164254189 0.0751807988
f 313/313 314/314 315/315
v 0.0303411726 -0.011549416 -0.42483145
vt 0.164254189 0.0751807988
v 0.0303411726 0.0115492791 -0.42483145
vt 0.180361003 0.0735331401
v 0.0355452374 0.0115492838 -0.389947146
vt 0.180126324 0.0943550617
f 316/316 317/317 318/318
v -0.0355452374 -0.0115494104 -0.389947146
vt 0.45310697 0.190798238
v -0.0355452374 -6.35304502e-08 -0.389947146
vt 0.45310697 0.190479353
v -0.0355452336 -6.35304502e-08 -0.389947146
vt 0.453107297 0.190479353
f 319/319 320/320 321/321
v -0.0355452336 -6.35304502e-08 -0.389947146
vt 0.453107297 0.190479353
v -0.0355452336 -0.0115494104 -0.389947146
vt 0.453107297 0.190798238
v -0.0355452374 -0.0115494104 -0.389947146
vt 0.45310697 0.190798238
f 322/322 323/323 324/324
v -0.0219681617 -0.0302366465 -0.389947146
vt 0.145884946 0.0989224985
v -0.0355452374 -0.0115494104 -0.389947146
vt 0.163517326 0.0960272849
v -0.0355452336 -0.0115494104 -0.389947146
vt 0.163517326 0.0960272849
f 325/325 326/326 327/327
v -0.0355452336 -0.0115494104 -0.389947146
vt 0.163517326 0.0960272849
v -0.0229620468 -0.0302366484 -0.396609455
vt 0.145094946 0.0941112861
v -0.0219681617 -0.0302366465 -0.389947146
vt 0.145884946 0.0989224985
f 328/328 329/329 330/330
v -8.69256542e-11 -0.0373745374 -0.389947146
vt 0.139149919 0.100028366
v -0.0219681617 -0.0302366465 -0.389947146
vt 0.145884946 0.0989224985
v -0.0229620468 -0.0302366484 -0.396609455
vt 0.145094946 0.0941112861
f 331/331 332/332 333/333
v -0.0229620468 -0.0302366484 -0.396609455
vt 0.145094946 0.0941112861
v -0.00260203052 -0.0373745412 -0.407389313
vt 0.137081698 0.0874323845
v -8.69256542e-11 -0.0373745374 -0.389947146
vt 0.139149919 0.100028366
f 334/334 335/335 336/336
v -0.0229620468 -0.0302366484 -0.396609455
vt 0.145094946 0.0941112861
v -0.0355452336 -0.0115494104 -0.389947146
vt 0.163517326 0.0960272849
v -0.0355452336 -0.0115494104 -0.389947146
vt 0.163517326 0.0960272849
f 337/337 338/338 339/339
v -0.0355452336 -0.0115494104 -0.389947146
vt 0.163517326 0.0960272849
v -0.0257982053 -0.0302366484 -0.402296364
vt 0.144420624 0.0900044218
v -0.0229620468 -0.0302366484 -0.396609455
vt 0.145094946 0.0941112861
f 340/340 341/341 342/342
v 0.0303411726 -0.011549416 -0.42483145
vt 0.164254189 0.0751807988
v 0.0177579876 -0.0302366503 -0.418169111
vt 0.145882443 0.0770933926
v 0.00574383279 -0.030236654 -0.442259222
vt 0.143527135 0.0601664037
f 343/343 344/344 345/345
v 0.00574383279 -0.030236654 -0.442259222
vt 0.143527135 0.0601664037
v 0.0154908616 -0.0115494225 -0.45460844
vt 0.160913423 0.0544212274
v 0.0303411726 -0.011549416 -0.42483145
vt 0.164254189 0.0751807988
f 346/346 347/347 348/348
v -0.0355452336 -0.0115494104 -0.389947146
vt 0.494529396 0.483014256
v -0.0355452336 -6.35304502e-08 -0.389947146
vt 0.494529396 0.463585615
v -0.0355452336 -6.35304502e-08 -0.389947146
vt 0.494548827 0.463574409
f 349/349 350/350 351/351
v -0.0355452336 -6.35304502e-08 -0.389947146
vt 0.494548827 0.463574409
v -0.0355452336 -0.0115494104 -0.389947146
vt 0.494548827 0.48300305
v -0.0355452336 -0.0115494104 -0.389947146
vt 0.494529396 0.483014256
f 352/352 353/353 354/354
v 0.0177579876 -0.0302366503 -0.418169111
vt 0.145882443 0.0770933926
v -0.00260203052 -0.0373745412 -0.407389313
vt 0.13413474 0.0783455893
v -0.010027186 -0.0373745412 -0.422277838
vt 0.13286218 0.0681866035
f 355/355 356/356 357/357
v -0.010027186 -0.0373745412 -0.422277838
vt 0.13286218 0.0681866035
v 0.00574383279 -0.030236654 -0.442259222
vt 0.143527135 0.0601664037
v 0.0177579876 -0.0302366503 -0.418169111
vt 0.145882443 0.0770933926
f 358/358 359/359 360/360
v -0.00260203052 -0.0373745412 -0.407389313
vt 0.137081698 0.0874323845
v -0.0229620468 -0.0302366484 -0.396609455
vt 0.145094946 0.0941112861
v -0.0257982053 -0.0302366484 -0.402296364
vt 0.144420624 0.0900044218
f 361/361 362/362 363/363
v -0.0257982053 -0.0302366484 -0.402296364
vt 0.144420624 0.0900044218
v -0.010027186 -0.0373745412 -0.422277838
vt 0.135316253 0.0766805187
v -0.00260203052 -0.0373745412 -0.407389313
vt 0.137081698 0.0874323845
f 364/364 365/365 366/366
v 0.0303411726 -0.011549416 -0.42483145
vt 0.164254189 0.0751807988
v 0.0154908616 -0.0115494225 -0.45460844
vt 0.160913423 0.0544212274
v 0.0154908616 0.0115492726 -0.45460844
vt 0.176773459 0.0536131598
f 367/367 368/368 369/369
v 0.0154908616 0.0115492726 -0.45460844
vt 0.176773459 0.0536131598
v 0.0303411726 0.0115492791 -0.42483145
vt 0.180361003 0.0735331401
v 0.0303411726 -0.011549416 -0.42483145
vt 0.164254189 0.0751807988
f 370/370 371/371 372/372
v -0.010027186 -0.0373745412 -0.422277838
vt 0.135316253 0.0766805187
v -0.0257982053 -0.0302366484 -0.402296364
vt 0.144420624 0.0900044218
v -0.0755039454 -8.21213177e-08 -0.50405705
vt 0.160884023 0.0118325055
f 373/373 374/374 375/375
v -0.0755039454 -8.21213177e-08 -0.50405705
vt 0.160884023 0.0118325055
v -0.0747038051 -0.0395257138 -0.505070865
vt 0.123469166 0.0172240883
v -0.010027186 -0.0373745412 -0.422277838
vt 0.135316253 0.0766805187
f 376/376 377/377 378/378
v 0.0154908616 0.0115492726 -0.45460844
vt 0.176773459 0.0536131598
v 0.0154908616 -0.0115494225 -0.45460844
vt 0.160913423 0.0544212274
v -0.0755039454 -8.21213177e-08 -0.50405705
vt 0.145065203 0.0148134269
f 379/379 380/380 381/381
v -0.0257982053 -0.0302366484 -0.402296364
vt 0.144420624 0.0900044218
v -0.0355452336 -0.0115494104 -0.389947146
vt 0.163517326 0.0960272849
v -0.0755039454 -8.21213177e-08 -0.50405705
vt 0.160884023 0.0118325055
f 382/382 383/383 384/384
v 0.0154908616 -0.0115494225 -0.45460844
vt 0.160913423 0.0544212274
v 0.00574383279 -0.030236654 -0.442259222
vt 0.143527135 0.0601664037
v -0.0755039454 -8.21213177e-08 -0.50405705
vt 0.145065203 0.0148134269
f 385/385 386/386 387/387
v -0.0355452336 -0.0115494104 -0.389947146
vt 0.146427482 0.0960272849
v -0.0355452336 -6.35304502e-08 -0.389947146
vt 0.157324985 0.094237946
v -0.0755039454 -8.21213177e-08 -0.50405705
vt 0.143794179 0.0118325055
f 388/388 389/389 390/390
v 0.00574383279 -0.030236654 -0.442259222
vt 0.143527135 0.0601664037
v -0.010027186 -0.0373745412 -0.422277838
vt 0.13286218 0.0681866035
v -0.0747038051 -0.0395257138 -0.505070865
vt 0.119680904 0.0132543147
f 391/391 392/392 393/393
v -0.0747038051 -0.0395257138 -0.505070865
vt 0.119680904 0.0132543147
v -0.0755039454 -8.21213177e-08 -0.50405705
vt 0.145065203 0.0148134269
v 0.00574383279 -0.030236654 -0.442259222
vt 0.143527135 0.0601664037
f 394/394 395/395 396/396
v 0.0219681617 0.0302365161 -0.389947146
vt 0.136187702 0.0973629057
v 0.0219681617 0.0302366465 0.389947146
vt 0.126747385 0.962432504
v 0.0355452374 0.0115494104 0.389947146
vt 0.136447296 0.962506413
f 397/397 398/398 399/399
v 0.0355452374 0.0115494104 0.389947146
vt 0.136447296 0.962506413
v 0.0355452374 0.0115492838 -0.389947146
vt 0.145887613 0.0974369049
v 0.0219681617 0.0302365161 -0.389947146
vt 0.136187702 0.0973629057
f 400/400 401/401 402/402
v -8.69256542e-11 0.0373744108 -0.389947146
vt 0.142065987 0.0972140729
v -8.69256542e-11 0.0373745374 0.389947146
vt 0.132625654 0.96228385
v 0.0219681617 0.0302366465 0.389947146
vt 0.14232555 0.962357879
f 403/403 404/404 405/405
v 0.0219681617 0.0302366465 0.389947146
vt 0.14232555 0.962357879
v 0.0219681617 0.0302365161 -0.389947146
vt 0.151765868 0.0972880721
v -8.69256542e-11 0.0373744108 -0.389947146
vt 0.142065987 0.0972140729
f 406/406 407/407 408/408
v -8.69256542e-11 0.0373744108 -0.389947146
vt 0.161522061 0.0973624885
v -0.0219681617 0.0302365161 -0.389947146
vt 0.151822165 0.0972884893
v -0.0219681617 0.0302366465 0.389947146
vt 0.142381832 0.962358296
f 409/409 410/410 411/411
v -0.0219681617 0.0302366465 0.389947146
vt 0.142381832 0.962358296
v -8.69256542e-11 0.0373745374 0.389947146
vt 0.152081743 0.962432265
v -8.69256542e-11 0.0373744108 -0.389947146
vt 0.161522061 0.0973624885
f 412/412 413/413 414/414
v -0.0219681617 0.0302365161 -0.389947146
vt 0.143855304 0.0972136557
v -0.0355452374 0.0115492838 -0.389947146
vt 0.134155408 0.0971396565
v -0.0355452374 0.0115494104 0.389947146
vt 0.124715075 0.962209404
f 415/415 416/416 417/417
v -0.0355452374 0.0115494104 0.389947146
vt 0.124715075 0.962209404
v -0.0219681617 0.0302366465 0.389947146
vt 0.134414971 0.962283432
v -0.0219681617 0.0302365161 -0.389947146
vt 0.143855304 0.0972136557
f 418/418 419/419 420/420
v 0.0219681617 0.0302365161 -0.389947146
vt 0.145681769 0.0946488827
v 0.0177579876 0.0302365124 -0.418169111
vt 0.145882443 0.0770933926
v -0.00260203052 0.0373744071 -0.407389313
vt 0.13413474 0.0783455893
f 421/421 422/422 423/423
v -0.00260203052 0.0373744071 -0.407389313
vt 0.13413474 0.0783455893
v -8.69256542e-11 0.0373744108 -0.389947146
vt 0.134014904 0.0887819603
v 0.0219681617 0.0302365161 -0.389947146
vt 0.145681769 0.0946488827
f 424/424 425/425 426/426
v -8.69256542e-11 0.0373745374 0.389947146
vt 0.1500438 0.95049119
v 0.00548652094 0.0373745412 0.414735526
vt 0.154022142 0.963908553
v 0.0240638331 0.0302366484 0.399415463
vt 0.167522386 0.954867125
f 427/427 428/428 429/429
v 0.0240638331 0.0302366484 0.399415463
vt 0.167522386 0.954867125
v 0.0219681617 0.0302366465 0.389947146
vt 0.166048005 0.949851334
v -8.69256542e-11 0.0373745374 0.389947146
vt 0.1500438 0.95049119
f 430/430 431/431 432/432
v -0.0355452374 6.35304502e-08 0.389947146
vt 0.130199477 0.947786152
v -0.0355452374 6.35304502e-08 0.389947146
vt 0.130199477 0.947786152
v -0.0355452374 0.0115494104 0.389947146
vt 0.128570482 0.948592484
f 433/433 434/434 435/435
v -0.0355452374 0.0115494104 0.389947146
vt 0.128570482 0.948592484
v -0.0355452374 0.0115494104 0.389947146
vt 0.128570482 0.948592484
v -0.0355452374 6.35304502e-08 0.389947146
vt 0.130199477 0.947786152
f 436/436 437/437 438/438
v -0.0355452374 0.0115494104 0.389947146
vt 0.128570482 0.948592484
v -0.0355452374 0.0115494104 0.389947146
vt 0.128570482 0.948592484
v -0.0219681617 0.0302366465 0.389947146
vt 0.135270402 0.949973285
f 439/439 440/440 441/441
v -0.0219681617 0.0302366465 0.389947146
vt 0.135270402 0.949973285
v -0.0219681617 0.0302366465 0.389947146
vt 0.135270402 0.949973285
v -0.0355452374 0.0115494104 0.389947146
vt 0.128570482 0.948592484
f 442/442 443/443 444/444
v -0.0219681617 0.0302366465 0.389947146
vt 0.135270402 0.949973285
v -0.0219681617 0.0302366465 0.389947146
vt 0.135270402 0.949973285
v -8.69256542e-11 0.0373745374 0.389947146
vt 0.1500438 0.95049119
f 445/445 446/446 447/447
v -8.69256542e-11 0.0373745374 0.389947146
vt 0.1500438 0.95049119
v -8.69256542e-11 0.0373745374 0.389947146
vt 0.1500438 0.95049119
v -0.0219681617 0.0302366465 0.389947146
vt 0.135270402 0.949973285
f 448/448 449/449 450/450
v -8.69256542e-11 0.0373745374 0.389947146
vt 0.1500438 0.95049119
v -8.69256542e-11 0.0373745374 0.389947146
vt 0.1500438 0.95049119
v 0.0219681617 0.0302366465 0.389947146
vt 0.166048005 0.949851334
f 451/451 452/452 453/453
v 0.0219681617 0.0302366465 0.389947146
vt 0.166048005 0.949851334
v 0.0219681617 0.0302366465 0.389947146
vt 0.166048005 0.949851334
v -8.69256542e-11 0.0373745374 0.389947146
vt 0.1500438 0.95049119
f 454/454 455/455 456/456
v 0.0219681617 0.0302366465 0.389947146
vt 0.166048005 0.949851334
v 0.0219681617 0.0302366465 0.389947146
vt 0.166048005 0.949851334
v 0.0355452374 0.0115494104 0.389947146
vt 0.175815925 0.948414862
f 457/457 458/458 459/459
v 0.0355452374 0.0115494104 0.389947146
vt 0.175815925 0.948414862
v 0.0355452374 0.0115494104 0.389947146
vt 0.175815925 0.948414862
v 0.0219681617 0.0302366465 0.389947146
vt 0.166048005 0.949851334
f 460/460 461/461 462/462
v 0.0355452374 0.0115494104 0.389947146
vt 0.175815925 0.948414862
v 0.0355452374 0.0115494104 0.389947146
vt 0.175815925 0.948414862
v 0.0355452374 -0.0115492838 0.389947146
vt 0.176160201 0.946870685
f 463/463 464/464 465/465
v 0.0355452374 -0.0115492838 0.389947146
vt 0.176160201 0.946870685
v 0.0355452374 -0.0115492838 0.389947146
vt 0.176160201 0.946870685
v 0.0355452374 0.0115494104 0.389947146
vt 0.175815925 0.948414862
f 466/466 467/467 468/468
v -0.0219681617 0.0302366465 0.389947146
vt 0.135270402 0.949973285
v -0.0130907912 0.0302366521 0.430055588
vt 0.141630888 0.971259058
v 0.00548652094 0.0373745412 0.414735526
vt 0.154022142 0.963908553
f 469/469 470/470 471/471
v 0.00548652094 0.0373745412 0.414735526
vt 0.154022142 0.963908553
v -8.69256542e-11 0.0373745374 0.389947146
vt 0.1500438 0.95049119
v -0.0219681617 0.0302366465 0.389947146
vt 0.135270402 0.949973285
f 472/472 473/473 474/474
v 0.0355452374 0.0115494104 0.389947146
vt 0.175815925 0.948414862
v 0.0355452336 0.0115494104 0.389947146
vt 0.175815925 0.948414862
v 0.0355452336 -0.0115492838 0.389947146
vt 0.176160201 0.946870685
f 475/475 476/476 477/477
v 0.0355452336 -0.0115492838 0.389947146
vt 0.176160201 0.946870685
v 0.0355452374 -0.0115492838 0.389947146
vt 0.176160201 0.946870685
v 0.0355452374 0.0115494104 0.389947146
vt 0.175815925 0.948414862
f 478/478 479/479 480/480
v -0.0355452374 0.0115494104 0.389947146
vt 0.203807637 0.967151999
v -0.0245721918 0.0115494188 0.439523906
vt 0.211534366 0.960938156
v -0.0130907912 0.0302366521 0.430055588
vt 0.209575489 0.940572321
f 481/481 482/482 483/483
v -0.0130907912 0.0302366521 0.430055588
vt 0.209575489 0.940572321
v -0.0219681617 0.0302366465 0.389947146
vt 0.203324422 0.945599377
v -0.0355452374 0.0115494104 0.389947146
vt 0.203807637 0.967151999
f 484/484 485/485 486/486
v 0.0219681617 0.0302366465 0.389947146
vt 0.166048005 0.949851334
v 0.0240638331 0.0302366484 0.399415463
vt 0.167522386 0.954867125
v 0.0355452336 0.0115494104 0.389947146
vt 0.175815925 0.948414862
f 487/487 488/488 489/489
v 0.0355452336 0.0115494104 0.389947146
vt 0.175815925 0.948414862
v 0.0355452374 0.0115494104 0.389947146
vt 0.175815925 0.948414862
v 0.0219681617 0.0302366465 0.389947146
vt 0.166048005 0.949851334
f 490/490 491/491 492/492
v -0.0245721918 7.16075306e-08 0.439523906
vt 0.217741624 0.969506741
v -0.0245721918 0.0115494188 0.439523906
vt 0.211534366 0.960938156
v -0.0355452374 0.0115494104 0.389947146
vt 0.203807637 0.967151999
f 493/493 494/494 495/495
v -0.0355452374 0.0115494104 0.389947146
vt 0.203807637 0.967151999
v -0.0355452374 6.35304502e-08 0.389947146
vt 0.210014924 0.975720584
v -0.0245721918 7.16075306e-08 0.439523906
vt 0.217741624 0.969506741
f 496/496 497/497 498/498
v 0.0108008338 0.0302366558 0.457782269
vt 0.158383355 0.985777497
v 0.0423312113 0.0302366577 0.4645679
vt 0.180265531 0.989140987
v 0.0397392064 0.0373745449 0.436065286
vt 0.178386435 0.975248575
f 499/499 500/500 501/501
v 0.0397392064 0.0373745449 0.436065286
vt 0.178386435 0.975248575
v 0.0202523582 0.0373745449 0.431871563
vt 0.16456683 0.973093748
v 0.0108008338 0.0302366558 0.457782269
vt 0.158383355 0.985777497
f 502/502 503/503 504/504
v -0.0130907912 0.0302366521 0.430055588
vt 0.141630888 0.971259058
v 0.0108008338 0.0302366558 0.457782269
vt 0.158383355 0.985777497
v 0.0202523582 0.0373745449 0.431871563
vt 0.16456683 0.973093748
f 505/505 506/506 507/507
v 0.0202523582 0.0373745449 0.431871563
vt 0.16456683 0.973093748
v 0.00548652094 0.0373745412 0.414735526
vt 0.154022142 0.963908553
v -0.0130907912 0.0302366521 0.430055588
vt 0.141630888 0.971259058
f 508/508 509/509 510/510
v 0.0355452336 0.0115494104 0.389947146
vt 0.175815925 0.948414862
v 0.0355452336 0.0115494104 0.389947146
vt 0.175815925 0.948414862
v 0.0355452336 -0.0115492838 0.389947146
vt 0.176160201 0.946870685
f 511/511 512/512 513/513
v 0.0355452336 -0.0115492838 0.389947146
vt 0.176160201 0.946870685
v 0.0355452336 -0.0115492838 0.389947146
vt 0.176160201 0.946870685
v 0.0355452336 0.0115494104 0.389947146
vt 0.175815925 0.948414862
f 514/514 515/515 516/516
v -0.0245721918 0.0115494188 0.439523906
vt 0.211534366 0.960938156
v 0.00495946733 0.0115494244 0.47379598
vt 0.232329234 0.944215178
v 0.0108008338 0.0302366558 0.457782269
vt 0.22639887 0.927043021
f 517/517 518/518 519/519
v 0.0108008338 0.0302366558 0.457782269
vt 0.22639887 0.927043021
v -0.0130907912 0.0302366521 0.430055588
vt 0.209575489 0.940572321
v -0.0245721918 0.0115494188 0.439523906
vt 0.211534366 0.960938156
f 520/520 521/521 522/522
v 0.0240638331 0.0302366484 0.399415463
vt 0.167522386 0.954867125
v 0.0297038909 0.0302366484 0.405960858
vt 0.171457186 0.958314657
v 0.0355452336 0.0115494104 0.389947146
vt 0.175815925 0.948414862
f 523/523 524/524 525/525
v 0.0355452336 0.0115494104 0.389947146
vt 0.175815925 0.948414862
v 0.0355452336 0.0115494104 0.389947146
vt 0.175815925 0.948414862
v 0.0240638331 0.0302366484 0.399415463
vt 0.167522386 0.954867125
f 526/526 527/527 528/528
v -0.0245721918 7.16075306e-08 0.439523906
vt 0.217741624 0.969506741
v 0.00495946733 7.71911601e-08 0.47379598
vt 0.238536462 0.952783763
v 0.00495946733 0.0115494244 0.47379598
vt 0.232329234 0.944215178
f 529/529 530/530 531/531
v 0.00495946733 0.0115494244 0.47379598
vt 0.232329234 0.944215178
v -0.0245721918 0.0115494188 0.439523906
vt 0.211534366 0.960938156
v -0.0245721918 7.16075306e-08 0.439523906
vt 0.217741624 0.969506741
f 532/532 533/533 534/534
v 0.00548652094 0.0373745412 0.414735526
vt 0.154022142 0.963908553
v 0.0202523582 0.0373745449 0.431871563
vt 0.16456683 0.973093748
v 0.0297038909 0.0302366484 0.405960858
vt 0.171457186 0.958314657
f 535/535 536/536 537/537
v 0.0297038909 0.0302366484 0.405960858
vt 0.171457186 0.958314657
v 0.0240638331 0.0302366484 0.399415463
vt 0.167522386 0.954867125
v 0.00548652094 0.0373745412 0.414735526
vt 0.154022142 0.963908553
f 538/538 539/539 540/540
v 0.0355452336 0.0115494104 0.389947146
vt 0.175815925 0.948414862
v 0.0355452336 0.0115494104 0.389947146
vt 0.175815925 0.948414862
v 0.0355452336 -0.0115492838 0.389947146
vt 0.176160201 0.946870685
f 541/541 542/542 543/543
v 0.0355452336 -0.0115492838 0.389947146
vt 0.176160201 0.946870685
v 0.0355452336 -0.0115492838 0.389947146
vt 0.176160201 0.946870685
v 0.0355452336 0.0115494104 0.389947146
vt 0.175815925 0.948414862
f 544/544 545/545 546/546
v 0.0355452336 0.0115494104 0.389947146
vt 0.175815925 0.948414862
v 0.0355452336 0.0115494104 0.389947146
vt 0.175815925 0.948414862
v 0.0355452336 -0.0115492838 0.389947146
vt 0.176160201 0.946870685
f 547/547 548/548 549/549
v 0.0355452336 -0.0115492838 0.389947146
vt 0.176160201 0.946870685
v 0.0355452336 -0.0115492838 0.389947146
vt 0.176160201 0.946870685
v 0.0355452336 0.0115494104 0.389947146
vt 0.175815925 0.948414862
f 550/550 551/551 552/552
v 0.00495946733 0.0115494244 0.47379598
vt 0.232329234 0.944215178
v 0.0439331532 0.0115494244 0.482183456
vt 0.259772718 0.922145307
v 0.0423312113 0.0302366577 0.4645679
vt 0.248601153 0.909188211
f 553/553 554/554 555/555
v 0.0423312113 0.0302366577 0.4645679
vt 0.248601153 0.909188211
v 0.0108008338 0.0302366558 0.457782269
vt 0.22639887 0.927043021
v 0.00495946733 0.0115494244 0.47379598
vt 0.232329234 0.944215178
f 556/556 557/557 558/558
v 0.0297038909 0.0302366484 0.405960858
vt 0.171457186 0.958314657
v 0.0371472165 0.0302366484 0.407562703
vt 0.176632568 0.959135056
v 0.0355452336 0.0115494104 0.389947146
vt 0.175815925 0.948414862
f 559/559 560/560 561/561
v 0.0355452336 0.0115494104 0.389947146
vt 0.175815925 0.948414862
v 0.0355452336 0.0115494104 0.389947146
vt 0.175815925 0.948414862
v 0.0297038909 0.0302366484 0.405960858
vt 0.171457186 0.958314657
f 562/562 563/563 564/564
v 0.00495946733 7.71911601e-08 0.47379598
vt 0.238536462 0.952783763
v 0.0439331532 7.85576546e-08 0.482183456
vt 0.265979975 0.930714011
v 0.0439331532 0.0115494244 0.482183456
vt 0.259772718 0.922145307
f 565/565 566/566 567/567
v 0.0439331532 0.0115494244 0.482183456
vt 0.259772718 0.922145307
v 0.00495946733 0.0115494244 0.47379598
vt 0.232329234 0.944215178
v 0.00495946733 7.71911601e-08 0.47379598
vt 0.238536462 0.952783763
f 568/568 569/569 570/570
v 0.0202523582 0.0373745449 0.431871563
vt 0.16456683 0.973093748
v 0.0397392064 0.0373745449 0.436065286
vt 0.178386435 0.975248575
v 0.0371472165 0.0302366484 0.407562703
vt 0.176632568 0.959135056
f 571/571 572/572 573/573
v 0.0371472165 0.0302366484 0.407562703
vt 0.176632568 0.959135056
v 0.0297038909 0.0302366484 0.405960858
vt 0.171457186 0.958314657
v 0.0202523582 0.0373745449 0.431871563
vt 0.16456683 0.973093748
f 574/574 575/575 576/576
v 0.0803174525 0.0115494225 0.462096989
vt 0.28539291 0.90154177
v 0.0717667267 0.030236654 0.448317587
vt 0.269328326 0.892519534
v 0.0423312113 0.0302366577 0.4645679
vt 0.248601153 0.909188211
f 577/577 578/578 579/579
v 0.0423312113 0.0302366577 0.4645679
vt 0.248601153 0.909188211
v 0.0439331532 0.0115494244 0.482183456
vt 0.259772718 0.922145307
v 0.0803174525 0.0115494225 0.462096989
vt 0.28539291 0.90154177
f 580/580 581/581 582/582
v 0.0440959893 0.0302366484 0.403726548
vt 0.181453422 0.957081735
v 0.0355452336 0.0115494104 0.389947146
vt 0.175815925 0.948414862
v 0.0355452336 0.0115494104 0.389947146
vt 0.175815925 0.948414862
f 583/583 584/584 585/585
v 0.0355452336 0.0115494104 0.389947146
vt 0.175815925 0.948414862
v 0.0371472165 0.0302366484 0.407562703
vt 0.176632568 0.959135056
v 0.0440959893 0.0302366484 0.403726548
vt 0.181453422 0.957081735
f 586/586 587/587 588/588
v 0.0803174525 7.52851577e-08 0.462096989
vt 0.291600168 0.910110474
v 0.0803174525 0.0115494225 0.462096989
vt 0.28539291 0.90154177
v 0.0439331532 0.0115494244 0.482183456
vt 0.259772718 0.922145307
f 589/589 590/590 591/591
v 0.0439331532 0.0115494244 0.482183456
vt 0.259772718 0.922145307
v 0.0439331532 7.85576546e-08 0.482183456
vt 0.265979975 0.930714011
v 0.0803174525 7.52851577e-08 0.462096989
vt 0.291600168 0.910110474
f 592/592 593/593 594/594
v 0.0579313412 0.0373745449 0.426022053
vt 0.191232845 0.969756365
v 0.0440959893 0.0302366484 0.403726548
vt 0.181453422 0.957081735
v 0.0371472165 0.0302366484 0.407562703
vt 0.176632568 0.959135056
f 595/595 596/596 597/597
v 0.0371472165 0.0302366484 0.407562703
vt 0.176632568 0.959135056
v 0.0397392064 0.0373745449 0.436065286
vt 0.178386435 0.975248575
v 0.0579313412 0.0373745449 0.426022053
vt 0.191232845 0.969756365
f 598/598 599/599 600/600
v 0.0717667267 0.030236654 0.448317587
vt 0.200568244 0.980432451
v 0.0579313412 0.0373745449 0.426022053
vt 0.191232845 0.969756365
v 0.0397392064 0.0373745449 0.436065286
vt 0.178386435 0.975248575
f 601/601 602/602 603/603
v 0.0397392064 0.0373745449 0.436065286
vt 0.178386435 0.975248575
v 0.0423312113 0.0302366577 0.4645679
vt 0.180265531 0.989140987
v 0.0717667267 0.030236654 0.448317587
vt 0.200568244 0.980432451
f 604/604 605/605 606/606
v 0.187152043 0.010101785 0.305408925
vt 0.361399025 0.842118025
v 0.185446396 0.0264467206 0.302660286
vt 0.35141331 0.830957353
v 0.109954789 0.0302366484 0.407862753
vt 0.296218634 0.870894611
f 607/607 608/608 609/609
v 0.109954789 0.0302366484 0.407862753
vt 0.296218634 0.870894611
v 0.118505515 0.0115494151 0.421642154
vt 0.312283218 0.879916787
v 0.187152043 0.010101785 0.305408925
vt 0.361399025 0.842118025
f 610/610 611/611 612/612
v 0.179926783 0.0264467206 0.293765515
vt 0.268336535 0.890328944
v 0.178221136 0.0101017822 0.291016906
vt 0.275878668 0.899719357
v 0.0737332925 0.0115494039 0.349492341
vt 0.220726371 0.952857494
f 613/613 614/614 615/615
v 0.0737332925 0.0115494039 0.349492341
vt 0.220726371 0.952857494
v 0.0822840557 0.0302366391 0.363271713
vt 0.21554029 0.938717008
v 0.179926783 0.0264467206 0.293765515
vt 0.268336535 0.890328944
f 616/616 617/617 618/618
v 0.162060544 5.40880016e-08 0.331989795
vt 0.347222209 0.863821268
v 0.187152043 0.010101785 0.305408925
vt 0.359461278 0.842118025
v 0.118505515 0.0115494151 0.421642154
vt 0.310345471 0.879916787
f 619/619 620/620 621/621
v 0.118505515 0.0115494151 0.421642154
vt 0.310345471 0.879916787
v 0.118505515 6.86942272e-08 0.421642154
vt 0.316552758 0.888485491
v 0.162060544 5.40880016e-08 0.331989795
vt 0.347222209 0.863821268
f 622/622 623/623 624/624
v 0.182686582 0.0326899402 0.298212916
vt 0.266553432 0.885654747
v 0.179926783 0.0264467206 0.293765515
vt 0.268336535 0.890328944
v 0.0822840557 0.0302366391 0.363271713
vt 0.21554029 0.938717008
f 625/625 626/626 627/627
v 0.0822840557 0.0302366391 0.363271713
vt 0.21554029 0.938717008
v 0.0961194038 0.0373745374 0.385567278
vt 0.219062686 0.927864492
v 0.182686582 0.0326899402 0.298212916
vt 0.266553432 0.885654747
f 628/628 629/629 630/630
v 0.185446396 0.0264467206 0.302660286
vt 0.271210551 0.887482107
v 0.182686582 0.0326899402 0.298212916
vt 0.266553432 0.885654747
v 0.0961194038 0.0373745374 0.385567278
vt 0.219062686 0.927864492
f 631/631 632/632 633/633
v 0.0961194038 0.0373745374 0.385567278
vt 0.219062686 0.927864492
v 0.109954789 0.0302366484 0.407862753
vt 0.229948133 0.924445212
v 0.185446396 0.0264467206 0.302660286
vt 0.271210551 0.887482107
f 634/634 635/635 636/636
v -0.0355452374 -6.35304502e-08 -0.389947146
vt 0.155700058 0.0975117683
v -0.0355452374 6.35304502e-08 0.389947146
vt 0.14625974 0.962581515
v -0.0355452374 0.0115494104 0.389947146
vt 0.151109695 0.96261847
f 637/637 638/638 639/639
v -0.0355452374 0.0115494104 0.389947146
vt 0.151109695 0.96261847
v -0.0355452374 0.0115492838 -0.389947146
vt 0.160550028 0.097548753
v -0.0355452374 -6.35304502e-08 -0.389947146
vt 0.155700058 0.0975117683
f 640/640 641/641 642/642
v 0.109954789 0.0302366484 0.407862753
vt 0.226834163 0.959026217
v 0.0961194038 0.0373745374 0.385567278
vt 0.218131021 0.947859824
v 0.0579313412 0.0373745449 0.426022053
vt 0.191232845 0.969756365
f 643/643 644/644 645/645
v 0.0579313412 0.0373745449 0.426022053
vt 0.191232845 0.969756365
v 0.0717667267 0.030236654 0.448317587
vt 0.200568244 0.980432451
v 0.109954789 0.0302366484 0.407862753
vt 0.226834163 0.959026217
f 646/646 647/647 648/648
v 0.0961194038 0.0373745374 0.385567278
vt 0.218131021 0.947859824
v 0.0822840557 0.0302366391 0.363271713
vt 0.207889244 0.935589194
v 0.0440959893 0.0302366484 0.403726548
vt 0.181453422 0.957081735
f 649/649 650/650 651/651
v 0.0440959893 0.0302366484 0.403726548
vt 0.181453422 0.957081735
v 0.0579313412 0.0373745449 0.426022053
vt 0.191232845 0.969756365
v 0.0961194038 0.0373745374 0.385567278
vt 0.218131021 0.947859824
f 652/652 653/653 654/654
v 0.0803174525 7.52851577e-08 0.462096989
vt 0.291600168 0.910110474
v 0.118505515 6.86942272e-08 0.421642154
vt 0.318490505 0.888485491
v 0.118505515 0.0115494151 0.421642154
vt 0.312283218 0.879916787
f 655/655 656/656 657/657
v 0.118505515 0.0115494151 0.421642154
vt 0.312283218 0.879916787
v 0.0803174525 0.0115494225 0.462096989
vt 0.28539291 0.90154177
v 0.0803174525 7.52851577e-08 0.462096989
vt 0.291600168 0.910110474
f 658/658 659/659 660/660
v 0.0822840557 0.0302366391 0.363271713
vt 0.207889244 0.935589194
v 0.0737332925 0.0115494039 0.349492341
vt 0.200957701 0.927991211
v 0.0355452336 0.0115494104 0.389947146
vt 0.175815925 0.948414862
f 661/661 662/662 663/663
v 0.0355452336 0.0115494104 0.389947146
vt 0.175815925 0.948414862
v 0.0440959893 0.0302366484 0.403726548
vt 0.181453422 0.957081735
v 0.0822840557 0.0302366391 0.363271713
vt 0.207889244 0.935589194
f 664/664 665/665 666/666
v 0.118505515 0.0115494151 0.421642154
vt 0.312283218 0.879916787
v 0.109954789 0.0302366484 0.407862753
vt 0.296218634 0.870894611
v 0.0717667267 0.030236654 0.448317587
vt 0.269328326 0.892519534
f 667/667 668/668 669/669
v 0.0717667267 0.030236654 0.448317587
vt 0.269328326 0.892519534
v 0.0803174525 0.0115494225 0.462096989
vt 0.28539291 0.90154177
v 0.118505515 0.0115494151 0.421642154
vt 0.312283218 0.879916787
f 670/670 671/671 672/672
v 0.0737332925 0.0115494039 0.349492341
vt 0.200957701 0.927991211
v 0.0737332925 -0.0115492912 0.349492341
vt 0.199815169 0.927656412
v 0.0355452336 -0.0115492838 0.389947146
vt 0.176160201 0.946870685
f 673/673 674/674 675/675
v 0.0355452336 -0.0115492838 0.389947146
vt 0.176160201 0.946870685
v 0.0355452336 0.0115494104 0.389947146
vt 0.175815925 0.948414862
v 0.0737332925 0.0115494039 0.349492341
vt 0.200957701 0.927991211
f 676/676 677/677 678/678
v 0.153129622 5.1743239e-08 0.317597747
vt 0.317658663 0.85680747
v 0.178221136 0.0101017822 0.291016906
vt 0.331770062 0.84338969
v 0.187152043 0.010101785 0.305408925
vt 0.337356806 0.848956168
f 679/679 680/680 681/681
v 0.187152043 0.010101785 0.305408925
vt 0.337356806 0.848956168
v 0.162060544 5.40880016e-08 0.331989795
vt 0.323125005 0.86220938
v 0.153129622 5.1743239e-08 0.317597747
vt 0.317658663 0.85680747
f 682/682 683/683 684/684
v 0.187152043 0.010101785 0.305408925
vt 0.337356806 0.848956168
v 0.178221136 0.0101017822 0.291016906
vt 0.331770062 0.84338969
v 0.185446396 0.0264467206 0.302660286
vt 0.339809269 0.846763611
f 685/685 686/686 687/687
v 0.178221136 0.0101017822 0.291016906
vt 0.331770062 0.84338969
v 0.179926783 0.0264467206 0.293765515
vt 0.3362014 0.843163848
v 0.185446396 0.0264467206 0.302660286
vt 0.339809269 0.846763611
f 688/688 689/689 690/690
v 0.179926783 0.0264467206 0.293765515
vt 0.3362014 0.843163848
v 0.182686582 0.0326899402 0.298212916
vt 0.339405507 0.844472408
v 0.185446396 0.0264467206 0.302660286
vt 0.339809269 0.846763611
f 691/691 692/692 693/693
v 0.0355452374 0.0115492838 -0.389947146
vt 0.16400823 0.0968595669
v 0.0303411726 0.0115492782 -0.42483145
vt 0.164254189 0.0751807988
v 0.0177579876 0.0302365124 -0.418169111
vt 0.145882443 0.0770933926
f 694/694 695/695 696/696
v 0.0177579876 0.0302365124 -0.418169111
vt 0.145882443 0.0770933926
v 0.0219681617 0.0302365161 -0.389947146
vt 0.145681769 0.0946488827
v 0.0355452374 0.0115492838 -0.389947146
vt 0.16400823 0.0968595669
f 697/697 698/698 699/699
v -0.0355452374 0.0115492838 -0.389947146
vt 0.45310697 0.190798238
v -0.0355452336 0.0115492838 -0.389947146
vt 0.453107297 0.190798238
v -0.0355452336 -6.35304502e-08 -0.389947146
vt 0.453107297 0.190479353
f 700/700 701/701 702/702
v -0.0355452336 -6.35304502e-08 -0.389947146
vt 0.453107297 0.190479353
v -0.0355452374 -6.35304502e-08 -0.389947146
vt 0.45310697 0.190479353
v -0.0355452374 0.0115492838 -0.389947146
vt 0.45310697 0.190798238
f 703/703 704/704 705/705
v -0.0219681617 0.0302365161 -0.389947146
vt 0.145884946 0.0989224985
v -0.0229620468 0.0302365143 -0.396609455
vt 0.145094946 0.0941112861
v -0.0355452336 0.0115492838 -0.389947146
vt 0.163517326 0.0960272849
f 706/706 707/707 708/708
v -0.0355452336 0.0115492838 -0.389947146
vt 0.163517326 0.0960272849
v -0.0355452374 0.0115492838 -0.389947146
vt 0.163517326 0.0960272849
v -0.0219681617 0.0302365161 -0.389947146
vt 0.145884946 0.0989224985
f 709/709 710/710 711/711
v -8.69256542e-11 0.0373744108 -0.389947146
vt 0.139149919 0.100028366
v -0.00260203052 0.0373744071 -0.407389313
vt 0.137081698 0.0874323845
v -0.0229620468 0.0302365143 -0.396609455
vt 0.145094946 0.0941112861
f 712/712 713/713 714/714
v -0.0229620468 0.0302365143 -0.396609455
vt 0.145094946 0.0941112861
v -0.0219681617 0.0302365161 -0.389947146
vt 0.145884946 0.0989224985
v -8.69256542e-11 0.0373744108 -0.389947146
vt 0.139149919 0.100028366
f 715/715 716/716 717/717
v -0.0229620468 0.0302365143 -0.396609455
vt 0.145094946 0.0941112861
v -0.0257982053 0.0302365143 -0.402296364
vt 0.144420624 0.0900044218
v -0.0355452336 0.0115492838 -0.389947146
vt 0.163517326 0.0960272849
f 718/718 719/719 720/720
v -0.0355452336 0.0115492838 -0.389947146
vt 0.163517326 0.0960272849
v -0.0355452336 0.0115492838 -0.389947146
vt 0.163517326 0.0960272849
v -0.0229620468 0.0302365143 -0.396609455
vt 0.145094946 0.0941112861
f 721/721 722/722 723/723
v 0.0303411726 0.0115492782 -0.42483145
vt 0.164254189 0.0751807988
v 0.0154908616 0.0115492716 -0.45460844
vt 0.160913423 0.0544212274
v 0.00574383279 0.0302365087 -0.442259222
vt 0.143527135 0.0601664037
f 724/724 725/725 726/726
v 0.00574383279 0.0302365087 -0.442259222
vt 0.143527135 0.0601664037
v 0.0177579876 0.0302365124 -0.418169111
vt 0.145882443 0.0770933926
v 0.0303411726 0.0115492782 -0.42483145
vt 0.164254189 0.0751807988
f 727/727 728/728 729/729
v -0.0355452336 0.0115492838 -0.389947146
vt 0.494529396 0.483014256
v -0.0355452336 0.0115492838 -0.389947146
vt 0.494548827 0.48300305
v -0.0355452336 -6.35304502e-08 -0.389947146
vt 0.494548827 0.463574409
f 730/730 731/731 732/732
v -0.0355452336 -6.35304502e-08 -0.389947146
vt 0.494548827 0.463574409
v -0.0355452336 -6.35304502e-08 -0.389947146
vt 0.494529396 0.463585615
v -0.0355452336 0.0115492838 -0.389947146
vt 0.494529396 0.483014256
f 733/733 734/734 735/735
v 0.0177579876 0.0302365124 -0.418169111
vt 0.145882443 0.0770933926
v 0.00574383279 0.0302365087 -0.442259222
vt 0.143527135 0.0601664037
v -0.010027186 0.0373744071 -0.422277838
vt 0.13286218 0.0681866035
f 736/736 737/737 738/738
v -0.010027186 0.0373744071 -0.422277838
vt 0.13286218 0.0681866035
v -0.00260203052 0.0373744071 -0.407389313
vt 0.13413474 0.0783455893
v 0.0177579876 0.0302365124 -0.418169111
vt 0.145882443 0.0770933926
f 739/739 740/740 741/741
v -0.00260203052 0.0373744071 -0.407389313
vt 0.137081698 0.0874323845
v -0.010027186 0.0373744071 -0.422277838
vt 0.135316253 0.0766805187
v -0.0257982053 0.0302365143 -0.402296364
vt 0.144420624 0.0900044218
f 742/742 743/743 744/744
v -0.0257982053 0.0302365143 -0.402296364
vt 0.144420624 0.0900044218
v -0.0229620468 0.0302365143 -0.396609455
vt 0.145094946 0.0941112861
v -0.00260203052 0.0373744071 -0.407389313
vt 0.137081698 0.0874323845
f 745/745 746/746 747/747
v -0.010027186 0.0373744071 -0.422277838
vt 0.135316253 0.0766805187
v -0.0747038051 0.0395255499 -0.505070865
vt 0.123469166 0.0172240883
v -0.0755039454 -8.21213177e-08 -0.50405705
vt 0.160884023 0.0118325055
f 748/748 749/749 750/750
v -0.0755039454 -8.21213177e-08 -0.50405705
vt 0.160884023 0.0118325055
v -0.0257982053 0.0302365143 -0.402296364
vt 0.144420624 0.0900044218
v -0.010027186 0.0373744071 -0.422277838
vt 0.135316253 0.0766805187
f 751/751 752/752 753/753
v -0.0257982053 0.0302365143 -0.402296364
vt 0.144420624 0.0900044218
v -0.0755039454 -8.21213177e-08 -0.50405705
vt 0.160884023 0.0118325055
v -0.0355452336 0.0115492838 -0.389947146
vt 0.163517326 0.0960272849
f 754/754 755/755 756/756
v 0.0154908616 0.0115492716 -0.45460844
vt 0.160913423 0.0544212274
v -0.0755039454 -8.21213177e-08 -0.50405705
vt 0.145065203 0.0148134269
v 0.00574383279 0.0302365087 -0.442259222
vt 0.143527135 0.0601664037
f 757/757 758/758 759/759
v -0.0355452336 0.0115492838 -0.389947146
vt 0.146427482 0.0960272849
v -0.0755039454 -8.21213177e-08 -0.50405705
vt 0.143794179 0.0118325055
v -0.0355452336 -6.35304502e-08 -0.389947146
vt 0.157324985 0.094237946
f 760/760 761/761 762/762
v 0.00574383279 0.0302365087 -0.442259222
vt 0.143527135 0.0601664037
v -0.0755039454 -8.21213177e-08 -0.50405705
vt 0.145065203 0.0148134269
v -0.0747038051 0.0395255499 -0.505070865
vt 0.119680904 0.0132543147
f 763/763 764/764 765/765
v -0.0747038051 0.0395255499 -0.505070865
vt 0.119680904 0.0132543147
v -0.010027186 0.0373744071 -0.422277838
vt 0.13286218 0.0681866035
v 0.00574383279 0.0302365087 -0.442259222
vt 0.143527135 0.0601664037
f 766/766 767/767 768/768
