# RawMetal: original asset node Can_1_Crushed
v 1.48413815e-08 0.0382344201 -0.204134241
vt 0.517760754 0.471462071
v 1.48054742e-08 0.213855937 -0.216348037
vt 0.669795632 0.471462101
v 0.0832245946 0.162454128 -0.159872472
vt 0.669795632 0.579779506
f 1/1 2/2 3/3
v 0.0832245946 0.162454128 -0.159872472
vt 0.669795632 0.579779506
v 0.0519941188 0.0382344201 -0.153765559
vt 0.517760754 0.579779506
v 1.48413815e-08 0.0382344201 -0.204134241
vt 0.517760754 0.471462071
f 4/4 5/5 6/6
v 0.0519941188 0.0382344201 -0.153765559
vt 0.517760754 0.579779506
v 0.0832245946 0.162454128 -0.159872472
vt 0.669795632 0.579779506
v 0.0832245946 0.162454113 -0.0469213054
vt 0.669795632 0.688096881
f 7/7 8/8 9/9
v 0.0832245946 0.162454113 -0.0469213054
vt 0.669795632 0.688096881
v 0.0519941188 0.0382344201 -0.053028211
vt 0.517760754 0.688096881
v 0.0519941188 0.0382344201 -0.153765559
vt 0.517760754 0.579779506
f 10/10 11/11 12/12
v 0.0832245946 0.162454113 -0.0469213054
vt 0.669795632 0.471320868
v 1.48054742e-08 0.213855922 0.00955427531
vt 0.669795632 0.579638243
v 1.48413815e-08 0.0382344201 -0.00265952898
vt 0.517760754 0.579638243
f 13/13 14/14 15/15
v 1.48413815e-08 0.0382344201 -0.00265952898
vt 0.517760754 0.579638243
v 0.0519941188 0.0382344201 -0.053028211
vt 0.517760754 0.471320868
v 0.0832245946 0.162454113 -0.0469213054
vt 0.669795632 0.471320868
f 16/16 17/17 18/18
v 1.48054742e-08 0.213855922 0.00955427531
vt 0.669795632 0.579638243
v -0.0832245648 0.265257716 -0.0469213016
vt 0.669795632 0.687955618
v -0.051994089 0.0382344201 -0.053028211
vt 0.517760754 0.687955618
f 19/19 20/20 21/21
v -0.051994089 0.0382344201 -0.053028211
vt 0.517760754 0.687955618
v 1.48413815e-08 0.0382344201 -0.00265952898
vt 0.517760754 0.579638243
v 1.48054742e-08 0.213855922 0.00955427531
vt 0.669795632 0.579638243
f 22/22 23/23 24/24
v 0.0832245946 0.162454113 -0.0469213054
vt 0.286906481 0.727317572
v 0.0832245946 0.162454128 -0.159872472
vt 0.426075041 0.727317572
v 1.48054742e-08 0.213855922 0.00955427531
vt 0.217322156 0.847841084
f 25/25 26/26 27/27
v 0.0832245946 0.162454128 -0.159872472
vt 0.426075041 0.727317572
v 1.48054742e-08 0.213855937 -0.216348037
vt 0.495659351 0.847841144
v 1.48054742e-08 0.213855922 0.00955427531
vt 0.217322156 0.847841084
f 28/28 29/29 30/30
v 1.48054742e-08 0.213855937 -0.216348037
vt 0.495659351 0.847841144
v -0.0832245648 0.265257716 -0.159872472
vt 0.426074982 0.968364716
v -0.0832245648 0.265257716 -0.0469213016
vt 0.286906451 0.968364716
f 31/31 32/32 33/33
v 1.48054742e-08 0.213855937 -0.216348037
vt 0.495659351 0.847841144
v -0.0832245648 0.265257716 -0.0469213016
vt 0.286906451 0.968364716
v 1.48054742e-08 0.213855922 0.00955427531
vt 0.217322156 0.847841084
f 34/34 35/35 36/36
v -0.0832245648 0.265257716 -0.0469213016
vt 0.669795632 0.471431524
v -0.0832245648 0.265257716 -0.159872472
vt 0.669795632 0.579748869
v -0.051994089 0.0382344201 -0.153765559
vt 0.517760754 0.579748869
f 37/37 38/38 39/39
v -0.051994089 0.0382344201 -0.153765559
vt 0.517760754 0.579748869
v -0.051994089 0.0382344201 -0.053028211
vt 0.517760754 0.471431494
v -0.0832245648 0.265257716 -0.0469213016
vt 0.669795632 0.471431524
f 40/40 41/41 42/42
v -0.051994089 0.0382344201 -0.153765559
vt 0.517760754 0.579748869
v -0.0832245648 0.265257716 -0.159872472
vt 0.669795632 0.579748869
v 1.48054742e-08 0.213855937 -0.216348037
vt 0.669795632 0.688066363
f 43/43 44/44 45/45
v 1.48054742e-08 0.213855937 -0.216348037
vt 0.669795632 0.688066363
v 1.48413815e-08 0.0382344201 -0.204134241
vt 0.517760754 0.688066244
v -0.051994089 0.0382344201 -0.153765559
vt 0.517760754 0.579748869
f 46/46 47/47 48/48
v -0.0893597528 -0.0975963101 -0.159872472
vt 0.745152652 0.974446714
v 1.47984203e-08 -0.137387082 -0.216348037
vt 0.877027869 0.940221965
v -0.0893597528 -0.0975963101 -0.0469213016
vt 0.649575531 0.87735194
f 49/49 50/50 51/51
v 1.47984203e-08 -0.137387082 -0.216348037
vt 0.877027869 0.940221965
v 0.0893597826 -0.177177861 -0.159872472
vt 0.913325787 0.808902204
v 0.0893597826 -0.177177876 -0.0469213054
vt 0.817748725 0.71180743
f 52/52 53/53 54/54
v 1.47984203e-08 -0.137387082 -0.216348037
vt 0.877027869 0.940221965
v 0.0893597826 -0.177177876 -0.0469213054
vt 0.817748725 0.71180743
v 1.47984203e-08 -0.137387097 0.00955427438
vt 0.685873449 0.746032298
f 55/55 56/56 57/57
v 1.47984203e-08 -0.137387082 -0.216348037
vt 0.877027869 0.940221965
v 1.47984203e-08 -0.137387097 0.00955427438
vt 0.685873449 0.746032298
v -0.0893597528 -0.0975963101 -0.0469213016
vt 0.649575531 0.87735194
f 58/58 59/59 60/60
v -0.0893597528 -0.0975963101 -0.159872472
vt 0.365725815 0.579748869
v -0.051994089 0.0382344201 -0.153765559
vt 0.517760754 0.579748869
v 1.48413815e-08 0.0382344201 -0.204134241
vt 0.517760754 0.688066244
f 61/61 62/62 63/63
v 1.48413815e-08 0.0382344201 -0.204134241
vt 0.517760754 0.688066244
v 1.47984203e-08 -0.137387082 -0.216348037
vt 0.365725815 0.688066185
v -0.0893597528 -0.0975963101 -0.159872472
vt 0.365725815 0.579748869
f 64/64 65/65 66/66
v -0.051994089 0.0382344201 -0.053028211
vt 0.517760754 0.471431494
v -0.051994089 0.0382344201 -0.153765559
vt 0.517760754 0.579748869
v -0.0893597528 -0.0975963101 -0.159872472
vt 0.365725815 0.579748869
f 67/67 68/68 69/69
v -0.0893597528 -0.0975963101 -0.159872472
vt 0.365725815 0.579748869
v -0.0893597528 -0.0975963101 -0.0469213016
vt 0.365725815 0.471431464
v -0.051994089 0.0382344201 -0.053028211
vt 0.517760754 0.471431494
f 70/70 71/71 72/72
v 1.48413815e-08 0.0382344201 -0.00265952898
vt 0.517760754 0.579638243
v -0.051994089 0.0382344201 -0.053028211
vt 0.517760754 0.687955618
v -0.0893597528 -0.0975963101 -0.0469213016
vt 0.365725815 0.687955558
f 73/73 74/74 75/75
v -0.0893597528 -0.0975963101 -0.0469213016
vt 0.365725815 0.687955558
v 1.47984203e-08 -0.137387097 0.00955427438
vt 0.365725815 0.579638183
v 1.48413815e-08 0.0382344201 -0.00265952898
vt 0.517760754 0.579638243
f 76/76 77/77 78/78
v 0.0519941188 0.0382344201 -0.053028211
vt 0.517760754 0.471320868
v 1.48413815e-08 0.0382344201 -0.00265952898
vt 0.517760754 0.579638243
v 1.47984203e-08 -0.137387097 0.00955427438
vt 0.365725815 0.579638183
f 79/79 80/80 81/81
v 1.47984203e-08 -0.137387097 0.00955427438
vt 0.365725815 0.579638183
v 0.0893597826 -0.177177876 -0.0469213054
vt 0.365725815 0.471320868
v 0.0519941188 0.0382344201 -0.053028211
vt 0.517760754 0.471320868
f 82/82 83/83 84/84
v 0.0893597826 -0.177177861 -0.159872472
vt 0.365725815 0.579779506
v 0.0519941188 0.0382344201 -0.153765559
vt 0.517760754 0.579779506
v 0.0519941188 0.0382344201 -0.053028211
vt 0.517760754 0.688096881
f 85/85 86/86 87/87
v 0.0519941188 0.0382344201 -0.053028211
vt 0.517760754 0.688096881
v 0.0893597826 -0.177177876 -0.0469213054
vt 0.365725815 0.688096881
v 0.0893597826 -0.177177861 -0.159872472
vt 0.365725815 0.579779506
f 88/88 89/89 90/90
v 1.47984203e-08 -0.137387082 -0.216348037
vt 0.365725905 0.471462071
v 1.48413815e-08 0.0382344201 -0.204134241
vt 0.517760754 0.471462071
v 0.0519941188 0.0382344201 -0.153765559
vt 0.517760754 0.579779506
f 91/91 92/92 93/93
v 0.0519941188 0.0382344201 -0.153765559
vt 0.517760754 0.579779506
v 0.0893597826 -0.177177861 -0.159872472
vt 0.365725815 0.579779506
v 1.47984203e-08 -0.137387082 -0.216348037
vt 0.365725905 0.471462071
f 94/94 95/95 96/96
