# RawMetal: original asset node floppy_disc_2
v 0.0586143918 0.00179999985 -0.0872050673
vt 0.5 0.925398111
v 0.0960775837 0.00179999985 0.0525080897
vt 0.5 0.0224719346
v 0.0378542021 0.00179999985 -0.0427340716
vt 0.609375 0.6875
f 1/1 2/2 3/3
v -0.0569176525 0.00179999985 0.0935327932
vt 1 0.0224719048
v -0.0491904579 0.00179999985 -0.0195712335
vt 0.875 0.6875
v -0.0425545648 0.00179999985 -0.016021708
vt 0.859375 0.65625
f 4/4 5/5 6/6
v -0.0425545648 0.00179999985 -0.016021708
vt 0.859375 0.65625
v -0.0525081083 0.00179999985 0.0960775763
vt 0.988636374 0
v -0.0569176525 0.00179999985 0.0935327932
vt 1 0.0224719048
f 7/7 8/8 9/9
v -0.0525081083 0.00179999985 0.0960775763
vt 0.988636374 0
v -0.00942368153 0.00179999985 0.0244133752
vt 0.7986902 0.362424046
v 0.00179891218 0.00179999985 0.0265198518
vt 0.766196251 0.331580162
f 10/10 11/11 12/12
v 0.0586143918 0.00179999985 -0.0872050673
vt 0.5 0.925398111
v 0.0378542021 0.00179999985 -0.0427340716
vt 0.609375 0.6875
v 0.0254929252 0.00179999985 -0.0888336226
vt 0.608440399 0.988763988
f 13/13 14/14 15/15
v -0.0525081083 0.00179999985 0.0960775763
vt 0.988636374 0
v -0.0177644808 0.00179999985 0.0155658107
vt 0.816887021 0.429252297
v -0.00942368153 0.00179999985 0.0244133752
vt 0.7986902 0.362424046
f 16/16 17/17 18/18
v 0.0586143918 0.00179999985 -0.0872050673
vt 0.876943231 0.253627658
v 0.0461803861 0.00179999985 -0.0943808407
vt 0.812857032 0.253627658
v 0.0461803861 0.00899999961 -0.0943808332
vt 0.812857032 0.29908216
f 19/19 20/20 21/21
v 0.0461803861 0.00899999961 -0.0943808332
vt 0.812857032 0.29908216
v 0.0586143918 0.00899999961 -0.0872050673
vt 0.876943231 0.29908216
v 0.0586143918 0.00179999985 -0.0872050673
vt 0.876943231 0.253627658
f 22/22 23/23 24/24
v -0.0491923094 0.00899999961 -0.0194075741
vt 0.125 0.6875
v -0.0615499355 0.00899999961 -0.0654936358
vt 0.125651658 0.988763988
v -0.0960775837 0.00899999961 -0.0525080897
vt 0 0.966292024
f 25/25 26/26 27/27
v -0.0960775837 0.00899999961 -0.0525080897
vt 0 0.966292024
v -0.0655164868 0.00899999961 0.000305123773
vt 0.046875 0.59375
v -0.0491923094 0.00899999961 -0.0194075741
vt 0.125 0.6875
f 28/28 29/29 30/30
v 0.0570224114 0.00899999961 -0.031982448
vt 0.8113029 0.29908216
v 0.0570224114 0.00683999993 -0.031982448
vt 0.8113029 0.285445809
v 0.0804051161 0.00683999993 0.0552196987
vt 0.526319683 0.285445809
f 31/31 32/32 33/33
v 0.0804051161 0.00683999993 0.0552196987
vt 0.526319683 0.285445809
v 0.0804051161 0.00899999961 0.0552196987
vt 0.526319683 0.29908216
v 0.0570224114 0.00899999961 -0.031982448
vt 0.8113029 0.29908216
f 34/34 35/35 36/36
v 0.0570224114 0.00683999993 -0.031982448
vt 0.453125 0.59375
v -0.0655164868 0.00683999993 0.000305123656
vt 0.046875 0.59375
v -0.0419910811 0.00683999993 0.0880394578
vt 0.046875 0.03125
f 37/37 38/38 39/39
v -0.0419910811 0.00683999993 0.0880394578
vt 0.046875 0.03125
v 0.0804051161 0.00683999993 0.0552196987
vt 0.453125 0.03125
v 0.0570224114 0.00683999993 -0.031982448
vt 0.453125 0.59375
f 40/40 41/41 42/42
v 0.0570224114 0.00899999961 -0.031982448
vt 0.950971603 0.29908216
v -0.0655164868 0.00899999961 0.000305123773
vt 0.550971627 0.29908216
v -0.0655164868 0.00683999993 0.000305123656
vt 0.550971627 0.285445809
f 43/43 44/44 45/45
v -0.0655164868 0.00683999993 0.000305123656
vt 0.550971627 0.285445809
v 0.0570224114 0.00683999993 -0.031982448
vt 0.950971603 0.285445809
v 0.0570224114 0.00899999961 -0.031982448
vt 0.950971603 0.29908216
f 46/46 47/47 48/48
v -0.0419910811 0.00899999961 0.0880394578
vt 0.550971627 0.29908216
v 0.0804051161 0.00899999961 0.0552196987
vt 0.950971603 0.29908216
v 0.0804051161 0.00683999993 0.0552196987
vt 0.950971603 0.285445809
f 49/49 50/50 51/51
v 0.0804051161 0.00683999993 0.0552196987
vt 0.950971603 0.285445809
v -0.0419910811 0.00683999993 0.0880394578
vt 0.550971627 0.285445809
v -0.0419910811 0.00899999961 0.0880394578
vt 0.550971627 0.29908216
f 52/52 53/53 54/54
v -0.0655164868 0.00899999961 0.000305123773
vt 0.813042164 0.29908216
v -0.0419910811 0.00899999961 0.0880394578
vt 0.526319683 0.29908216
v -0.0419910811 0.00683999993 0.0880394578
vt 0.526319683 0.285445809
f 55/55 56/56 57/57
v -0.0419910811 0.00683999993 0.0880394578
vt 0.526319683 0.285445809
v -0.0655164868 0.00683999993 0.000305123656
vt 0.813042164 0.285445809
v -0.0655164868 0.00899999961 0.000305123773
vt 0.813042164 0.29908216
f 58/58 59/59 60/60
v 0.0377777442 0.00899999961 -0.0431735888
vt 0.65625 0.71875
v 0.0377808213 0.0107999966 -0.043174427
vt 0.65625 0.71875
v 0.0342417844 0.0107999966 -0.0364332907
vt 0.634183705 0.658687413
f 61/61 62/62 63/63
v 0.0342417844 0.0107999966 -0.0364332907
vt 0.634183705 0.658687413
v 0.0342387073 0.00899999961 -0.0364324562
vt 0.634173632 0.658687413
v 0.0377777442 0.00899999961 -0.0431735888
vt 0.65625 0.71875
f 64/64 65/65 66/66
v -0.0616729632 0.00179999985 -0.0654606447
vt 0.36548385 0.988763988
v -0.0621391535 -1.67638084e-10 -0.0671992227
vt 0.36548385 1
v -0.0491904579 -1.67637987e-10 -0.0195712335
vt 0.366025269 0.691907048
f 67/67 68/68 69/69
v -0.0491904579 -1.67637987e-10 -0.0195712335
vt 0.366025269 0.691907048
v -0.0491904579 0.00179999985 -0.0195712335
vt 0.366025269 0.691907048
v -0.0616729632 0.00179999985 -0.0654606447
vt 0.36548385 0.988763988
f 70/70 71/71 72/72
v -0.00833854917 0.0107999966 -0.0710808858
vt 0.28125 0.9375
v -0.0620130524 0.0107999966 -0.0672330484
vt 0.125 1
v -0.049189236 0.0107999966 -0.0194084104
vt 0.125 0.6875
f 73/73 74/74 75/75
v -0.049189236 0.0107999966 -0.0194084104
vt 0.125 0.6875
v 0.000463893695 0.0107999966 -0.0382533967
vt 0.28125 0.71875
v -0.00833854917 0.0107999966 -0.0710808858
vt 0.28125 0.9375
f 76/76 77/77 78/78
v 0.0342387073 0.00899999961 -0.0364324562
vt 0.634173632 0.658687413
v 0.0342417844 0.0107999966 -0.0364332907
vt 0.634183705 0.658687413
v -0.0422402769 0.0107999966 -0.0159251131
vt 0.375 0.65625
f 79/79 80/80 81/81
v -0.0422402769 0.0107999966 -0.0159251131
vt 0.375 0.65625
v -0.0422433503 0.00899999961 -0.0159242768
vt 0.375 0.65625
v 0.0342387073 0.00899999961 -0.0364324562
vt 0.634173632 0.658687413
f 82/82 83/83 84/84
v 0.0377808213 0.0107999966 -0.043174427
vt 0.390625 0.6875
v 0.025068609 0.0107999966 -0.0905834436
vt 0.390625 1
v 0.0122322757 0.0107999966 -0.0767532215
vt 0.34375 0.9375
f 85/85 86/86 87/87
v 0.0122322757 0.0107999966 -0.0767532215
vt 0.34375 0.9375
v 0.0210738294 0.0107999966 -0.0437798165
vt 0.34375 0.71875
v 0.0377808213 0.0107999966 -0.043174427
vt 0.390625 0.6875
f 88/88 89/89 90/90
v 0.025068609 0.0107999966 -0.0905834436
vt 0.390625 1
v -0.0620130524 0.0107999966 -0.0672330484
vt 0.125 1
v -0.00833854917 0.0107999966 -0.0710808858
vt 0.28125 0.9375
f 91/91 92/92 93/93
v -0.00833854917 0.0107999966 -0.0710808858
vt 0.28125 0.9375
v 0.0122322757 0.0107999966 -0.0767532215
vt 0.34375 0.9375
v 0.025068609 0.0107999966 -0.0905834436
vt 0.390625 1
f 94/94 95/95 96/96
v -0.0422433503 0.00899999961 -0.0159242768
vt 0.375 0.65625
v -0.0422402769 0.0107999966 -0.0159251131
vt 0.375 0.65625
v -0.049189236 0.0107999966 -0.0194084104
vt 0.365895957 0.690923095
f 97/97 98/98 99/99
v -0.049189236 0.0107999966 -0.0194084104
vt 0.365895957 0.690923095
v -0.0491923094 0.00899999961 -0.0194075741
vt 0.365885854 0.690923095
v -0.0422433503 0.00899999961 -0.0159242768
vt 0.375 0.65625
f 100/100 101/101 102/102
v 0.0122322757 0.0107999966 -0.0767532215
vt 0.609375 0.96875
v -0.00833854917 0.0107999966 -0.0710808858
vt 0.532687783 0.955150783
v -0.00833854917 0.00899999682 -0.0710808858
vt 0.532687783 0.955150783
f 103/103 104/104 105/105
v -0.00833854917 0.00899999682 -0.0710808858
vt 0.532687783 0.955150783
v 0.0122322757 0.00899999682 -0.0767532215
vt 0.609375 0.96875
v 0.0122322757 0.0107999966 -0.0767532215
vt 0.609375 0.96875
f 106/106 107/107 108/108
v 0.000463893695 0.0107999966 -0.0382533967
vt 0.532687783 0.69305867
v 0.0210738294 0.0107999966 -0.0437798165
vt 0.609375 0.6875
v 0.0210738294 0.00899999682 -0.0437798165
vt 0.609375 0.6875
f 109/109 110/110 111/111
v 0.0210738294 0.00899999682 -0.0437798165
vt 0.609375 0.6875
v 0.000463893695 0.00899999682 -0.0382533967
vt 0.532687783 0.69305867
v 0.000463893695 0.0107999966 -0.0382533967
vt 0.532687783 0.69305867
f 112/112 113/113 114/114
v -0.00833854917 0.0107999966 -0.0710808858
vt 0.532687783 0.955150783
v 0.000463893695 0.0107999966 -0.0382533967
vt 0.532687783 0.69305867
v 0.000463893695 0.00899999682 -0.0382533967
vt 0.532687783 0.69305867
f 115/115 116/116 117/117
v 0.000463893695 0.00899999682 -0.0382533967
vt 0.532687783 0.69305867
v -0.00833854917 0.00899999682 -0.0710808858
vt 0.532687783 0.955150783
v -0.00833854917 0.0107999966 -0.0710808858
vt 0.532687783 0.955150783
f 118/118 119/119 120/120
v -0.0655164868 0.00899999961 0.000305123773
vt 0.046875 0.59375
v -0.0422433503 0.00899999961 -0.0159242768
vt 0.140625 0.65625
v -0.0491923094 0.00899999961 -0.0194075741
vt 0.125 0.6875
f 121/121 122/122 123/123
v 0.0122099724 -1.67638112e-10 -0.0767027289
vt 0.65625 0.9375
v 0.0250267368 -1.67638084e-10 -0.0905722007
vt 0.609375 1
v 0.0378542021 -1.6763807e-10 -0.0427340716
vt 0.609375 0.6875
f 124/124 125/125 126/126
v 0.0378542021 -1.6763807e-10 -0.0427340716
vt 0.609375 0.6875
v 0.0210987236 -1.67638015e-10 -0.0435534567
vt 0.65625 0.71875
v 0.0122099724 -1.67638112e-10 -0.0767027289
vt 0.65625 0.9375
f 127/127 128/128 129/129
v -0.0935328007 0.00179999985 -0.0569176339
vt 0.988636374 0.988763928
v -0.0616729632 0.00179999985 -0.0654606447
vt 0.875 1
v -0.0960775837 0.00179999985 -0.0525080897
vt 1 0.966291964
f 130/130 131/131 132/132
v -0.0935328007 0.00899999961 -0.0569176339
vt 0.512335241 0.29908216
v -0.0615499355 0.00899999961 -0.0654936358
vt 0.616857648 0.29908216
v -0.0616729632 0.00179999985 -0.0654606447
vt 0.616455555 0.253627658
f 133/133 134/134 135/135
v -0.0616729632 0.00179999985 -0.0654606447
vt 0.616455555 0.253627658
v -0.0935328007 0.00179999985 -0.0569176339
vt 0.512335241 0.253627658
v -0.0935328007 0.00899999961 -0.0569176339
vt 0.512335241 0.29908216
f 136/136 137/137 138/138
v 0.0378542021 0.00179999985 -0.0427340716
vt 0.65625 0.71875
v 0.0340057202 0.00179999985 -0.0365508646
vt 0.633560181 0.659777761
v 0.0340057202 -1.67638112e-10 -0.0365508646
vt 0.633560181 0.659777761
f 139/139 140/140 141/141
v 0.0340057202 -1.67638112e-10 -0.0365508646
vt 0.633560181 0.659777761
v 0.0378542021 -1.6763807e-10 -0.0427340716
vt 0.65625 0.71875
v 0.0378542021 0.00179999985 -0.0427340716
vt 0.65625 0.71875
f 142/142 143/143 144/144
v 0.0255317204 0.00899999961 -0.0888440311
vt 0.901447117 0.29908216
v 0.0461803861 0.00899999961 -0.0943808332
vt 0.968928516 0.29908216
v 0.0461803861 0.00179999985 -0.0943808407
vt 0.968928516 0.253627658
f 145/145 146/146 147/147
v 0.0461803861 0.00179999985 -0.0943808407
vt 0.968928516 0.253627658
v 0.0254929252 0.00179999985 -0.0888336226
vt 0.901320338 0.253627658
v 0.0255317204 0.00899999961 -0.0888440311
vt 0.901447117 0.29908216
f 148/148 149/149 150/150
v 0.000646102475 -1.67637959e-10 -0.038127318
vt 0.71875 0.71875
v 0.0210987236 -1.67638015e-10 -0.0435534567
vt 0.65625 0.71875
v -0.0491904579 -1.67637987e-10 -0.0195712335
vt 0.875 0.6875
f 151/151 152/152 153/153
v 0.0210987236 -1.67638015e-10 -0.0435534567
vt 0.65625 0.71875
v 0.0340057202 -1.67638112e-10 -0.0365508646
vt 0.625 0.65625
v -0.0425545648 -1.67637973e-10 -0.016021708
vt 0.859375 0.65625
f 154/154 155/155 156/156
v 0.0210987236 -1.67638015e-10 -0.0435534567
vt 0.65625 0.71875
v -0.0425545648 -1.67637973e-10 -0.016021708
vt 0.859375 0.65625
v -0.0491904579 -1.67637987e-10 -0.0195712335
vt 0.875 0.6875
f 157/157 158/158 159/159
v -0.0491904579 0.00179999985 -0.0195712335
vt 0.366025269 0.691907048
v -0.0491904579 -1.67637987e-10 -0.0195712335
vt 0.366025269 0.691907048
v -0.0425545648 -1.67637973e-10 -0.016021708
vt 0.375 0.65625
f 160/160 161/161 162/162
v -0.0425545648 -1.67637973e-10 -0.016021708
vt 0.375 0.65625
v -0.0425545648 0.00179999985 -0.016021708
vt 0.375 0.65625
v -0.0491904579 0.00179999985 -0.0195712335
vt 0.366025269 0.691907048
f 163/163 164/164 165/165
v 0.0378542021 -1.6763807e-10 -0.0427340716
vt 0.65625 0.71875
v 0.0250267368 -1.67638084e-10 -0.0905722007
vt 0.655963898 1
v 0.0254929252 0.00179999985 -0.0888336226
vt 0.655963898 0.988763988
f 166/166 167/167 168/168
v 0.0254929252 0.00179999985 -0.0888336226
vt 0.655963898 0.988763988
v 0.0378542021 0.00179999985 -0.0427340716
vt 0.65625 0.71875
v 0.0378542021 -1.6763807e-10 -0.0427340716
vt 0.65625 0.71875
f 169/169 170/170 171/171
v 0.0255317204 0.00899999961 -0.0888440311
vt 0.656090558 0.988763988
v 0.0254929252 0.00179999985 -0.0888336226
vt 0.655963898 0.988763988
v 0.0250267368 -1.67638084e-10 -0.0905722007
vt 0.655963898 1
f 172/172 173/173 174/174
v 0.0250267368 -1.67638084e-10 -0.0905722007
vt 0.655963898 1
v 0.025068609 0.0107999966 -0.0905834436
vt 0.65610075 1
v 0.0255317204 0.00899999961 -0.0888440311
vt 0.656090558 0.988763988
f 175/175 176/176 177/177
v 0.0340057202 0.00179999985 -0.0365508646
vt 0.633560181 0.659777761
v -0.0425545648 0.00179999985 -0.016021708
vt 0.375 0.65625
v -0.0425545648 -1.67637973e-10 -0.016021708
vt 0.375 0.65625
f 178/178 179/179 180/180
v -0.0425545648 -1.67637973e-10 -0.016021708
vt 0.375 0.65625
v 0.0340057202 -1.67638112e-10 -0.0365508646
vt 0.633560181 0.659777761
v 0.0340057202 0.00179999985 -0.0365508646
vt 0.633560181 0.659777761
f 181/181 182/182 183/183
v -0.0419910811 0.00899999961 0.0880394578
vt 0.046875 0.03125
v -0.0569176525 0.00899999961 0.0935327932
vt 0 0.0224720053
v -0.0525081083 0.00899999961 0.0960775763
vt 0.0113636414 0
f 184/184 185/185 186/186
v -0.0620130524 0.0107999966 -0.0672330484
vt 0.140625 0.3125
v 0.025068609 0.0107999966 -0.0905834436
vt 0.40625 0.3125
v 0.0250267368 -1.67638084e-10 -0.0905722007
vt 0.40625 0.25
f 187/187 188/188 189/189
v 0.0250267368 -1.67638084e-10 -0.0905722007
vt 0.40625 0.25
v -0.0621391535 -1.67638084e-10 -0.0671992227
vt 0.140625 0.25
v -0.0620130524 0.0107999966 -0.0672330484
vt 0.140625 0.3125
f 190/190 191/191 192/192
v -0.0615499355 0.00899999961 -0.0654936358
vt 0.365886033 0.988763988
v -0.0620130524 0.0107999966 -0.0672330484
vt 0.365896106 1
v -0.0621391535 -1.67638084e-10 -0.0671992227
vt 0.36548385 1
f 193/193 194/194 195/195
v -0.0621391535 -1.67638084e-10 -0.0671992227
vt 0.36548385 1
v -0.0616729632 0.00179999985 -0.0654606447
vt 0.36548385 0.988763988
v -0.0615499355 0.00899999961 -0.0654936358
vt 0.365886033 0.988763988
f 196/196 197/197 198/198
v 0.0255317204 0.00899999961 -0.0888440311
vt 0.656090558 0.988763988
v 0.025068609 0.0107999966 -0.0905834436
vt 0.65610075 1
v 0.0377808213 0.0107999966 -0.043174427
vt 0.65625 0.71875
f 199/199 200/200 201/201
v 0.0377808213 0.0107999966 -0.043174427
vt 0.65625 0.71875
v 0.0377777442 0.00899999961 -0.0431735888
vt 0.65625 0.71875
v 0.0255317204 0.00899999961 -0.0888440311
vt 0.656090558 0.988763988
f 202/202 203/203 204/204
v -0.00822812412 -1.67638112e-10 -0.0712223873
vt 0.533140242 0.955825269
v 0.0122099724 -1.67638112e-10 -0.0767027289
vt 0.609375 0.96875
v 0.0122099724 0.00179999985 -0.0767027289
vt 0.609375 0.96875
f 205/205 206/206 207/207
v 0.0122099724 0.00179999985 -0.0767027289
vt 0.609375 0.96875
v -0.00822812412 0.00179999985 -0.0712223798
vt 0.533140242 0.955825269
v -0.00822812412 -1.67638112e-10 -0.0712223873
vt 0.533140242 0.955825269
f 208/208 209/209 210/210
v -0.00833854917 0.00899999682 -0.0710808858
vt 0.28125 0.9375
v 0.000463893695 0.00899999682 -0.0382533967
vt 0.28125 0.71875
v 0.0210738294 0.00899999682 -0.0437798165
vt 0.34375 0.71875
f 211/211 212/212 213/213
v 0.0210738294 0.00899999682 -0.0437798165
vt 0.34375 0.71875
v 0.0122322757 0.00899999682 -0.0767532215
vt 0.34375 0.9375
v -0.00833854917 0.00899999682 -0.0710808858
vt 0.28125 0.9375
f 214/214 215/215 216/216
v 0.0122099724 0.00179999985 -0.0767027289
vt 0.65625 0.9375
v 0.0210987236 0.00179999985 -0.0435534567
vt 0.65625 0.71875
v 0.000646102475 0.00179999985 -0.038127318
vt 0.71875 0.71875
f 217/217 218/218 219/219
v 0.000646102475 0.00179999985 -0.038127318
vt 0.71875 0.71875
v -0.00822812412 0.00179999985 -0.0712223798
vt 0.71875 0.9375
v 0.0122099724 0.00179999985 -0.0767027289
vt 0.65625 0.9375
f 220/220 221/221 222/222
v 0.0210987236 -1.67638015e-10 -0.0435534567
vt 0.609375 0.6875
v 0.0210987236 0.00179999985 -0.0435534567
vt 0.609375 0.6875
v 0.0122099724 0.00179999985 -0.0767027289
vt 0.609375 0.96875
f 223/223 224/224 225/225
v 0.0122099724 0.00179999985 -0.0767027289
vt 0.609375 0.96875
v 0.0122099724 -1.67638112e-10 -0.0767027289
vt 0.609375 0.96875
v 0.0210987236 -1.67638015e-10 -0.0435534567
vt 0.609375 0.6875
f 226/226 227/227 228/228
v 0.000646102475 -1.67637959e-10 -0.038127318
vt 0.533140242 0.692003846
v -0.00822812412 -1.67638112e-10 -0.0712223873
vt 0.533140242 0.955825269
v -0.00822812412 0.00179999985 -0.0712223798
vt 0.533140242 0.955825269
f 229/229 230/230 231/231
v -0.00822812412 0.00179999985 -0.0712223798
vt 0.533140242 0.955825269
v 0.000646102475 0.00179999985 -0.038127318
vt 0.533140242 0.692003846
v 0.000646102475 -1.67637959e-10 -0.038127318
vt 0.533140242 0.692003846
f 232/232 233/233 234/234
v 0.0210987236 -1.67638015e-10 -0.0435534567
vt 0.609375 0.6875
v 0.000646102475 -1.67637959e-10 -0.038127318
vt 0.533140242 0.692003846
v 0.000646102475 0.00179999985 -0.038127318
vt 0.533140242 0.692003846
f 235/235 236/236 237/237
v 0.000646102475 0.00179999985 -0.038127318
vt 0.533140242 0.692003846
v 0.0210987236 0.00179999985 -0.0435534567
vt 0.609375 0.6875
v 0.0210987236 -1.67638015e-10 -0.0435534567
vt 0.609375 0.6875
f 238/238 239/239 240/240
v -0.00822812412 -1.67638112e-10 -0.0712223873
vt 0.71875 0.9375
v -0.0621391535 -1.67638084e-10 -0.0671992227
vt 0.875 1
v 0.0250267368 -1.67638084e-10 -0.0905722007
vt 0.609375 1
f 241/241 242/242 243/243
v 0.0250267368 -1.67638084e-10 -0.0905722007
vt 0.609375 1
v 0.0122099724 -1.67638112e-10 -0.0767027289
vt 0.65625 0.9375
v -0.00822812412 -1.67638112e-10 -0.0712223873
vt 0.71875 0.9375
f 244/244 245/245 246/246
v 0.0210987236 -1.67638015e-10 -0.0435534567
vt 0.65625 0.71875
v 0.0378542021 -1.6763807e-10 -0.0427340716
vt 0.609375 0.6875
v 0.0340057202 -1.67638112e-10 -0.0365508646
vt 0.625 0.65625
f 247/247 248/248 249/249
v -0.00822812412 -1.67638112e-10 -0.0712223873
vt 0.71875 0.9375
v 0.000646102475 -1.67637959e-10 -0.038127318
vt 0.71875 0.71875
v -0.0491904579 -1.67637987e-10 -0.0195712335
vt 0.875 0.6875
f 250/250 251/251 252/252
v -0.0491904579 -1.67637987e-10 -0.0195712335
vt 0.875 0.6875
v -0.0621391535 -1.67638084e-10 -0.0671992227
vt 0.875 1
v -0.00822812412 -1.67638112e-10 -0.0712223873
vt 0.71875 0.9375
f 253/253 254/254 255/255
v 0.0122322757 0.0107999966 -0.0767532215
vt 0.609375 0.96875
v 0.0122322757 0.00899999682 -0.0767532215
vt 0.609375 0.96875
v 0.0210738294 0.00899999682 -0.0437798165
vt 0.609375 0.6875
f 256/256 257/257 258/258
v 0.0210738294 0.00899999682 -0.0437798165
vt 0.609375 0.6875
v 0.0210738294 0.0107999966 -0.0437798165
vt 0.609375 0.6875
v 0.0122322757 0.0107999966 -0.0767532215
vt 0.609375 0.96875
f 259/259 260/260 261/261
v 0.0804051161 0.00899999961 0.0552196987
vt 0.453125 0.03125
v -0.0419910811 0.00899999961 0.0880394578
vt 0.046875 0.03125
v -0.0525081083 0.00899999961 0.0960775763
vt 0.0113636414 0
f 262/262 263/263 264/264
v -0.0525081083 0.00899999961 0.0960775763
vt 0.0113636414 0
v 0.0935328007 0.00899999961 0.0569176339
vt 0.488636404 0
v 0.0804051161 0.00899999961 0.0552196987
vt 0.453125 0.03125
f 265/265 266/266 267/267
v 0.0210738294 0.0107999966 -0.0437798165
vt 0.34375 0.71875
v 0.0342417844 0.0107999966 -0.0364332907
vt 0.375 0.65625
v 0.0377808213 0.0107999966 -0.043174427
vt 0.390625 0.6875
f 268/268 269/269 270/270
v 0.000463893695 0.0107999966 -0.0382533967
vt 0.28125 0.71875
v -0.049189236 0.0107999966 -0.0194084104
vt 0.125 0.6875
v -0.0422402769 0.0107999966 -0.0159251131
vt 0.140625 0.65625
f 271/271 272/272 273/273
v 0.0342417844 0.0107999966 -0.0364332907
vt 0.375 0.65625
v 0.0210738294 0.0107999966 -0.0437798165
vt 0.34375 0.71875
v 0.000463893695 0.0107999966 -0.0382533967
vt 0.28125 0.71875
f 274/274 275/275 276/276
v 0.000463893695 0.0107999966 -0.0382533967
vt 0.28125 0.71875
v -0.0422402769 0.0107999966 -0.0159251131
vt 0.140625 0.65625
v 0.0342417844 0.0107999966 -0.0364332907
vt 0.375 0.65625
f 277/277 278/278 279/279
v 0.0960775837 0.00179999985 0.0525080897
vt 0.521774232 0.253627658
v 0.0586143918 0.00179999985 -0.0872050673
vt 0.978367448 0.253627658
v 0.0586143918 0.00899999961 -0.0872050673
vt 0.978367448 0.29908216
f 280/280 281/281 282/282
v 0.0586143918 0.00899999961 -0.0872050673
vt 0.978367448 0.29908216
v 0.0960775837 0.00899999961 0.0525080897
vt 0.521774232 0.29908216
v 0.0960775837 0.00179999985 0.0525080897
vt 0.521774232 0.253627658
f 283/283 284/284 285/285
v -0.0195649564 0.00179999985 -0.0110221878
vt 0.199360073 0.592467487
v -0.0195649564 -1.67638028e-10 -0.0110221878
vt 0.199360073 0.592467487
v -0.0218169857 -1.67638042e-10 0.000452623732
vt 0.183112979 0.526924372
f 286/286 287/287 288/288
v -0.0218169857 -1.67638042e-10 0.000452623732
vt 0.183112979 0.526924372
v -0.0218169857 0.00179999985 0.000452623819
vt 0.183112979 0.526924372
v -0.0195649564 0.00179999985 -0.0110221878
vt 0.199360073 0.592467487
f 289/289 290/290 291/291
v 0.023866998 0.00179999985 -0.0120104039
vt 0.667414069 0.528209507
v 0.016879376 0.00179999985 -0.0205813516
vt 0.681711316 0.591182709
v 0.0340057202 0.00179999985 -0.0365508646
vt 0.625 0.65625
f 292/292 293/293 294/294
v 0.0280261468 -1.67638098e-10 0.00350049976
vt 0.667414069 0.427967161
v -0.0177644808 -1.67638098e-10 0.0155658107
vt 0.816887021 0.429252297
v -0.0218169857 -1.67638042e-10 0.000452623732
vt 0.816887021 0.526924372
f 295/295 296/296 297/297
v -0.0218169857 -1.67638042e-10 0.000452623732
vt 0.816887021 0.526924372
v 0.023866998 -1.6763807e-10 -0.0120104039
vt 0.667414069 0.528209507
v 0.0280261468 -1.67638098e-10 0.00350049976
vt 0.667414069 0.427967161
f 298/298 299/299 300/300
v 0.00490016816 0.00179999985 -0.0231244098
vt 0.283844888 0.62588191
v 0.016879376 0.00179999985 -0.0205813516
vt 0.318288684 0.591182709
v 0.016879376 -1.67638042e-10 -0.0205813516
vt 0.318288684 0.591182709
f 301/301 302/302 303/303
v 0.016879376 -1.67638042e-10 -0.0205813516
vt 0.318288684 0.591182709
v 0.00490016816 -1.67638098e-10 -0.0231244098
vt 0.283844888 0.62588191
v 0.00490016816 0.00179999985 -0.0231244098
vt 0.283844888 0.62588191
f 304/304 305/305 306/306
v 0.0280261468 0.00179999985 0.00350049976
vt 0.332585931 0.427967161
v 0.0256674774 0.00179999985 0.0145775974
vt 0.316338897 0.364994556
v 0.0256674774 -1.67638112e-10 0.0145775974
vt 0.316338897 0.364994556
f 307/307 308/308 309/309
v 0.0256674774 -1.67638112e-10 0.0145775974
vt 0.316338897 0.364994556
v 0.0280261468 -1.67638098e-10 0.00350049976
vt 0.332585931 0.427967161
v 0.0280261468 0.00179999985 0.00350049976
vt 0.332585931 0.427967161
f 310/310 311/311 312/312
v -0.0218169857 0.00179999985 0.000452623819
vt 0.183112979 0.526924372
v -0.0218169857 -1.67638042e-10 0.000452623732
vt 0.183112979 0.526924372
v -0.0177644808 -1.67638098e-10 0.0155658107
vt 0.183112979 0.429252297
f 313/313 314/314 315/315
v -0.0177644808 -1.67638098e-10 0.0155658107
vt 0.183112979 0.429252297
v -0.0177644808 0.00179999985 0.0155658107
vt 0.183112979 0.429252297
v -0.0218169857 0.00179999985 0.000452623819
vt 0.183112979 0.526924372
f 316/316 317/317 318/318
v -0.0106107201 0.00179999985 -0.0189652648
vt 0.233154178 0.62588191
v 0.00490016816 0.00179999985 -0.0231244098
vt 0.283844888 0.62588191
v 0.00490016816 -1.67638098e-10 -0.0231244098
vt 0.283844888 0.62588191
f 319/319 320/320 321/321
v 0.00490016816 -1.67638098e-10 -0.0231244098
vt 0.283844888 0.62588191
v -0.0106107201 -1.67638098e-10 -0.0189652648
vt 0.233154178 0.62588191
v -0.0106107201 0.00179999985 -0.0189652648
vt 0.233154178 0.62588191
f 322/322 323/323 324/324
v 0.023866998 0.00179999985 -0.0120104039
vt 0.332585931 0.528209507
v 0.0280261468 0.00179999985 0.00350049976
vt 0.332585931 0.427967161
v 0.0280261468 -1.67638098e-10 0.00350049976
vt 0.332585931 0.427967161
f 325/325 326/326 327/327
v 0.0280261468 -1.67638098e-10 0.00350049976
vt 0.332585931 0.427967161
v 0.023866998 -1.6763807e-10 -0.0120104039
vt 0.332585931 0.528209507
v 0.023866998 0.00179999985 -0.0120104039
vt 0.332585931 0.528209507
f 328/328 329/329 330/330
v -0.0177644808 0.00179999985 0.0155658107
vt 0.183112979 0.429252297
v -0.0177644808 -1.67638098e-10 0.0155658107
vt 0.183112979 0.429252297
v -0.00942368153 -1.67638112e-10 0.0244133752
vt 0.20130977 0.362424046
f 331/331 332/332 333/333
v -0.00942368153 -1.67638112e-10 0.0244133752
vt 0.20130977 0.362424046
v -0.00942368153 0.00179999985 0.0244133752
vt 0.20130977 0.362424046
v -0.0177644808 0.00179999985 0.0155658107
vt 0.183112979 0.429252297
f 334/334 335/335 336/336
v 0.016713243 0.00179999985 0.0225206707
vt 0.282544851 0.331580162
v 0.00179891218 0.00179999985 0.0265198518
vt 0.233803749 0.331580162
v 0.00179891218 -1.67638153e-10 0.0265198518
vt 0.233803749 0.331580162
f 337/337 338/338 339/339
v 0.00179891218 -1.67638153e-10 0.0265198518
vt 0.233803749 0.331580162
v 0.016713243 -1.67638153e-10 0.0225206707
vt 0.282544851 0.331580162
v 0.016713243 0.00179999985 0.0225206707
vt 0.282544851 0.331580162
f 340/340 341/341 342/342
v -0.0106107201 0.00179999985 -0.0189652648
vt 0.233154178 0.62588191
v -0.0106107201 -1.67638098e-10 -0.0189652648
vt 0.233154178 0.62588191
v -0.0195649564 -1.67638028e-10 -0.0110221878
vt 0.199360073 0.592467487
f 343/343 344/344 345/345
v -0.0195649564 -1.67638028e-10 -0.0110221878
vt 0.199360073 0.592467487
v -0.0195649564 0.00179999985 -0.0110221878
vt 0.199360073 0.592467487
v -0.0106107201 0.00179999985 -0.0189652648
vt 0.233154178 0.62588191
f 346/346 347/347 348/348
v 0.016879376 0.00179999985 -0.0205813516
vt 0.318288684 0.591182709
v 0.023866998 0.00179999985 -0.0120104039
vt 0.332585931 0.528209507
v 0.023866998 -1.6763807e-10 -0.0120104039
vt 0.332585931 0.528209507
f 349/349 350/350 351/351
v 0.023866998 -1.6763807e-10 -0.0120104039
vt 0.332585931 0.528209507
v 0.016879376 -1.67638042e-10 -0.0205813516
vt 0.318288684 0.591182709
v 0.016879376 0.00179999985 -0.0205813516
vt 0.318288684 0.591182709
f 352/352 353/353 354/354
v -0.00942368153 0.00179999985 0.0244133752
vt 0.20130977 0.362424046
v -0.00942368153 -1.67638112e-10 0.0244133752
vt 0.20130977 0.362424046
v 0.00179891218 -1.67638153e-10 0.0265198518
vt 0.233803749 0.331580162
f 355/355 356/356 357/357
v 0.00179891218 -1.67638153e-10 0.0265198518
vt 0.233803749 0.331580162
v 0.00179891218 0.00179999985 0.0265198518
vt 0.233803749 0.331580162
v -0.00942368153 0.00179999985 0.0244133752
vt 0.20130977 0.362424046
f 358/358 359/359 360/360
v 0.0256674774 0.00179999985 0.0145775974
vt 0.316338897 0.364994556
v 0.016713243 0.00179999985 0.0225206707
vt 0.282544851 0.331580162
v 0.016713243 -1.67638153e-10 0.0225206707
vt 0.282544851 0.331580162
f 361/361 362/362 363/363
v 0.016713243 -1.67638153e-10 0.0225206707
vt 0.282544851 0.331580162
v 0.0256674774 -1.67638112e-10 0.0145775974
vt 0.316338897 0.364994556
v 0.0256674774 0.00179999985 0.0145775974
vt 0.316338897 0.364994556
f 364/364 365/365 366/366
v 0.0340057202 0.00179999985 -0.0365508646
vt 0.625 0.65625
v 0.0280261468 0.00179999985 0.00350049976
vt 0.667414069 0.427967161
v 0.023866998 0.00179999985 -0.0120104039
vt 0.667414069 0.528209507
f 367/367 368/368 369/369
v 0.0340057202 0.00179999985 -0.0365508646
vt 0.625 0.65625
v 0.016879376 0.00179999985 -0.0205813516
vt 0.681711316 0.591182709
v 0.00490016816 0.00179999985 -0.0231244098
vt 0.716155112 0.62588191
f 370/370 371/371 372/372
v -0.0106107201 0.00179999985 -0.0189652648
vt 0.766845822 0.62588191
v -0.0425545648 0.00179999985 -0.016021708
vt 0.859375 0.65625
v 0.0340057202 0.00179999985 -0.0365508646
vt 0.625 0.65625
f 373/373 374/374 375/375
v 0.0340057202 0.00179999985 -0.0365508646
vt 0.625 0.65625
v 0.00490016816 0.00179999985 -0.0231244098
vt 0.716155112 0.62588191
v -0.0106107201 0.00179999985 -0.0189652648
vt 0.766845822 0.62588191
f 376/376 377/377 378/378
v -0.0425545648 0.00179999985 -0.016021708
vt 0.859375 0.65625
v -0.0106107201 0.00179999985 -0.0189652648
vt 0.766845822 0.62588191
v -0.0195649564 0.00179999985 -0.0110221878
vt 0.800639927 0.592467487
f 379/379 380/380 381/381
v -0.0195649564 0.00179999985 -0.0110221878
vt 0.800639927 0.592467487
v -0.0218169857 0.00179999985 0.000452623819
vt 0.816887021 0.526924372
v -0.0425545648 0.00179999985 -0.016021708
vt 0.859375 0.65625
f 382/382 383/383 384/384
v 0.0960775837 0.00179999985 0.0525080897
vt 0.5 0.0224719346
v 0.0256674774 0.00179999985 0.0145775974
vt 0.683661103 0.364994556
v 0.0280261468 0.00179999985 0.00350049976
vt 0.667414069 0.427967161
f 385/385 386/386 387/387
v 0.0280261468 0.00179999985 0.00350049976
vt 0.667414069 0.427967161
v 0.0340057202 0.00179999985 -0.0365508646
vt 0.625 0.65625
v 0.0378542021 0.00179999985 -0.0427340716
vt 0.609375 0.6875
f 388/388 389/389 390/390
v 0.0378542021 0.00179999985 -0.0427340716
vt 0.609375 0.6875
v 0.0960775837 0.00179999985 0.0525080897
vt 0.5 0.0224719346
v 0.0280261468 0.00179999985 0.00350049976
vt 0.667414069 0.427967161
f 391/391 392/392 393/393
v -0.0569176525 0.00179999985 0.0935327932
vt 0.521774232 0.253627658
v -0.0569176525 0.00899999961 0.0935327932
vt 0.521774232 0.29908216
v -0.0960775837 0.00899999961 -0.0525080897
vt 0.999046922 0.29908216
f 394/394 395/395 396/396
v -0.0960775837 0.00899999961 -0.0525080897
vt 0.999046922 0.29908216
v -0.0960775837 0.00179999985 -0.0525080897
vt 0.999046922 0.253627658
v -0.0569176525 0.00179999985 0.0935327932
vt 0.521774232 0.253627658
f 397/397 398/398 399/399
v -0.0425545648 0.00179999985 -0.016021708
vt 0.859375 0.65625
v -0.0218169857 0.00179999985 0.000452623819
vt 0.816887021 0.526924372
v -0.0177644808 0.00179999985 0.0155658107
vt 0.816887021 0.429252297
f 400/400 401/401 402/402
v -0.0177644808 0.00179999985 0.0155658107
vt 0.816887021 0.429252297
v -0.0525081083 0.00179999985 0.0960775763
vt 0.988636374 0
v -0.0425545648 0.00179999985 -0.016021708
vt 0.859375 0.65625
f 403/403 404/404 405/405
v 0.0935328007 0.00179999985 0.0569176339
vt 0.511363685 0
v 0.016713243 0.00179999985 0.0225206707
vt 0.717455149 0.331580162
v 0.0256674774 0.00179999985 0.0145775974
vt 0.683661103 0.364994556
f 406/406 407/407 408/408
v 0.0256674774 0.00179999985 0.0145775974
vt 0.683661103 0.364994556
v 0.0960775837 0.00179999985 0.0525080897
vt 0.5 0.0224719346
v 0.0935328007 0.00179999985 0.0569176339
vt 0.511363685 0
f 409/409 410/410 411/411
v 0.0935328007 0.00179999985 0.0569176339
vt 0.511363685 0
v -0.0525081083 0.00179999985 0.0960775763
vt 0.988636374 0
v 0.00179891218 0.00179999985 0.0265198518
vt 0.766196251 0.331580162
f 412/412 413/413 414/414
v 0.00179891218 0.00179999985 0.0265198518
vt 0.766196251 0.331580162
v 0.016713243 0.00179999985 0.0225206707
vt 0.717455149 0.331580162
v 0.0935328007 0.00179999985 0.0569176339
vt 0.511363685 0
f 415/415 416/416 417/417
v -0.0569176525 0.00179999985 0.0935327932
vt 1 0.0224719048
v -0.0960775837 0.00179999985 -0.0525080897
vt 1 0.966291964
v -0.0491904579 0.00179999985 -0.0195712335
vt 0.875 0.6875
f 418/418 419/419 420/420
v 0.0804051161 0.00899999961 0.0552196987
vt 0.453125 0.03125
v 0.0935328007 0.00899999961 0.0569176339
vt 0.488636404 0
v 0.0960775837 0.00899999961 0.0525080897
vt 0.5 0.0224719271
f 421/421 422/422 423/423
v -0.0960775837 0.00179999985 -0.0525080897
vt 0.500971615 0.253627658
v -0.0960775837 0.00899999961 -0.0525080897
vt 0.500971615 0.29908216
v -0.0935328007 0.00899999961 -0.0569176339
vt 0.512335241 0.29908216
f 424/424 425/425 426/426
v -0.0935328007 0.00899999961 -0.0569176339
vt 0.512335241 0.29908216
v -0.0935328007 0.00179999985 -0.0569176339
vt 0.512335241 0.253627658
v -0.0960775837 0.00179999985 -0.0525080897
vt 0.500971615 0.253627658
f 427/427 428/428 429/429
v -0.0525081083 0.00179999985 0.0960775763
vt 0.512335241 0.253627658
v -0.0525081083 0.00899999961 0.0960775763
vt 0.512335241 0.29908216
v -0.0569176525 0.00899999961 0.0935327932
vt 0.500971615 0.29908216
f 430/430 431/431 432/432
v -0.0569176525 0.00899999961 0.0935327932
vt 0.500971615 0.29908216
v -0.0569176525 0.00179999985 0.0935327932
vt 0.500971615 0.253627658
v -0.0525081083 0.00179999985 0.0960775763
vt 0.512335241 0.253627658
f 433/433 434/434 435/435
v 0.0960775837 0.00899999961 0.0525080897
vt 1.00097156 0.29908216
v 0.0935328007 0.00899999961 0.0569176339
vt 0.98960793 0.29908216
v 0.0935328007 0.00179999985 0.0569176339
vt 0.98960793 0.253627658
f 436/436 437/437 438/438
v 0.0935328007 0.00179999985 0.0569176339
vt 0.98960793 0.253627658
v 0.0960775837 0.00179999985 0.0525080897
vt 1.00097156 0.253627658
v 0.0960775837 0.00899999961 0.0525080897
vt 1.00097156 0.29908216
f 439/439 440/440 441/441
v 0.0935328007 0.00179999985 0.0569176339
vt 0.98960793 0.253627658
v 0.0935328007 0.00899999961 0.0569176339
vt 0.98960793 0.29908216
v -0.0525081083 0.00899999961 0.0960775763
vt 0.512335241 0.29908216
f 442/442 443/443 444/444
v -0.0525081083 0.00899999961 0.0960775763
vt 0.512335241 0.29908216
v -0.0525081083 0.00179999985 0.0960775763
vt 0.512335241 0.253627658
v 0.0935328007 0.00179999985 0.0569176339
vt 0.98960793 0.253627658
f 445/445 446/446 447/447
v 0.0570224114 0.00899999961 -0.031982448
vt 0.453125 0.59375
v 0.0804051161 0.00899999961 0.0552196987
vt 0.453125 0.03125
v 0.0960775837 0.00899999961 0.0525080897
vt 0.5 0.0224719271
f 448/448 449/449 450/450
v 0.0960775837 0.00899999961 0.0525080897
vt 0.5 0.0224719271
v 0.0586143918 0.00899999961 -0.0872050673
vt 0.5 0.925398111
v 0.0570224114 0.00899999961 -0.031982448
vt 0.453125 0.59375
f 451/451 452/452 453/453
v -0.0655164868 0.00899999961 0.000305123773
vt 0.046875 0.59375
v -0.0960775837 0.00899999961 -0.0525080897
vt 0 0.966292024
v -0.0569176525 0.00899999961 0.0935327932
vt 0 0.0224720053
f 454/454 455/455 456/456
v -0.0569176525 0.00899999961 0.0935327932
vt 0 0.0224720053
v -0.0419910811 0.00899999961 0.0880394578
vt 0.046875 0.03125
v -0.0655164868 0.00899999961 0.000305123773
vt 0.046875 0.59375
f 457/457 458/458 459/459
v -0.049189236 0.0107999966 -0.0194084104
vt 0.365895957 0.690923095
v -0.0620130524 0.0107999966 -0.0672330484
vt 0.365896106 1
v -0.0615499355 0.00899999961 -0.0654936358
vt 0.365886033 0.988763988
f 460/460 461/461 462/462
v -0.0615499355 0.00899999961 -0.0654936358
vt 0.365886033 0.988763988
v -0.0491923094 0.00899999961 -0.0194075741
vt 0.365885854 0.690923095
v -0.049189236 0.0107999966 -0.0194084104
vt 0.365895957 0.690923095
f 463/463 464/464 465/465
v -0.0422433503 0.00899999961 -0.0159242768
vt 0.140625 0.65625
v -0.0655164868 0.00899999961 0.000305123773
vt 0.046875 0.59375
v 0.0570224114 0.00899999961 -0.031982448
vt 0.453125 0.59375
f 466/466 467/467 468/468
v 0.0570224114 0.00899999961 -0.031982448
vt 0.453125 0.59375
v 0.0342387073 0.00899999961 -0.0364324562
vt 0.375 0.65625
v -0.0422433503 0.00899999961 -0.0159242768
vt 0.140625 0.65625
f 469/469 470/470 471/471
v 0.0342387073 0.00899999961 -0.0364324562
vt 0.375 0.65625
v 0.0570224114 0.00899999961 -0.031982448
vt 0.453125 0.59375
v 0.0377777442 0.00899999961 -0.0431735888
vt 0.390625 0.6875
f 472/472 473/473 474/474
v 0.0377777442 0.00899999961 -0.0431735888
vt 0.390625 0.6875
v 0.0570224114 0.00899999961 -0.031982448
vt 0.453125 0.59375
v 0.0586143918 0.00899999961 -0.0872050673
vt 0.5 0.925398111
f 475/475 476/476 477/477
v 0.0586143918 0.00899999961 -0.0872050673
vt 0.5 0.925398111
v 0.0255317204 0.00899999961 -0.0888440311
vt 0.390709698 0.988763988
v 0.0377777442 0.00899999961 -0.0431735888
vt 0.390625 0.6875
f 478/478 479/479 480/480
v 0.0255317204 0.00899999961 -0.0888440311
vt 0.390709698 0.988763988
v 0.0586143918 0.00899999961 -0.0872050673
vt 0.5 0.925398111
v 0.0461803861 0.00899999961 -0.0943808332
vt 0.46795702 0.988763988
f 481/481 482/482 483/483
v 0.0461803861 0.00179999985 -0.0943808407
vt 0.53204298 0.988763988
v 0.0586143918 0.00179999985 -0.0872050673
vt 0.5 0.925398111
v 0.0254929252 0.00179999985 -0.0888336226
vt 0.608440399 0.988763988
f 484/484 485/485 486/486
v -0.0615499355 0.00899999961 -0.0654936358
vt 0.125651658 0.988763988
v -0.0935328007 0.00899999961 -0.0569176339
vt 0.0113636404 0.988763988
v -0.0960775837 0.00899999961 -0.0525080897
vt 0 0.966292024
f 487/487 488/488 489/489
v -0.0616729632 0.00179999985 -0.0654606447
vt 0.875 1
v -0.0491904579 0.00179999985 -0.0195712335
vt 0.875 0.6875
v -0.0960775837 0.00179999985 -0.0525080897
vt 1 0.966291964
f 490/490 491/491 492/492
v 0.023866998 -1.6763807e-10 -0.0120104039
vt 0.667414069 0.528209507
v -0.0218169857 -1.67638042e-10 0.000452623732
vt 0.816887021 0.526924372
v -0.0195649564 -1.67638028e-10 -0.0110221878
vt 0.800639927 0.592467487
f 493/493 494/494 495/495
v -0.0195649564 -1.67638028e-10 -0.0110221878
vt 0.800639927 0.592467487
v 0.016879376 -1.67638042e-10 -0.0205813516
vt 0.681711316 0.591182709
v 0.023866998 -1.6763807e-10 -0.0120104039
vt 0.667414069 0.528209507
f 496/496 497/497 498/498
v -0.0195649564 -1.67638028e-10 -0.0110221878
vt 0.800639927 0.592467487
v -0.0106107201 -1.67638098e-10 -0.0189652648
vt 0.766845822 0.62588191
v 0.00490016816 -1.67638098e-10 -0.0231244098
vt 0.716155112 0.62588191
f 499/499 500/500 501/501
v 0.00490016816 -1.67638098e-10 -0.0231244098
vt 0.716155112 0.62588191
v 0.016879376 -1.67638042e-10 -0.0205813516
vt 0.681711316 0.591182709
v -0.0195649564 -1.67638028e-10 -0.0110221878
vt 0.800639927 0.592467487
f 502/502 503/503 504/504
v 0.0280261468 -1.67638098e-10 0.00350049976
vt 0.667414069 0.427967161
v 0.0256674774 -1.67638112e-10 0.0145775974
vt 0.683661103 0.364994556
v -0.00942368153 -1.67638112e-10 0.0244133752
vt 0.7986902 0.362424046
f 505/505 506/506 507/507
v -0.00942368153 -1.67638112e-10 0.0244133752
vt 0.7986902 0.362424046
v -0.0177644808 -1.67638098e-10 0.0155658107
vt 0.816887021 0.429252297
v 0.0280261468 -1.67638098e-10 0.00350049976
vt 0.667414069 0.427967161
f 508/508 509/509 510/510
v -0.00942368153 -1.67638112e-10 0.0244133752
vt 0.7986902 0.362424046
v 0.0256674774 -1.67638112e-10 0.0145775974
vt 0.683661103 0.364994556
v 0.016713243 -1.67638153e-10 0.0225206707
vt 0.717455149 0.331580162
f 511/511 512/512 513/513
v 0.016713243 -1.67638153e-10 0.0225206707
vt 0.717455149 0.331580162
v 0.00179891218 -1.67638153e-10 0.0265198518
vt 0.766196251 0.331580162
v -0.00942368153 -1.67638112e-10 0.0244133752
vt 0.7986902 0.362424046
f 514/514 515/515 516/516
