# RawMetal: original asset node Sphere
v -0.134678245 0.851319492 -1.01676023
vt 0.47766903 0.360000163
v 0.374698251 0.669603944 -0.97958076
vt 0.447301984 0.321505725
v 0.10481406 -0.0448093526 -0.873830914
vt 0.493791699 0.28169322
f 1/1 2/2 3/3
v -0.134678245 0.851319492 -1.01676023
vt 0.47766903 0.360000163
v 0.156687617 1.57338214 -0.784963429
vt 0.440611362 0.430456668
v 0.374698251 0.669603944 -0.97958076
vt 0.447301984 0.321505725
f 4/4 5/5 6/6
v 0.156687617 1.57338214 -0.784963429
vt 0.440611362 0.430456668
v 0.68099004 1.50908875 -0.482178241
vt 0.396519363 0.409388959
v 0.374698251 0.669603944 -0.97958076
vt 0.447301984 0.321505725
f 7/7 8/8 9/9
v 0.303158045 2.02403355 -0.145972699
vt 0.396054059 0.512723446
v 0.68099004 1.50908875 -0.482178241
vt 0.396519363 0.409388959
v 0.156687617 1.57338214 -0.784963429
vt 0.440611362 0.430456668
f 10/10 11/11 12/12
v 0.374698251 0.669603944 -0.97958076
vt 0.447301984 0.321505725
v 0.907786846 0.617203712 -0.455597728
vt 0.374329627 0.314335734
v 0.720580518 -0.0367018618 -0.484804183
vt 0.426096112 0.26071623
f 13/13 14/14 15/15
v 0.68099004 1.50908875 -0.482178241
vt 0.396519363 0.409388959
v 0.907786846 0.617203712 -0.455597728
vt 0.374329627 0.314335734
v 0.374698251 0.669603944 -0.97958076
vt 0.447301984 0.321505725
f 16/16 17/17 18/18
v 0.303158045 2.02403355 -0.145972699
vt 0.396054059 0.512723446
v 0.803850591 1.43325889 0.265473634
vt 0.34023416 0.436565042
v 0.68099004 1.50908875 -0.482178241
vt 0.396519363 0.409388959
f 19/19 20/20 21/21
v 0.907786846 0.617203712 -0.455597728
vt 0.374329627 0.314335734
v 1.06429851 0.863769948 0.329000205
vt 0.328991711 0.365236014
v 1.03771985 -0.130227193 0.632135689
vt 0.293223768 0.317101389
f 22/22 23/23 24/24
v 0.907786846 0.617203712 -0.455597728
vt 0.374329627 0.314335734
v 1.03771985 -0.130227193 0.632135689
vt 0.293223768 0.317101389
v 0.720580518 -0.0367018618 -0.484804183
vt 0.321756423 0.266420841
f 25/25 26/26 27/27
v 1.06429851 0.863769948 0.329000205
vt 0.328991711 0.365236014
v 0.803850591 1.43325889 0.265473634
vt 0.34023416 0.436565042
v 0.755676746 0.903303862 0.925267577
vt 0.300531387 0.398214668
f 28/28 29/29 30/30
v 0.626992166 -0.128743783 1.04527628
vt 0.271715224 0.341871649
v 1.03771985 -0.130227193 0.632135689
vt 0.293223768 0.317101389
v 1.12787724 0.332108796 0.73781836
vt 0.305122465 0.34647879
f 31/31 32/32 33/33
v 1.12787724 0.332108796 0.73781836
vt 0.305122465 0.34647879
v 0.521989405 0.583387077 1.16660786
vt 0.280546606 0.390378416
v 0.626992166 -0.128743783 1.04527628
vt 0.271715224 0.341871649
f 34/34 35/35 36/36
v 0.755676746 0.903303862 0.925267577
vt 0.300531387 0.398214668
v 0.521989405 0.583387077 1.16660786
vt 0.280546606 0.390378416
v 1.12787724 0.332108796 0.73781836
vt 0.305122465 0.34647879
f 37/37 38/38 39/39
v 0.803850591 1.43325889 0.265473634
vt 0.34023416 0.436565042
v 0.306044966 1.82061994 0.548018277
vt 0.330818772 0.520855427
v 0.264903218 1.41996372 0.799359381
vt 0.293970555 0.470380783
f 40/40 41/41 42/42
v 0.306044966 1.82061994 0.548018277
vt 0.330818772 0.520855427
v -0.0380808301 2.03581309 0.16653493
vt 0.391146421 0.575839341
v 0.264903218 1.41996372 0.799359381
vt 0.293970555 0.470380783
f 43/43 44/44 45/45
v 0.264903218 1.41996372 0.799359381
vt 0.293970555 0.470380783
v 0.521989405 0.583387077 1.16660786
vt 0.280546606 0.390378416
v 0.755676746 0.903303862 0.925267577
vt 0.300531387 0.398214668
f 46/46 47/47 48/48
v 0.264903218 1.41996372 0.799359381
vt 0.293970555 0.470380783
v -0.250859976 1.37100506 0.868207097
vt 0.247180402 0.488461316
v 0.521989405 0.583387077 1.16660786
vt 0.280546606 0.390378416
f 49/49 50/50 51/51
v 0.264903218 1.41996372 0.799359381
vt 0.293970555 0.470380783
v -0.0380808301 2.03581309 0.16653493
vt 0.391146421 0.575839341
v -0.250891328 1.7474829 0.395993441
vt 0.29225418 0.570227146
f 52/52 53/53 54/54
v 0.218690932 0.453559428 1.10788822
vt 0.262862861 0.386313468
v -0.250859976 1.37100506 0.868207097
vt 0.247180402 0.488461316
v -0.644725621 0.555458128 0.799772382
vt 0.221538872 0.408035666
f 55/55 56/56 57/57
v 0.0962398052 -0.0586405098 0.968330681
vt 0.249806523 0.35013786
v -0.644725621 0.555458128 0.799772382
vt 0.221538872 0.408035666
v -0.869115949 -0.0281437244 0.221885353
vt 0.21382001 0.358127445
f 58/58 59/59 60/60
v -0.250859976 1.37100506 0.868207097
vt 0.247180402 0.488461316
v -0.250891328 1.7474829 0.395993441
vt 0.230430752 0.537447572
v -0.613628447 1.55093944 0.211517841
vt 0.21356979 0.50292021
f 61/61 62/62 63/63
v -0.250891328 1.7474829 0.395993441
vt 0.597568035 0.582250535
v -0.0380808301 2.03581309 0.16653493
vt 0.391146421 0.575839341
v -0.613628447 1.55093944 0.211517841
vt 0.557571054 0.529027939
f 64/64 65/65 66/66
v -0.944772482 1.19532573 0.290429413
vt 0.565571845 0.472257406
v -0.869115949 -0.0281437244 0.221885353
vt 0.577253819 0.360882699
v -0.644725621 0.555458128 0.799772382
vt 0.595059454 0.419084936
f 67/67 68/68 69/69
v -0.798785686 1.53478789 -0.205155224
vt 0.519935012 0.489811361
v -0.976927936 0.850024819 -0.323038131
vt 0.534897447 0.412442595
v -0.944772482 1.19532573 0.290429413
vt 0.565571845 0.472257406
f 70/70 71/71 72/72
v -0.944772482 1.19532573 0.290429413
vt 0.565571845 0.472257406
v -0.976927936 0.850024819 -0.323038131
vt 0.534897447 0.412442595
v -0.869115949 -0.0281437244 0.221885353
vt 0.577253819 0.360882699
f 73/73 74/74 75/75
v -0.976927936 0.850024819 -0.323038131
vt 0.534897447 0.412442595
v -0.69680059 -0.0419231392 -0.520333111
vt 0.540163755 0.329645157
v -0.869115949 -0.0281437244 0.221885353
vt 0.577253819 0.360882699
f 76/76 77/77 78/78
v -0.2834014 2.02029705 0.0259795655
vt 0.479018658 0.577759385
v -0.2237425 1.93274796 -0.409065664
vt 0.456598312 0.515751123
v -0.798785686 1.53478789 -0.205155224
vt 0.519935012 0.489811361
f 79/79 80/80 81/81
v -0.2237425 1.93274796 -0.409065664
vt 0.456598312 0.515751123
v -0.537877262 1.39527893 -0.714384198
vt 0.487163126 0.440102965
v -0.798785686 1.53478789 -0.205155224
vt 0.519935012 0.489811361
f 82/82 83/83 84/84
v -0.976927936 0.850024819 -0.323038131
vt 0.534897447 0.412442595
v -0.537877262 1.39527893 -0.714384198
vt 0.487163126 0.440102965
v -0.618163466 0.408207059 -0.790344357
vt 0.512068331 0.349406332
f 85/85 86/86 87/87
v -0.69680059 -0.0419231392 -0.520333111
vt 0.540163755 0.329645157
v -0.618163466 0.408207059 -0.790344357
vt 0.512068331 0.349406332
v 0.10481406 -0.0448093526 -0.873830914
vt 0.493791699 0.28169322
f 88/88 89/89 90/90
v -0.2237425 1.93274796 -0.409065664
vt 0.456598312 0.515751123
v 0.156687617 1.57338214 -0.784963429
vt 0.440611362 0.430456668
v -0.537877262 1.39527893 -0.714384198
vt 0.487163126 0.440102965
f 91/91 92/92 93/93
v 0.156687617 1.57338214 -0.784963429
vt 0.440611362 0.430456668
v -0.2237425 1.93274796 -0.409065664
vt 0.456598312 0.515751123
v 0.303158045 2.02403355 -0.145972699
vt 0.396054059 0.512723446
f 94/94 95/95 96/96
v 0.10481406 -0.0448093526 -0.873830914
vt 0.493791699 0.28169322
v 0.374698251 0.669603944 -0.97958076
vt 0.447301984 0.321505725
v 0.720580518 -0.0367018618 -0.484804183
vt 0.426096112 0.26071623
f 97/97 98/98 99/99
v 0.68099004 1.50908875 -0.482178241
vt 0.396519363 0.409388959
v 1.06429851 0.863769948 0.329000205
vt 0.328991711 0.365236014
v 0.907786846 0.617203712 -0.455597728
vt 0.374329627 0.314335734
f 100/100 101/101 102/102
v 0.68099004 1.50908875 -0.482178241
vt 0.396519363 0.409388959
v 0.803850591 1.43325889 0.265473634
vt 0.34023416 0.436565042
v 1.06429851 0.863769948 0.329000205
vt 0.328991711 0.365236014
f 103/103 104/104 105/105
v 0.803850591 1.43325889 0.265473634
vt 0.34023416 0.436565042
v 0.303158045 2.02403355 -0.145972699
vt 0.396054059 0.512723446
v 0.306044966 1.82061994 0.548018277
vt 0.330818772 0.520855427
f 106/106 107/107 108/108
v 1.03771985 -0.130227193 0.632135689
vt 0.293223768 0.317101389
v 1.06429851 0.863769948 0.329000205
vt 0.328991711 0.365236014
v 1.12787724 0.332108796 0.73781836
vt 0.305122465 0.34647879
f 109/109 110/110 111/111
v 1.12787724 0.332108796 0.73781836
vt 0.305122465 0.34647879
v 1.06429851 0.863769948 0.329000205
vt 0.328991711 0.365236014
v 0.755676746 0.903303862 0.925267577
vt 0.300531387 0.398214668
f 112/112 113/113 114/114
v 0.303158045 2.02403355 -0.145972699
vt 0.396054059 0.512723446
v -0.0380808301 2.03581309 0.16653493
vt 0.391146421 0.575839341
v 0.306044966 1.82061994 0.548018277
vt 0.330818772 0.520855427
f 115/115 116/116 117/117
v 0.626992166 -0.128743783 1.04527628
vt 0.271715224 0.341871649
v 0.521989405 0.583387077 1.16660786
vt 0.280546606 0.390378416
v 0.218690932 0.453559428 1.10788822
vt 0.262862861 0.386313468
f 118/118 119/119 120/120
v 0.218690932 0.453559428 1.10788822
vt 0.262862861 0.386313468
v 0.0962398052 -0.0586405098 0.968330681
vt 0.249806523 0.35013786
v 0.626992166 -0.128743783 1.04527628
vt 0.271715224 0.341871649
f 121/121 122/122 123/123
v 0.803850591 1.43325889 0.265473634
vt 0.34023416 0.436565042
v 0.264903218 1.41996372 0.799359381
vt 0.293970555 0.470380783
v 0.755676746 0.903303862 0.925267577
vt 0.300531387 0.398214668
f 124/124 125/125 126/126
v -0.798785686 1.53478789 -0.205155224
vt 0.519935012 0.489811361
v -0.944772482 1.19532573 0.290429413
vt 0.565571845 0.472257406
v -0.613628447 1.55093944 0.211517841
vt 0.557571054 0.529027939
f 127/127 128/128 129/129
v -0.613628447 1.55093944 0.211517841
vt 0.557571054 0.529027939
v -0.2834014 2.02029705 0.0259795655
vt 0.479018658 0.577759385
v -0.798785686 1.53478789 -0.205155224
vt 0.519935012 0.489811361
f 130/130 131/131 132/132
v 0.521989405 0.583387077 1.16660786
vt 0.280546606 0.390378416
v -0.250859976 1.37100506 0.868207097
vt 0.247180402 0.488461316
v 0.218690932 0.453559428 1.10788822
vt 0.262862861 0.386313468
f 133/133 134/134 135/135
v -0.250859976 1.37100506 0.868207097
vt 0.247180402 0.488461316
v 0.264903218 1.41996372 0.799359381
vt 0.293970555 0.470380783
v -0.250891328 1.7474829 0.395993441
vt 0.29225418 0.570227146
f 136/136 137/137 138/138
v 0.218690932 0.453559428 1.10788822
vt 0.262862861 0.386313468
v -0.644725621 0.555458128 0.799772382
vt 0.221538872 0.408035666
v 0.0962398052 -0.0586405098 0.968330681
vt 0.249806523 0.35013786
f 139/139 140/140 141/141
v -0.644725621 0.555458128 0.799772382
vt 0.221538872 0.408035666
v -0.250859976 1.37100506 0.868207097
vt 0.247180402 0.488461316
v -0.944772482 1.19532573 0.290429413
vt 0.214871198 0.479245603
f 142/142 143/143 144/144
v -0.250859976 1.37100506 0.868207097
vt 0.247180402 0.488461316
v -0.613628447 1.55093944 0.211517841
vt 0.21356979 0.50292021
v -0.944772482 1.19532573 0.290429413
vt 0.214871198 0.479245603
f 145/145 146/146 147/147
v -0.0380808301 2.03581309 0.16653493
vt 0.391146421 0.575839341
v -0.2834014 2.02029705 0.0259795655
vt 0.479018658 0.577759385
v -0.613628447 1.55093944 0.211517841
vt 0.557571054 0.529027939
f 148/148 149/149 150/150
v -0.976927936 0.850024819 -0.323038131
vt 0.534897447 0.412442595
v -0.618163466 0.408207059 -0.790344357
vt 0.512068331 0.349406332
v -0.69680059 -0.0419231392 -0.520333111
vt 0.540163755 0.329645157
f 151/151 152/152 153/153
v -0.976927936 0.850024819 -0.323038131
vt 0.534897447 0.412442595
v -0.798785686 1.53478789 -0.205155224
vt 0.519935012 0.489811361
v -0.537877262 1.39527893 -0.714384198
vt 0.487163126 0.440102965
f 154/154 155/155 156/156
v -0.618163466 0.408207059 -0.790344357
vt 0.512068331 0.349406332
v -0.537877262 1.39527893 -0.714384198
vt 0.487163126 0.440102965
v -0.134678245 0.851319492 -1.01676023
vt 0.47766903 0.360000163
f 157/157 158/158 159/159
v -0.537877262 1.39527893 -0.714384198
vt 0.487163126 0.440102965
v 0.156687617 1.57338214 -0.784963429
vt 0.440611362 0.430456668
v -0.134678245 0.851319492 -1.01676023
vt 0.47766903 0.360000163
f 160/160 161/161 162/162
v -0.2834014 2.02029705 0.0259795655
vt 0.479018658 0.577759385
v 0.303158045 2.02403355 -0.145972699
vt 0.396054059 0.512723446
v -0.2237425 1.93274796 -0.409065664
vt 0.456598312 0.515751123
f 163/163 164/164 165/165
v -0.618163466 0.408207059 -0.790344357
vt 0.512068331 0.349406332
v -0.134678245 0.851319492 -1.01676023
vt 0.47766903 0.360000163
v 0.10481406 -0.0448093526 -0.873830914
vt 0.493791699 0.28169322
f 166/166 167/167 168/168
v 0.0962398052 -0.0586405098 0.968330681
vt 0.630721331 0.349270463
v -0.869115949 -0.0281437244 0.221885353
vt 0.577253819 0.360882699
v 1.03771985 -0.130227193 0.632135689
vt 0.674393237 0.316817343
f 169/169 170/170 171/171
v -0.869115949 -0.0281437244 0.221885353
vt 0.577253819 0.360882699
v -0.69680059 -0.0419231392 -0.520333111
vt 0.540163755 0.329645157
v 1.03771985 -0.130227193 0.632135689
vt 0.674393237 0.316817343
f 172/172 173/173 174/174
v -0.69680059 -0.0419231392 -0.520333111
vt 0.540163755 0.329645157
v 0.10481406 -0.0448093526 -0.873830914
vt 0.493791699 0.28169322
v 0.720580518 -0.0367018618 -0.484804183
vt 0.426096112 0.26071623
f 175/175 176/176 177/177
v -0.69680059 -0.0419231392 -0.520333111
vt 0.540163755 0.329645157
v 0.720580518 -0.0367018618 -0.484804183
vt 0.426096112 0.26071623
v 1.03771985 -0.130227193 0.632135689
vt 0.674393237 0.316817343
f 178/178 179/179 180/180
v 0.626992166 -0.128743783 1.04527628
vt 0.652897775 0.341424018
v 0.0962398052 -0.0586405098 0.968330681
vt 0.630721331 0.349270463
v 1.03771985 -0.130227193 0.632135689
vt 0.674393237 0.316817343
f 181/181 182/182 183/183
v -0.2834014 2.02029705 0.0259795655
vt 0.479018658 0.577759385
v -0.0380808301 2.03581309 0.16653493
vt 0.391146421 0.575839341
v 0.303158045 2.02403355 -0.145972699
vt 0.396054059 0.512723446
f 184/184 185/185 186/186
