# RawMetal: original asset node mre_1
v 0.0867989138 0.0285000317 -0.137957036
vt 0.946158648 0.957644641
v -0.0868477598 0.0285000317 -0.137546465
vt 0.0538413525 0.956290543
v -0.0850903317 0.0300000273 -0.120920554
vt 0.0628756285 0.901472151
f 1/1 2/2 3/3
v -0.0850903317 0.0300000273 -0.120920554
vt 0.0628756285 0.901472151
v 0.0858578533 0.0300000273 -0.122562796
vt 0.941325128 0.906886995
v 0.0867989138 0.0285000317 -0.137957036
vt 0.946158648 0.957644641
f 4/4 5/5 6/6
v 0.0867989138 0.0285000317 -0.137957036
vt 0.0538413525 0.957644641
v 0.0858578533 0.0270000342 -0.122562811
vt 0.0586748719 0.906886995
v -0.0850903317 0.0270000342 -0.120920569
vt 0.937124372 0.901472151
f 7/7 8/8 9/9
v -0.0850903317 0.0270000342 -0.120920569
vt 0.937124372 0.901472151
v -0.0868477598 0.0285000317 -0.137546465
vt 0.946158648 0.956290543
v 0.0867989138 0.0285000317 -0.137957036
vt 0.0538413525 0.957644641
f 10/10 11/11 12/12
v 0.0824061036 0.0281965975 -0.0991226062
vt 0.0764158964 0.829600096
v 0.0820407569 0.0286610145 -0.0545690805
vt 0.0782914162 0.682699621
v 0.0619656146 0.00809273589 -0.0545487031
vt 0.181452036 0.682632446
f 13/13 14/14 15/15
v 0.0619656146 0.00809273589 -0.0545487031
vt 0.181452036 0.682632446
v 0.0624585859 0.0113969576 -0.106230572
vt 0.178918004 0.853036523
v 0.0824061036 0.0281965975 -0.0991226062
vt 0.0764158964 0.829600096
f 16/16 17/17 18/18
v -0.0819343626 0.0299999584 0.139640749
vt 0.0790911317 0.0423553027
v -0.0827583447 0.0319999643 0.11336752
vt 0.0748582482 0.128982112
v -0.0827583447 0.0279999655 0.113367498
vt 0.0748582482 0.128982112
f 19/19 20/20 21/21
v 0.0832329169 0.0319999643 0.111719094
vt 0.92783308 0.134417742
v 0.083464846 0.0299999584 0.138379499
vt 0.929024637 0.0465137176
v 0.0832329169 0.0279999655 0.111719079
vt 0.92783308 0.134417742
f 22/22 23/23 24/24
v 0.0867989138 0.0285000317 -0.137957036
vt 0.946158648 0.957644641
v 0.0858578533 0.0300000273 -0.122562796
vt 0.941325128 0.906886995
v 0.0858578533 0.0270000342 -0.122562811
vt 0.941325128 0.906886995
f 25/25 26/26 27/27
v -0.0850903317 0.0300000273 -0.120920554
vt 0.0628756285 0.901472151
v -0.0868477598 0.0285000317 -0.137546465
vt 0.0538413525 0.956290543
v -0.0850903317 0.0270000342 -0.120920569
vt 0.0628756285 0.901472151
f 28/28 29/29 30/30
v -0.0784757286 0.0289257951 0.0884756595
vt 0.903135717 0.21105583
v -0.0773284137 0.0280230064 0.0764169544
vt 0.914479136 0.251011729
v -0.0581094548 0.00890025031 0.0767456219
vt 0.811395705 0.249881387
f 31/31 32/32 33/33
v -0.0581094548 0.00890025031 0.0767456219
vt 0.811395705 0.249881387
v -0.0569072999 0.010991307 0.0956083313
vt 0.792305827 0.187538907
v -0.0784757286 0.0289257951 0.0884756595
vt 0.903135717 0.21105583
f 34/34 35/35 36/36
v 0.0394320488 -9.21394072e-09 0.0340998024
vt 0.297243834 0.390342891
v 0.0382112712 0.00124168047 0.0783928856
vt 0.294774055 0.24421224
v -0.0395266786 0.00124168256 0.0770634189
vt 0.711729527 0.248787507
f 37/37 38/38 39/39
v -0.0395266786 0.00124168256 0.0770634189
vt 0.711729527 0.248787507
v -0.0402709246 -8.97366892e-09 0.0332105868
vt 0.706812441 0.393273503
v 0.0394320488 -9.21394072e-09 0.0340998024
vt 0.297243834 0.390342891
f 40/40 41/41 42/42
v 0.0596121959 0.0489533097 0.0966657177
vt 0.806456208 0.184051007
v 0.0796564519 0.0294170529 0.0901440904
vt 0.909456253 0.205554038
v 0.0758429617 0.0289809294 0.0790364668
vt 0.907069921 0.24199672
f 43/43 44/44 45/45
v 0.0758429617 0.0289809294 0.0790364668
vt 0.907069921 0.24199672
v 0.0562981106 0.0506769679 0.0787022188
vt 0.802239358 0.24314788
v 0.0596121959 0.0489533097 0.0966657177
vt 0.806456208 0.184051007
f 46/46 47/47 48/48
v -0.0615971424 0.0516116694 -0.0544232279
vt 0.183600545 0.682219267
v -0.0613454692 0.0477473475 -0.104914233
vt 0.184891641 0.848695815
v -0.0818999857 0.0283247177 -0.0979890749
vt 0.0792676806 0.825863183
f 49/49 50/50 51/51
v -0.0818999857 0.0283247177 -0.0979890749
vt 0.0792676806 0.825863183
v -0.0820343941 0.0290557165 -0.0544024743
vt 0.07857728 0.682149768
v -0.0615971424 0.0516116694 -0.0544232279
vt 0.183600545 0.682219267
f 52/52 53/53 54/54
v 0.0858578533 0.0300000273 -0.122562796
vt 0.941325128 0.906886995
v 0.0619586147 0.0477337874 -0.105800241
vt 0.818509459 0.851617873
v 0.0824061036 0.0281965975 -0.0991226062
vt 0.923584104 0.829600096
f 55/55 56/56 57/57
v -0.0426577926 0.0599999987 -0.0544424504
vt 0.280922472 0.682281613
v -0.0416146852 0.0599999912 -0.010620675
vt 0.28628248 0.537793338
v 0.0412371717 0.0599999912 -0.0102101704
vt 0.712028146 0.536439359
f 58/58 59/59 60/60
v 0.0412371717 0.0599999912 -0.0102101704
vt 0.712028146 0.536439359
v 0.042754218 0.0599999987 -0.0545291826
vt 0.719825983 0.682567537
v -0.0426577926 0.0599999987 -0.0544424504
vt 0.280922472 0.682281613
f 61/61 62/62 63/63
v 0.07870543 0.0279535018 0.034537971
vt 0.0954287052 0.388898343
v 0.0587375313 0.00799343362 0.0343151912
vt 0.198040068 0.38963303
v 0.060482949 0.00805629417 -0.0101148291
vt 0.189069986 0.536125481
f 64/64 65/65 66/66
v 0.060482949 0.00805629417 -0.0101148291
vt 0.189069986 0.536125481
v 0.0805179849 0.0283982866 -0.0100155538
vt 0.0861181617 0.535797834
v 0.07870543 0.0279535018 0.034537971
vt 0.0954287052 0.388898343
f 67/67 68/68 69/69
v 0.0758429617 0.0289809294 0.0790364668
vt 0.0929300785 0.24199672
v 0.056573987 0.00903331116 0.0787069276
vt 0.196280062 0.243130758
v 0.0587375313 0.00799343362 0.0343151912
vt 0.198040068 0.38963303
f 70/70 71/71 72/72
v 0.0587375313 0.00799343362 0.0343151912
vt 0.198040068 0.38963303
v 0.07870543 0.0279535018 0.034537971
vt 0.0954287052 0.388898343
v 0.0758429617 0.0289809294 0.0790364668
vt 0.0929300785 0.24199672
f 73/73 74/74 75/75
v 0.0412371717 2.75884382e-09 -0.0102101862
vt 0.287971854 0.536439359
v -0.0416146852 2.86976531e-09 -0.0106206909
vt 0.71371752 0.537793338
v -0.0426577926 1.47106318e-08 -0.0544424653
vt 0.719077528 0.682281613
f 76/76 77/77 78/78
v -0.0426577926 1.47106318e-08 -0.0544424653
vt 0.719077528 0.682281613
v 0.042754218 1.47340673e-08 -0.0545292012
vt 0.280174017 0.682567537
v 0.0412371717 2.75884382e-09 -0.0102101862
vt 0.287971854 0.536439359
f 79/79 80/80 81/81
v 0.0624585859 0.0113969576 -0.106230572
vt 0.178918004 0.853036523
v 0.0858578533 0.0270000342 -0.122562811
vt 0.0586748719 0.906886995
v 0.0824061036 0.0281965975 -0.0991226062
vt 0.0764158964 0.829600096
f 82/82 83/83 84/84
v -0.0827583447 0.0319999643 0.11336752
vt 0.0748582482 0.128982112
v -0.0566140302 0.0488786362 0.0956767946
vt 0.209203541 0.187311426
v -0.0784757286 0.0289257951 0.0884756595
vt 0.0968642831 0.21105583
f 85/85 86/86 87/87
v -0.040676523 0.0586787462 -0.0869687349
vt 0.281416893 0.789482951
v -0.0426577926 0.0599999987 -0.0544424504
vt 0.280922472 0.682281613
v 0.042754218 0.0599999987 -0.0545291826
vt 0.719825983 0.682567537
f 88/88 89/89 90/90
v 0.042754218 0.0599999987 -0.0545291826
vt 0.719825983 0.682567537
v 0.0411411002 0.0586787462 -0.0875331685
vt 0.721222997 0.791430712
v -0.040676523 0.0586787462 -0.0869687349
vt 0.281416893 0.789482951
f 91/91 92/92 93/93
v 0.0758429617 0.0289809294 0.0790364668
vt 0.0929300785 0.24199672
v 0.0796564519 0.0294170529 0.0901440904
vt 0.0905437469 0.205554038
v 0.0597723462 0.0109598003 0.0966298729
vt 0.192721546 0.184169635
f 94/94 95/95 96/96
v 0.0597723462 0.0109598003 0.0966298729
vt 0.192721546 0.184169635
v 0.056573987 0.00903331116 0.0787069276
vt 0.196280062 0.243130758
v 0.0758429617 0.0289809294 0.0790364668
vt 0.0929300785 0.24199672
f 97/97 98/98 99/99
v -0.0827583447 0.0279999655 0.113367498
vt 0.0748582482 0.128982112
v -0.0827583447 0.0319999643 0.11336752
vt 0.0748582482 0.128982112
v -0.0784757286 0.0289257951 0.0884756595
vt 0.0968642831 0.21105583
f 100/100 101/101 102/102
v -0.0615971424 0.0516116694 -0.0544232279
vt 0.183600545 0.682219267
v -0.0820343941 0.0290557165 -0.0544024743
vt 0.07857728 0.682149768
v -0.0810104609 0.0290550478 -0.0108158765
vt 0.083841145 0.538438559
f 103/103 104/104 105/105
v -0.0810104609 0.0290550478 -0.0108158765
vt 0.083841145 0.538438559
v -0.0605631769 0.051611606 -0.0107145598
vt 0.18891257 0.538103819
v -0.0615971424 0.0516116694 -0.0544232279
vt 0.183600545 0.682219267
f 106/106 107/107 108/108
v -0.0850903317 0.0300000273 -0.120920554
vt 0.0628756285 0.901472151
v -0.0850903317 0.0270000342 -0.120920569
vt 0.0628756285 0.901472151
v -0.0818999857 0.0283247177 -0.0979890749
vt 0.0792676806 0.825863183
f 109/109 110/110 111/111
v 0.0805179849 0.0283982866 -0.0100155538
vt 0.913881838 0.535797834
v 0.0820407569 0.0286610145 -0.0545690805
vt 0.921708584 0.682699621
v 0.0615972057 0.0515638478 -0.0545483157
vt 0.816653132 0.682631075
f 112/112 113/113 114/114
v 0.0615972057 0.0515638478 -0.0545483157
vt 0.816653132 0.682631075
v 0.0600423627 0.0515327118 -0.010116999
vt 0.808665872 0.536132395
v 0.0805179849 0.0283982866 -0.0100155538
vt 0.913881838 0.535797834
f 115/115 116/116 117/117
v 0.07870543 0.0279535018 0.034537971
vt 0.904571295 0.388898343
v 0.0805179849 0.0283982866 -0.0100155538
vt 0.913881838 0.535797834
v 0.0600423627 0.0515327118 -0.010116999
vt 0.808665872 0.536132395
f 118/118 119/119 120/120
v 0.0600423627 0.0515327118 -0.010116999
vt 0.808665872 0.536132395
v 0.0581748039 0.0514810011 0.0343089253
vt 0.799069464 0.389652461
v 0.07870543 0.0279535018 0.034537971
vt 0.904571295 0.388898343
f 121/121 122/122 123/123
v 0.0394320488 0.0599999763 0.034099821
vt 0.702756166 0.390342891
v -0.0402709246 0.0599999763 0.0332106054
vt 0.293187559 0.393273503
v -0.0394269265 0.0587256737 0.0775736794
vt 0.288810134 0.247031555
f 124/124 125/125 126/126
v -0.0394269265 0.0587256737 0.0775736794
vt 0.288810134 0.247031555
v 0.0382112712 0.0587256737 0.078392908
vt 0.705225945 0.24421224
v 0.0394320488 0.0599999763 0.034099821
vt 0.702756166 0.390342891
f 127/127 128/128 129/129
v 0.0596121959 0.0489533097 0.0966657177
vt 0.806456208 0.184051007
v 0.0832329169 0.0319999643 0.111719094
vt 0.92783308 0.134417742
v 0.0796564519 0.0294170529 0.0901440904
vt 0.909456253 0.205554038
f 130/130 131/131 132/132
v 0.0858578533 0.0270000342 -0.122562811
vt 0.941325128 0.906886995
v 0.0858578533 0.0300000273 -0.122562796
vt 0.941325128 0.906886995
v 0.0824061036 0.0281965975 -0.0991226062
vt 0.923584104 0.829600096
f 133/133 134/134 135/135
v 0.0832329169 0.0319999643 0.111719094
vt 0.92783308 0.134417742
v 0.0832329169 0.0279999655 0.111719079
vt 0.92783308 0.134417742
v 0.0796564519 0.0294170529 0.0901440904
vt 0.909456253 0.205554038
f 136/136 137/137 138/138
v -0.0818999857 0.0283247177 -0.0979890749
vt 0.920732319 0.825863183
v -0.0618061461 0.0113944178 -0.105344638
vt 0.817475319 0.850115657
v -0.0618584342 0.00814717542 -0.0544229709
vt 0.817741811 0.682217002
f 139/139 140/140 141/141
v -0.0618584342 0.00814717542 -0.0544229709
vt 0.817741811 0.682217002
v -0.0820343941 0.0290557165 -0.0544024743
vt 0.92142272 0.682149768
v -0.0818999857 0.0283247177 -0.0979890749
vt 0.920732319 0.825863183
f 142/142 143/143 144/144
v -0.00885933731 0.0279999673 0.109672949
vt 0.545399547 0.141164631
v -0.0569072999 0.010991307 0.0956083313
vt 0.792305827 0.187538907
v 0.0597723462 0.0109598003 0.0966298729
vt 0.192721546 0.184169635
f 145/145 146/146 147/147
v 0.0597723462 0.0109598003 0.0966298729
vt 0.192721546 0.184169635
v 0.0141206319 0.0279999673 0.110905096
vt 0.427311361 0.137101442
v -0.00885933731 0.0279999673 0.109672949
vt 0.545399547 0.141164631
f 148/148 149/149 150/150
v -0.0773284137 0.0280230064 0.0764169544
vt 0.914479136 0.251011729
v -0.0796971917 0.0288716089 0.0327707268
vt 0.909411132 0.394725263
v -0.0595219433 0.00812234916 0.0329958089
vt 0.80573684 0.393983394
f 151/151 152/152 153/153
v -0.0595219433 0.00812234916 0.0329958089
vt 0.80573684 0.393983394
v -0.0581094548 0.00890025031 0.0767456219
vt 0.811395705 0.249881387
v -0.0773284137 0.0280230064 0.0764169544
vt 0.914479136 0.251011729
f 154/154 155/155 156/156
v 0.0832329169 0.0279999655 0.111719079
vt 0.0721669197 0.134417742
v 0.0597723462 0.0109598003 0.0966298729
vt 0.192721546 0.184169635
v 0.0796564519 0.0294170529 0.0901440904
vt 0.0905437469 0.205554038
f 157/157 158/158 159/159
v 0.0624585859 0.0113969576 -0.106230572
vt 0.178918004 0.853036523
v -0.0618061461 0.0113944178 -0.105344638
vt 0.817475319 0.850115657
v -0.0850903317 0.0270000342 -0.120920569
vt 0.937124372 0.901472151
f 160/160 161/161 162/162
v -0.0850903317 0.0270000342 -0.120920569
vt 0.937124372 0.901472151
v 0.0858578533 0.0270000342 -0.122562811
vt 0.0586748719 0.906886995
v 0.0624585859 0.0113969576 -0.106230572
vt 0.178918004 0.853036523
f 163/163 164/164 165/165
v 0.0412371717 0.0599999912 -0.0102101704
vt 0.712028146 0.536439359
v -0.0416146852 0.0599999912 -0.010620675
vt 0.28628248 0.537793338
v -0.0402709246 0.0599999763 0.0332106054
vt 0.293187559 0.393273503
f 166/166 167/167 168/168
v -0.0402709246 0.0599999763 0.0332106054
vt 0.293187559 0.393273503
v 0.0394320488 0.0599999763 0.034099821
vt 0.702756166 0.390342891
v 0.0412371717 0.0599999912 -0.0102101704
vt 0.712028146 0.536439359
f 169/169 170/170 171/171
v -0.0613454692 0.0477473475 -0.104914233
vt 0.184891641 0.848695815
v -0.0850903317 0.0300000273 -0.120920554
vt 0.0628756285 0.901472151
v -0.0818999857 0.0283247177 -0.0979890749
vt 0.0792676806 0.825863183
f 172/172 173/173 174/174
v -0.0592093877 0.0515893213 0.0329993069
vt 0.19586575 0.393970013
v -0.0796971917 0.0288716089 0.0327707268
vt 0.0905888677 0.394725263
v -0.0773284137 0.0280230064 0.0764169544
vt 0.0855208635 0.251011729
f 175/175 176/176 177/177
v -0.0773284137 0.0280230064 0.0764169544
vt 0.0855208635 0.251011729
v -0.057567779 0.0505636074 0.0767549053
vt 0.191507697 0.249848261
v -0.0592093877 0.0515893213 0.0329993069
vt 0.19586575 0.393970013
f 178/178 179/179 180/180
v -0.0569072999 0.010991307 0.0956083313
vt 0.792305827 0.187538907
v -0.0827583447 0.0279999655 0.113367498
vt 0.925141752 0.128982112
v -0.0784757286 0.0289257951 0.0884756595
vt 0.903135717 0.21105583
f 181/181 182/182 183/183
v -0.0618061461 0.0113944178 -0.105344638
vt 0.817475319 0.850115657
v -0.0818999857 0.0283247177 -0.0979890749
vt 0.920732319 0.825863183
v -0.0850903317 0.0270000342 -0.120920569
vt 0.937124372 0.901472151
f 184/184 185/185 186/186
v 0.0805179849 0.0283982866 -0.0100155538
vt 0.0861181617 0.535797834
v 0.060482949 0.00805629417 -0.0101148291
vt 0.189069986 0.536125481
v 0.0619656146 0.00809273589 -0.0545487031
vt 0.181452036 0.682632446
f 187/187 188/188 189/189
v 0.0619656146 0.00809273589 -0.0545487031
vt 0.181452036 0.682632446
v 0.0820407569 0.0286610145 -0.0545690805
vt 0.0782914162 0.682699621
v 0.0805179849 0.0283982866 -0.0100155538
vt 0.0861181617 0.535797834
f 190/190 191/191 192/192
v 0.0412371717 2.75884382e-09 -0.0102101862
vt 0.287971854 0.536439359
v 0.0394320488 -9.21394072e-09 0.0340998024
vt 0.297243834 0.390342891
v -0.0402709246 -8.97366892e-09 0.0332105868
vt 0.706812441 0.393273503
f 193/193 194/194 195/195
v -0.0402709246 -8.97366892e-09 0.0332105868
vt 0.706812441 0.393273503
v -0.0416146852 2.86976531e-09 -0.0106206909
vt 0.71371752 0.537793338
v 0.0412371717 2.75884382e-09 -0.0102101862
vt 0.287971854 0.536439359
f 196/196 197/197 198/198
v -0.0810104609 0.0290550478 -0.0108158765
vt 0.916158855 0.538438559
v -0.0820343941 0.0290557165 -0.0544024743
vt 0.92142272 0.682149768
v -0.0618584342 0.00814717542 -0.0544229709
vt 0.817741811 0.682217002
f 199/199 200/200 201/201
v -0.0618584342 0.00814717542 -0.0544229709
vt 0.817741811 0.682217002
v -0.0608248822 0.008147154 -0.0107158683
vt 0.812436342 0.538107574
v -0.0810104609 0.0290550478 -0.0108158765
vt 0.916158855 0.538438559
f 202/202 203/203 204/204
v -0.0850903317 0.0300000273 -0.120920554
vt 0.0628756285 0.901472151
v -0.0613454692 0.0477473475 -0.104914233
vt 0.184891641 0.848695815
v 0.0619586147 0.0477337874 -0.105800241
vt 0.818509459 0.851617873
f 205/205 206/206 207/207
v 0.0619586147 0.0477337874 -0.105800241
vt 0.818509459 0.851617873
v 0.0858578533 0.0300000273 -0.122562796
vt 0.941325128 0.906886995
v -0.0850903317 0.0300000273 -0.120920554
vt 0.0628756285 0.901472151
f 208/208 209/209 210/210
v -0.0605631769 0.051611606 -0.0107145598
vt 0.18891257 0.538103819
v -0.0810104609 0.0290550478 -0.0108158765
vt 0.083841145 0.538438559
v -0.0796971917 0.0288716089 0.0327707268
vt 0.0905888677 0.394725263
f 211/211 212/212 213/213
v -0.0796971917 0.0288716089 0.0327707268
vt 0.0905888677 0.394725263
v -0.0592093877 0.0515893213 0.0329993069
vt 0.19586575 0.393970013
v -0.0605631769 0.051611606 -0.0107145598
vt 0.18891257 0.538103819
f 214/214 215/215 216/216
v -0.0796971917 0.0288716089 0.0327707268
vt 0.909411132 0.394725263
v -0.0810104609 0.0290550478 -0.0108158765
vt 0.916158855 0.538438559
v -0.0608248822 0.008147154 -0.0107158683
vt 0.812436342 0.538107574
f 217/217 218/218 219/219
v -0.0608248822 0.008147154 -0.0107158683
vt 0.812436342 0.538107574
v -0.0595219433 0.00812234916 0.0329958089
vt 0.80573684 0.393983394
v -0.0796971917 0.0288716089 0.0327707268
vt 0.909411132 0.394725263
f 220/220 221/221 222/222
v 0.0615972057 0.0515638478 -0.0545483157
vt 0.816653132 0.682631075
v 0.0820407569 0.0286610145 -0.0545690805
vt 0.921708584 0.682699621
v 0.0824061036 0.0281965975 -0.0991226062
vt 0.923584104 0.829600096
f 223/223 224/224 225/225
v 0.0824061036 0.0281965975 -0.0991226062
vt 0.923584104 0.829600096
v 0.0619586147 0.0477337874 -0.105800241
vt 0.818509459 0.851617873
v 0.0615972057 0.0515638478 -0.0545483157
vt 0.816653132 0.682631075
f 226/226 227/227 228/228
v -0.057567779 0.0505636074 0.0767549053
vt 0.191507697 0.249848261
v -0.0773284137 0.0280230064 0.0764169544
vt 0.0855208635 0.251011729
v -0.0784757286 0.0289257951 0.0884756595
vt 0.0968642831 0.21105583
f 229/229 230/230 231/231
v -0.0784757286 0.0289257951 0.0884756595
vt 0.0968642831 0.21105583
v -0.0566140302 0.0488786362 0.0956767946
vt 0.209203541 0.187311426
v -0.057567779 0.0505636074 0.0767549053
vt 0.191507697 0.249848261
f 232/232 233/233 234/234
v 0.042754218 1.47340673e-08 -0.0545292012
vt 0.280174017 0.682567537
v -0.0426577926 1.47106318e-08 -0.0544424653
vt 0.719077528 0.682281613
v -0.040676523 0.00132128154 -0.0869687423
vt 0.718583107 0.789482951
f 235/235 236/236 237/237
v -0.040676523 0.00132128154 -0.0869687423
vt 0.718583107 0.789482951
v 0.041141104 0.00132128166 -0.0875331834
vt 0.278777003 0.791430712
v 0.042754218 1.47340673e-08 -0.0545292012
vt 0.280174017 0.682567537
f 238/238 239/239 240/240
v 0.0394320488 0.0599999763 0.034099821
vt 0.702756166 0.390342891
v 0.0382112712 0.0587256737 0.078392908
vt 0.705225945 0.24421224
v 0.0562981106 0.0506769679 0.0787022188
vt 0.802239358 0.24314788
f 241/241 242/242 243/243
v 0.0562981106 0.0506769679 0.0787022188
vt 0.802239358 0.24314788
v 0.0581748039 0.0514810011 0.0343089253
vt 0.799069464 0.389652461
v 0.0394320488 0.0599999763 0.034099821
vt 0.702756166 0.390342891
f 244/244 245/245 246/246
v 0.0382112712 0.0587256737 0.078392908
vt 0.705225945 0.24421224
v 0.0596121959 0.0489533097 0.0966657177
vt 0.806456208 0.184051007
v 0.0562981106 0.0506769679 0.0787022188
vt 0.802239358 0.24314788
f 247/247 248/248 249/249
v -0.0394269265 0.0587256737 0.0775736794
vt 0.288810134 0.247031555
v -0.057567779 0.0505636074 0.0767549053
vt 0.191507697 0.249848261
v -0.0566140302 0.0488786362 0.0956767946
vt 0.209203541 0.187311426
f 250/250 251/251 252/252
v 0.0394320488 -9.21394072e-09 0.0340998024
vt 0.297243834 0.390342891
v 0.0587375313 0.00799343362 0.0343151912
vt 0.198040068 0.38963303
v 0.056573987 0.00903331116 0.0787069276
vt 0.196280062 0.243130758
f 253/253 254/254 255/255
v 0.056573987 0.00903331116 0.0787069276
vt 0.196280062 0.243130758
v 0.0382112712 0.00124168047 0.0783928856
vt 0.294774055 0.24421224
v 0.0394320488 -9.21394072e-09 0.0340998024
vt 0.297243834 0.390342891
f 256/256 257/257 258/258
v 0.0382112712 0.00124168047 0.0783928856
vt 0.294774055 0.24421224
v 0.056573987 0.00903331116 0.0787069276
vt 0.196280062 0.243130758
v 0.0597723462 0.0109598003 0.0966298729
vt 0.192721546 0.184169635
f 259/259 260/260 261/261
v -0.0395266786 0.00124168256 0.0770634189
vt 0.711729527 0.248787507
v -0.0569072999 0.010991307 0.0956083313
vt 0.792305827 0.187538907
v -0.0581094548 0.00890025031 0.0767456219
vt 0.811395705 0.249881387
f 262/262 263/263 264/264
v -0.040676523 0.0586787462 -0.0869687349
vt 0.281416893 0.789482951
v -0.0613454692 0.0477473475 -0.104914233
vt 0.184891641 0.848695815
v -0.0615971424 0.0516116694 -0.0544232279
vt 0.183600545 0.682219267
f 265/265 266/266 267/267
v -0.0615971424 0.0516116694 -0.0544232279
vt 0.183600545 0.682219267
v -0.0426577926 0.0599999987 -0.0544424504
vt 0.280922472 0.682281613
v -0.040676523 0.0586787462 -0.0869687349
vt 0.281416893 0.789482951
f 268/268 269/269 270/270
v -0.040676523 0.00132128154 -0.0869687423
vt 0.718583107 0.789482951
v -0.0426577926 1.47106318e-08 -0.0544424653
vt 0.719077528 0.682281613
v -0.0618584342 0.00814717542 -0.0544229709
vt 0.817741811 0.682217002
f 271/271 272/272 273/273
v -0.0618584342 0.00814717542 -0.0544229709
vt 0.817741811 0.682217002
v -0.0618061461 0.0113944178 -0.105344638
vt 0.817475319 0.850115657
v -0.040676523 0.00132128154 -0.0869687423
vt 0.718583107 0.789482951
f 274/274 275/275 276/276
v 0.042754218 0.0599999987 -0.0545291826
vt 0.719825983 0.682567537
v 0.0412371717 0.0599999912 -0.0102101704
vt 0.712028146 0.536439359
v 0.0600423627 0.0515327118 -0.010116999
vt 0.808665872 0.536132395
f 277/277 278/278 279/279
v 0.0600423627 0.0515327118 -0.010116999
vt 0.808665872 0.536132395
v 0.0615972057 0.0515638478 -0.0545483157
vt 0.816653132 0.682631075
v 0.042754218 0.0599999987 -0.0545291826
vt 0.719825983 0.682567537
f 280/280 281/281 282/282
v 0.042754218 1.47340673e-08 -0.0545292012
vt 0.280174017 0.682567537
v 0.0619656146 0.00809273589 -0.0545487031
vt 0.181452036 0.682632446
v 0.060482949 0.00805629417 -0.0101148291
vt 0.189069986 0.536125481
f 283/283 284/284 285/285
v 0.060482949 0.00805629417 -0.0101148291
vt 0.189069986 0.536125481
v 0.0412371717 2.75884382e-09 -0.0102101862
vt 0.287971854 0.536439359
v 0.042754218 1.47340673e-08 -0.0545292012
vt 0.280174017 0.682567537
f 286/286 287/287 288/288
v -0.0416146852 0.0599999912 -0.010620675
vt 0.28628248 0.537793338
v -0.0605631769 0.051611606 -0.0107145598
vt 0.18891257 0.538103819
v -0.0592093877 0.0515893213 0.0329993069
vt 0.19586575 0.393970013
f 289/289 290/290 291/291
v -0.0592093877 0.0515893213 0.0329993069
vt 0.19586575 0.393970013
v -0.0402709246 0.0599999763 0.0332106054
vt 0.293187559 0.393273503
v -0.0416146852 0.0599999912 -0.010620675
vt 0.28628248 0.537793338
f 292/292 293/293 294/294
v -0.0416146852 2.86976531e-09 -0.0106206909
vt 0.71371752 0.537793338
v -0.0402709246 -8.97366892e-09 0.0332105868
vt 0.706812441 0.393273503
v -0.0595219433 0.00812234916 0.0329958089
vt 0.80573684 0.393983394
f 295/295 296/296 297/297
v -0.0595219433 0.00812234916 0.0329958089
vt 0.80573684 0.393983394
v -0.0608248822 0.008147154 -0.0107158683
vt 0.812436342 0.538107574
v -0.0416146852 2.86976531e-09 -0.0106206909
vt 0.71371752 0.537793338
f 298/298 299/299 300/300
v 0.0412371717 0.0599999912 -0.0102101704
vt 0.712028146 0.536439359
v 0.0394320488 0.0599999763 0.034099821
vt 0.702756166 0.390342891
v 0.0581748039 0.0514810011 0.0343089253
vt 0.799069464 0.389652461
f 301/301 302/302 303/303
v 0.0581748039 0.0514810011 0.0343089253
vt 0.799069464 0.389652461
v 0.0600423627 0.0515327118 -0.010116999
vt 0.808665872 0.536132395
v 0.0412371717 0.0599999912 -0.0102101704
vt 0.712028146 0.536439359
f 304/304 305/305 306/306
v 0.0412371717 2.75884382e-09 -0.0102101862
vt 0.287971854 0.536439359
v 0.060482949 0.00805629417 -0.0101148291
vt 0.189069986 0.536125481
v 0.0587375313 0.00799343362 0.0343151912
vt 0.198040068 0.38963303
f 307/307 308/308 309/309
v 0.0587375313 0.00799343362 0.0343151912
vt 0.198040068 0.38963303
v 0.0394320488 -9.21394072e-09 0.0340998024
vt 0.297243834 0.390342891
v 0.0412371717 2.75884382e-09 -0.0102101862
vt 0.287971854 0.536439359
f 310/310 311/311 312/312
v -0.0402709246 0.0599999763 0.0332106054
vt 0.293187559 0.393273503
v -0.0592093877 0.0515893213 0.0329993069
vt 0.19586575 0.393970013
v -0.057567779 0.0505636074 0.0767549053
vt 0.191507697 0.249848261
f 313/313 314/314 315/315
v -0.057567779 0.0505636074 0.0767549053
vt 0.191507697 0.249848261
v -0.0394269265 0.0587256737 0.0775736794
vt 0.288810134 0.247031555
v -0.0402709246 0.0599999763 0.0332106054
vt 0.293187559 0.393273503
f 316/316 317/317 318/318
v -0.0402709246 -8.97366892e-09 0.0332105868
vt 0.706812441 0.393273503
v -0.0395266786 0.00124168256 0.0770634189
vt 0.711729527 0.248787507
v -0.0581094548 0.00890025031 0.0767456219
vt 0.811395705 0.249881387
f 319/319 320/320 321/321
v -0.0581094548 0.00890025031 0.0767456219
vt 0.811395705 0.249881387
v -0.0595219433 0.00812234916 0.0329958089
vt 0.80573684 0.393983394
v -0.0402709246 -8.97366892e-09 0.0332105868
vt 0.706812441 0.393273503
f 322/322 323/323 324/324
v -0.0426577926 0.0599999987 -0.0544424504
vt 0.280922472 0.682281613
v -0.0615971424 0.0516116694 -0.0544232279
vt 0.183600545 0.682219267
v -0.0605631769 0.051611606 -0.0107145598
vt 0.18891257 0.538103819
f 325/325 326/326 327/327
v -0.0605631769 0.051611606 -0.0107145598
vt 0.18891257 0.538103819
v -0.0416146852 0.0599999912 -0.010620675
vt 0.28628248 0.537793338
v -0.0426577926 0.0599999987 -0.0544424504
vt 0.280922472 0.682281613
f 328/328 329/329 330/330
v -0.0426577926 1.47106318e-08 -0.0544424653
vt 0.719077528 0.682281613
v -0.0416146852 2.86976531e-09 -0.0106206909
vt 0.71371752 0.537793338
v -0.0608248822 0.008147154 -0.0107158683
vt 0.812436342 0.538107574
f 331/331 332/332 333/333
v -0.0608248822 0.008147154 -0.0107158683
vt 0.812436342 0.538107574
v -0.0618584342 0.00814717542 -0.0544229709
vt 0.817741811 0.682217002
v -0.0426577926 1.47106318e-08 -0.0544424653
vt 0.719077528 0.682281613
f 334/334 335/335 336/336
v 0.0411411002 0.0586787462 -0.0875331685
vt 0.721222997 0.791430712
v 0.042754218 0.0599999987 -0.0545291826
vt 0.719825983 0.682567537
v 0.0615972057 0.0515638478 -0.0545483157
vt 0.816653132 0.682631075
f 337/337 338/338 339/339
v 0.0615972057 0.0515638478 -0.0545483157
vt 0.816653132 0.682631075
v 0.0619586147 0.0477337874 -0.105800241
vt 0.818509459 0.851617873
v 0.0411411002 0.0586787462 -0.0875331685
vt 0.721222997 0.791430712
f 340/340 341/341 342/342
v 0.041141104 0.00132128166 -0.0875331834
vt 0.278777003 0.791430712
v 0.0624585859 0.0113969576 -0.106230572
vt 0.178918004 0.853036523
v 0.0619656146 0.00809273589 -0.0545487031
vt 0.181452036 0.682632446
f 343/343 344/344 345/345
v 0.0619656146 0.00809273589 -0.0545487031
vt 0.181452036 0.682632446
v 0.042754218 1.47340673e-08 -0.0545292012
vt 0.280174017 0.682567537
v 0.041141104 0.00132128166 -0.0875331834
vt 0.278777003 0.791430712
f 346/346 347/347 348/348
v -0.0566140302 0.0488786362 0.0956767946
vt 0.209203541 0.187311426
v 0.0596121959 0.0489533097 0.0966657177
vt 0.806456208 0.184051007
v 0.0382112712 0.0587256737 0.078392908
vt 0.705225945 0.24421224
f 349/349 350/350 351/351
v 0.0382112712 0.0587256737 0.078392908
vt 0.705225945 0.24421224
v -0.0394269265 0.0587256737 0.0775736794
vt 0.288810134 0.247031555
v -0.0566140302 0.0488786362 0.0956767946
vt 0.209203541 0.187311426
f 352/352 353/353 354/354
v -0.0569072999 0.010991307 0.0956083313
vt 0.792305827 0.187538907
v -0.0395266786 0.00124168256 0.0770634189
vt 0.711729527 0.248787507
v 0.0382112712 0.00124168047 0.0783928856
vt 0.294774055 0.24421224
f 355/355 356/356 357/357
v 0.0382112712 0.00124168047 0.0783928856
vt 0.294774055 0.24421224
v 0.0597723462 0.0109598003 0.0966298729
vt 0.192721546 0.184169635
v -0.0569072999 0.010991307 0.0956083313
vt 0.792305827 0.187538907
f 358/358 359/359 360/360
v 0.0411411002 0.0586787462 -0.0875331685
vt 0.721222997 0.791430712
v 0.0619586147 0.0477337874 -0.105800241
vt 0.818509459 0.851617873
v -0.0613454692 0.0477473475 -0.104914233
vt 0.184891641 0.848695815
f 361/361 362/362 363/363
v -0.0613454692 0.0477473475 -0.104914233
vt 0.184891641 0.848695815
v -0.040676523 0.0586787462 -0.0869687349
vt 0.281416893 0.789482951
v 0.0411411002 0.0586787462 -0.0875331685
vt 0.721222997 0.791430712
f 364/364 365/365 366/366
v 0.041141104 0.00132128166 -0.0875331834
vt 0.278777003 0.791430712
v -0.040676523 0.00132128154 -0.0869687423
vt 0.718583107 0.789482951
v -0.0618061461 0.0113944178 -0.105344638
vt 0.817475319 0.850115657
f 367/367 368/368 369/369
v -0.0618061461 0.0113944178 -0.105344638
vt 0.817475319 0.850115657
v 0.0624585859 0.0113969576 -0.106230572
vt 0.178918004 0.853036523
v 0.041141104 0.00132128166 -0.0875331834
vt 0.278777003 0.791430712
f 370/370 371/371 372/372
v 0.0758429617 0.0289809294 0.0790364668
vt 0.907069921 0.24199672
v 0.07870543 0.0279535018 0.034537971
vt 0.904571295 0.388898343
v 0.0581748039 0.0514810011 0.0343089253
vt 0.799069464 0.389652461
f 373/373 374/374 375/375
v 0.0581748039 0.0514810011 0.0343089253
vt 0.799069464 0.389652461
v 0.0562981106 0.0506769679 0.0787022188
vt 0.802239358 0.24314788
v 0.0758429617 0.0289809294 0.0790364668
vt 0.907069921 0.24199672
f 376/376 377/377 378/378
v -0.0827583447 0.0319999643 0.11336752
vt 0.0748582482 0.128982112
v -0.0529881679 0.0319999643 0.112341836
vt 0.227837443 0.13236478
v -0.0566140302 0.0488786362 0.0956767946
vt 0.209203541 0.187311426
f 379/379 380/380 381/381
v 0.0597723462 0.0109598003 0.0966298729
vt 0.192721546 0.184169635
v 0.0832329169 0.0279999655 0.111719079
vt 0.0721669197 0.134417742
v 0.0141206319 0.0279999673 0.110905096
vt 0.427311361 0.137101442
f 382/382 383/383 384/384
v -0.0529881679 0.0319999643 0.112341836
vt 0.227837443 0.13236478
v -0.00885933358 0.0319999643 0.109672964
vt 0.454600453 0.141164631
v -0.0566140302 0.0488786362 0.0956767946
vt 0.209203541 0.187311426
f 385/385 386/386 387/387
v -0.0521641895 0.0299999584 0.138409555
vt 0.767929554 0.0464148931
v -0.0819343626 0.0299999584 0.139640749
vt 0.920908868 0.0423553027
v -0.0827583447 0.0279999655 0.113367498
vt 0.925141752 0.128982112
f 388/388 389/389 390/390
v -0.0827583447 0.0279999655 0.113367498
vt 0.925141752 0.128982112
v -0.0529881716 0.0279999655 0.112341814
vt 0.772162557 0.13236478
v -0.0521641895 0.0299999584 0.138409555
vt 0.767929554 0.0464148931
f 391/391 392/392 393/393
v -0.0529881679 0.0319999643 0.112341836
vt 0.227837443 0.13236478
v -0.0521641895 0.0299999584 0.138409555
vt 0.232070446 0.0464148931
v -0.0100876624 0.0299999584 0.133893892
vt 0.448286533 0.061302986
f 394/394 395/395 396/396
v -0.0100876624 0.0299999584 0.133893892
vt 0.448286533 0.061302986
v -0.00885933358 0.0319999643 0.109672964
vt 0.454600453 0.141164631
v -0.0529881679 0.0319999643 0.112341836
vt 0.227837443 0.13236478
f 397/397 398/398 399/399
v -0.0100876624 0.0299999584 0.133893892
vt 0.551713467 0.061302986
v -0.00885933731 0.0279999673 0.109672949
vt 0.545399547 0.141164631
v 0.0141206319 0.0279999673 0.110905096
vt 0.427311361 0.137101442
f 400/400 401/401 402/402
v 0.0141206319 0.0279999673 0.110905096
vt 0.427311361 0.137101442
v 0.0128999194 0.0299999584 0.136562273
vt 0.433583617 0.0525054261
v -0.0100876624 0.0299999584 0.133893892
vt 0.551713467 0.061302986
f 403/403 404/404 405/405
v 0.0141206337 0.0319999643 0.110905118
vt 0.572688639 0.137101442
v -0.00885933358 0.0319999643 0.109672964
vt 0.454600453 0.141164631
v -0.0100876624 0.0299999584 0.133893892
vt 0.448286533 0.061302986
f 406/406 407/407 408/408
v -0.0100876624 0.0299999584 0.133893892
vt 0.448286533 0.061302986
v 0.0128999194 0.0299999584 0.136562273
vt 0.566416383 0.0525054261
v 0.0141206337 0.0319999643 0.110905118
vt 0.572688639 0.137101442
f 409/409 410/410 411/411
v -0.0529881716 0.0279999655 0.112341814
vt 0.772162557 0.13236478
v -0.0827583447 0.0279999655 0.113367498
vt 0.925141752 0.128982112
v -0.0569072999 0.010991307 0.0956083313
vt 0.792305827 0.187538907
f 412/412 413/413 414/414
v 0.083464846 0.0299999584 0.138379499
vt 0.929024637 0.0465137176
v 0.0832329169 0.0319999643 0.111719094
vt 0.92783308 0.134417742
v 0.0141206337 0.0319999643 0.110905118
vt 0.572688639 0.137101442
f 415/415 416/416 417/417
v 0.0141206337 0.0319999643 0.110905118
vt 0.572688639 0.137101442
v 0.0128999194 0.0299999584 0.136562273
vt 0.566416383 0.0525054261
v 0.083464846 0.0299999584 0.138379499
vt 0.929024637 0.0465137176
f 418/418 419/419 420/420
v 0.083464846 0.0299999584 0.138379499
vt 0.0709753633 0.0465137176
v 0.0128999194 0.0299999584 0.136562273
vt 0.433583617 0.0525054261
v 0.0141206319 0.0279999673 0.110905096
vt 0.427311361 0.137101442
f 421/421 422/422 423/423
v 0.0141206319 0.0279999673 0.110905096
vt 0.427311361 0.137101442
v 0.0832329169 0.0279999655 0.111719079
vt 0.0721669197 0.134417742
v 0.083464846 0.0299999584 0.138379499
vt 0.0709753633 0.0465137176
f 424/424 425/425 426/426
v -0.0827583447 0.0319999643 0.11336752
vt 0.0748582482 0.128982112
v -0.0819343626 0.0299999584 0.139640749
vt 0.0790911317 0.0423553027
v -0.0521641895 0.0299999584 0.138409555
vt 0.232070446 0.0464148931
f 427/427 428/428 429/429
v -0.0521641895 0.0299999584 0.138409555
vt 0.232070446 0.0464148931
v -0.0529881679 0.0319999643 0.112341836
vt 0.227837443 0.13236478
v -0.0827583447 0.0319999643 0.11336752
vt 0.0748582482 0.128982112
f 430/430 431/431 432/432
v 0.0832329169 0.0319999643 0.111719094
vt 0.92783308 0.134417742
v 0.0596121959 0.0489533097 0.0966657177
vt 0.806456208 0.184051007
v 0.0141206337 0.0319999643 0.110905118
vt 0.572688639 0.137101442
f 433/433 434/434 435/435
v -0.00885933731 0.0279999673 0.109672949
vt 0.545399547 0.141164631
v -0.0529881716 0.0279999655 0.112341814
vt 0.772162557 0.13236478
v -0.0569072999 0.010991307 0.0956083313
vt 0.792305827 0.187538907
f 436/436 437/437 438/438
v -0.0100876624 0.0299999584 0.133893892
vt 0.551713467 0.061302986
v -0.0521641895 0.0299999584 0.138409555
vt 0.767929554 0.0464148931
v -0.0529881716 0.0279999655 0.112341814
vt 0.772162557 0.13236478
f 439/439 440/440 441/441
v -0.0529881716 0.0279999655 0.112341814
vt 0.772162557 0.13236478
v -0.00885933731 0.0279999673 0.109672949
vt 0.545399547 0.141164631
v -0.0100876624 0.0299999584 0.133893892
vt 0.551713467 0.061302986
f 442/442 443/443 444/444
v 0.0596121959 0.0489533097 0.0966657177
vt 0.806456208 0.184051007
v -0.0566140302 0.0488786362 0.0956767946
vt 0.209203541 0.187311426
v -0.00885933358 0.0319999643 0.109672964
vt 0.454600453 0.141164631
f 445/445 446/446 447/447
v -0.00885933358 0.0319999643 0.109672964
vt 0.454600453 0.141164631
v 0.0141206337 0.0319999643 0.110905118
vt 0.572688639 0.137101442
v 0.0596121959 0.0489533097 0.0966657177
vt 0.806456208 0.184051007
f 448/448 449/449 450/450
