# RawMetal: original asset node News_Stack
v -0.329935908 -0.0364551619 0.0416685455
vt 0.795362055 0.184778765
v -0.329935908 0.118075959 0.0416685529
vt 0.879810095 0.184778765
v -0.343346953 0.118075959 -0.580690086
vt 0.879810095 0.524885058
f 1/1 2/2 3/3
v -0.343346953 0.118075959 -0.580690086
vt 0.879810095 0.524885058
v -0.343346953 -0.0364551656 -0.580690086
vt 0.795362055 0.524885058
v -0.329935908 -0.0364551619 0.0416685455
vt 0.795362055 0.184778765
f 4/4 5/5 6/6
v -0.343346953 -0.0364551656 -0.580690086
vt 0.794353902 0.187423617
v -0.343346953 0.118075959 -0.580690086
vt 0.878722966 0.187423617
v 0.341288149 0.118075959 -0.580690086
vt 0.878722966 0.524227262
f 7/7 8/8 9/9
v 0.341288149 0.118075959 -0.580690086
vt 0.878722966 0.524227262
v 0.341288149 -0.0364551656 -0.580690086
vt 0.794353902 0.524227262
v -0.343346953 -0.0364551656 -0.580690086
vt 0.794353902 0.187423617
f 10/10 11/11 12/12
v 0.327877104 0.118075959 0.0714945719
vt 0.879810095 0.168479472
v 0.341288149 0.118075959 0.377501547
vt 0.879810095 0.00125291944
v 0.341288149 -0.0364551619 0.377501518
vt 0.795362055 0.00125291944
f 13/13 14/14 15/15
v 0.341288149 -0.0364551619 0.377501518
vt 0.795362055 0.00125291944
v 0.327877104 -0.0364551619 0.0714945644
vt 0.795361996 0.168479472
v 0.327877104 0.118075959 0.0714945719
vt 0.879810095 0.168479472
f 16/16 17/17 18/18
v 0.341288149 -0.0364551619 0.377501518
vt 0.794353902 0.524227262
v 0.341288149 0.118075959 0.377501547
vt 0.878722966 0.524227262
v -0.343346953 0.118075959 0.377501547
vt 0.878723085 0.187423617
f 19/19 20/20 21/21
v -0.343346953 0.118075959 0.377501547
vt 0.878723085 0.187423617
v -0.343346953 -0.0364551619 0.377501518
vt 0.794354022 0.187423617
v 0.341288149 -0.0364551619 0.377501518
vt 0.794353902 0.524227262
f 22/22 23/23 24/24
v -0.329935908 -0.0364551619 0.0714945644
vt 0.232543126 0.51127845
v 0.327877104 -0.0364551619 0.0714945644
vt 0.232543126 0.0147211105
v 0.341288149 -0.0364551619 0.377501518
vt 0.0106001198 0.0147211105
f 25/25 26/26 27/27
v 0.341288149 -0.0364551619 0.377501518
vt 0.0106001198 0.0147211105
v -0.343346953 -0.0364551619 0.377501518
vt 0.0106001198 0.51127845
v -0.329935908 -0.0364551619 0.0714945644
vt 0.232543126 0.51127845
f 28/28 29/29 30/30
v 0.327877104 0.118075959 0.0714945719
vt 0.232543126 0.0147211105
v -0.329935908 0.118075959 0.0714945719
vt 0.232543126 0.51127845
v -0.343346953 0.118075959 0.377501547
vt 0.0106001198 0.51127845
f 31/31 32/32 33/33
v -0.343346953 0.118075959 0.377501547
vt 0.0106001198 0.51127845
v 0.341288149 0.118075959 0.377501547
vt 0.0106001198 0.0147211105
v 0.327877104 0.118075959 0.0714945719
vt 0.232543126 0.0147211105
f 34/34 35/35 36/36
v 0.341288149 0.118075959 -0.580690086
vt 0.705564499 0.0147211105
v -0.343346953 0.118075959 -0.580690086
vt 0.705564499 0.51127845
v -0.329935908 0.118075959 0.0416685529
vt 0.254175544 0.51127845
f 37/37 38/38 39/39
v -0.329935908 0.118075959 0.0416685529
vt 0.254175544 0.51127845
v 0.327877104 0.118075959 0.0416685529
vt 0.254175544 0.0147211105
v 0.341288149 0.118075959 -0.580690086
vt 0.705564499 0.0147211105
f 40/40 41/41 42/42
v -0.343346953 -0.0364551656 -0.580690086
vt 0.705564499 0.51127845
v 0.341288149 -0.0364551656 -0.580690086
vt 0.705564499 0.0147211105
v 0.327877104 -0.0364551619 0.0416685455
vt 0.254175544 0.0147211105
f 43/43 44/44 45/45
v 0.327877104 -0.0364551619 0.0416685455
vt 0.254175544 0.0147211105
v -0.329935908 -0.0364551619 0.0416685455
vt 0.254175544 0.51127845
v -0.343346953 -0.0364551656 -0.580690086
vt 0.705564499 0.51127845
f 46/46 47/47 48/48
v 0.341288149 0.118075959 -0.580690086
vt 0.879810095 0.524885058
v 0.327877104 0.118075959 0.0416685529
vt 0.879810095 0.184778765
v 0.327877104 -0.0364551619 0.0416685455
vt 0.795362055 0.184778765
f 49/49 50/50 51/51
v 0.327877104 -0.0364551619 0.0416685455
vt 0.795362055 0.184778765
v 0.341288149 -0.0364551656 -0.580690086
vt 0.795362055 0.524885058
v 0.341288149 0.118075959 -0.580690086
vt 0.879810095 0.524885058
f 52/52 53/53 54/54
v -0.329935908 -0.0364551619 0.0714945644
vt 0.816586733 0.174772367
v -0.329935908 0.118075959 0.0714945719
vt 0.85728085 0.173072934
v -0.329935908 0.118075959 0.0416685529
vt 0.857608795 0.180927277
f 55/55 56/56 57/57
v -0.329935908 0.118075959 0.0416685529
vt 0.857608795 0.180927277
v -0.329935908 -0.0364551619 0.0416685455
vt 0.816914737 0.182626724
v -0.329935908 -0.0364551619 0.0714945644
vt 0.816586733 0.174772367
f 58/58 59/59 60/60
v -0.343346953 -0.0364551619 0.377501518
vt 0.795362055 0.00125291944
v -0.343346953 0.118075959 0.377501547
vt 0.879810095 0.00125291944
v -0.329935908 0.118075959 0.0714945719
vt 0.879810095 0.168479472
f 61/61 62/62 63/63
v -0.329935908 0.118075959 0.0714945719
vt 0.879810095 0.168479472
v -0.329935908 -0.0364551619 0.0714945644
vt 0.795361996 0.168479472
v -0.343346953 -0.0364551619 0.377501518
vt 0.795362055 0.00125291944
f 64/64 65/65 66/66
v 0.327877104 0.118075959 0.0416685529
vt 0.752620697 0.177241623
v -0.329935908 0.118075959 0.0416685529
vt 0.921347141 0.171485499
v -0.329935908 0.118075959 0.0714945719
vt 0.921597958 0.178836018
f 67/67 68/68 69/69
v -0.329935908 0.118075959 0.0714945719
vt 0.921597958 0.178836018
v 0.327877104 0.118075959 0.0714945719
vt 0.752871454 0.184592173
v 0.327877104 0.118075959 0.0416685529
vt 0.752620697 0.177241623
f 70/70 71/71 72/72
v -0.329935908 -0.0364551619 0.0416685455
vt 0.921347141 0.171485499
v 0.327877104 -0.0364551619 0.0416685455
vt 0.752620697 0.177241623
v 0.327877104 -0.0364551619 0.0714945644
vt 0.752871454 0.184592173
f 73/73 74/74 75/75
v 0.327877104 -0.0364551619 0.0714945644
vt 0.752871454 0.184592173
v -0.329935908 -0.0364551619 0.0714945644
vt 0.921597958 0.178836018
v -0.329935908 -0.0364551619 0.0416685455
vt 0.921347141 0.171485499
f 76/76 77/77 78/78
v 0.327877104 -0.0364551619 0.0416685455
vt 0.816914737 0.182626724
v 0.327877104 0.118075959 0.0416685529
vt 0.857608795 0.180927277
v 0.327877104 0.118075959 0.0714945719
vt 0.85728085 0.173072934
f 79/79 80/80 81/81
v 0.327877104 0.118075959 0.0714945719
vt 0.85728085 0.173072934
v 0.327877104 -0.0364551619 0.0714945644
vt 0.816586733 0.174772367
v 0.327877104 -0.0364551619 0.0416685455
vt 0.816914737 0.182626724
f 82/82 83/83 84/84
