# RawMetal: original asset node pcb_2
v -0.0733008385 -2.37502973e-09 -0.0262293238
vt 0 0
v 0.000422875775 -2.37502951e-09 -0.0778512135
vt 0 1
v 0.0733008385 2.37502973e-09 0.0262293238
vt 1 1
f 1/1 2/2 3/3
v 0.0733008385 2.37502973e-09 0.0262293238
vt 1 1
v -0.000422875775 2.37502951e-09 0.0778512135
vt 1 0
v -0.0733008385 -2.37502973e-09 -0.0262293238
vt 0 0
f 4/4 5/5 6/6
v -0.0613368377 0.00499999803 -0.00914296135
vt 0.164164826 0
v -0.0459579602 0.00499999803 -0.0199020635
vt 0.164224774 0.208542228
v -0.0459579602 0.00799999852 -0.0199020635
vt 0.164224774 0.208542228
f 7/7 8/8 9/9
v -0.0459579602 0.00799999852 -0.0199020635
vt 0.164224774 0.208542228
v -0.0613368377 0.00799999852 -0.00914296135
vt 0.164164826 0
v -0.0613368377 0.00499999803 -0.00914296135
vt 0.164164826 0
f 10/10 11/11 12/12
v 0.0733008385 2.37502973e-09 0.0262293238
vt 1 1
v 0.000422875775 -2.37502951e-09 -0.0778512135
vt 0 1
v 0.000422875484 0.00499999709 -0.0778512135
vt 0 1
f 13/13 14/14 15/15
v 0.000422875484 0.00499999709 -0.0778512135
vt 0 1
v 0.073300831 0.00500000175 0.0262293238
vt 1 1
v 0.0733008385 2.37502973e-09 0.0262293238
vt 1 1
f 16/16 17/17 18/18
v -0.000422875775 2.37502951e-09 0.0778512135
vt 1 0
v -0.000422876066 0.00500000222 0.0778512135
vt 1 0
v -0.0613368377 0.00499999803 -0.00914296135
vt 0.164164826 0
f 19/19 20/20 21/21
v -0.0613368377 0.00499999803 -0.00914296135
vt 0.164164826 0
v -0.0733008385 -2.37502973e-09 -0.0262293238
vt 0 0
v -0.000422875775 2.37502951e-09 0.0778512135
vt 1 0
f 22/22 23/23 24/24
v -0.000422875775 2.37502951e-09 0.0778512135
vt 1 0
v 0.0733008385 2.37502973e-09 0.0262293238
vt 1 1
v 0.073300831 0.00500000175 0.0262293238
vt 1 1
f 25/25 26/26 27/27
v 0.073300831 0.00500000175 0.0262293238
vt 1 1
v -0.000422876066 0.00500000222 0.0778512135
vt 1 0
v -0.000422875775 2.37502951e-09 0.0778512135
vt 1 0
f 28/28 29/29 30/30
v -0.0733008385 -2.37502973e-09 -0.0262293238
vt 0 0
v -0.0733008385 0.00499999756 -0.0262293238
vt 0 0
v 0.000422875484 0.00499999709 -0.0778512135
vt 0 1
f 31/31 32/32 33/33
v 0.000422875484 0.00499999709 -0.0778512135
vt 0 1
v 0.000422875775 -2.37502951e-09 -0.0778512135
vt 0 1
v -0.0733008385 -2.37502973e-09 -0.0262293238
vt 0 0
f 34/34 35/35 36/36
v -0.0700232089 0.00499999756 -0.0215483848
vt 0.0449742153 0
v -0.0733008385 -2.37502973e-09 -0.0262293238
vt 0 0
v -0.0613368377 0.00499999803 -0.00914296135
vt 0.164164826 0
f 37/37 38/38 39/39
v 0.00920595787 0.00500000035 0.0130940508
vt 0.625975728 0.500340462
v 0.000334295677 0.00499999989 0.000892884214
vt 0.507265568 0.497352242
v 0.000334295619 0.00799999945 0.000892884098
vt 0.507265568 0.497352242
f 40/40 41/41 42/42
v 0.000334295619 0.00799999945 0.000892884098
vt 0.507265568 0.497352242
v 0.00920595787 0.00800000038 0.0130940508
vt 0.625975728 0.500340462
v 0.00920595787 0.00500000035 0.0130940508
vt 0.625975728 0.500340462
f 43/43 44/44 45/45
v 0.000334295677 0.00499999989 0.000892884214
vt 0.507265568 0.497352242
v 0.00920595787 0.00500000035 0.0130940508
vt 0.625975728 0.500340462
v 0.073300831 0.00500000175 0.0262293238
vt 1 1
f 46/46 47/47 48/48
v 0.073300831 0.00500000175 0.0262293238
vt 1 1
v 0.000422875484 0.00499999709 -0.0778512135
vt 0 1
v 0.000334295677 0.00499999989 0.000892884214
vt 0.507265568 0.497352242
f 49/49 50/50 51/51
v -0.0733008385 0.00499999756 -0.0262293238
vt 0 0
v -0.0733008385 -2.37502973e-09 -0.0262293238
vt 0 0
v -0.0700232089 0.00499999756 -0.0215483848
vt 0.0449742153 0
f 52/52 53/53 54/54
v -0.000422876066 0.00500000222 0.0778512135
vt 1 0
v 0.073300831 0.00500000175 0.0262293238
vt 1 1
v 0.00920595787 0.00500000035 0.0130940508
vt 0.625975728 0.500340462
f 55/55 56/56 57/57
v 0.00920595787 0.00500000035 0.0130940508
vt 0.625975728 0.500340462
v -0.00302938209 0.00500000035 0.0216613226
vt 0.625975728 0.334378421
v -0.000422876066 0.00500000222 0.0778512135
vt 1 0
f 58/58 59/59 60/60
v -0.000422876066 0.00500000222 0.0778512135
vt 1 0
v -0.0287460834 0.00499999896 -0.00188003341
vt 0.358112246 0.25034377
v -0.0613368377 0.00499999803 -0.00914296135
vt 0.164164826 0
f 61/61 62/62 63/63
v -0.00302938232 0.00800000038 0.0216613226
vt 0.625975728 0.334378421
v 0.00920595787 0.00800000038 0.0130940508
vt 0.625975728 0.500340462
v 0.000334295619 0.00799999945 0.000892884098
vt 0.507265568 0.497352242
f 64/64 65/65 66/66
v 0.000334295619 0.00799999945 0.000892884098
vt 0.507265568 0.497352242
v -0.0116807399 0.00799999945 0.00930589996
vt 0.507265568 0.334378421
v -0.00302938232 0.00800000038 0.0216613226
vt 0.625975728 0.334378421
f 67/67 68/68 69/69
v -0.011680739 0.00499999989 0.00930589996
vt 0.507265568 0.334378421
v -0.00302938209 0.00500000035 0.0216613226
vt 0.625975728 0.334378421
v -0.00302938232 0.00800000038 0.0216613226
vt 0.625975728 0.334378421
f 70/70 71/71 72/72
v -0.00302938232 0.00800000038 0.0216613226
vt 0.625975728 0.334378421
v -0.0116807399 0.00799999945 0.00930589996
vt 0.507265568 0.334378421
v -0.011680739 0.00499999989 0.00930589996
vt 0.507265568 0.334378421
f 73/73 74/74 75/75
v -0.00302938209 0.00500000035 0.0216613226
vt 0.625975728 0.334378421
v 0.00920595787 0.00500000035 0.0130940508
vt 0.625975728 0.500340462
v 0.00920595787 0.00800000038 0.0130940508
vt 0.625975728 0.500340462
f 76/76 77/77 78/78
v 0.00920595787 0.00800000038 0.0130940508
vt 0.625975728 0.500340462
v -0.00302938232 0.00800000038 0.0216613226
vt 0.625975728 0.334378421
v -0.00302938209 0.00500000035 0.0216613226
vt 0.625975728 0.334378421
f 79/79 80/80 81/81
v -0.011680739 0.00499999989 0.00930589996
vt 0.507265568 0.334378421
v -0.0116807399 0.00799999945 0.00930589996
vt 0.507265568 0.334378421
v 0.000334295619 0.00799999945 0.000892884098
vt 0.507265568 0.497352242
f 82/82 83/83 84/84
v 0.000334295619 0.00799999945 0.000892884098
vt 0.507265568 0.497352242
v 0.000334295677 0.00499999989 0.000892884214
vt 0.507265568 0.497352242
v -0.011680739 0.00499999989 0.00930589996
vt 0.507265568 0.334378421
f 85/85 86/86 87/87
v -0.0546443276 0.00799999759 -0.0323074833
vt 0.0450342074 0.208542228
v -0.0700232089 0.00799999852 -0.0215483848
vt 0.0449742153 0
v -0.0613368377 0.00799999852 -0.00914296135
vt 0.164164826 0
f 88/88 89/89 90/90
v -0.0613368377 0.00799999852 -0.00914296135
vt 0.164164826 0
v -0.0459579602 0.00799999852 -0.0199020635
vt 0.164224774 0.208542228
v -0.0546443276 0.00799999759 -0.0323074833
vt 0.0450342074 0.208542228
f 91/91 92/92 93/93
v -0.0700232089 0.00499999756 -0.0215483848
vt 0.0449742153 0
v -0.0613368377 0.00499999803 -0.00914296135
vt 0.164164826 0
v -0.0613368377 0.00799999852 -0.00914296135
vt 0.164164826 0
f 94/94 95/95 96/96
v -0.0613368377 0.00799999852 -0.00914296135
vt 0.164164826 0
v -0.0700232089 0.00799999852 -0.0215483848
vt 0.0449742153 0
v -0.0700232089 0.00499999756 -0.0215483848
vt 0.0449742153 0
f 97/97 98/98 99/99
v -0.0700232089 0.00499999756 -0.0215483848
vt 0.0449742153 0
v -0.0700232089 0.00799999852 -0.0215483848
vt 0.0449742153 0
v -0.0546443276 0.00799999759 -0.0323074833
vt 0.0450342074 0.208542228
f 100/100 101/101 102/102
v -0.0546443276 0.00799999759 -0.0323074833
vt 0.0450342074 0.208542228
v -0.0546443276 0.00499999756 -0.0323074833
vt 0.0450342074 0.208542228
v -0.0700232089 0.00499999756 -0.0215483848
vt 0.0449742153 0
f 103/103 104/104 105/105
v -0.0459579602 0.00499999803 -0.0199020635
vt 0.164224774 0.208542228
v -0.0546443276 0.00499999756 -0.0323074833
vt 0.0450342074 0.208542228
v -0.0546443276 0.00799999759 -0.0323074833
vt 0.0450342074 0.208542228
f 106/106 107/107 108/108
v -0.0546443276 0.00799999759 -0.0323074833
vt 0.0450342074 0.208542228
v -0.0459579602 0.00799999852 -0.0199020635
vt 0.164224774 0.208542228
v -0.0459579602 0.00499999803 -0.0199020635
vt 0.164224774 0.208542228
f 109/109 110/110 111/111
v -0.0287460834 0.00499999896 -0.00188003341
vt 0.358112246 0.25034377
v -0.0211612917 0.00499999896 -0.00722821709
vt 0.357872009 0.353462517
v -0.0211612917 0.00699999975 -0.00722821709
vt 0.357872009 0.353462517
f 112/112 113/113 114/114
v -0.0211612917 0.00699999975 -0.00722821709
vt 0.357872009 0.353462517
v -0.0287460834 0.00699999928 -0.00188003341
vt 0.358112246 0.25034377
v -0.0287460834 0.00499999896 -0.00188003341
vt 0.358112246 0.25034377
f 115/115 116/116 117/117
v -0.0338286944 0.00499999849 -0.0191279426
vt 0.22397019 0.314005494
v -0.0330739506 0.00499999896 -0.00806086604
vt 0.298727036 0.25034371
v -0.0254497733 0.00499999896 -0.0133528057
vt 0.299027264 0.353462517
f 118/118 119/119 120/120
v -0.0287460834 0.00499999896 -0.00188003341
vt 0.358112246 0.25034377
v -0.0330739506 0.00499999896 -0.00806086604
vt 0.298727036 0.25034371
v -0.0459579602 0.00499999803 -0.0199020635
vt 0.164224774 0.208542228
f 121/121 122/122 123/123
v -0.0459579602 0.00499999803 -0.0199020635
vt 0.164224774 0.208542228
v -0.0613368377 0.00499999803 -0.00914296135
vt 0.164164826 0
v -0.0287460834 0.00499999896 -0.00188003341
vt 0.358112246 0.25034377
f 124/124 125/125 126/126
v -0.0459579602 0.00499999803 -0.0199020635
vt 0.164224774 0.208542228
v -0.0382571034 0.00499999803 -0.0252755005
vt 0.164345741 0.312878251
v -0.0546443276 0.00499999756 -0.0323074833
vt 0.0450342074 0.208542228
f 127/127 128/128 129/129
v -0.00895737391 0.00499999896 -0.0228984542
vt 0.311937124 0.564406216
v -0.00459414814 0.00499999896 -0.0259536225
vt 0.311937153 0.623589694
v -0.00459414814 0.00699999928 -0.0259536225
vt 0.311937153 0.623589694
f 130/130 131/131 132/132
v -0.00459414814 0.00699999928 -0.0259536225
vt 0.311937153 0.623589694
v -0.00895737391 0.00699999975 -0.0228984542
vt 0.311937124 0.564406216
v -0.00895737391 0.00499999896 -0.0228984542
vt 0.311937124 0.564406216
f 133/133 134/134 135/135
v -0.0330739506 0.00499999896 -0.00806086604
vt 0.298727036 0.25034371
v -0.0338286944 0.00499999849 -0.0191279426
vt 0.22397019 0.314005494
v -0.0459579602 0.00499999803 -0.0199020635
vt 0.164224774 0.208542228
f 136/136 137/137 138/138
v -0.0338286944 0.00499999849 -0.0191279426
vt 0.22397019 0.314005494
v -0.0381653048 0.00499999803 -0.0253212694
vt 0.164465055 0.314005554
v -0.0382571034 0.00499999803 -0.0252755005
vt 0.164345741 0.312878251
f 139/139 140/140 141/141
v -0.0381653048 0.00499999803 -0.0253212694
vt 0.164465055 0.314005554
v -0.030663589 0.00499999849 -0.0305740312
vt 0.16446504 0.415759981
v -0.0382571034 0.00499999803 -0.0252755005
vt 0.164345741 0.312878251
f 142/142 143/143 144/144
v -0.0338286944 0.00499999849 -0.0191279426
vt 0.22397019 0.314005494
v -0.0382571034 0.00499999803 -0.0252755005
vt 0.164345741 0.312878251
v -0.0459579602 0.00499999803 -0.0199020635
vt 0.164224774 0.208542228
f 145/145 146/146 147/147
v -0.00302938209 0.00500000035 0.0216613226
vt 0.625975728 0.334378421
v -0.011680739 0.00499999989 0.00930589996
vt 0.507265568 0.334378421
v -0.0287460834 0.00499999896 -0.00188003341
vt 0.358112246 0.25034377
f 148/148 149/149 150/150
v -0.0287460834 0.00499999896 -0.00188003341
vt 0.358112246 0.25034377
v -0.000422876066 0.00500000222 0.0778512135
vt 1 0
v -0.00302938209 0.00500000035 0.0216613226
vt 0.625975728 0.334378421
f 151/151 152/152 153/153
v 0.000422875484 0.00499999709 -0.0778512135
vt 0 1
v -0.014261093 0.00499999849 -0.030472951
vt 0.239161819 0.564406216
v -0.0097447494 0.00499999849 -0.0336353257
vt 0.239161789 0.625666618
f 154/154 155/155 156/156
v -0.0330739506 0.00499999896 -0.00806086604
vt 0.298727036 0.25034371
v -0.0330739506 0.00699999928 -0.00806086604
vt 0.298727036 0.25034371
v -0.0254497733 0.00699999975 -0.0133528057
vt 0.299027264 0.353462517
f 157/157 158/158 159/159
v -0.0254497733 0.00699999975 -0.0133528057
vt 0.299027264 0.353462517
v -0.0254497733 0.00499999896 -0.0133528057
vt 0.299027264 0.353462517
v -0.0330739506 0.00499999896 -0.00806086604
vt 0.298727036 0.25034371
f 160/160 161/161 162/162
v 0.000422875484 0.00499999709 -0.0778512135
vt 0 1
v -0.030663589 0.00499999849 -0.0305740312
vt 0.16446504 0.415759981
v -0.014261093 0.00499999849 -0.030472951
vt 0.239161819 0.564406216
f 163/163 164/164 165/165
v -0.0262504108 0.00499999849 -0.024434302
vt 0.223970279 0.416798472
v 0.000334295677 0.00499999989 0.000892884214
vt 0.507265568 0.497352242
v -0.00895737391 0.00499999896 -0.0228984542
vt 0.311937124 0.564406216
f 166/166 167/167 168/168
v -0.00895737391 0.00499999896 -0.0228984542
vt 0.311937124 0.564406216
v -0.014261093 0.00499999849 -0.030472951
vt 0.239161819 0.564406216
v -0.0262504108 0.00499999849 -0.024434302
vt 0.223970279 0.416798472
f 169/169 170/170 171/171
v -0.0262504108 0.00499999849 -0.024434302
vt 0.223970279 0.416798472
v -0.014261093 0.00499999849 -0.030472951
vt 0.239161819 0.564406216
v -0.030663589 0.00499999849 -0.0305740312
vt 0.16446504 0.415759981
f 172/172 173/173 174/174
v -0.0700232089 0.00499999756 -0.0215483848
vt 0.0449742153 0
v -0.0546443276 0.00499999756 -0.0323074833
vt 0.0450342074 0.208542228
v -0.0733008385 0.00499999756 -0.0262293238
vt 0 0
f 175/175 176/176 177/177
v -0.0546443276 0.00499999756 -0.0323074833
vt 0.0450342074 0.208542228
v -0.0382571034 0.00499999803 -0.0252755005
vt 0.164345741 0.312878251
v -0.030663589 0.00499999849 -0.0305740312
vt 0.16446504 0.415759981
f 178/178 179/179 180/180
v -0.0546443276 0.00499999756 -0.0323074833
vt 0.0450342074 0.208542228
v -0.030663589 0.00499999849 -0.0305740312
vt 0.16446504 0.415759981
v 0.000422875484 0.00499999709 -0.0778512135
vt 0 1
f 181/181 182/182 183/183
v -0.0546443276 0.00499999756 -0.0323074833
vt 0.0450342074 0.208542228
v 0.000422875484 0.00499999709 -0.0778512135
vt 0 1
v -0.0733008385 0.00499999756 -0.0262293238
vt 0 0
f 184/184 185/185 186/186
v -0.011680739 0.00499999989 0.00930589996
vt 0.507265568 0.334378421
v 0.000334295677 0.00499999989 0.000892884214
vt 0.507265568 0.497352242
v -0.0211612917 0.00499999896 -0.00722821709
vt 0.357872009 0.353462517
f 187/187 188/188 189/189
v -0.0211612917 0.00499999896 -0.00722821709
vt 0.357872009 0.353462517
v -0.0287460834 0.00499999896 -0.00188003341
vt 0.358112246 0.25034377
v -0.011680739 0.00499999989 0.00930589996
vt 0.507265568 0.334378421
f 190/190 191/191 192/192
v -0.0254497733 0.00499999896 -0.0133528057
vt 0.299027264 0.353462517
v -0.0262504108 0.00499999849 -0.024434302
vt 0.223970279 0.416798472
v -0.0338286944 0.00499999849 -0.0191279426
vt 0.22397019 0.314005494
f 193/193 194/194 195/195
v 0.000334295677 0.00499999989 0.000892884214
vt 0.507265568 0.497352242
v -0.00459414814 0.00499999896 -0.0259536225
vt 0.311937153 0.623589694
v -0.00895737391 0.00499999896 -0.0228984542
vt 0.311937124 0.564406216
f 196/196 197/197 198/198
v -0.00459414814 0.00499999896 -0.0259536225
vt 0.311937153 0.623589694
v 0.000334295677 0.00499999989 0.000892884214
vt 0.507265568 0.497352242
v 0.000422875484 0.00499999709 -0.0778512135
vt 0 1
f 199/199 200/200 201/201
v 0.000422875484 0.00499999709 -0.0778512135
vt 0 1
v -0.0097447494 0.00499999849 -0.0336353257
vt 0.239161789 0.625666618
v -0.00459414814 0.00499999896 -0.0259536225
vt 0.311937153 0.623589694
f 202/202 203/203 204/204
v -0.0211612917 0.00499999896 -0.00722821709
vt 0.357872009 0.353462517
v 0.000334295677 0.00499999989 0.000892884214
vt 0.507265568 0.497352242
v -0.0262504108 0.00499999849 -0.024434302
vt 0.223970279 0.416798472
f 205/205 206/206 207/207
v -0.0262504108 0.00499999849 -0.024434302
vt 0.223970279 0.416798472
v -0.0254497733 0.00499999896 -0.0133528057
vt 0.299027264 0.353462517
v -0.0211612917 0.00499999896 -0.00722821709
vt 0.357872009 0.353462517
f 208/208 209/209 210/210
v -0.0338286944 0.00699999928 -0.0191279426
vt 0.22397019 0.314005494
v -0.0262504108 0.00699999835 -0.024434302
vt 0.223970279 0.416798472
v -0.030663589 0.00699999835 -0.0305740312
vt 0.16446504 0.415759981
f 211/211 212/212 213/213
v -0.030663589 0.00699999835 -0.0305740312
vt 0.16446504 0.415759981
v -0.0381653048 0.00699999882 -0.0253212694
vt 0.164465055 0.314005554
v -0.0338286944 0.00699999928 -0.0191279426
vt 0.22397019 0.314005494
f 214/214 215/215 216/216
v -0.0287460834 0.00699999928 -0.00188003341
vt 0.358112246 0.25034377
v -0.0211612917 0.00699999975 -0.00722821709
vt 0.357872009 0.353462517
v -0.0254497733 0.00699999975 -0.0133528057
vt 0.299027264 0.353462517
f 217/217 218/218 219/219
v -0.0254497733 0.00699999975 -0.0133528057
vt 0.299027264 0.353462517
v -0.0330739506 0.00699999928 -0.00806086604
vt 0.298727036 0.25034371
v -0.0287460834 0.00699999928 -0.00188003341
vt 0.358112246 0.25034377
f 220/220 221/221 222/222
v -0.00459414814 0.00699999928 -0.0259536225
vt 0.311937153 0.623589694
v -0.0097447494 0.00699999882 -0.0336353257
vt 0.239161789 0.625666618
v -0.014261093 0.00699999928 -0.030472951
vt 0.239161819 0.564406216
f 223/223 224/224 225/225
v -0.014261093 0.00699999928 -0.030472951
vt 0.239161819 0.564406216
v -0.00895737391 0.00699999975 -0.0228984542
vt 0.311937124 0.564406216
v -0.00459414814 0.00699999928 -0.0259536225
vt 0.311937153 0.623589694
f 226/226 227/227 228/228
v -0.0381653048 0.00499999803 -0.0253212694
vt 0.164465055 0.314005554
v -0.0338286944 0.00499999849 -0.0191279426
vt 0.22397019 0.314005494
v -0.0338286944 0.00699999928 -0.0191279426
vt 0.22397019 0.314005494
f 229/229 230/230 231/231
v -0.0338286944 0.00699999928 -0.0191279426
vt 0.22397019 0.314005494
v -0.0381653048 0.00699999882 -0.0253212694
vt 0.164465055 0.314005554
v -0.0381653048 0.00499999803 -0.0253212694
vt 0.164465055 0.314005554
f 232/232 233/233 234/234
v -0.014261093 0.00499999849 -0.030472951
vt 0.239161819 0.564406216
v -0.00895737391 0.00499999896 -0.0228984542
vt 0.311937124 0.564406216
v -0.00895737391 0.00699999975 -0.0228984542
vt 0.311937124 0.564406216
f 235/235 236/236 237/237
v -0.00895737391 0.00699999975 -0.0228984542
vt 0.311937124 0.564406216
v -0.014261093 0.00699999928 -0.030472951
vt 0.239161819 0.564406216
v -0.014261093 0.00499999849 -0.030472951
vt 0.239161819 0.564406216
f 238/238 239/239 240/240
v -0.0211612917 0.00499999896 -0.00722821709
vt 0.357872009 0.353462517
v -0.0254497733 0.00499999896 -0.0133528057
vt 0.299027264 0.353462517
v -0.0254497733 0.00699999975 -0.0133528057
vt 0.299027264 0.353462517
f 241/241 242/242 243/243
v -0.0254497733 0.00699999975 -0.0133528057
vt 0.299027264 0.353462517
v -0.0211612917 0.00699999975 -0.00722821709
vt 0.357872009 0.353462517
v -0.0211612917 0.00499999896 -0.00722821709
vt 0.357872009 0.353462517
f 244/244 245/245 246/246
v -0.0330739506 0.00499999896 -0.00806086604
vt 0.298727036 0.25034371
v -0.0287460834 0.00499999896 -0.00188003341
vt 0.358112246 0.25034377
v -0.0287460834 0.00699999928 -0.00188003341
vt 0.358112246 0.25034377
f 247/247 248/248 249/249
v -0.0287460834 0.00699999928 -0.00188003341
vt 0.358112246 0.25034377
v -0.0330739506 0.00699999928 -0.00806086604
vt 0.298727036 0.25034371
v -0.0330739506 0.00499999896 -0.00806086604
vt 0.298727036 0.25034371
f 250/250 251/251 252/252
v -0.0338286944 0.00499999849 -0.0191279426
vt 0.22397019 0.314005494
v -0.0262504108 0.00499999849 -0.024434302
vt 0.223970279 0.416798472
v -0.0262504108 0.00699999835 -0.024434302
vt 0.223970279 0.416798472
f 253/253 254/254 255/255
v -0.0262504108 0.00699999835 -0.024434302
vt 0.223970279 0.416798472
v -0.0338286944 0.00699999928 -0.0191279426
vt 0.22397019 0.314005494
v -0.0338286944 0.00499999849 -0.0191279426
vt 0.22397019 0.314005494
f 256/256 257/257 258/258
v -0.014261093 0.00499999849 -0.030472951
vt 0.239161819 0.564406216
v -0.014261093 0.00699999928 -0.030472951
vt 0.239161819 0.564406216
v -0.0097447494 0.00699999882 -0.0336353257
vt 0.239161789 0.625666618
f 259/259 260/260 261/261
v -0.0097447494 0.00699999882 -0.0336353257
vt 0.239161789 0.625666618
v -0.0097447494 0.00499999849 -0.0336353257
vt 0.239161789 0.625666618
v -0.014261093 0.00499999849 -0.030472951
vt 0.239161819 0.564406216
f 262/262 263/263 264/264
v -0.0262504108 0.00499999849 -0.024434302
vt 0.223970279 0.416798472
v -0.030663589 0.00499999849 -0.0305740312
vt 0.16446504 0.415759981
v -0.030663589 0.00699999835 -0.0305740312
vt 0.16446504 0.415759981
f 265/265 266/266 267/267
v -0.030663589 0.00699999835 -0.0305740312
vt 0.16446504 0.415759981
v -0.0262504108 0.00699999835 -0.024434302
vt 0.223970279 0.416798472
v -0.0262504108 0.00499999849 -0.024434302
vt 0.223970279 0.416798472
f 268/268 269/269 270/270
v -0.00459414814 0.00499999896 -0.0259536225
vt 0.311937153 0.623589694
v -0.0097447494 0.00499999849 -0.0336353257
vt 0.239161789 0.625666618
v -0.0097447494 0.00699999882 -0.0336353257
vt 0.239161789 0.625666618
f 271/271 272/272 273/273
v -0.0097447494 0.00699999882 -0.0336353257
vt 0.239161789 0.625666618
v -0.00459414814 0.00699999928 -0.0259536225
vt 0.311937153 0.623589694
v -0.00459414814 0.00499999896 -0.0259536225
vt 0.311937153 0.623589694
f 274/274 275/275 276/276
v -0.0381653048 0.00499999803 -0.0253212694
vt 0.164465055 0.314005554
v -0.0381653048 0.00699999882 -0.0253212694
vt 0.164465055 0.314005554
v -0.030663589 0.00699999835 -0.0305740312
vt 0.16446504 0.415759981
f 277/277 278/278 279/279
v -0.030663589 0.00699999835 -0.0305740312
vt 0.16446504 0.415759981
v -0.030663589 0.00499999849 -0.0305740312
vt 0.16446504 0.415759981
v -0.0381653048 0.00499999803 -0.0253212694
vt 0.164465055 0.314005554
f 280/280 281/281 282/282
