# RawMetal: original asset node power_supply_1
v -0.132432431 1.7340863e-08 -0.126444921
vt 1 0.355855852
v -0.132432431 -1.41859129e-08 0.119000055
vt 0 0.355855852
v -0.132432431 0.154000044 0.118999884
vt 0 0.567567587
f 1/1 2/2 3/3
v -0.132432431 0.154000044 0.118999884
vt 0 0.567567587
v -0.132432431 0.154000059 -0.126444891
vt 1 0.567567587
v -0.132432431 1.7340863e-08 -0.126444921
vt 1 0.355855852
f 4/4 5/5 6/6
v -0.132432431 1.7340863e-08 -0.126444921
vt -0 0.783783793
v -0.132432431 0.154000059 -0.126444891
vt 0 0.999999821
v 0.132432014 0.154000059 -0.126444831
vt 0.99999845 0.999999821
f 7/7 8/8 9/9
v 0.132432014 0.154000059 -0.126444831
vt 0.99999845 0.999999821
v 0.132432431 1.75736936e-08 -0.126444921
vt 1 0.783783793
v -0.132432431 1.7340863e-08 -0.126444921
vt -0 0.783783793
f 10/10 11/11 12/12
v -0.132432431 -1.41859129e-08 0.119000055
vt -0 0.567567587
v 0.132432431 -1.41859129e-08 0.119000055
vt 1 0.567567587
v 0.132432014 0.154000044 0.119000062
vt 1 0.788288295
f 13/13 14/14 15/15
v 0.132432014 0.154000044 0.119000062
vt 1 0.788288295
v -0.132432431 0.154000044 0.118999884
vt -0 0.788288295
v -0.132432431 -1.41859129e-08 0.119000055
vt -0 0.567567587
f 16/16 17/17 18/18
v 0.132432431 -1.41859129e-08 0.119000055
vt 0 0.355855852
v 0.132432431 1.75736936e-08 -0.126444921
vt 1 0.355855852
v 0.132432014 0.154000059 -0.126444831
vt 1 0.567567587
f 19/19 20/20 21/21
v 0.132432014 0.154000059 -0.126444831
vt 1 0.567567587
v 0.132432014 0.154000044 0.119000062
vt 0 0.567567587
v 0.132432431 -1.41859129e-08 0.119000055
vt 0 0.355855852
f 22/22 23/23 24/24
v -0.132432431 -1.41859129e-08 0.119000055
vt -0 0.351351351
v -0.132432431 1.7340863e-08 -0.126444921
vt -8.94069672e-08 0
v 0.132432431 1.75736936e-08 -0.126444921
vt 1 0
f 25/25 26/26 27/27
v 0.132432431 1.75736936e-08 -0.126444921
vt 1 0
v 0.132432431 -1.41859129e-08 0.119000055
vt 1 0.351351351
v -0.132432431 -1.41859129e-08 0.119000055
vt -0 0.351351351
f 28/28 29/29 30/30
v -0.132432431 0.154000044 0.118999884
vt -0 0.351351351
v 0.132432014 0.154000044 0.119000062
vt 1 0.351351351
v 0.132432014 0.154000059 -0.126444831
vt 0.999998331 9.02124384e-08
f 31/31 32/32 33/33
v 0.132432014 0.154000059 -0.126444831
vt 0.999998331 9.02124384e-08
v -0.132432431 0.154000059 -0.126444891
vt -8.94069672e-08 0
v -0.132432431 0.154000044 0.118999884
vt -0 0.351351351
f 34/34 35/35 36/36
