# RawMetal: original asset node trash_1
v 0.299999982 0.0109999646 0.300000012
vt 0.800000012 0.800000012
v 0.299999982 0.0109999403 0.5
vt 1 0.799999952
v 0.49999997 0.0109999403 0.5
vt 1 1
f 1/1 2/2 3/3
v 0.49999997 0.0109999403 0.5
vt 1 1
v 0.49999997 0.0109999646 0.300000012
vt 0.800000012 1
v 0.299999982 0.0109999646 0.300000012
vt 0.800000012 0.800000012
f 4/4 5/5 6/6
v -0.5 0.0109999646 0.299999982
vt 0.800000072 0
v -0.5 0.0109999403 0.49999997
vt 1 0
v -0.300000012 0.0109999403 0.49999997
vt 1 0.200000018
f 7/7 8/8 9/9
v -0.300000012 0.0109999403 0.49999997
vt 1 0.200000018
v -0.300000012 0.0109999646 0.299999952
vt 0.800000012 0.200000018
v -0.5 0.0109999646 0.299999982
vt 0.800000072 0
f 10/10 11/11 12/12
v -0.300000012 0.0109999403 0.49999997
vt 1 0.200000018
v -0.100000024 0.0109999403 0.49999997
vt 1 0.400000036
v -0.100000016 0.0109999646 0.299999982
vt 0.800000072 0.400000036
f 13/13 14/14 15/15
v -0.100000016 0.0109999646 0.299999982
vt 0.800000072 0.400000036
v -0.300000012 0.0109999646 0.299999952
vt 0.800000012 0.200000018
v -0.300000012 0.0109999403 0.49999997
vt 1 0.200000018
f 16/16 17/17 18/18
v -0.100000016 0.0109999646 0.299999982
vt 0.800000072 0.400000036
v -0.100000024 0.0109999403 0.49999997
vt 1 0.400000036
v 0.099999994 0.0109999403 0.49999997
vt 1 0.600000024
f 19/19 20/20 21/21
v 0.099999994 0.0109999403 0.49999997
vt 1 0.600000024
v 0.100000001 0.0109999646 0.299999982
vt 0.800000072 0.600000024
v -0.100000016 0.0109999646 0.299999982
vt 0.800000072 0.400000036
f 22/22 23/23 24/24
v 0.099999994 0.0109999403 0.49999997
vt 1 0.600000024
v 0.299999982 0.0109999403 0.5
vt 1 0.799999952
v 0.299999982 0.0109999646 0.300000012
vt 0.800000012 0.800000012
f 25/25 26/26 27/27
v 0.299999982 0.0109999646 0.300000012
vt 0.800000012 0.800000012
v 0.100000001 0.0109999646 0.299999982
vt 0.800000072 0.600000024
v 0.099999994 0.0109999403 0.49999997
vt 1 0.600000024
f 28/28 29/29 30/30
v 0.100000024 0.0110000595 -0.49999997
vt 0 0.600000024
v 0.100000024 0.0110000353 -0.299999982
vt 0.200000003 0.600000024
v 0.300000012 0.0110000353 -0.299999982
vt 0.200000003 0.800000072
f 31/31 32/32 33/33
v 0.300000012 0.0110000353 -0.299999982
vt 0.200000003 0.800000072
v 0.300000012 0.0110000595 -0.49999997
vt 0 0.800000072
v 0.100000024 0.0110000595 -0.49999997
vt 0 0.600000024
f 34/34 35/35 36/36
v 0.100000024 0.0110000353 -0.299999982
vt 0.200000003 0.600000024
v 0.100000016 0.0256877095 -0.0999999866
vt 0.400000036 0.600000024
v 0.299999982 0.011000012 -0.099999994
vt 0.400000006 0.800000012
f 37/37 38/38 39/39
v 0.299999982 0.011000012 -0.099999994
vt 0.400000006 0.800000012
v 0.300000012 0.0110000353 -0.299999982
vt 0.200000003 0.800000072
v 0.100000024 0.0110000353 -0.299999982
vt 0.200000003 0.600000024
f 40/40 41/41 42/42
v 0.100000009 0.0256876834 0.100000001
vt 0.600000024 0.600000024
v 0.299999982 0.0109999888 0.100000024
vt 0.600000024 0.800000072
v 0.299999982 0.011000012 -0.099999994
vt 0.400000006 0.800000012
f 43/43 44/44 45/45
v 0.299999982 0.011000012 -0.099999994
vt 0.400000006 0.800000012
v 0.100000016 0.0256877095 -0.0999999866
vt 0.400000036 0.600000024
v 0.100000009 0.0256876834 0.100000001
vt 0.600000024 0.600000024
f 46/46 47/47 48/48
v 0.100000001 0.0109999646 0.299999982
vt 0.800000072 0.600000024
v 0.299999982 0.0109999646 0.300000012
vt 0.800000012 0.800000012
v 0.299999982 0.0109999888 0.100000024
vt 0.600000024 0.800000072
f 49/49 50/50 51/51
v 0.299999982 0.0109999888 0.100000024
vt 0.600000024 0.800000072
v 0.100000009 0.0256876834 0.100000001
vt 0.600000024 0.600000024
v 0.100000001 0.0109999646 0.299999982
vt 0.800000072 0.600000024
f 52/52 53/53 54/54
v -0.099999994 0.0110000595 -0.49999997
vt 0 0.399999976
v -0.099999994 0.0110000353 -0.299999982
vt 0.200000018 0.399999976
v 0.100000024 0.0110000353 -0.299999982
vt 0.200000003 0.600000024
f 55/55 56/56 57/57
v 0.100000024 0.0110000353 -0.299999982
vt 0.200000003 0.600000024
v 0.100000024 0.0110000595 -0.49999997
vt 0 0.600000024
v -0.099999994 0.0110000595 -0.49999997
vt 0 0.399999976
f 58/58 59/59 60/60
v -0.099999994 0.0110000353 -0.299999982
vt 0.200000018 0.399999976
v -0.100000001 0.0256877095 -0.0999999866
vt 0.400000036 0.399999976
v 0.100000016 0.0256877095 -0.0999999866
vt 0.400000036 0.600000024
f 61/61 62/62 63/63
v 0.100000016 0.0256877095 -0.0999999866
vt 0.400000036 0.600000024
v 0.100000024 0.0110000353 -0.299999982
vt 0.200000003 0.600000024
v -0.099999994 0.0110000353 -0.299999982
vt 0.200000018 0.399999976
f 64/64 65/65 66/66
v -0.100000001 0.0256877095 -0.0999999866
vt 0.400000036 0.399999976
v -0.100000009 0.0256876834 0.100000001
vt 0.600000024 0.400000036
v 0.100000009 0.0256876834 0.100000001
vt 0.600000024 0.600000024
f 67/67 68/68 69/69
v 0.100000009 0.0256876834 0.100000001
vt 0.600000024 0.600000024
v 0.100000016 0.0256877095 -0.0999999866
vt 0.400000036 0.600000024
v -0.100000001 0.0256877095 -0.0999999866
vt 0.400000036 0.399999976
f 70/70 71/71 72/72
v -0.100000009 0.0256876834 0.100000001
vt 0.600000024 0.400000036
v -0.100000016 0.0109999646 0.299999982
vt 0.800000072 0.400000036
v 0.100000001 0.0109999646 0.299999982
vt 0.800000072 0.600000024
f 73/73 74/74 75/75
v 0.100000001 0.0109999646 0.299999982
vt 0.800000072 0.600000024
v 0.100000009 0.0256876834 0.100000001
vt 0.600000024 0.600000024
v -0.100000009 0.0256876834 0.100000001
vt 0.600000024 0.400000036
f 76/76 77/77 78/78
v -0.300000012 0.0110000353 -0.300000012
vt 0.200000003 0.200000003
v -0.099999994 0.0110000353 -0.299999982
vt 0.200000018 0.399999976
v -0.099999994 0.0110000595 -0.49999997
vt 0 0.399999976
f 79/79 80/80 81/81
v -0.099999994 0.0110000595 -0.49999997
vt 0 0.399999976
v -0.299999982 0.0110000595 -0.5
vt 0 0.199999988
v -0.300000012 0.0110000353 -0.300000012
vt 0.200000003 0.200000003
f 82/82 83/83 84/84
v -0.300000012 0.011000012 -0.100000024
vt 0.400000036 0.199999988
v -0.100000001 0.0256877095 -0.0999999866
vt 0.400000036 0.399999976
v -0.099999994 0.0110000353 -0.299999982
vt 0.200000018 0.399999976
f 85/85 86/86 87/87
v -0.099999994 0.0110000353 -0.299999982
vt 0.200000018 0.399999976
v -0.300000012 0.0110000353 -0.300000012
vt 0.200000003 0.200000003
v -0.300000012 0.011000012 -0.100000024
vt 0.400000036 0.199999988
f 88/88 89/89 90/90
v -0.300000012 0.0109999888 0.0999999642
vt 0.600000024 0.200000003
v -0.100000009 0.0256876834 0.100000001
vt 0.600000024 0.400000036
v -0.100000001 0.0256877095 -0.0999999866
vt 0.400000036 0.399999976
f 91/91 92/92 93/93
v -0.100000001 0.0256877095 -0.0999999866
vt 0.400000036 0.399999976
v -0.300000012 0.011000012 -0.100000024
vt 0.400000036 0.199999988
v -0.300000012 0.0109999888 0.0999999642
vt 0.600000024 0.200000003
f 94/94 95/95 96/96
v -0.300000012 0.0109999888 0.0999999642
vt 0.600000024 0.200000003
v -0.300000012 0.0109999646 0.299999952
vt 0.800000012 0.200000018
v -0.100000016 0.0109999646 0.299999982
vt 0.800000072 0.400000036
f 97/97 98/98 99/99
v -0.100000016 0.0109999646 0.299999982
vt 0.800000072 0.400000036
v -0.100000009 0.0256876834 0.100000001
vt 0.600000024 0.400000036
v -0.300000012 0.0109999888 0.0999999642
vt 0.600000024 0.200000003
f 100/100 101/101 102/102
v -0.49999997 0.0110000595 -0.5
vt 0 0
v -0.49999997 0.0110000353 -0.300000012
vt 0.200000003 0
v -0.300000012 0.0110000353 -0.300000012
vt 0.200000003 0.200000003
f 103/103 104/104 105/105
v -0.300000012 0.0110000353 -0.300000012
vt 0.200000003 0.200000003
v -0.299999982 0.0110000595 -0.5
vt 0 0.199999988
v -0.49999997 0.0110000595 -0.5
vt 0 0
f 106/106 107/107 108/108
v -0.49999997 0.0110000111 -0.100000024
vt 0.400000036 0
v -0.300000012 0.011000012 -0.100000024
vt 0.400000036 0.199999988
v -0.300000012 0.0110000353 -0.300000012
vt 0.200000003 0.200000003
f 109/109 110/110 111/111
v -0.300000012 0.0110000353 -0.300000012
vt 0.200000003 0.200000003
v -0.49999997 0.0110000353 -0.300000012
vt 0.200000003 0
v -0.49999997 0.0110000111 -0.100000024
vt 0.400000036 0
f 112/112 113/113 114/114
v -0.49999997 0.0110000111 -0.100000024
vt 0.400000036 0
v -0.49999997 0.0109999878 0.099999994
vt 0.600000024 0
v -0.300000012 0.0109999888 0.0999999642
vt 0.600000024 0.200000003
f 115/115 116/116 117/117
v -0.300000012 0.0109999888 0.0999999642
vt 0.600000024 0.200000003
v -0.300000012 0.011000012 -0.100000024
vt 0.400000036 0.199999988
v -0.49999997 0.0110000111 -0.100000024
vt 0.400000036 0
f 118/118 119/119 120/120
v -0.49999997 0.0109999878 0.099999994
vt 0.600000024 0
v -0.5 0.0109999646 0.299999982
vt 0.800000072 0
v -0.300000012 0.0109999646 0.299999952
vt 0.800000012 0.200000018
f 121/121 122/122 123/123
v -0.300000012 0.0109999646 0.299999952
vt 0.800000012 0.200000018
v -0.300000012 0.0109999888 0.0999999642
vt 0.600000024 0.200000003
v -0.49999997 0.0109999878 0.099999994
vt 0.600000024 0
f 124/124 125/125 126/126
v 0.300000012 0.0110000595 -0.49999997
vt 0 0.800000072
v 0.300000012 0.0110000353 -0.299999982
vt 0.200000003 0.800000072
v 0.5 0.0110000353 -0.299999982
vt 0.199999988 1
f 127/127 128/128 129/129
v 0.5 0.0110000353 -0.299999982
vt 0.199999988 1
v 0.5 0.0110000595 -0.49999997
vt 0 1
v 0.300000012 0.0110000595 -0.49999997
vt 0 0.800000072
f 130/130 131/131 132/132
v 0.300000012 0.0110000353 -0.299999982
vt 0.200000003 0.800000072
v 0.299999982 0.011000012 -0.099999994
vt 0.400000006 0.800000012
v 0.49999997 0.011000012 -0.099999994
vt 0.399999976 0.999999881
f 133/133 134/134 135/135
v 0.49999997 0.011000012 -0.099999994
vt 0.399999976 0.999999881
v 0.5 0.0110000353 -0.299999982
vt 0.199999988 1
v 0.300000012 0.0110000353 -0.299999982
vt 0.200000003 0.800000072
f 136/136 137/137 138/138
v 0.299999982 0.011000012 -0.099999994
vt 0.400000006 0.800000012
v 0.299999982 0.0109999888 0.100000024
vt 0.600000024 0.800000072
v 0.49999997 0.0109999888 0.100000024
vt 0.600000024 1
f 139/139 140/140 141/141
v 0.49999997 0.0109999888 0.100000024
vt 0.600000024 1
v 0.49999997 0.011000012 -0.099999994
vt 0.399999976 0.999999881
v 0.299999982 0.011000012 -0.099999994
vt 0.400000006 0.800000012
f 142/142 143/143 144/144
v 0.299999982 0.0109999888 0.100000024
vt 0.600000024 0.800000072
v 0.299999982 0.0109999646 0.300000012
vt 0.800000012 0.800000012
v 0.49999997 0.0109999646 0.300000012
vt 0.800000012 1
f 145/145 146/146 147/147
v 0.49999997 0.0109999646 0.300000012
vt 0.800000012 1
v 0.49999997 0.0109999888 0.100000024
vt 0.600000024 1
v 0.299999982 0.0109999888 0.100000024
vt 0.600000024 0.800000072
f 148/148 149/149 150/150
